<svg class="main-svg" xmlns="http://www.w3.org/2000/svg" xmlns:xlink="http://www.w3.org/1999/xlink" width="700" height="500" style="" viewBox="0 0 700 500"><rect x="0" y="0" width="700" height="500" style="fill: rgb(255, 255, 255); fill-opacity: 1;"/><defs id="defs-cb4ae7"><g class="clips"><clipPath id="clipcb4ae7polar-for-traces"><path d="M160,0A160,160 0,1,0 -160,-1.9594348786357652e-14A160,160 0,1,0 160,3.9188697572715304e-14Z" transform="translate(160,160)"/></clipPath></g><g class="gradients"/><g class="patterns"/></defs><g class="bglayer"/><g class="layer-below"><g class="imagelayer"/><g class="shapelayer"/></g><g class="cartesianlayer"/><g class="polarlayer"><g class="polar"><g class="polarsublayer draglayer"/><g class="polarsublayer plotbg"><path d="M160,0A160,160 0,1,0 -160,-1.9594348786357652e-14A160,160 0,1,0 160,3.9188697572715304e-14Z" transform="translate(317.5,260)" style="fill: rgb(229, 236, 246); fill-opacity: 1;"/></g><g class="polarsublayer backplot"><g class="maplayer"/></g><g class="polarsublayer angular-grid" style="fill: none;"><path class="angularaxisgrid" d="M317.5,260L317.5,100" style="stroke: rgb(255, 255, 255); stroke-opacity: 1; stroke-width: 1px;"/><path class="angularaxisgrid" d="M317.5,260L430.6370849898476,146.8629150101524" style="stroke: rgb(255, 255, 255); stroke-opacity: 1; stroke-width: 1px;"/><path class="angularaxisgrid" d="M317.5,260L477.5,260" style="stroke: rgb(255, 255, 255); stroke-opacity: 1; stroke-width: 1px;"/><path class="angularaxisgrid" d="M317.5,260L430.6370849898476,373.1370849898476" style="stroke: rgb(255, 255, 255); stroke-opacity: 1; stroke-width: 1px;"/><path class="angularaxisgrid" d="M317.5,260L317.5,420" style="stroke: rgb(255, 255, 255); stroke-opacity: 1; stroke-width: 1px;"/><path class="angularaxisgrid" d="M317.5,260L204.3629150101524,373.1370849898476" style="stroke: rgb(255, 255, 255); stroke-opacity: 1; stroke-width: 1px;"/><path class="angularaxisgrid" d="M317.5,260L157.5,260" style="stroke: rgb(255, 255, 255); stroke-opacity: 1; stroke-width: 1px;"/><path class="angularaxisgrid" d="M317.5,260L204.36291501015236,146.8629150101524" style="stroke: rgb(255, 255, 255); stroke-opacity: 1; stroke-width: 1px;"/></g><g class="polarsublayer radial-grid" transform="translate(317.5,260)" style="fill: none;"><path class="xgrid" d="M20.76,0A20.76,20.76 0,1,0 -20.76,-2.5423667550299054e-15A20.76,20.76 0,1,0 20.76,5.084733510059811e-15Z" style="stroke: rgb(255, 255, 255); stroke-opacity: 1; stroke-width: 1px;"/><path class="xgrid" d="M41.53,0A41.53,41.53 0,1,0 -41.53,-5.085958156858958e-15A41.53,41.53 0,1,0 41.53,1.0171916313717915e-14Z" style="stroke: rgb(255, 255, 255); stroke-opacity: 1; stroke-width: 1px;"/><path class="xgrid" d="M62.29,0A62.29,62.29 0,1,0 -62.29,-7.628324911888863e-15A62.29,62.29 0,1,0 62.29,1.5256649823777725e-14Z" style="stroke: rgb(255, 255, 255); stroke-opacity: 1; stroke-width: 1px;"/><path class="xgrid" d="M83.06,0A83.06,83.06 0,1,0 -83.06,-1.0171916313717915e-14A83.06,83.06 0,1,0 83.06,2.034383262743583e-14Z" style="stroke: rgb(255, 255, 255); stroke-opacity: 1; stroke-width: 1px;"/><path class="xgrid" d="M103.82,0A103.82,103.82 0,1,0 -103.82,-1.271428306874782e-14A103.82,103.82 0,1,0 103.82,2.542856613749564e-14Z" style="stroke: rgb(255, 255, 255); stroke-opacity: 1; stroke-width: 1px;"/><path class="xgrid" d="M124.58,0A124.58,124.58 0,1,0 -124.58,-1.5256649823777725e-14A124.58,124.58 0,1,0 124.58,3.051329964755545e-14Z" style="stroke: rgb(255, 255, 255); stroke-opacity: 1; stroke-width: 1px;"/><path class="xgrid" d="M145.35,0A145.35,145.35 0,1,0 -145.35,-1.780024122560678e-14A145.35,145.35 0,1,0 145.35,3.560048245121356e-14Z" style="stroke: rgb(255, 255, 255); stroke-opacity: 1; stroke-width: 1px;"/></g><g class="polarsublayer frontplot" transform="translate(157.5,100)" clip-path="url(#clipcb4ae7polar-for-traces)"><g class="barlayer"><g class="trace bars" style="opacity: 1;"><g class="points"><g class="point" style="vector-effect: none; stroke-miterlimit: 2;"><path d="M160,160L169.44193563431483,134.40651356148382A27.27960220752964,27.27960220752964 0,0,0 150.55806436568517,134.40651356148382L160,160A0,0 0,0,1 160,160Z" style="opacity: 1; stroke-width: 0.5px; fill: rgb(254, 254, 253); fill-opacity: 1; stroke: rgb(229, 236, 246); stroke-opacity: 1;"/></g><g class="point" style="vector-effect: none; stroke-miterlimit: 2;"><path d="M160,160L202.5894883073332,140.36597696209097A46.89732801486257,46.89732801486257 0,0,0 179.63402303790903,117.4105116926668L160,160A0,0 0,0,1 160,160Z" style="opacity: 1; stroke-width: 0.5px; fill: rgb(254, 254, 253); fill-opacity: 1; stroke: rgb(229, 236, 246); stroke-opacity: 1;"/></g><g class="point" style="vector-effect: none; stroke-miterlimit: 2;"><path d="M160,160L216.37852725050212,180.7991367934774A60.09278181520135,60.09278181520135 0,0,0 216.37852725050212,139.20086320652263L160,160A0,0 0,0,1 160,160Z" style="opacity: 1; stroke-width: 0.5px; fill: rgb(254, 254, 253); fill-opacity: 1; stroke: rgb(229, 236, 246); stroke-opacity: 1;"/></g><g class="point" style="vector-effect: none; stroke-miterlimit: 2;"><path d="M160,160L167.99669609163755,177.34617475157876A19.10070487951478,19.10070487951478 0,0,0 177.34617475157876,167.99669609163752L160,160A0,0 0,0,1 160,160Z" style="opacity: 1; stroke-width: 0.5px; fill: rgb(254, 254, 253); fill-opacity: 1; stroke: rgb(229, 236, 246); stroke-opacity: 1;"/></g><g class="point" style="vector-effect: none; stroke-miterlimit: 2;"><path d="M160,160L148.3970124207632,191.45127405616103A33.52330473744604,33.52330473744604 0,0,0 171.6029875792368,191.45127405616103L160,160A0,0 0,0,1 160,160Z" style="opacity: 1; stroke-width: 0.5px; fill: rgb(254, 254, 253); fill-opacity: 1; stroke: rgb(229, 236, 246); stroke-opacity: 1;"/></g><g class="point" style="vector-effect: none; stroke-miterlimit: 2;"><path d="M160,160L121.11771677600237,177.92497808561427A42.815146713294354,42.815146713294354 0,0,0 142.07502191438573,198.88228322399763L160,160A0,0 0,0,1 160,160Z" style="opacity: 1; stroke-width: 0.5px; fill: rgb(254, 254, 253); fill-opacity: 1; stroke: rgb(229, 236, 246); stroke-opacity: 1;"/></g><g class="point" style="vector-effect: none; stroke-miterlimit: 2;"><path d="M160,160L125.51950753830596,147.2794747505425A36.75209004972405,36.75209004972405 0,0,0 125.51950753830596,172.72052524945752L160,160A0,0 0,0,1 160,160Z" style="opacity: 1; stroke-width: 0.5px; fill: rgb(254, 254, 253); fill-opacity: 1; stroke: rgb(229, 236, 246); stroke-opacity: 1;"/></g><g class="point" style="vector-effect: none; stroke-miterlimit: 2;"><path d="M160,160L152.40926728207643,143.53442788011895A18.1310310911972,18.1310310911972 0,0,0 143.53442788011895,152.40926728207643L160,160A0,0 0,0,1 160,160Z" style="opacity: 1; stroke-width: 0.5px; fill: rgb(254, 254, 253); fill-opacity: 1; stroke: rgb(229, 236, 246); stroke-opacity: 1;"/></g></g></g><g class="trace bars" style="opacity: 1;"><g class="points"><g class="point" style="vector-effect: none; stroke-miterlimit: 2;"><path d="M169.44193563431483,134.40651356148382L171.92639076354504,127.67210325413487A34.45767990820173,34.45767990820173 0,0,0 148.07360923645496,127.67210325413487L150.55806436568517,134.40651356148382A27.27960220752964,27.27960220752964 0,0,1 169.44193563431483,134.40651356148382Z" style="opacity: 1; stroke-width: 0.5px; fill: rgb(224, 224, 223); fill-opacity: 1; stroke: rgb(229, 236, 246); stroke-opacity: 1;"/></g><g class="point" style="vector-effect: none; stroke-miterlimit: 2;"><path d="M202.5894883073332,140.36597696209097L217.06946177372882,133.69061776134257A62.84192120649144,62.84192120649144 0,0,0 186.30938223865743,102.93053822627118L179.63402303790903,117.4105116926668A46.89732801486257,46.89732801486257 0,0,1 202.5894883073332,140.36597696209097Z" style="opacity: 1; stroke-width: 0.5px; fill: rgb(224, 224, 223); fill-opacity: 1; stroke: rgb(229, 236, 246); stroke-opacity: 1;"/></g><g class="point" style="vector-effect: none; stroke-miterlimit: 2;"><path d="M216.37852725050212,180.7991367934774L251.441486788244,193.73454549206417A97.46571225616086,97.46571225616086 0,0,0 251.441486788244,126.26545450793586L216.37852725050212,139.20086320652263A60.09278181520135,60.09278181520135 0,0,1 216.37852725050212,180.7991367934774Z" style="opacity: 1; stroke-width: 0.5px; fill: rgb(224, 224, 223); fill-opacity: 1; stroke: rgb(229, 236, 246); stroke-opacity: 1;"/></g><g class="point" style="vector-effect: none; stroke-miterlimit: 2;"><path d="M167.99669609163755,177.34617475157876L168.85730367188768,179.2129769044283A21.15633025517731,21.15633025517731 0,0,0 179.21297690442833,168.85730367188768L177.34617475157876,167.99669609163752A19.10070487951478,19.10070487951478 0,0,1 167.99669609163755,177.34617475157876Z" style="opacity: 1; stroke-width: 0.5px; fill: rgb(224, 224, 223); fill-opacity: 1; stroke: rgb(229, 236, 246); stroke-opacity: 1;"/></g><g class="point" style="vector-effect: none; stroke-miterlimit: 2;"><path d="M148.3970124207632,191.45127405616103L146.08719501105944,197.71230811106977A40.196819845910056,40.196819845910056 0,0,0 173.91280498894056,197.71230811106977L171.6029875792368,191.45127405616103A33.52330473744604,33.52330473744604 0,0,1 148.3970124207632,191.45127405616103Z" style="opacity: 1; stroke-width: 0.5px; fill: rgb(224, 224, 223); fill-opacity: 1; stroke: rgb(229, 236, 246); stroke-opacity: 1;"/></g><g class="point" style="vector-effect: none; stroke-miterlimit: 2;"><path d="M121.11771677600237,177.92497808561427L97.66955034096792,188.73473087390786A68.63504726517675,68.63504726517675 0,0,0 131.26526912609216,222.33044965903207L142.07502191438573,198.88228322399763A42.815146713294354,42.815146713294354 0,0,1 121.11771677600237,177.92497808561427Z" style="opacity: 1; stroke-width: 0.5px; fill: rgb(224, 224, 223); fill-opacity: 1; stroke: rgb(229, 236, 246); stroke-opacity: 1;"/></g><g class="point" style="vector-effect: none; stroke-miterlimit: 2;"><path d="M125.51950753830596,147.2794747505425L69.88318749841997,126.75415265311275A96.05376755368557,96.05376755368557 0,0,0 69.88318749841997,193.24584734688727L125.51950753830596,172.72052524945752A36.75209004972405,36.75209004972405 0,0,1 125.51950753830596,147.2794747505425Z" style="opacity: 1; stroke-width: 0.5px; fill: rgb(224, 224, 223); fill-opacity: 1; stroke: rgb(229, 236, 246); stroke-opacity: 1;"/></g><g class="point" style="vector-effect: none; stroke-miterlimit: 2;"><path d="M152.40926728207643,143.53442788011895L146.81792591220878,131.40587086281764A31.48636686519862,31.48636686519862 0,0,0 131.40587086281764,146.81792591220878L143.53442788011895,152.40926728207643A18.1310310911972,18.1310310911972 0,0,1 152.40926728207643,143.53442788011895Z" style="opacity: 1; stroke-width: 0.5px; fill: rgb(224, 224, 223); fill-opacity: 1; stroke: rgb(229, 236, 246); stroke-opacity: 1;"/></g></g></g><g class="trace bars" style="opacity: 1;"><g class="points"><g class="point" style="vector-effect: none; stroke-miterlimit: 2;"><path d="M171.92639076354504,127.67210325413487L172.0902483769279,127.22794775801813A34.93109666138462,34.93109666138462 0,0,0 147.9097516230721,127.22794775801813L148.07360923645496,127.67210325413487A34.45767990820173,34.45767990820173 0,0,1 171.92639076354504,127.67210325413487Z" style="opacity: 1; stroke-width: 0.5px; fill: rgb(197, 197, 195); fill-opacity: 1; stroke: rgb(229, 236, 246); stroke-opacity: 1;"/></g><g class="point" style="vector-effect: none; stroke-miterlimit: 2;"><path d="M217.06946177372882,133.69061776134257L218.03114773125736,133.24727446242582A63.9008797333479,63.9008797333479 0,0,0 186.75272553757418,101.96885226874264L186.30938223865743,102.93053822627118A62.84192120649144,62.84192120649144 0,0,1 217.06946177372882,133.69061776134257Z" style="opacity: 1; stroke-width: 0.5px; fill: rgb(197, 197, 195); fill-opacity: 1; stroke: rgb(229, 236, 246); stroke-opacity: 1;"/></g><g class="point" style="vector-effect: none; stroke-miterlimit: 2;"><path d="M251.441486788244,193.73454549206417L260.3518694164806,197.0217591921217A106.96311676957542,106.96311676957542 0,0,0 260.35186941648067,122.97824080787832L251.441486788244,126.26545450793586A97.46571225616086,97.46571225616086 0,0,1 251.441486788244,193.73454549206417Z" style="opacity: 1; stroke-width: 0.5px; fill: rgb(197, 197, 195); fill-opacity: 1; stroke: rgb(229, 236, 246); stroke-opacity: 1;"/></g><g class="point" style="vector-effect: none; stroke-miterlimit: 2;"><path d="M168.85730367188768,179.2129769044283L168.9198933140877,179.34874433372647A21.30583028249822,21.30583028249822 0,0,0 179.34874433372647,168.9198933140877L179.21297690442833,168.85730367188768A21.15633025517731,21.15633025517731 0,0,1 168.85730367188768,179.2129769044283Z" style="opacity: 1; stroke-width: 0.5px; fill: rgb(197, 197, 195); fill-opacity: 1; stroke: rgb(229, 236, 246); stroke-opacity: 1;"/></g><g class="point" style="vector-effect: none; stroke-miterlimit: 2;"><path d="M146.08719501105944,197.71230811106977L145.97076986470847,198.02789227936324A40.533194907382104,40.533194907382104 0,0,0 174.02923013529153,198.02789227936324L173.91280498894056,197.71230811106977A40.196819845910056,40.196819845910056 0,0,1 146.08719501105944,197.71230811106977Z" style="opacity: 1; stroke-width: 0.5px; fill: rgb(197, 197, 195); fill-opacity: 1; stroke: rgb(229, 236, 246); stroke-opacity: 1;"/></g><g class="point" style="vector-effect: none; stroke-miterlimit: 2;"><path d="M97.66955034096792,188.73473087390786L90.65678548597047,191.96765975365565A76.3571389541555,76.3571389541555 0,0,0 128.03234024634435,229.3432145140295L131.26526912609216,222.33044965903207A68.63504726517675,68.63504726517675 0,0,1 97.66955034096792,188.73473087390786Z" style="opacity: 1; stroke-width: 0.5px; fill: rgb(197, 197, 195); fill-opacity: 1; stroke: rgb(229, 236, 246); stroke-opacity: 1;"/></g><g class="point" style="vector-effect: none; stroke-miterlimit: 2;"><path d="M69.88318749841997,126.75415265311275L37.861134668740505,114.94059366720415A130.18545434675698,130.18545434675698 0,0,0 37.861134668740505,205.0594063327959L69.88318749841997,193.24584734688727A96.05376755368557,96.05376755368557 0,0,1 69.88318749841997,126.75415265311275Z" style="opacity: 1; stroke-width: 0.5px; fill: rgb(197, 197, 195); fill-opacity: 1; stroke: rgb(229, 236, 246); stroke-opacity: 1;"/></g><g class="point" style="vector-effect: none; stroke-miterlimit: 2;"><path d="M146.81792591220878,131.40587086281764L145.2775252736196,128.06448357509097A35.16572864870772,35.16572864870772 0,0,0 128.06448357509097,145.27752527361963L131.40587086281764,146.81792591220878A31.48636686519862,31.48636686519862 0,0,1 146.81792591220878,131.40587086281764Z" style="opacity: 1; stroke-width: 0.5px; fill: rgb(197, 197, 195); fill-opacity: 1; stroke: rgb(229, 236, 246); stroke-opacity: 1;"/></g></g></g><g class="trace bars" style="opacity: 1;"><g class="points"><g class="point" style="vector-effect: none; stroke-miterlimit: 2;"><path d="M172.0902483769279,127.22794775801813L172.09743511435695,127.2084672538025A34.95186055406808,34.95186055406808 0,0,0 147.90256488564305,127.2084672538025L147.9097516230721,127.22794775801813A34.93109666138462,34.93109666138462 0,0,1 172.0902483769279,127.22794775801813Z" style="opacity: 1; stroke-width: 0.5px; fill: rgb(171, 171, 170); fill-opacity: 1; stroke: rgb(229, 236, 246); stroke-opacity: 1;"/></g><g class="point" style="vector-effect: none; stroke-miterlimit: 2;"><path d="M218.03114773125736,133.24727446242582L218.05566129488065,133.23597355480638A63.92787279383639,63.92787279383639 0,0,0 186.76402644519362,101.94433870511935L186.75272553757418,101.96885226874264A63.9008797333479,63.9008797333479 0,0,1 218.03114773125736,133.24727446242582Z" style="opacity: 1; stroke-width: 0.5px; fill: rgb(171, 171, 170); fill-opacity: 1; stroke: rgb(229, 236, 246); stroke-opacity: 1;"/></g><g class="point" style="vector-effect: none; stroke-miterlimit: 2;"><path d="M260.3518694164806,197.0217591921217L261.5752450812232,197.4730863026674A108.2670892300967,108.2670892300967 0,0,0 261.5752450812232,122.52691369733259L260.35186941648067,122.97824080787832A106.96311676957542,106.96311676957542 0,0,1 260.3518694164806,197.0217591921217Z" style="opacity: 1; stroke-width: 0.5px; fill: rgb(171, 171, 170); fill-opacity: 1; stroke: rgb(229, 236, 246); stroke-opacity: 1;"/></g><g class="point" style="vector-effect: none; stroke-miterlimit: 2;"><path d="M168.9198933140877,179.34874433372647L168.9268477187766,179.36382960364847A21.32244139664499,21.32244139664499 0,0,0 179.36382960364847,168.92684771877657L179.34874433372647,168.9198933140877A21.30583028249822,21.30583028249822 0,0,1 168.9198933140877,179.34874433372647Z" style="opacity: 1; stroke-width: 0.5px; fill: rgb(171, 171, 170); fill-opacity: 1; stroke: rgb(229, 236, 246); stroke-opacity: 1;"/></g><g class="point" style="vector-effect: none; stroke-miterlimit: 2;"><path d="M145.97076986470847,198.02789227936324L145.96645782225104,198.03958058189264A40.54565324299218,40.54565324299218 0,0,0 174.03354217774898,198.03958058189264L174.02923013529153,198.02789227936324A40.533194907382104,40.533194907382104 0,0,1 145.97076986470847,198.02789227936324Z" style="opacity: 1; stroke-width: 0.5px; fill: rgb(171, 171, 170); fill-opacity: 1; stroke: rgb(229, 236, 246); stroke-opacity: 1;"/></g><g class="point" style="vector-effect: none; stroke-miterlimit: 2;"><path d="M90.65678548597047,191.96765975365565L88.34308221168119,193.03429157281417A78.90486858641603,78.90486858641603 0,0,0 126.96570842718583,231.65691778831882L128.03234024634435,229.3432145140295A76.3571389541555,76.3571389541555 0,0,1 90.65678548597047,191.96765975365565Z" style="opacity: 1; stroke-width: 0.5px; fill: rgb(171, 171, 170); fill-opacity: 1; stroke: rgb(229, 236, 246); stroke-opacity: 1;"/></g><g class="point" style="vector-effect: none; stroke-miterlimit: 2;"><path d="M37.861134668740505,114.94059366720415L24.061145482376617,109.8495088724495A144.89459592372,144.89459592372 0,0,0 24.061145482376617,210.15049112755054L37.861134668740505,205.0594063327959A130.18545434675698,130.18545434675698 0,0,1 37.861134668740505,114.94059366720415Z" style="opacity: 1; stroke-width: 0.5px; fill: rgb(171, 171, 170); fill-opacity: 1; stroke: rgb(229, 236, 246); stroke-opacity: 1;"/></g><g class="point" style="vector-effect: none; stroke-miterlimit: 2;"><path d="M145.2775252736196,128.06448357509097L145.05150712123069,127.57421230262545A35.70558985847767,35.70558985847767 0,0,0 127.57421230262545,145.05150712123069L128.06448357509097,145.27752527361963A35.16572864870772,35.16572864870772 0,0,1 145.2775252736196,128.06448357509097Z" style="opacity: 1; stroke-width: 0.5px; fill: rgb(171, 171, 170); fill-opacity: 1; stroke: rgb(229, 236, 246); stroke-opacity: 1;"/></g></g></g><g class="trace bars" style="opacity: 1;"><g class="points"><g class="point" style="vector-effect: none; stroke-miterlimit: 2;"><path d="M172.09743511435695,127.2084672538025L172.09815378809986,127.20651920338094A34.95393694333642,34.95393694333642 0,0,0 147.90184621190014,127.20651920338094L147.90256488564305,127.2084672538025A34.95186055406808,34.95186055406808 0,0,1 172.09743511435695,127.2084672538025Z" style="opacity: 1; stroke-width: 0.5px; fill: rgb(146, 146, 145); fill-opacity: 1; stroke: rgb(229, 236, 246); stroke-opacity: 1;"/></g><g class="point" style="vector-effect: none; stroke-miterlimit: 2;"><path d="M218.05566129488065,133.23597355480638L218.0575469536209,133.23510425422026A63.92994918310474,63.92994918310474 0,0,0 186.76489574577974,101.9424530463791L186.76402644519362,101.94433870511935A63.92787279383639,63.92787279383639 0,0,1 218.05566129488065,133.23597355480638Z" style="opacity: 1; stroke-width: 0.5px; fill: rgb(146, 146, 145); fill-opacity: 1; stroke: rgb(229, 236, 246); stroke-opacity: 1;"/></g><g class="point" style="vector-effect: none; stroke-miterlimit: 2;"><path d="M261.5752450812232,197.4730863026674L261.7155047115759,197.52483081215675A108.41658925741761,108.41658925741761 0,0,0 261.7155047115759,122.47516918784328L261.5752450812232,122.52691369733259A108.2670892300967,108.2670892300967 0,0,1 261.5752450812232,197.4730863026674Z" style="opacity: 1; stroke-width: 0.5px; fill: rgb(146, 146, 145); fill-opacity: 1; stroke: rgb(229, 236, 246); stroke-opacity: 1;"/></g><g class="point" style="vector-effect: none; stroke-miterlimit: 2;"><path d="M168.9268477187766,179.36382960364847L168.9277170193627,179.36571526238873A21.324517785913336,21.324517785913336 0,0,0 179.36571526238873,168.9277170193627L179.36382960364847,168.92684771877657A21.32244139664499,21.32244139664499 0,0,1 168.9268477187766,179.36382960364847Z" style="opacity: 1; stroke-width: 0.5px; fill: rgb(146, 146, 145); fill-opacity: 1; stroke: rgb(229, 236, 246); stroke-opacity: 1;"/></g><g class="point" style="vector-effect: none; stroke-miterlimit: 2;"><path d="M145.96645782225104,198.03958058189264L145.96502047476523,198.04347668273576A40.54980602152887,40.54980602152887 0,0,0 174.0349795252348,198.04347668273576L174.03354217774898,198.03958058189264A40.54565324299218,40.54565324299218 0,0,1 145.96645782225104,198.03958058189264Z" style="opacity: 1; stroke-width: 0.5px; fill: rgb(146, 146, 145); fill-opacity: 1; stroke: rgb(229, 236, 246); stroke-opacity: 1;"/></g><g class="point" style="vector-effect: none; stroke-miterlimit: 2;"><path d="M88.34308221168119,193.03429157281417L87.46059392124322,193.44112424711426A79.87661876400196,79.87661876400196 0,0,0 126.55887575288577,232.53940607875677L126.96570842718583,231.65691778831882A78.90486858641603,78.90486858641603 0,0,1 88.34308221168119,193.03429157281417Z" style="opacity: 1; stroke-width: 0.5px; fill: rgb(146, 146, 145); fill-opacity: 1; stroke: rgb(229, 236, 246); stroke-opacity: 1;"/></g><g class="point" style="vector-effect: none; stroke-miterlimit: 2;"><path d="M24.061145482376617,109.8495088724495L19.19101942846504,108.0528245151815A150.08556909458497,150.08556909458497 0,0,0 19.19101942846504,211.94717548481853L24.061145482376617,210.15049112755054A144.89459592372,144.89459592372 0,0,1 24.061145482376617,109.8495088724495Z" style="opacity: 1; stroke-width: 0.5px; fill: rgb(146, 146, 145); fill-opacity: 1; stroke: rgb(229, 236, 246); stroke-opacity: 1;"/></g><g class="point" style="vector-effect: none; stroke-miterlimit: 2;"><path d="M145.05150712123069,127.57421230262545L145.02803600540568,127.52329951663864A35.76165236872302,35.76165236872302 0,0,0 127.52329951663864,145.02803600540568L127.57421230262545,145.05150712123069A35.70558985847767,35.70558985847767 0,0,1 145.05150712123069,127.57421230262545Z" style="opacity: 1; stroke-width: 0.5px; fill: rgb(146, 146, 145); fill-opacity: 1; stroke: rgb(229, 236, 246); stroke-opacity: 1;"/></g></g></g><g class="trace bars" style="opacity: 1;"><g class="points"><g class="point" style="vector-effect: none; stroke-miterlimit: 2;"><path d="M0,0Z" style="opacity: 1; stroke-width: 0.5px; fill: rgb(124, 123, 122); fill-opacity: 1; stroke: rgb(229, 236, 246); stroke-opacity: 1;"/></g><g class="point" style="vector-effect: none; stroke-miterlimit: 2;"><path d="M0,0Z" style="opacity: 1; stroke-width: 0.5px; fill: rgb(124, 123, 122); fill-opacity: 1; stroke: rgb(229, 236, 246); stroke-opacity: 1;"/></g><g class="point" style="vector-effect: none; stroke-miterlimit: 2;"><path d="M261.7155047115759,197.52483081215675L261.719400812419,197.52626815964257A108.4207420359543,108.4207420359543 0,0,0 261.719400812419,122.47373184035746L261.7155047115759,122.47516918784328A108.41658925741761,108.41658925741761 0,0,1 261.7155047115759,197.52483081215675Z" style="opacity: 1; stroke-width: 0.5px; fill: rgb(124, 123, 122); fill-opacity: 1; stroke: rgb(229, 236, 246); stroke-opacity: 1;"/></g><g class="point" style="vector-effect: none; stroke-miterlimit: 2;"><path d="M0,0Z" style="opacity: 1; stroke-width: 0.5px; fill: rgb(124, 123, 122); fill-opacity: 1; stroke: rgb(229, 236, 246); stroke-opacity: 1;"/></g><g class="point" style="vector-effect: none; stroke-miterlimit: 2;"><path d="M0,0Z" style="opacity: 1; stroke-width: 0.5px; fill: rgb(124, 123, 122); fill-opacity: 1; stroke: rgb(229, 236, 246); stroke-opacity: 1;"/></g><g class="point" style="vector-effect: none; stroke-miterlimit: 2;"><path d="M87.46059392124322,193.44112424711426L87.14191759414061,193.58803604616705A80.22752855035243,80.22752855035243 0,0,0 126.41196395383295,232.8580824058594L126.55887575288577,232.53940607875677A79.87661876400196,79.87661876400196 0,0,1 87.46059392124322,193.44112424711426Z" style="opacity: 1; stroke-width: 0.5px; fill: rgb(124, 123, 122); fill-opacity: 1; stroke: rgb(229, 236, 246); stroke-opacity: 1;"/></g><g class="point" style="vector-effect: none; stroke-miterlimit: 2;"><path d="M19.19101942846504,108.0528245151815L17.77868287283067,107.53178605157377A151.59095131413582,151.59095131413582 0,0,0 17.77868287283067,212.46821394842624L19.19101942846504,211.94717548481853A150.08556909458497,150.08556909458497 0,0,1 19.19101942846504,108.0528245151815Z" style="opacity: 1; stroke-width: 0.5px; fill: rgb(124, 123, 122); fill-opacity: 1; stroke: rgb(229, 236, 246); stroke-opacity: 1;"/></g><g class="point" style="vector-effect: none; stroke-miterlimit: 2;"><path d="M145.02803600540568,127.52329951663864L145.02455880306124,127.51575688167763A35.7699579257964,35.7699579257964 0,0,0 127.51575688167763,145.02455880306124L127.52329951663864,145.02803600540568A35.76165236872302,35.76165236872302 0,0,1 145.02803600540568,127.52329951663864Z" style="opacity: 1; stroke-width: 0.5px; fill: rgb(124, 123, 122); fill-opacity: 1; stroke: rgb(229, 236, 246); stroke-opacity: 1;"/></g></g></g><g class="trace bars" style="opacity: 1;"><g class="points"><g class="point" style="vector-effect: none; stroke-miterlimit: 2;"><path d="M0,0Z" style="opacity: 1; stroke-width: 0.5px; fill: rgb(102, 101, 101); fill-opacity: 1; stroke: rgb(229, 236, 246); stroke-opacity: 1;"/></g><g class="point" style="vector-effect: none; stroke-miterlimit: 2;"><path d="M0,0Z" style="opacity: 1; stroke-width: 0.5px; fill: rgb(102, 101, 101); fill-opacity: 1; stroke: rgb(229, 236, 246); stroke-opacity: 1;"/></g><g class="point" style="vector-effect: none; stroke-miterlimit: 2;"><path d="M0,0Z" style="opacity: 1; stroke-width: 0.5px; fill: rgb(102, 101, 101); fill-opacity: 1; stroke: rgb(229, 236, 246); stroke-opacity: 1;"/></g><g class="point" style="vector-effect: none; stroke-miterlimit: 2;"><path d="M0,0Z" style="opacity: 1; stroke-width: 0.5px; fill: rgb(102, 101, 101); fill-opacity: 1; stroke: rgb(229, 236, 246); stroke-opacity: 1;"/></g><g class="point" style="vector-effect: none; stroke-miterlimit: 2;"><path d="M0,0Z" style="opacity: 1; stroke-width: 0.5px; fill: rgb(102, 101, 101); fill-opacity: 1; stroke: rgb(229, 236, 246); stroke-opacity: 1;"/></g><g class="point" style="vector-effect: none; stroke-miterlimit: 2;"><path d="M87.14191759414061,193.58803604616705L87.05706295082926,193.62715457254205A80.320966067428,80.320966067428 0,0,0 126.37284542745795,232.94293704917072L126.41196395383295,232.8580824058594A80.22752855035243,80.22752855035243 0,0,1 87.14191759414061,193.58803604616705Z" style="opacity: 1; stroke-width: 0.5px; fill: rgb(102, 101, 101); fill-opacity: 1; stroke: rgb(229, 236, 246); stroke-opacity: 1;"/></g><g class="point" style="vector-effect: none; stroke-miterlimit: 2;"><path d="M17.77868287283067,107.53178605157377L17.45335845242937,107.41176753650828A151.9377083219496,151.9377083219496 0,0,0 17.45335845242937,212.58823246349175L17.77868287283067,212.46821394842624A151.59095131413582,151.59095131413582 0,0,1 17.77868287283067,107.53178605157377Z" style="opacity: 1; stroke-width: 0.5px; fill: rgb(102, 101, 101); fill-opacity: 1; stroke: rgb(229, 236, 246); stroke-opacity: 1;"/></g><g class="point" style="vector-effect: none; stroke-miterlimit: 2;"><path d="M145.02455880306124,127.51575688167763L145.02368950247512,127.51387122293738A35.772034315064744,35.772034315064744 0,0,0 127.51387122293738,145.02368950247512L127.51575688167763,145.02455880306124A35.7699579257964,35.7699579257964 0,0,1 145.02455880306124,127.51575688167763Z" style="opacity: 1; stroke-width: 0.5px; fill: rgb(102, 101, 101); fill-opacity: 1; stroke: rgb(229, 236, 246); stroke-opacity: 1;"/></g></g></g><g class="trace bars" style="opacity: 1;"><g class="points"><g class="point" style="vector-effect: none; stroke-miterlimit: 2;"><path d="M0,0Z" style="opacity: 1; stroke-width: 0.5px; fill: rgb(81, 80, 80); fill-opacity: 1; stroke: rgb(229, 236, 246); stroke-opacity: 1;"/></g><g class="point" style="vector-effect: none; stroke-miterlimit: 2;"><path d="M0,0Z" style="opacity: 1; stroke-width: 0.5px; fill: rgb(81, 80, 80); fill-opacity: 1; stroke: rgb(229, 236, 246); stroke-opacity: 1;"/></g><g class="point" style="vector-effect: none; stroke-miterlimit: 2;"><path d="M0,0Z" style="opacity: 1; stroke-width: 0.5px; fill: rgb(81, 80, 80); fill-opacity: 1; stroke: rgb(229, 236, 246); stroke-opacity: 1;"/></g><g class="point" style="vector-effect: none; stroke-miterlimit: 2;"><path d="M0,0Z" style="opacity: 1; stroke-width: 0.5px; fill: rgb(81, 80, 80); fill-opacity: 1; stroke: rgb(229, 236, 246); stroke-opacity: 1;"/></g><g class="point" style="vector-effect: none; stroke-miterlimit: 2;"><path d="M0,0Z" style="opacity: 1; stroke-width: 0.5px; fill: rgb(81, 80, 80); fill-opacity: 1; stroke: rgb(229, 236, 246); stroke-opacity: 1;"/></g><g class="point" style="vector-effect: none; stroke-miterlimit: 2;"><path d="M87.05706295082926,193.62715457254205L87.03066372846574,193.63932478074761A80.35003551718485,80.35003551718485 0,0,0 126.36067521925239,232.96933627153425L126.37284542745795,232.94293704917072A80.320966067428,80.320966067428 0,0,1 87.05706295082926,193.62715457254205Z" style="opacity: 1; stroke-width: 0.5px; fill: rgb(81, 80, 80); fill-opacity: 1; stroke: rgb(229, 236, 246); stroke-opacity: 1;"/></g><g class="point" style="vector-effect: none; stroke-miterlimit: 2;"><path d="M17.45335845242937,107.41176753650828L17.394916939782462,107.39020732422107A151.99999999999997,151.99999999999997 0,0,0 17.394916939782462,212.60979267577898L17.45335845242937,212.58823246349175A151.9377083219496,151.9377083219496 0,0,1 17.45335845242937,107.41176753650828Z" style="opacity: 1; stroke-width: 0.5px; fill: rgb(81, 80, 80); fill-opacity: 1; stroke: rgb(229, 236, 246); stroke-opacity: 1;"/></g><g class="point" style="vector-effect: none; stroke-miterlimit: 2;"><path d="M0,0Z" style="opacity: 1; stroke-width: 0.5px; fill: rgb(81, 80, 80); fill-opacity: 1; stroke: rgb(229, 236, 246); stroke-opacity: 1;"/></g></g></g></g><g class="scatterlayer"/></g><g class="polarsublayer angular-line"><path d="M160,0A160,160 0,1,0 -160,-1.9594348786357652e-14A160,160 0,1,0 160,3.9188697572715304e-14Z" transform="translate(317.5,260)" stroke-width="1" style="fill: none; stroke: rgb(255, 255, 255); stroke-opacity: 1;"/></g><g class="polarsublayer radial-line"><line x1="0" y1="0" x2="160" y2="0" transform="translate(317.5,260)" stroke-width="1" style="fill: none; stroke: rgb(255, 255, 255); stroke-opacity: 1;"/></g><g class="polarsublayer angular-axis"><g class="angularaxistick"><text text-anchor="middle" x="1.7757378587636624e-16" y="-5.300000000000001" transform="translate(317.5,100)" style="font-family: 'Open Sans', verdana, arial, sans-serif; font-size: 12px; fill: rgb(42, 63, 95); fill-opacity: 1; white-space: pre; opacity: 1;">N</text></g><g class="angularaxistick"><text text-anchor="start" x="2.050609665440988" y="-0.7778174593052025" transform="translate(430.6370849898476,146.8629150101524)" style="font-family: 'Open Sans', verdana, arial, sans-serif; font-size: 12px; fill: rgb(42, 63, 95); fill-opacity: 1; white-space: pre; opacity: 1;">NE</text></g><g class="angularaxistick"><text text-anchor="start" x="2.9000000000000004" y="4.199999999999999" transform="translate(477.5,260)" style="font-family: 'Open Sans', verdana, arial, sans-serif; font-size: 12px; fill: rgb(42, 63, 95); fill-opacity: 1; white-space: pre; opacity: 1;">E</text></g><g class="angularaxistick"><text text-anchor="start" x="2.050609665440988" y="13.505739520663056" transform="translate(430.6370849898476,373.1370849898476)" style="font-family: 'Open Sans', verdana, arial, sans-serif; font-size: 12px; fill: rgb(42, 63, 95); fill-opacity: 1; white-space: pre; opacity: 1;">SE</text></g><g class="angularaxistick"><text text-anchor="middle" x="1.7757378587636624e-16" y="14.9" transform="translate(317.5,420)" style="font-family: 'Open Sans', verdana, arial, sans-serif; font-size: 12px; fill: rgb(42, 63, 95); fill-opacity: 1; white-space: pre; opacity: 1;">S</text></g><g class="angularaxistick"><text text-anchor="end" x="-2.0506096654409878" y="13.505739520663058" transform="translate(204.3629150101524,373.1370849898476)" style="font-family: 'Open Sans', verdana, arial, sans-serif; font-size: 12px; fill: rgb(42, 63, 95); fill-opacity: 1; white-space: pre; opacity: 1;">SW</text></g><g class="angularaxistick"><text text-anchor="end" x="-2.9000000000000004" y="4.200000000000001" transform="translate(157.5,260)" style="font-family: 'Open Sans', verdana, arial, sans-serif; font-size: 12px; fill: rgb(42, 63, 95); fill-opacity: 1; white-space: pre; opacity: 1;">W</text></g><g class="angularaxistick"><text text-anchor="end" x="-2.0506096654409887" y="-0.7778174593052021" transform="translate(204.36291501015236,146.8629150101524)" style="font-family: 'Open Sans', verdana, arial, sans-serif; font-size: 12px; fill: rgb(42, 63, 95); fill-opacity: 1; white-space: pre; opacity: 1;">NW</text></g></g><g class="polarsublayer radial-axis" transform="translate(317.5,260)"><g class="xtick"><text text-anchor="start" x="0" y="14.9" transform=" rotate(90,0,8.9)" style="font-family: 'Open Sans', verdana, arial, sans-serif; font-size: 12px; fill: rgb(42, 63, 95); fill-opacity: 1; white-space: pre; opacity: 1;">0</text></g><g class="xtick"><text text-anchor="start" x="0" y="14.9" transform="translate(20.76,0) rotate(90,0,8.9)" style="font-family: 'Open Sans', verdana, arial, sans-serif; font-size: 12px; fill: rgb(42, 63, 95); fill-opacity: 1; white-space: pre; opacity: 1;">10k</text></g><g class="xtick"><text text-anchor="start" x="0" y="14.9" transform="translate(41.53,0) rotate(90,0,8.9)" style="font-family: 'Open Sans', verdana, arial, sans-serif; font-size: 12px; fill: rgb(42, 63, 95); fill-opacity: 1; white-space: pre; opacity: 1;">20k</text></g><g class="xtick"><text text-anchor="start" x="0" y="14.9" transform="translate(62.29,0) rotate(90,0,8.9)" style="font-family: 'Open Sans', verdana, arial, sans-serif; font-size: 12px; fill: rgb(42, 63, 95); fill-opacity: 1; white-space: pre; opacity: 1;">30k</text></g><g class="xtick"><text text-anchor="start" x="0" y="14.9" transform="translate(83.06,0) rotate(90,0,8.9)" style="font-family: 'Open Sans', verdana, arial, sans-serif; font-size: 12px; fill: rgb(42, 63, 95); fill-opacity: 1; white-space: pre; opacity: 1;">40k</text></g><g class="xtick"><text text-anchor="start" x="0" y="14.9" transform="translate(103.82,0) rotate(90,0,8.9)" style="font-family: 'Open Sans', verdana, arial, sans-serif; font-size: 12px; fill: rgb(42, 63, 95); fill-opacity: 1; white-space: pre; opacity: 1;">50k</text></g><g class="xtick"><text text-anchor="start" x="0" y="14.9" transform="translate(124.58,0) rotate(90,0,8.9)" style="font-family: 'Open Sans', verdana, arial, sans-serif; font-size: 12px; fill: rgb(42, 63, 95); fill-opacity: 1; white-space: pre; opacity: 1;">60k</text></g><g class="xtick"><text text-anchor="start" x="0" y="14.9" transform="translate(145.35,0) rotate(90,0,8.9)" style="font-family: 'Open Sans', verdana, arial, sans-serif; font-size: 12px; fill: rgb(42, 63, 95); fill-opacity: 1; white-space: pre; opacity: 1;">70k</text></g></g></g></g><g class="smithlayer"/><g class="ternarylayer"/><g class="geolayer"/><g class="funnelarealayer"/><g class="pielayer"/><g class="iciclelayer"/><g class="treemaplayer"/><g class="sunburstlayer"/><g class="glimages"/><defs id="topdefs-cb4ae7"><g class="clips"/><clipPath id="legendcb4ae7"><rect width="123" height="181" x="0" y="0"/></clipPath></defs><g class="layer-above"><g class="imagelayer"/><g class="shapelayer"/></g><g class="infolayer"><g class="legend" pointer-events="all" transform="translate(564.5,100)"><rect class="bg" shape-rendering="crispEdges" width="123" height="181" x="0" y="0" style="stroke: rgb(68, 68, 68); stroke-opacity: 1; fill: rgb(255, 255, 255); fill-opacity: 1; stroke-width: 0px;"/><g class="scrollbox" transform="" clip-path="url(#legendcb4ae7)"><text class="legendtitletext" text-anchor="start" x="2" y="18.2" style="font-family: 'Open Sans', verdana, arial, sans-serif; font-size: 14px; fill: rgb(42, 63, 95); fill-opacity: 1; white-space: pre;">SpeedRange [m/s]</text><g class="groups" transform=""><g class="traces" transform="translate(0,32.7)" style="opacity: 1;"><text class="legendtext" text-anchor="start" x="40" y="4.680000000000001" style="font-family: 'Open Sans', verdana, arial, sans-serif; font-size: 12px; fill: rgb(42, 63, 95); fill-opacity: 1; white-space: pre;">&#60;2.5</text><g class="layers" style="opacity: 1;"><g class="legendfill"/><g class="legendlines"/><g class="legendsymbols"><g class="legendpoints"><path class="legendundefined" d="M6,6H-6V-6H6Z" transform="translate(20,0)" style="stroke-width: 0.5px; fill: rgb(254, 254, 253); fill-opacity: 1; stroke: rgb(229, 236, 246); stroke-opacity: 1;"/></g></g></g><rect class="legendtoggle" x="0" y="-9.5" width="91.5625" height="19" style="fill: rgb(0, 0, 0); fill-opacity: 0;"/></g></g><g class="groups" transform=""><g class="traces" transform="translate(0,51.7)" style="opacity: 1;"><text class="legendtext" text-anchor="start" x="40" y="4.680000000000001" style="font-family: 'Open Sans', verdana, arial, sans-serif; font-size: 12px; fill: rgb(42, 63, 95); fill-opacity: 1; white-space: pre;">2.5-5.0</text><g class="layers" style="opacity: 1;"><g class="legendfill"/><g class="legendlines"/><g class="legendsymbols"><g class="legendpoints"><path class="legendundefined" d="M6,6H-6V-6H6Z" transform="translate(20,0)" style="stroke-width: 0.5px; fill: rgb(224, 224, 223); fill-opacity: 1; stroke: rgb(229, 236, 246); stroke-opacity: 1;"/></g></g></g><rect class="legendtoggle" x="0" y="-9.5" width="91.5625" height="19" style="fill: rgb(0, 0, 0); fill-opacity: 0;"/></g></g><g class="groups" transform=""><g class="traces" transform="translate(0,70.7)" style="opacity: 1;"><text class="legendtext" text-anchor="start" x="40" y="4.680000000000001" style="font-family: 'Open Sans', verdana, arial, sans-serif; font-size: 12px; fill: rgb(42, 63, 95); fill-opacity: 1; white-space: pre;">5.0-7.5</text><g class="layers" style="opacity: 1;"><g class="legendfill"/><g class="legendlines"/><g class="legendsymbols"><g class="legendpoints"><path class="legendundefined" d="M6,6H-6V-6H6Z" transform="translate(20,0)" style="stroke-width: 0.5px; fill: rgb(197, 197, 195); fill-opacity: 1; stroke: rgb(229, 236, 246); stroke-opacity: 1;"/></g></g></g><rect class="legendtoggle" x="0" y="-9.5" width="91.5625" height="19" style="fill: rgb(0, 0, 0); fill-opacity: 0;"/></g></g><g class="groups" transform=""><g class="traces" transform="translate(0,89.7)" style="opacity: 1;"><text class="legendtext" text-anchor="start" x="40" y="4.680000000000001" style="font-family: 'Open Sans', verdana, arial, sans-serif; font-size: 12px; fill: rgb(42, 63, 95); fill-opacity: 1; white-space: pre;">7.5-10.0</text><g class="layers" style="opacity: 1;"><g class="legendfill"/><g class="legendlines"/><g class="legendsymbols"><g class="legendpoints"><path class="legendundefined" d="M6,6H-6V-6H6Z" transform="translate(20,0)" style="stroke-width: 0.5px; fill: rgb(171, 171, 170); fill-opacity: 1; stroke: rgb(229, 236, 246); stroke-opacity: 1;"/></g></g></g><rect class="legendtoggle" x="0" y="-9.5" width="91.5625" height="19" style="fill: rgb(0, 0, 0); fill-opacity: 0;"/></g></g><g class="groups" transform=""><g class="traces" transform="translate(0,108.7)" style="opacity: 1;"><text class="legendtext" text-anchor="start" x="40" y="4.680000000000001" style="font-family: 'Open Sans', verdana, arial, sans-serif; font-size: 12px; fill: rgb(42, 63, 95); fill-opacity: 1; white-space: pre;">10.0-12.5</text><g class="layers" style="opacity: 1;"><g class="legendfill"/><g class="legendlines"/><g class="legendsymbols"><g class="legendpoints"><path class="legendundefined" d="M6,6H-6V-6H6Z" transform="translate(20,0)" style="stroke-width: 0.5px; fill: rgb(146, 146, 145); fill-opacity: 1; stroke: rgb(229, 236, 246); stroke-opacity: 1;"/></g></g></g><rect class="legendtoggle" x="0" y="-9.5" width="91.5625" height="19" style="fill: rgb(0, 0, 0); fill-opacity: 0;"/></g></g><g class="groups" transform=""><g class="traces" transform="translate(0,127.7)" style="opacity: 1;"><text class="legendtext" text-anchor="start" x="40" y="4.680000000000001" style="font-family: 'Open Sans', verdana, arial, sans-serif; font-size: 12px; fill: rgb(42, 63, 95); fill-opacity: 1; white-space: pre;">12.5-15.0</text><g class="layers" style="opacity: 1;"><g class="legendfill"/><g class="legendlines"/><g class="legendsymbols"><g class="legendpoints"><path class="legendundefined" d="M6,6H-6V-6H6Z" transform="translate(20,0)" style="stroke-width: 0.5px; fill: rgb(124, 123, 122); fill-opacity: 1; stroke: rgb(229, 236, 246); stroke-opacity: 1;"/></g></g></g><rect class="legendtoggle" x="0" y="-9.5" width="91.5625" height="19" style="fill: rgb(0, 0, 0); fill-opacity: 0;"/></g></g><g class="groups" transform=""><g class="traces" transform="translate(0,146.7)" style="opacity: 1;"><text class="legendtext" text-anchor="start" x="40" y="4.680000000000001" style="font-family: 'Open Sans', verdana, arial, sans-serif; font-size: 12px; fill: rgb(42, 63, 95); fill-opacity: 1; white-space: pre;">15.0-17.5</text><g class="layers" style="opacity: 1;"><g class="legendfill"/><g class="legendlines"/><g class="legendsymbols"><g class="legendpoints"><path class="legendundefined" d="M6,6H-6V-6H6Z" transform="translate(20,0)" style="stroke-width: 0.5px; fill: rgb(102, 101, 101); fill-opacity: 1; stroke: rgb(229, 236, 246); stroke-opacity: 1;"/></g></g></g><rect class="legendtoggle" x="0" y="-9.5" width="91.5625" height="19" style="fill: rgb(0, 0, 0); fill-opacity: 0;"/></g></g><g class="groups" transform=""><g class="traces" transform="translate(0,165.7)" style="opacity: 1;"><text class="legendtext" text-anchor="start" x="40" y="4.680000000000001" style="font-family: 'Open Sans', verdana, arial, sans-serif; font-size: 12px; fill: rgb(42, 63, 95); fill-opacity: 1; white-space: pre;">17.5></text><g class="layers" style="opacity: 1;"><g class="legendfill"/><g class="legendlines"/><g class="legendsymbols"><g class="legendpoints"><path class="legendundefined" d="M6,6H-6V-6H6Z" transform="translate(20,0)" style="stroke-width: 0.5px; fill: rgb(81, 80, 80); fill-opacity: 1; stroke: rgb(229, 236, 246); stroke-opacity: 1;"/></g></g></g><rect class="legendtoggle" x="0" y="-9.5" width="91.5625" height="19" style="fill: rgb(0, 0, 0); fill-opacity: 0;"/></g></g></g><rect class="scrollbar" rx="20" ry="3" width="0" height="0" x="0" y="0" style="fill: rgb(128, 139, 164); fill-opacity: 1;"/></g><g class="g-gtitle"><text class="gtitle" x="35" y="50" text-anchor="start" dy="0em" style="font-family: 'Open Sans', verdana, arial, sans-serif; font-size: 17px; fill: rgb(42, 63, 95); opacity: 1; font-weight: normal; white-space: pre;">Wind direction and intensity in Munich airport</text></g><g class="g-polartitle"/></g></svg>