<svg class="main-svg" xmlns="http://www.w3.org/2000/svg" xmlns:xlink="http://www.w3.org/1999/xlink" width="700" height="500" style="" viewBox="0 0 700 500"><rect x="0" y="0" width="700" height="500" style="fill: rgb(255, 255, 255); fill-opacity: 1;"/><defs id="defs-1c29c3"><g class="clips"><clipPath id="clip1c29c3polar-for-traces"><path d="M160,0A160,160 0,1,0 -160,-1.9594348786357652e-14A160,160 0,1,0 160,3.9188697572715304e-14Z" transform="translate(160,160)"/></clipPath></g><g class="gradients"/><g class="patterns"/></defs><g class="bglayer"/><g class="layer-below"><g class="imagelayer"/><g class="shapelayer"/></g><g class="cartesianlayer"/><g class="polarlayer"><g class="polar"><g class="polarsublayer draglayer"/><g class="polarsublayer plotbg"><path d="M160,0A160,160 0,1,0 -160,-1.9594348786357652e-14A160,160 0,1,0 160,3.9188697572715304e-14Z" transform="translate(317.5,260)" style="fill: rgb(229, 236, 246); fill-opacity: 1;"/></g><g class="polarsublayer backplot"><g class="maplayer"/></g><g class="polarsublayer angular-grid" style="fill: none;"><path class="angularaxisgrid" d="M317.5,260L317.5,100" style="stroke: rgb(255, 255, 255); stroke-opacity: 1; stroke-width: 1px;"/><path class="angularaxisgrid" d="M317.5,260L430.6370849898476,146.8629150101524" style="stroke: rgb(255, 255, 255); stroke-opacity: 1; stroke-width: 1px;"/><path class="angularaxisgrid" d="M317.5,260L477.5,260" style="stroke: rgb(255, 255, 255); stroke-opacity: 1; stroke-width: 1px;"/><path class="angularaxisgrid" d="M317.5,260L430.6370849898476,373.1370849898476" style="stroke: rgb(255, 255, 255); stroke-opacity: 1; stroke-width: 1px;"/><path class="angularaxisgrid" d="M317.5,260L317.5,420" style="stroke: rgb(255, 255, 255); stroke-opacity: 1; stroke-width: 1px;"/><path class="angularaxisgrid" d="M317.5,260L204.3629150101524,373.1370849898476" style="stroke: rgb(255, 255, 255); stroke-opacity: 1; stroke-width: 1px;"/><path class="angularaxisgrid" d="M317.5,260L157.5,260" style="stroke: rgb(255, 255, 255); stroke-opacity: 1; stroke-width: 1px;"/><path class="angularaxisgrid" d="M317.5,260L204.36291501015236,146.8629150101524" style="stroke: rgb(255, 255, 255); stroke-opacity: 1; stroke-width: 1px;"/></g><g class="polarsublayer radial-grid" transform="translate(317.5,260)" style="fill: none;"><path class="xgrid" d="M25.62,0A25.62,25.62 0,1,0 -25.62,-3.137545099415519e-15A25.62,25.62 0,1,0 25.62,6.275090198831038e-15Z" style="stroke: rgb(255, 255, 255); stroke-opacity: 1; stroke-width: 1px;"/><path class="xgrid" d="M51.24,0A51.24,51.24 0,1,0 -51.24,-6.275090198831038e-15A51.24,51.24 0,1,0 51.24,1.2550180397662076e-14Z" style="stroke: rgb(255, 255, 255); stroke-opacity: 1; stroke-width: 1px;"/><path class="xgrid" d="M76.86,0A76.86,76.86 0,1,0 -76.86,-9.412635298246556e-15A76.86,76.86 0,1,0 76.86,1.8825270596493112e-14Z" style="stroke: rgb(255, 255, 255); stroke-opacity: 1; stroke-width: 1px;"/><path class="xgrid" d="M102.48,0A102.48,102.48 0,1,0 -102.48,-1.2550180397662076e-14A102.48,102.48 0,1,0 102.48,2.5100360795324153e-14Z" style="stroke: rgb(255, 255, 255); stroke-opacity: 1; stroke-width: 1px;"/><path class="xgrid" d="M128.09,0A128.09,128.09 0,1,0 -128.09,-1.5686500850278447e-14A128.09,128.09 0,1,0 128.09,3.1373001700556894e-14Z" style="stroke: rgb(255, 255, 255); stroke-opacity: 1; stroke-width: 1px;"/><path class="xgrid" d="M153.71,0A153.71,153.71 0,1,0 -153.71,-1.8824045949693967e-14A153.71,153.71 0,1,0 153.71,3.7648091899387934e-14Z" style="stroke: rgb(255, 255, 255); stroke-opacity: 1; stroke-width: 1px;"/></g><g class="polarsublayer frontplot" transform="translate(157.5,100)" clip-path="url(#clip1c29c3polar-for-traces)"><g class="barlayer"><g class="trace bars" style="opacity: 1;"><g class="points"><g class="point" style="vector-effect: none; stroke-miterlimit: 2;"><path d="M160,160L170.22561779065046,132.28225012471677A29.543813520756437,29.543813520756437 0,0,0 149.77438220934954,132.28225012471677L160,160A0,0 0,0,1 160,160Z" style="opacity: 1; stroke-width: 0.5px; fill: rgb(254, 254, 253); fill-opacity: 1; stroke: rgb(229, 236, 246); stroke-opacity: 1;"/></g><g class="point" style="vector-effect: none; stroke-miterlimit: 2;"><path d="M160,160L185.25027111559874,148.35946557470726A27.804284438152063,27.804284438152063 0,0,0 171.64053442529274,134.74972888440126L160,160A0,0 0,0,1 160,160Z" style="opacity: 1; stroke-width: 0.5px; fill: rgb(254, 254, 253); fill-opacity: 1; stroke: rgb(229, 236, 246); stroke-opacity: 1;"/></g><g class="point" style="vector-effect: none; stroke-miterlimit: 2;"><path d="M160,160L211.31581337472224,178.93140303766802A54.69653300972511,54.69653300972511 0,0,0 211.31581337472227,141.068596962332L160,160A0,0 0,0,1 160,160Z" style="opacity: 1; stroke-width: 0.5px; fill: rgb(254, 254, 253); fill-opacity: 1; stroke: rgb(229, 236, 246); stroke-opacity: 1;"/></g><g class="point" style="vector-effect: none; stroke-miterlimit: 2;"><path d="M160,160L168.47432622263318,178.38223459728604A20.24156006135073,20.24156006135073 0,0,0 178.38223459728607,168.47432622263318L160,160A0,0 0,0,1 160,160Z" style="opacity: 1; stroke-width: 0.5px; fill: rgb(254, 254, 253); fill-opacity: 1; stroke: rgb(229, 236, 246); stroke-opacity: 1;"/></g><g class="point" style="vector-effect: none; stroke-miterlimit: 2;"><path d="M160,160L147.24989956540384,194.56065950890545A36.83753855488699,36.83753855488699 0,0,0 172.75010043459616,194.56065950890545L160,160A0,0 0,0,1 160,160Z" style="opacity: 1; stroke-width: 0.5px; fill: rgb(254, 254, 253); fill-opacity: 1; stroke: rgb(229, 236, 246); stroke-opacity: 1;"/></g><g class="point" style="vector-effect: none; stroke-miterlimit: 2;"><path d="M160,160L117.57265787671072,179.5592726232045A46.71878107566028,46.71878107566028 0,0,0 140.4407273767955,202.4273421232893L160,160A0,0 0,0,1 160,160Z" style="opacity: 1; stroke-width: 0.5px; fill: rgb(254, 254, 253); fill-opacity: 1; stroke: rgb(229, 236, 246); stroke-opacity: 1;"/></g><g class="point" style="vector-effect: none; stroke-miterlimit: 2;"><path d="M160,160L114.29888170927546,143.13996733685156A48.711938109925676,48.711938109925676 0,0,0 114.29888170927546,176.86003266314847L160,160A0,0 0,0,1 160,160Z" style="opacity: 1; stroke-width: 0.5px; fill: rgb(254, 254, 253); fill-opacity: 1; stroke: rgb(229, 236, 246); stroke-opacity: 1;"/></g><g class="point" style="vector-effect: none; stroke-miterlimit: 2;"><path d="M160,160L150.02837477638013,138.36987279446038A23.81797036962128,23.81797036962128 0,0,0 138.36987279446038,150.02837477638013L160,160A0,0 0,0,1 160,160Z" style="opacity: 1; stroke-width: 0.5px; fill: rgb(254, 254, 253); fill-opacity: 1; stroke: rgb(229, 236, 246); stroke-opacity: 1;"/></g></g></g><g class="trace bars" style="opacity: 1;"><g class="points"><g class="point" style="vector-effect: none; stroke-miterlimit: 2;"><path d="M170.22561779065046,132.28225012471677L173.64302422189976,123.01896465651163A39.417370346024846,39.417370346024846 0,0,0 146.35697577810024,123.01896465651163L149.77438220934954,132.28225012471677A29.543813520756437,29.543813520756437 0,0,1 170.22561779065046,132.28225012471677Z" style="opacity: 1; stroke-width: 0.5px; fill: rgb(224, 224, 223); fill-opacity: 1; stroke: rgb(229, 236, 246); stroke-opacity: 1;"/></g><g class="point" style="vector-effect: none; stroke-miterlimit: 2;"><path d="M185.25027111559874,148.35946557470726L202.03647825639342,140.62091808751597A46.28838212738704,46.28838212738704 0,0,0 179.37908191248403,117.96352174360658L171.64053442529274,134.74972888440126A27.804284438152063,27.804284438152063 0,0,1 185.25027111559874,148.35946557470726Z" style="opacity: 1; stroke-width: 0.5px; fill: rgb(224, 224, 223); fill-opacity: 1; stroke: rgb(229, 236, 246); stroke-opacity: 1;"/></g><g class="point" style="vector-effect: none; stroke-miterlimit: 2;"><path d="M211.31581337472224,178.93140303766802L246.20095226562242,191.80121023620262A91.87992786233167,91.87992786233167 0,0,0 246.20095226562242,128.1987897637974L211.31581337472227,141.068596962332A54.69653300972511,54.69653300972511 0,0,1 211.31581337472224,178.93140303766802Z" style="opacity: 1; stroke-width: 0.5px; fill: rgb(224, 224, 223); fill-opacity: 1; stroke: rgb(229, 236, 246); stroke-opacity: 1;"/></g><g class="point" style="vector-effect: none; stroke-miterlimit: 2;"><path d="M168.47432622263318,178.38223459728604L171.64267955280133,185.2549242568713A27.809408235155317,27.809408235155317 0,0,0 185.2549242568713,171.6426795528013L178.38223459728607,168.47432622263318A20.24156006135073,20.24156006135073 0,0,1 168.47432622263318,178.38223459728604Z" style="opacity: 1; stroke-width: 0.5px; fill: rgb(224, 224, 223); fill-opacity: 1; stroke: rgb(229, 236, 246); stroke-opacity: 1;"/></g><g class="point" style="vector-effect: none; stroke-miterlimit: 2;"><path d="M147.24989956540384,194.56065950890545L143.8431337353935,203.79510236537772A46.68035259813588,46.68035259813588 0,0,0 176.1568662646065,203.79510236537772L172.75010043459616,194.56065950890545A36.83753855488699,36.83753855488699 0,0,1 147.24989956540384,194.56065950890545Z" style="opacity: 1; stroke-width: 0.5px; fill: rgb(224, 224, 223); fill-opacity: 1; stroke: rgb(229, 236, 246); stroke-opacity: 1;"/></g><g class="point" style="vector-effect: none; stroke-miterlimit: 2;"><path d="M117.57265787671072,179.5592726232045L88.6370988732369,192.89874803529017A78.58111274038868,78.58111274038868 0,0,0 127.10125196470986,231.36290112676312L140.4407273767955,202.4273421232893A46.71878107566028,46.71878107566028 0,0,1 117.57265787671072,179.5592726232045Z" style="opacity: 1; stroke-width: 0.5px; fill: rgb(224, 224, 223); fill-opacity: 1; stroke: rgb(229, 236, 246); stroke-opacity: 1;"/></g><g class="point" style="vector-effect: none; stroke-miterlimit: 2;"><path d="M114.29888170927546,143.13996733685156L51.41718102967438,119.94168320235644A115.73632670947734,115.73632670947734 0,0,0 51.41718102967438,200.05831679764358L114.29888170927546,176.86003266314847A48.711938109925676,48.711938109925676 0,0,1 114.29888170927546,143.13996733685156Z" style="opacity: 1; stroke-width: 0.5px; fill: rgb(224, 224, 223); fill-opacity: 1; stroke: rgb(229, 236, 246); stroke-opacity: 1;"/></g><g class="point" style="vector-effect: none; stroke-miterlimit: 2;"><path d="M150.02837477638013,138.36987279446038L141.3438260579064,119.53163035246251A44.56166253729079,44.56166253729079 0,0,0 119.53163035246251,141.3438260579064L138.36987279446038,150.02837477638013A23.81797036962128,23.81797036962128 0,0,1 150.02837477638013,138.36987279446038Z" style="opacity: 1; stroke-width: 0.5px; fill: rgb(224, 224, 223); fill-opacity: 1; stroke: rgb(229, 236, 246); stroke-opacity: 1;"/></g></g></g><g class="trace bars" style="opacity: 1;"><g class="points"><g class="point" style="vector-effect: none; stroke-miterlimit: 2;"><path d="M173.64302422189976,123.01896465651163L173.71041469641324,122.8362947822035A39.612074632148456,39.612074632148456 0,0,0 146.28958530358676,122.8362947822035L146.35697577810024,123.01896465651163A39.417370346024846,39.417370346024846 0,0,1 173.64302422189976,123.01896465651163Z" style="opacity: 1; stroke-width: 0.5px; fill: rgb(197, 197, 195); fill-opacity: 1; stroke: rgb(229, 236, 246); stroke-opacity: 1;"/></g><g class="point" style="vector-effect: none; stroke-miterlimit: 2;"><path d="M202.03647825639342,140.62091808751597L202.81587941954882,140.26160922982933A47.1466181254319,47.1466181254319 0,0,0 179.73839077017067,117.18412058045118L179.37908191248403,117.96352174360658A46.28838212738704,46.28838212738704 0,0,1 202.03647825639342,140.62091808751597Z" style="opacity: 1; stroke-width: 0.5px; fill: rgb(197, 197, 195); fill-opacity: 1; stroke: rgb(229, 236, 246); stroke-opacity: 1;"/></g><g class="point" style="vector-effect: none; stroke-miterlimit: 2;"><path d="M246.20095226562242,191.80121023620262L249.07800278597568,192.8626102097899A94.94652036877855,94.94652036877855 0,0,0 249.07800278597568,127.13738979021014L246.20095226562242,128.1987897637974A91.87992786233167,91.87992786233167 0,0,1 246.20095226562242,191.80121023620262Z" style="opacity: 1; stroke-width: 0.5px; fill: rgb(197, 197, 195); fill-opacity: 1; stroke: rgb(229, 236, 246); stroke-opacity: 1;"/></g><g class="point" style="vector-effect: none; stroke-miterlimit: 2;"><path d="M171.64267955280133,185.2549242568713L171.77782258584168,185.54807215704318A28.13220744636025,28.13220744636025 0,0,0 185.54807215704318,171.77782258584165L185.2549242568713,171.6426795528013A27.809408235155317,27.809408235155317 0,0,1 171.64267955280133,185.2549242568713Z" style="opacity: 1; stroke-width: 0.5px; fill: rgb(197, 197, 195); fill-opacity: 1; stroke: rgb(229, 236, 246); stroke-opacity: 1;"/></g><g class="point" style="vector-effect: none; stroke-miterlimit: 2;"><path d="M143.8431337353935,203.79510236537772L143.79879789689778,203.91527991426466A46.80844752321721,46.80844752321721 0,0,0 176.20120210310222,203.91527991426466L176.1568662646065,203.79510236537772A46.68035259813588,46.68035259813588 0,0,1 143.8431337353935,203.79510236537772Z" style="opacity: 1; stroke-width: 0.5px; fill: rgb(197, 197, 195); fill-opacity: 1; stroke: rgb(229, 236, 246); stroke-opacity: 1;"/></g><g class="point" style="vector-effect: none; stroke-miterlimit: 2;"><path d="M88.6370988732369,192.89874803529017L85.04022066954062,194.55693159942012A82.5418078239032,82.5418078239032 0,0,0 125.44306840057988,234.95977933045938L127.10125196470986,231.36290112676312A78.58111274038868,78.58111274038868 0,0,1 88.6370988732369,192.89874803529017Z" style="opacity: 1; stroke-width: 0.5px; fill: rgb(197, 197, 195); fill-opacity: 1; stroke: rgb(229, 236, 246); stroke-opacity: 1;"/></g><g class="point" style="vector-effect: none; stroke-miterlimit: 2;"><path d="M51.41718102967438,119.94168320235644L25.504497938672955,110.38198970591154A143.3561544555123,143.3561544555123 0,0,0 25.504497938672955,209.6180102940885L51.41718102967438,200.05831679764358A115.73632670947734,115.73632670947734 0,0,1 51.41718102967438,119.94168320235644Z" style="opacity: 1; stroke-width: 0.5px; fill: rgb(197, 197, 195); fill-opacity: 1; stroke: rgb(229, 236, 246); stroke-opacity: 1;"/></g><g class="point" style="vector-effect: none; stroke-miterlimit: 2;"><path d="M141.3438260579064,119.53163035246251L140.24230308225214,117.14224230899804A47.19273229846118,47.19273229846118 0,0,0 117.14224230899802,140.24230308225216L119.53163035246251,141.3438260579064A44.56166253729079,44.56166253729079 0,0,1 141.3438260579064,119.53163035246251Z" style="opacity: 1; stroke-width: 0.5px; fill: rgb(197, 197, 195); fill-opacity: 1; stroke: rgb(229, 236, 246); stroke-opacity: 1;"/></g></g></g><g class="trace bars" style="opacity: 1;"><g class="points"><g class="point" style="vector-effect: none; stroke-miterlimit: 2;"><path d="M0,0Z" style="opacity: 1; stroke-width: 0.5px; fill: rgb(171, 171, 170); fill-opacity: 1; stroke: rgb(229, 236, 246); stroke-opacity: 1;"/></g><g class="point" style="vector-effect: none; stroke-miterlimit: 2;"><path d="M202.81587941954882,140.26160922982933L202.8182059901851,140.26053666607504A47.14918002393353,47.14918002393353 0,0,0 179.73946333392496,117.18179400981488L179.73839077017067,117.18412058045118A47.1466181254319,47.1466181254319 0,0,1 202.81587941954882,140.26160922982933Z" style="opacity: 1; stroke-width: 0.5px; fill: rgb(171, 171, 170); fill-opacity: 1; stroke: rgb(229, 236, 246); stroke-opacity: 1;"/></g><g class="point" style="vector-effect: none; stroke-miterlimit: 2;"><path d="M249.07800278597568,192.8626102097899L249.12367025455274,192.87945782841825A94.99519644030946,94.99519644030946 0,0,0 249.12367025455274,127.12054217158175L249.07800278597568,127.13738979021014A94.94652036877855,94.94652036877855 0,0,1 249.07800278597568,192.8626102097899Z" style="opacity: 1; stroke-width: 0.5px; fill: rgb(171, 171, 170); fill-opacity: 1; stroke: rgb(229, 236, 246); stroke-opacity: 1;"/></g><g class="point" style="vector-effect: none; stroke-miterlimit: 2;"><path d="M171.77782258584168,185.54807215704318L171.77889514959597,185.55039872767946A28.13476934486188,28.13476934486188 0,0,0 185.55039872767946,171.77889514959594L185.54807215704318,171.77782258584165A28.13220744636025,28.13220744636025 0,0,1 171.77782258584168,185.54807215704318Z" style="opacity: 1; stroke-width: 0.5px; fill: rgb(171, 171, 170); fill-opacity: 1; stroke: rgb(229, 236, 246); stroke-opacity: 1;"/></g><g class="point" style="vector-effect: none; stroke-miterlimit: 2;"><path d="M143.79879789689778,203.91527991426466L143.79791118012787,203.9176834652424A46.811009421718836,46.811009421718836 0,0,0 176.20208881987213,203.9176834652424L176.20120210310222,203.91527991426466A46.80844752321721,46.80844752321721 0,0,1 143.79879789689778,203.91527991426466Z" style="opacity: 1; stroke-width: 0.5px; fill: rgb(171, 171, 170); fill-opacity: 1; stroke: rgb(229, 236, 246); stroke-opacity: 1;"/></g><g class="point" style="vector-effect: none; stroke-miterlimit: 2;"><path d="M85.04022066954062,194.55693159942012L84.41437316838001,194.84545124932373A83.23095852084072,83.23095852084072 0,0,0 125.15454875067628,235.58562683162L125.44306840057988,234.95977933045938A82.5418078239032,82.5418078239032 0,0,1 85.04022066954062,194.55693159942012Z" style="opacity: 1; stroke-width: 0.5px; fill: rgb(171, 171, 170); fill-opacity: 1; stroke: rgb(229, 236, 246); stroke-opacity: 1;"/></g><g class="point" style="vector-effect: none; stroke-miterlimit: 2;"><path d="M25.504497938672955,110.38198970591154L18.74571258927159,107.88854214891282A150.56021304208593,150.56021304208593 0,0,0 18.74571258927159,212.1114578510872L25.504497938672955,209.6180102940885A143.3561544555123,143.3561544555123 0,0,1 25.504497938672955,110.38198970591154Z" style="opacity: 1; stroke-width: 0.5px; fill: rgb(171, 171, 170); fill-opacity: 1; stroke: rgb(229, 236, 246); stroke-opacity: 1;"/></g><g class="point" style="vector-effect: none; stroke-miterlimit: 2;"><path d="M140.24230308225214,117.14224230899804L140.16615105569767,116.97705579382182A47.37462709207666,47.37462709207666 0,0,0 116.97705579382182,140.16615105569767L117.14224230899802,140.24230308225216A47.19273229846118,47.19273229846118 0,0,1 140.24230308225214,117.14224230899804Z" style="opacity: 1; stroke-width: 0.5px; fill: rgb(171, 171, 170); fill-opacity: 1; stroke: rgb(229, 236, 246); stroke-opacity: 1;"/></g></g></g><g class="trace bars" style="opacity: 1;"><g class="points"><g class="point" style="vector-effect: none; stroke-miterlimit: 2;"><path d="M0,0Z" style="opacity: 1; stroke-width: 0.5px; fill: rgb(146, 146, 145); fill-opacity: 1; stroke: rgb(229, 236, 246); stroke-opacity: 1;"/></g><g class="point" style="vector-effect: none; stroke-miterlimit: 2;"><path d="M0,0Z" style="opacity: 1; stroke-width: 0.5px; fill: rgb(146, 146, 145); fill-opacity: 1; stroke: rgb(229, 236, 246); stroke-opacity: 1;"/></g><g class="point" style="vector-effect: none; stroke-miterlimit: 2;"><path d="M0,0Z" style="opacity: 1; stroke-width: 0.5px; fill: rgb(146, 146, 145); fill-opacity: 1; stroke: rgb(229, 236, 246); stroke-opacity: 1;"/></g><g class="point" style="vector-effect: none; stroke-miterlimit: 2;"><path d="M0,0Z" style="opacity: 1; stroke-width: 0.5px; fill: rgb(146, 146, 145); fill-opacity: 1; stroke: rgb(229, 236, 246); stroke-opacity: 1;"/></g><g class="point" style="vector-effect: none; stroke-miterlimit: 2;"><path d="M0,0Z" style="opacity: 1; stroke-width: 0.5px; fill: rgb(146, 146, 145); fill-opacity: 1; stroke: rgb(229, 236, 246); stroke-opacity: 1;"/></g><g class="point" style="vector-effect: none; stroke-miterlimit: 2;"><path d="M84.41437316838001,194.84545124932373L84.31200406038349,194.8926440545124A83.34368205491228,83.34368205491228 0,0,0 125.1073559454876,235.6879959396165L125.15454875067628,235.58562683162A83.23095852084072,83.23095852084072 0,0,1 84.41437316838001,194.84545124932373Z" style="opacity: 1; stroke-width: 0.5px; fill: rgb(146, 146, 145); fill-opacity: 1; stroke: rgb(229, 236, 246); stroke-opacity: 1;"/></g><g class="point" style="vector-effect: none; stroke-miterlimit: 2;"><path d="M18.74571258927159,107.88854214891282L17.541533549424486,107.44429704718581A151.84372419140078,151.84372419140078 0,0,0 17.541533549424486,212.55570295281422L18.74571258927159,212.1114578510872A150.56021304208593,150.56021304208593 0,0,1 18.74571258927159,107.88854214891282Z" style="opacity: 1; stroke-width: 0.5px; fill: rgb(146, 146, 145); fill-opacity: 1; stroke: rgb(229, 236, 246); stroke-opacity: 1;"/></g><g class="point" style="vector-effect: none; stroke-miterlimit: 2;"><path d="M140.16615105569767,116.97705579382182L140.1629333644348,116.97007608191296A47.38231278758154,47.38231278758154 0,0,0 116.97007608191296,140.16293336443482L116.97705579382182,140.16615105569767A47.37462709207666,47.37462709207666 0,0,1 140.16615105569767,116.97705579382182Z" style="opacity: 1; stroke-width: 0.5px; fill: rgb(146, 146, 145); fill-opacity: 1; stroke: rgb(229, 236, 246); stroke-opacity: 1;"/></g></g></g><g class="trace bars" style="opacity: 1;"><g class="points"><g class="point" style="vector-effect: none; stroke-miterlimit: 2;"><path d="M0,0Z" style="opacity: 1; stroke-width: 0.5px; fill: rgb(124, 123, 122); fill-opacity: 1; stroke: rgb(229, 236, 246); stroke-opacity: 1;"/></g><g class="point" style="vector-effect: none; stroke-miterlimit: 2;"><path d="M0,0Z" style="opacity: 1; stroke-width: 0.5px; fill: rgb(124, 123, 122); fill-opacity: 1; stroke: rgb(229, 236, 246); stroke-opacity: 1;"/></g><g class="point" style="vector-effect: none; stroke-miterlimit: 2;"><path d="M0,0Z" style="opacity: 1; stroke-width: 0.5px; fill: rgb(124, 123, 122); fill-opacity: 1; stroke: rgb(229, 236, 246); stroke-opacity: 1;"/></g><g class="point" style="vector-effect: none; stroke-miterlimit: 2;"><path d="M0,0Z" style="opacity: 1; stroke-width: 0.5px; fill: rgb(124, 123, 122); fill-opacity: 1; stroke: rgb(229, 236, 246); stroke-opacity: 1;"/></g><g class="point" style="vector-effect: none; stroke-miterlimit: 2;"><path d="M0,0Z" style="opacity: 1; stroke-width: 0.5px; fill: rgb(124, 123, 122); fill-opacity: 1; stroke: rgb(229, 236, 246); stroke-opacity: 1;"/></g><g class="point" style="vector-effect: none; stroke-miterlimit: 2;"><path d="M84.31200406038349,194.8926440545124L84.30502434847463,194.89586174577528A83.35136775041715,83.35136775041715 0,0,0 125.10413825422472,235.69497565152537L125.1073559454876,235.6879959396165A83.34368205491228,83.34368205491228 0,0,1 84.31200406038349,194.8926440545124Z" style="opacity: 1; stroke-width: 0.5px; fill: rgb(124, 123, 122); fill-opacity: 1; stroke: rgb(229, 236, 246); stroke-opacity: 1;"/></g><g class="point" style="vector-effect: none; stroke-miterlimit: 2;"><path d="M17.541533549424486,107.44429704718581L17.40453114369336,107.3937541913007A151.9897524059935,151.9897524059935 0,0,0 17.40453114369336,212.60624580869933L17.541533549424486,212.55570295281422A151.84372419140078,151.84372419140078 0,0,1 17.541533549424486,107.44429704718581Z" style="opacity: 1; stroke-width: 0.5px; fill: rgb(124, 123, 122); fill-opacity: 1; stroke: rgb(229, 236, 246); stroke-opacity: 1;"/></g><g class="point" style="vector-effect: none; stroke-miterlimit: 2;"><path d="M0,0Z" style="opacity: 1; stroke-width: 0.5px; fill: rgb(124, 123, 122); fill-opacity: 1; stroke: rgb(229, 236, 246); stroke-opacity: 1;"/></g></g></g><g class="trace bars" style="opacity: 1;"><g class="points"><g class="point" style="vector-effect: none; stroke-miterlimit: 2;"><path d="M0,0Z" style="opacity: 1; stroke-width: 0.5px; fill: rgb(102, 101, 101); fill-opacity: 1; stroke: rgb(229, 236, 246); stroke-opacity: 1;"/></g><g class="point" style="vector-effect: none; stroke-miterlimit: 2;"><path d="M0,0Z" style="opacity: 1; stroke-width: 0.5px; fill: rgb(102, 101, 101); fill-opacity: 1; stroke: rgb(229, 236, 246); stroke-opacity: 1;"/></g><g class="point" style="vector-effect: none; stroke-miterlimit: 2;"><path d="M0,0Z" style="opacity: 1; stroke-width: 0.5px; fill: rgb(102, 101, 101); fill-opacity: 1; stroke: rgb(229, 236, 246); stroke-opacity: 1;"/></g><g class="point" style="vector-effect: none; stroke-miterlimit: 2;"><path d="M0,0Z" style="opacity: 1; stroke-width: 0.5px; fill: rgb(102, 101, 101); fill-opacity: 1; stroke: rgb(229, 236, 246); stroke-opacity: 1;"/></g><g class="point" style="vector-effect: none; stroke-miterlimit: 2;"><path d="M0,0Z" style="opacity: 1; stroke-width: 0.5px; fill: rgb(102, 101, 101); fill-opacity: 1; stroke: rgb(229, 236, 246); stroke-opacity: 1;"/></g><g class="point" style="vector-effect: none; stroke-miterlimit: 2;"><path d="M0,0Z" style="opacity: 1; stroke-width: 0.5px; fill: rgb(102, 101, 101); fill-opacity: 1; stroke: rgb(229, 236, 246); stroke-opacity: 1;"/></g><g class="point" style="vector-effect: none; stroke-miterlimit: 2;"><path d="M17.40453114369336,107.3937541913007L17.397320490760166,107.39109404099096A151.99743810149837,151.99743810149837 0,0,0 17.397320490760166,212.60890595900906L17.40453114369336,212.60624580869933A151.9897524059935,151.9897524059935 0,0,1 17.40453114369336,107.3937541913007Z" style="opacity: 1; stroke-width: 0.5px; fill: rgb(102, 101, 101); fill-opacity: 1; stroke: rgb(229, 236, 246); stroke-opacity: 1;"/></g><g class="point" style="vector-effect: none; stroke-miterlimit: 2;"><path d="M0,0Z" style="opacity: 1; stroke-width: 0.5px; fill: rgb(102, 101, 101); fill-opacity: 1; stroke: rgb(229, 236, 246); stroke-opacity: 1;"/></g></g></g><g class="trace bars" style="opacity: 1;"><g class="points"><g class="point" style="vector-effect: none; stroke-miterlimit: 2;"><path d="M0,0Z" style="opacity: 1; stroke-width: 0.5px; fill: rgb(81, 80, 80); fill-opacity: 1; stroke: rgb(229, 236, 246); stroke-opacity: 1;"/></g><g class="point" style="vector-effect: none; stroke-miterlimit: 2;"><path d="M0,0Z" style="opacity: 1; stroke-width: 0.5px; fill: rgb(81, 80, 80); fill-opacity: 1; stroke: rgb(229, 236, 246); stroke-opacity: 1;"/></g><g class="point" style="vector-effect: none; stroke-miterlimit: 2;"><path d="M0,0Z" style="opacity: 1; stroke-width: 0.5px; fill: rgb(81, 80, 80); fill-opacity: 1; stroke: rgb(229, 236, 246); stroke-opacity: 1;"/></g><g class="point" style="vector-effect: none; stroke-miterlimit: 2;"><path d="M0,0Z" style="opacity: 1; stroke-width: 0.5px; fill: rgb(81, 80, 80); fill-opacity: 1; stroke: rgb(229, 236, 246); stroke-opacity: 1;"/></g><g class="point" style="vector-effect: none; stroke-miterlimit: 2;"><path d="M0,0Z" style="opacity: 1; stroke-width: 0.5px; fill: rgb(81, 80, 80); fill-opacity: 1; stroke: rgb(229, 236, 246); stroke-opacity: 1;"/></g><g class="point" style="vector-effect: none; stroke-miterlimit: 2;"><path d="M0,0Z" style="opacity: 1; stroke-width: 0.5px; fill: rgb(81, 80, 80); fill-opacity: 1; stroke: rgb(229, 236, 246); stroke-opacity: 1;"/></g><g class="point" style="vector-effect: none; stroke-miterlimit: 2;"><path d="M17.397320490760166,107.39109404099096L17.394916939782433,107.39020732422105A152,152 0,0,0 17.394916939782433,212.60979267577898L17.397320490760166,212.60890595900906A151.99743810149837,151.99743810149837 0,0,1 17.397320490760166,107.39109404099096Z" style="opacity: 1; stroke-width: 0.5px; fill: rgb(81, 80, 80); fill-opacity: 1; stroke: rgb(229, 236, 246); stroke-opacity: 1;"/></g><g class="point" style="vector-effect: none; stroke-miterlimit: 2;"><path d="M0,0Z" style="opacity: 1; stroke-width: 0.5px; fill: rgb(81, 80, 80); fill-opacity: 1; stroke: rgb(229, 236, 246); stroke-opacity: 1;"/></g></g></g></g><g class="scatterlayer"/></g><g class="polarsublayer angular-line"><path d="M160,0A160,160 0,1,0 -160,-1.9594348786357652e-14A160,160 0,1,0 160,3.9188697572715304e-14Z" transform="translate(317.5,260)" stroke-width="1" style="fill: none; stroke: rgb(255, 255, 255); stroke-opacity: 1;"/></g><g class="polarsublayer radial-line"><line x1="0" y1="0" x2="160" y2="0" transform="translate(317.5,260)" stroke-width="1" style="fill: none; stroke: rgb(255, 255, 255); stroke-opacity: 1;"/></g><g class="polarsublayer angular-axis"><g class="angularaxistick"><text text-anchor="middle" x="1.7757378587636624e-16" y="-5.300000000000001" transform="translate(317.5,100)" style="font-family: 'Open Sans', verdana, arial, sans-serif; font-size: 12px; fill: rgb(42, 63, 95); fill-opacity: 1; white-space: pre; opacity: 1;">N</text></g><g class="angularaxistick"><text text-anchor="start" x="2.050609665440988" y="-0.7778174593052025" transform="translate(430.6370849898476,146.8629150101524)" style="font-family: 'Open Sans', verdana, arial, sans-serif; font-size: 12px; fill: rgb(42, 63, 95); fill-opacity: 1; white-space: pre; opacity: 1;">NE</text></g><g class="angularaxistick"><text text-anchor="start" x="2.9000000000000004" y="4.199999999999999" transform="translate(477.5,260)" style="font-family: 'Open Sans', verdana, arial, sans-serif; font-size: 12px; fill: rgb(42, 63, 95); fill-opacity: 1; white-space: pre; opacity: 1;">E</text></g><g class="angularaxistick"><text text-anchor="start" x="2.050609665440988" y="13.505739520663056" transform="translate(430.6370849898476,373.1370849898476)" style="font-family: 'Open Sans', verdana, arial, sans-serif; font-size: 12px; fill: rgb(42, 63, 95); fill-opacity: 1; white-space: pre; opacity: 1;">SE</text></g><g class="angularaxistick"><text text-anchor="middle" x="1.7757378587636624e-16" y="14.9" transform="translate(317.5,420)" style="font-family: 'Open Sans', verdana, arial, sans-serif; font-size: 12px; fill: rgb(42, 63, 95); fill-opacity: 1; white-space: pre; opacity: 1;">S</text></g><g class="angularaxistick"><text text-anchor="end" x="-2.0506096654409878" y="13.505739520663058" transform="translate(204.3629150101524,373.1370849898476)" style="font-family: 'Open Sans', verdana, arial, sans-serif; font-size: 12px; fill: rgb(42, 63, 95); fill-opacity: 1; white-space: pre; opacity: 1;">SW</text></g><g class="angularaxistick"><text text-anchor="end" x="-2.9000000000000004" y="4.200000000000001" transform="translate(157.5,260)" style="font-family: 'Open Sans', verdana, arial, sans-serif; font-size: 12px; fill: rgb(42, 63, 95); fill-opacity: 1; white-space: pre; opacity: 1;">W</text></g><g class="angularaxistick"><text text-anchor="end" x="-2.0506096654409887" y="-0.7778174593052021" transform="translate(204.36291501015236,146.8629150101524)" style="font-family: 'Open Sans', verdana, arial, sans-serif; font-size: 12px; fill: rgb(42, 63, 95); fill-opacity: 1; white-space: pre; opacity: 1;">NW</text></g></g><g class="polarsublayer radial-axis" transform="translate(317.5,260)"><g class="xtick"><text text-anchor="middle" x="0" y="14.9" transform="" style="font-family: 'Open Sans', verdana, arial, sans-serif; font-size: 12px; fill: rgb(42, 63, 95); fill-opacity: 1; white-space: pre; opacity: 1;">0</text></g><g class="xtick"><text text-anchor="middle" x="0" y="14.9" transform="translate(25.62,0)" style="font-family: 'Open Sans', verdana, arial, sans-serif; font-size: 12px; fill: rgb(42, 63, 95); fill-opacity: 1; white-space: pre; opacity: 1;">10k</text></g><g class="xtick"><text text-anchor="middle" x="0" y="14.9" transform="translate(51.24,0)" style="font-family: 'Open Sans', verdana, arial, sans-serif; font-size: 12px; fill: rgb(42, 63, 95); fill-opacity: 1; white-space: pre; opacity: 1;">20k</text></g><g class="xtick"><text text-anchor="middle" x="0" y="14.9" transform="translate(76.86,0)" style="font-family: 'Open Sans', verdana, arial, sans-serif; font-size: 12px; fill: rgb(42, 63, 95); fill-opacity: 1; white-space: pre; opacity: 1;">30k</text></g><g class="xtick"><text text-anchor="middle" x="0" y="14.9" transform="translate(102.48,0)" style="font-family: 'Open Sans', verdana, arial, sans-serif; font-size: 12px; fill: rgb(42, 63, 95); fill-opacity: 1; white-space: pre; opacity: 1;">40k</text></g><g class="xtick"><text text-anchor="middle" x="0" y="14.9" transform="translate(128.09,0)" style="font-family: 'Open Sans', verdana, arial, sans-serif; font-size: 12px; fill: rgb(42, 63, 95); fill-opacity: 1; white-space: pre; opacity: 1;">50k</text></g><g class="xtick"><text text-anchor="middle" x="0" y="14.9" transform="translate(153.71,0)" style="font-family: 'Open Sans', verdana, arial, sans-serif; font-size: 12px; fill: rgb(42, 63, 95); fill-opacity: 1; white-space: pre; opacity: 1;">60k</text></g></g></g></g><g class="smithlayer"/><g class="ternarylayer"/><g class="geolayer"/><g class="funnelarealayer"/><g class="pielayer"/><g class="iciclelayer"/><g class="treemaplayer"/><g class="sunburstlayer"/><g class="glimages"/><defs id="topdefs-1c29c3"><g class="clips"/><clipPath id="legend1c29c3"><rect width="123" height="181" x="0" y="0"/></clipPath></defs><g class="layer-above"><g class="imagelayer"/><g class="shapelayer"/></g><g class="infolayer"><g class="legend" pointer-events="all" transform="translate(564.5,100)"><rect class="bg" shape-rendering="crispEdges" width="123" height="181" x="0" y="0" style="stroke: rgb(68, 68, 68); stroke-opacity: 1; fill: rgb(255, 255, 255); fill-opacity: 1; stroke-width: 0px;"/><g class="scrollbox" transform="" clip-path="url(#legend1c29c3)"><text class="legendtitletext" text-anchor="start" x="2" y="18.2" style="font-family: 'Open Sans', verdana, arial, sans-serif; font-size: 14px; fill: rgb(42, 63, 95); fill-opacity: 1; white-space: pre;">SpeedRange [m/s]</text><g class="groups" transform=""><g class="traces" transform="translate(0,32.7)" style="opacity: 1;"><text class="legendtext" text-anchor="start" x="40" y="4.680000000000001" style="font-family: 'Open Sans', verdana, arial, sans-serif; font-size: 12px; fill: rgb(42, 63, 95); fill-opacity: 1; white-space: pre;">&#60;2.5</text><g class="layers" style="opacity: 1;"><g class="legendfill"/><g class="legendlines"/><g class="legendsymbols"><g class="legendpoints"><path class="legendundefined" d="M6,6H-6V-6H6Z" transform="translate(20,0)" style="stroke-width: 0.5px; fill: rgb(254, 254, 253); fill-opacity: 1; stroke: rgb(229, 236, 246); stroke-opacity: 1;"/></g></g></g><rect class="legendtoggle" x="0" y="-9.5" width="91.5625" height="19" style="fill: rgb(0, 0, 0); fill-opacity: 0;"/></g></g><g class="groups" transform=""><g class="traces" transform="translate(0,51.7)" style="opacity: 1;"><text class="legendtext" text-anchor="start" x="40" y="4.680000000000001" style="font-family: 'Open Sans', verdana, arial, sans-serif; font-size: 12px; fill: rgb(42, 63, 95); fill-opacity: 1; white-space: pre;">2.5-5.0</text><g class="layers" style="opacity: 1;"><g class="legendfill"/><g class="legendlines"/><g class="legendsymbols"><g class="legendpoints"><path class="legendundefined" d="M6,6H-6V-6H6Z" transform="translate(20,0)" style="stroke-width: 0.5px; fill: rgb(224, 224, 223); fill-opacity: 1; stroke: rgb(229, 236, 246); stroke-opacity: 1;"/></g></g></g><rect class="legendtoggle" x="0" y="-9.5" width="91.5625" height="19" style="fill: rgb(0, 0, 0); fill-opacity: 0;"/></g></g><g class="groups" transform=""><g class="traces" transform="translate(0,70.7)" style="opacity: 1;"><text class="legendtext" text-anchor="start" x="40" y="4.680000000000001" style="font-family: 'Open Sans', verdana, arial, sans-serif; font-size: 12px; fill: rgb(42, 63, 95); fill-opacity: 1; white-space: pre;">5.0-7.5</text><g class="layers" style="opacity: 1;"><g class="legendfill"/><g class="legendlines"/><g class="legendsymbols"><g class="legendpoints"><path class="legendundefined" d="M6,6H-6V-6H6Z" transform="translate(20,0)" style="stroke-width: 0.5px; fill: rgb(197, 197, 195); fill-opacity: 1; stroke: rgb(229, 236, 246); stroke-opacity: 1;"/></g></g></g><rect class="legendtoggle" x="0" y="-9.5" width="91.5625" height="19" style="fill: rgb(0, 0, 0); fill-opacity: 0;"/></g></g><g class="groups" transform=""><g class="traces" transform="translate(0,89.7)" style="opacity: 1;"><text class="legendtext" text-anchor="start" x="40" y="4.680000000000001" style="font-family: 'Open Sans', verdana, arial, sans-serif; font-size: 12px; fill: rgb(42, 63, 95); fill-opacity: 1; white-space: pre;">7.5-10.0</text><g class="layers" style="opacity: 1;"><g class="legendfill"/><g class="legendlines"/><g class="legendsymbols"><g class="legendpoints"><path class="legendundefined" d="M6,6H-6V-6H6Z" transform="translate(20,0)" style="stroke-width: 0.5px; fill: rgb(171, 171, 170); fill-opacity: 1; stroke: rgb(229, 236, 246); stroke-opacity: 1;"/></g></g></g><rect class="legendtoggle" x="0" y="-9.5" width="91.5625" height="19" style="fill: rgb(0, 0, 0); fill-opacity: 0;"/></g></g><g class="groups" transform=""><g class="traces" transform="translate(0,108.7)" style="opacity: 1;"><text class="legendtext" text-anchor="start" x="40" y="4.680000000000001" style="font-family: 'Open Sans', verdana, arial, sans-serif; font-size: 12px; fill: rgb(42, 63, 95); fill-opacity: 1; white-space: pre;">10.0-12.5</text><g class="layers" style="opacity: 1;"><g class="legendfill"/><g class="legendlines"/><g class="legendsymbols"><g class="legendpoints"><path class="legendundefined" d="M6,6H-6V-6H6Z" transform="translate(20,0)" style="stroke-width: 0.5px; fill: rgb(146, 146, 145); fill-opacity: 1; stroke: rgb(229, 236, 246); stroke-opacity: 1;"/></g></g></g><rect class="legendtoggle" x="0" y="-9.5" width="91.5625" height="19" style="fill: rgb(0, 0, 0); fill-opacity: 0;"/></g></g><g class="groups" transform=""><g class="traces" transform="translate(0,127.7)" style="opacity: 1;"><text class="legendtext" text-anchor="start" x="40" y="4.680000000000001" style="font-family: 'Open Sans', verdana, arial, sans-serif; font-size: 12px; fill: rgb(42, 63, 95); fill-opacity: 1; white-space: pre;">12.5-15.0</text><g class="layers" style="opacity: 1;"><g class="legendfill"/><g class="legendlines"/><g class="legendsymbols"><g class="legendpoints"><path class="legendundefined" d="M6,6H-6V-6H6Z" transform="translate(20,0)" style="stroke-width: 0.5px; fill: rgb(124, 123, 122); fill-opacity: 1; stroke: rgb(229, 236, 246); stroke-opacity: 1;"/></g></g></g><rect class="legendtoggle" x="0" y="-9.5" width="91.5625" height="19" style="fill: rgb(0, 0, 0); fill-opacity: 0;"/></g></g><g class="groups" transform=""><g class="traces" transform="translate(0,146.7)" style="opacity: 1;"><text class="legendtext" text-anchor="start" x="40" y="4.680000000000001" style="font-family: 'Open Sans', verdana, arial, sans-serif; font-size: 12px; fill: rgb(42, 63, 95); fill-opacity: 1; white-space: pre;">15.0-17.5</text><g class="layers" style="opacity: 1;"><g class="legendfill"/><g class="legendlines"/><g class="legendsymbols"><g class="legendpoints"><path class="legendundefined" d="M6,6H-6V-6H6Z" transform="translate(20,0)" style="stroke-width: 0.5px; fill: rgb(102, 101, 101); fill-opacity: 1; stroke: rgb(229, 236, 246); stroke-opacity: 1;"/></g></g></g><rect class="legendtoggle" x="0" y="-9.5" width="91.5625" height="19" style="fill: rgb(0, 0, 0); fill-opacity: 0;"/></g></g><g class="groups" transform=""><g class="traces" transform="translate(0,165.7)" style="opacity: 1;"><text class="legendtext" text-anchor="start" x="40" y="4.680000000000001" style="font-family: 'Open Sans', verdana, arial, sans-serif; font-size: 12px; fill: rgb(42, 63, 95); fill-opacity: 1; white-space: pre;">17.5></text><g class="layers" style="opacity: 1;"><g class="legendfill"/><g class="legendlines"/><g class="legendsymbols"><g class="legendpoints"><path class="legendundefined" d="M6,6H-6V-6H6Z" transform="translate(20,0)" style="stroke-width: 0.5px; fill: rgb(81, 80, 80); fill-opacity: 1; stroke: rgb(229, 236, 246); stroke-opacity: 1;"/></g></g></g><rect class="legendtoggle" x="0" y="-9.5" width="91.5625" height="19" style="fill: rgb(0, 0, 0); fill-opacity: 0;"/></g></g></g><rect class="scrollbar" rx="20" ry="3" width="0" height="0" x="0" y="0" style="fill: rgb(128, 139, 164); fill-opacity: 1;"/></g><g class="g-gtitle"><text class="gtitle" x="35" y="50" text-anchor="start" dy="0em" style="font-family: 'Open Sans', verdana, arial, sans-serif; font-size: 17px; fill: rgb(42, 63, 95); opacity: 1; font-weight: normal; white-space: pre;">Wind direction and intensity in Munich city</text></g><g class="g-polartitle"/></g></svg>