<svg class="main-svg" xmlns="http://www.w3.org/2000/svg" xmlns:xlink="http://www.w3.org/1999/xlink" width="700" height="500" style="" viewBox="0 0 700 500"><rect x="0" y="0" width="700" height="500" style="fill: rgb(255, 255, 255); fill-opacity: 1;"/><defs id="defs-6dfb3c"><g class="clips"><clipPath id="clip6dfb3cpolar-for-traces"><path d="M160,0A160,160 0,1,0 -160,-1.9594348786357652e-14A160,160 0,1,0 160,3.9188697572715304e-14Z" transform="translate(160,160)"/></clipPath></g><g class="gradients"/><g class="patterns"/></defs><g class="bglayer"/><g class="layer-below"><g class="imagelayer"/><g class="shapelayer"/></g><g class="cartesianlayer"/><g class="polarlayer"><g class="polar"><g class="polarsublayer draglayer"/><g class="polarsublayer plotbg"><path d="M160,0A160,160 0,1,0 -160,-1.9594348786357652e-14A160,160 0,1,0 160,3.9188697572715304e-14Z" transform="translate(317.5,260)" style="fill: rgb(229, 236, 246); fill-opacity: 1;"/></g><g class="polarsublayer backplot"><g class="maplayer"/></g><g class="polarsublayer angular-grid" style="fill: none;"><path class="angularaxisgrid" d="M317.5,260L317.5,100" style="stroke: rgb(255, 255, 255); stroke-opacity: 1; stroke-width: 1px;"/><path class="angularaxisgrid" d="M317.5,260L430.6370849898476,146.8629150101524" style="stroke: rgb(255, 255, 255); stroke-opacity: 1; stroke-width: 1px;"/><path class="angularaxisgrid" d="M317.5,260L477.5,260" style="stroke: rgb(255, 255, 255); stroke-opacity: 1; stroke-width: 1px;"/><path class="angularaxisgrid" d="M317.5,260L430.6370849898476,373.1370849898476" style="stroke: rgb(255, 255, 255); stroke-opacity: 1; stroke-width: 1px;"/><path class="angularaxisgrid" d="M317.5,260L317.5,420" style="stroke: rgb(255, 255, 255); stroke-opacity: 1; stroke-width: 1px;"/><path class="angularaxisgrid" d="M317.5,260L204.3629150101524,373.1370849898476" style="stroke: rgb(255, 255, 255); stroke-opacity: 1; stroke-width: 1px;"/><path class="angularaxisgrid" d="M317.5,260L157.5,260" style="stroke: rgb(255, 255, 255); stroke-opacity: 1; stroke-width: 1px;"/><path class="angularaxisgrid" d="M317.5,260L204.36291501015236,146.8629150101524" style="stroke: rgb(255, 255, 255); stroke-opacity: 1; stroke-width: 1px;"/></g><g class="polarsublayer radial-grid" transform="translate(317.5,260)" style="fill: none;"><path class="xgrid" d="M18.04,0A18.04,18.04 0,1,0 -18.04,-2.209262825661825e-15A18.04,18.04 0,1,0 18.04,4.41852565132365e-15Z" style="stroke: rgb(255, 255, 255); stroke-opacity: 1; stroke-width: 1px;"/><path class="xgrid" d="M36.08,0A36.08,36.08 0,1,0 -36.08,-4.41852565132365e-15A36.08,36.08 0,1,0 36.08,8.8370513026473e-15Z" style="stroke: rgb(255, 255, 255); stroke-opacity: 1; stroke-width: 1px;"/><path class="xgrid" d="M54.13,0A54.13,54.13 0,1,0 -54.13,-6.6290131237846235e-15A54.13,54.13 0,1,0 54.13,1.3258026247569247e-14Z" style="stroke: rgb(255, 255, 255); stroke-opacity: 1; stroke-width: 1px;"/><path class="xgrid" d="M72.17,0A72.17,72.17 0,1,0 -72.17,-8.838275949446448e-15A72.17,72.17 0,1,0 72.17,1.7676551898892896e-14Z" style="stroke: rgb(255, 255, 255); stroke-opacity: 1; stroke-width: 1px;"/><path class="xgrid" d="M90.21,0A90.21,90.21 0,1,0 -90.21,-1.1047538775108273e-14A90.21,90.21 0,1,0 90.21,2.2095077550216545e-14Z" style="stroke: rgb(255, 255, 255); stroke-opacity: 1; stroke-width: 1px;"/><path class="xgrid" d="M108.25,0A108.25,108.25 0,1,0 -108.25,-1.3256801600770099e-14A108.25,108.25 0,1,0 108.25,2.6513603201540197e-14Z" style="stroke: rgb(255, 255, 255); stroke-opacity: 1; stroke-width: 1px;"/><path class="xgrid" d="M126.29,0A126.29,126.29 0,1,0 -126.29,-1.5466064426431925e-14A126.29,126.29 0,1,0 126.29,3.093212885286385e-14Z" style="stroke: rgb(255, 255, 255); stroke-opacity: 1; stroke-width: 1px;"/><path class="xgrid" d="M144.33,0A144.33,144.33 0,1,0 -144.33,-1.767532725209375e-14A144.33,144.33 0,1,0 144.33,3.53506545041875e-14Z" style="stroke: rgb(255, 255, 255); stroke-opacity: 1; stroke-width: 1px;"/></g><g class="polarsublayer frontplot" transform="translate(157.5,100)" clip-path="url(#clip6dfb3cpolar-for-traces)"><g class="barlayer"><g class="trace bars" style="opacity: 1;"><g class="points"><g class="point" style="vector-effect: none; stroke-miterlimit: 2;"><path d="M160,160L171.73982834497718,128.17780281770746A33.91866452380218,33.91866452380218 0,0,0 148.26017165502282,128.17780281770746L160,160A0,0 0,0,1 160,160Z" style="opacity: 1; stroke-width: 0.5px; fill: rgb(254, 254, 253); fill-opacity: 1; stroke: rgb(229, 236, 246); stroke-opacity: 1;"/></g><g class="point" style="vector-effect: none; stroke-miterlimit: 2;"><path d="M160,160L201.5689811206497,140.83643721907052A45.77359861172767,45.77359861172767 0,0,0 179.16356278092948,118.43101887935029L160,160A0,0 0,0,1 160,160Z" style="opacity: 1; stroke-width: 0.5px; fill: rgb(254, 254, 253); fill-opacity: 1; stroke: rgb(229, 236, 246); stroke-opacity: 1;"/></g><g class="point" style="vector-effect: none; stroke-miterlimit: 2;"><path d="M160,160L213.4667078104527,179.72490988821613A56.989129789693834,56.989129789693834 0,0,0 213.4667078104527,140.2750901117839L160,160A0,0 0,0,1 160,160Z" style="opacity: 1; stroke-width: 0.5px; fill: rgb(254, 254, 253); fill-opacity: 1; stroke: rgb(229, 236, 246); stroke-opacity: 1;"/></g><g class="point" style="vector-effect: none; stroke-miterlimit: 2;"><path d="M160,160L168.62461540610502,178.70823703753143A20.600536982216916,20.600536982216916 0,0,0 178.70823703753143,168.62461540610502L160,160A0,0 0,0,1 160,160Z" style="opacity: 1; stroke-width: 0.5px; fill: rgb(254, 254, 253); fill-opacity: 1; stroke: rgb(229, 236, 246); stroke-opacity: 1;"/></g><g class="point" style="vector-effect: none; stroke-miterlimit: 2;"><path d="M160,160L147.9484417449264,192.66717807768617A34.81931331796611,34.81931331796611 0,0,0 172.0515582550736,192.66717807768617L160,160A0,0 0,0,1 160,160Z" style="opacity: 1; stroke-width: 0.5px; fill: rgb(254, 254, 253); fill-opacity: 1; stroke: rgb(229, 236, 246); stroke-opacity: 1;"/></g><g class="point" style="vector-effect: none; stroke-miterlimit: 2;"><path d="M160,160L123.21302135064518,176.9590294460555A40.507906362835705,40.507906362835705 0,0,0 143.0409705539445,196.7869786493548L160,160A0,0 0,0,1 160,160Z" style="opacity: 1; stroke-width: 0.5px; fill: rgb(254, 254, 253); fill-opacity: 1; stroke: rgb(229, 236, 246); stroke-opacity: 1;"/></g><g class="point" style="vector-effect: none; stroke-miterlimit: 2;"><path d="M160,160L124.31580680222244,146.83540610438985A38.03509138430787,38.03509138430787 0,0,0 124.31580680222244,173.16459389561015L160,160A0,0 0,0,1 160,160Z" style="opacity: 1; stroke-width: 0.5px; fill: rgb(254, 254, 253); fill-opacity: 1; stroke: rgb(229, 236, 246); stroke-opacity: 1;"/></g><g class="point" style="vector-effect: none; stroke-miterlimit: 2;"><path d="M160,160L151.40303001295084,141.35173051213258A20.53450383745249,20.53450383745249 0,0,0 141.35173051213258,151.40303001295084L160,160A0,0 0,0,1 160,160Z" style="opacity: 1; stroke-width: 0.5px; fill: rgb(254, 254, 253); fill-opacity: 1; stroke: rgb(229, 236, 246); stroke-opacity: 1;"/></g></g></g><g class="trace bars" style="opacity: 1;"><g class="points"><g class="point" style="vector-effect: none; stroke-miterlimit: 2;"><path d="M171.73982834497718,128.17780281770746L174.44211202476728,120.85294238756637A41.726091590839495,41.726091590839495 0,0,0 145.55788797523272,120.85294238756637L148.26017165502282,128.17780281770746A33.91866452380218,33.91866452380218 0,0,1 171.73982834497718,128.17780281770746Z" style="opacity: 1; stroke-width: 0.5px; fill: rgb(224, 224, 223); fill-opacity: 1; stroke: rgb(229, 236, 246); stroke-opacity: 1;"/></g><g class="point" style="vector-effect: none; stroke-miterlimit: 2;"><path d="M201.5689811206497,140.83643721907052L217.45087872729522,133.51478213731883A63.26191770545742,63.26191770545742 0,0,0 186.48521786268117,102.5491212727048L179.16356278092948,118.43101887935029A45.77359861172767,45.77359861172767 0,0,1 201.5689811206497,140.83643721907052Z" style="opacity: 1; stroke-width: 0.5px; fill: rgb(224, 224, 223); fill-opacity: 1; stroke: rgb(229, 236, 246); stroke-opacity: 1;"/></g><g class="point" style="vector-effect: none; stroke-miterlimit: 2;"><path d="M213.4667078104527,179.72490988821613L248.29474849042157,192.57365244463003A94.11166476356877,94.11166476356877 0,0,0 248.29474849042157,127.42634755536999L213.4667078104527,140.2750901117839A56.989129789693834,56.989129789693834 0,0,1 213.4667078104527,179.72490988821613Z" style="opacity: 1; stroke-width: 0.5px; fill: rgb(224, 224, 223); fill-opacity: 1; stroke: rgb(229, 236, 246); stroke-opacity: 1;"/></g><g class="point" style="vector-effect: none; stroke-miterlimit: 2;"><path d="M168.62461540610502,178.70823703753143L169.72242557156306,181.08957137309642A23.222738419392133,23.222738419392133 0,0,0 181.08957137309642,169.72242557156306L178.70823703753143,168.62461540610502A20.600536982216916,20.600536982216916 0,0,1 168.62461540610502,178.70823703753143Z" style="opacity: 1; stroke-width: 0.5px; fill: rgb(224, 224, 223); fill-opacity: 1; stroke: rgb(229, 236, 246); stroke-opacity: 1;"/></g><g class="point" style="vector-effect: none; stroke-miterlimit: 2;"><path d="M147.9484417449264,192.66717807768617L145.24403490469092,199.9977935860411A42.632874611566244,42.632874611566244 0,0,0 174.75596509530908,199.9977935860411L172.0515582550736,192.66717807768617A34.81931331796611,34.81931331796611 0,0,1 147.9484417449264,192.66717807768617Z" style="opacity: 1; stroke-width: 0.5px; fill: rgb(224, 224, 223); fill-opacity: 1; stroke: rgb(229, 236, 246); stroke-opacity: 1;"/></g><g class="point" style="vector-effect: none; stroke-miterlimit: 2;"><path d="M123.21302135064518,176.9590294460555L98.36187892512677,188.4155630249521A67.8726910595547,67.8726910595547 0,0,0 131.5844369750479,221.63812107487323L143.0409705539445,196.7869786493548A40.507906362835705,40.507906362835705 0,0,1 123.21302135064518,176.9590294460555Z" style="opacity: 1; stroke-width: 0.5px; fill: rgb(224, 224, 223); fill-opacity: 1; stroke: rgb(229, 236, 246); stroke-opacity: 1;"/></g><g class="point" style="vector-effect: none; stroke-miterlimit: 2;"><path d="M124.31580680222244,146.83540610438985L69.94284344009957,126.77616089192368A95.9901814392168,95.9901814392168 0,0,0 69.94284344009957,193.22383910807633L124.31580680222244,173.16459389561015A38.03509138430787,38.03509138430787 0,0,1 124.31580680222244,146.83540610438985Z" style="opacity: 1; stroke-width: 0.5px; fill: rgb(224, 224, 223); fill-opacity: 1; stroke: rgb(229, 236, 246); stroke-opacity: 1;"/></g><g class="point" style="vector-effect: none; stroke-miterlimit: 2;"><path d="M151.40303001295084,141.35173051213258L145.70898009462903,129.0003814305149A34.13516663778389,34.13516663778389 0,0,0 129.0003814305149,145.70898009462903L141.35173051213258,151.40303001295084A20.53450383745249,20.53450383745249 0,0,1 151.40303001295084,141.35173051213258Z" style="opacity: 1; stroke-width: 0.5px; fill: rgb(224, 224, 223); fill-opacity: 1; stroke: rgb(229, 236, 246); stroke-opacity: 1;"/></g></g></g><g class="trace bars" style="opacity: 1;"><g class="points"><g class="point" style="vector-effect: none; stroke-miterlimit: 2;"><path d="M174.44211202476728,120.85294238756637L174.6849016662847,120.19483226711554A42.42755844014025,42.42755844014025 0,0,0 145.3150983337153,120.19483226711554L145.55788797523272,120.85294238756637A41.726091590839495,41.726091590839495 0,0,1 174.44211202476728,120.85294238756637Z" style="opacity: 1; stroke-width: 0.5px; fill: rgb(197, 197, 195); fill-opacity: 1; stroke: rgb(229, 236, 246); stroke-opacity: 1;"/></g><g class="point" style="vector-effect: none; stroke-miterlimit: 2;"><path d="M217.45087872729522,133.51478213731883L218.68693117173598,132.9449541554683A64.62299432868915,64.62299432868915 0,0,0 187.05504584453172,101.31306882826402L186.48521786268117,102.5491212727048A63.26191770545742,63.26191770545742 0,0,1 217.45087872729522,133.51478213731883Z" style="opacity: 1; stroke-width: 0.5px; fill: rgb(197, 197, 195); fill-opacity: 1; stroke: rgb(229, 236, 246); stroke-opacity: 1;"/></g><g class="point" style="vector-effect: none; stroke-miterlimit: 2;"><path d="M248.29474849042157,192.57365244463003L257.519461799148,195.97682885497346A103.9441082700484,103.9441082700484 0,0,0 257.5194617991481,124.02317114502654L248.29474849042157,127.42634755536999A94.11166476356877,94.11166476356877 0,0,1 248.29474849042157,192.57365244463003Z" style="opacity: 1; stroke-width: 0.5px; fill: rgb(197, 197, 195); fill-opacity: 1; stroke: rgb(229, 236, 246); stroke-opacity: 1;"/></g><g class="point" style="vector-effect: none; stroke-miterlimit: 2;"><path d="M169.72242557156306,181.08957137309642L169.80249153932044,181.26324788305232A23.413981953409316,23.413981953409316 0,0,0 181.26324788305232,169.8024915393204L181.08957137309642,169.72242557156306A23.222738419392133,23.222738419392133 0,0,1 169.72242557156306,181.08957137309642Z" style="opacity: 1; stroke-width: 0.5px; fill: rgb(197, 197, 195); fill-opacity: 1; stroke: rgb(229, 236, 246); stroke-opacity: 1;"/></g><g class="point" style="vector-effect: none; stroke-miterlimit: 2;"><path d="M145.24403490469092,199.9977935860411L145.09004332650628,200.41520602354925A43.07778645579867,43.07778645579867 0,0,0 174.90995667349372,200.41520602354925L174.75596509530908,199.9977935860411A42.632874611566244,42.632874611566244 0,0,1 145.24403490469092,199.9977935860411Z" style="opacity: 1; stroke-width: 0.5px; fill: rgb(197, 197, 195); fill-opacity: 1; stroke: rgb(229, 236, 246); stroke-opacity: 1;"/></g><g class="point" style="vector-effect: none; stroke-miterlimit: 2;"><path d="M98.36187892512677,188.4155630249521L90.32360573792307,192.12125772134482A76.72401915284053,76.72401915284053 0,0,0 127.87874227865521,229.67639426207694L131.5844369750479,221.63812107487323A67.8726910595547,67.8726910595547 0,0,1 98.36187892512677,188.4155630249521Z" style="opacity: 1; stroke-width: 0.5px; fill: rgb(197, 197, 195); fill-opacity: 1; stroke: rgb(229, 236, 246); stroke-opacity: 1;"/></g><g class="point" style="vector-effect: none; stroke-miterlimit: 2;"><path d="M69.94284344009957,126.77616089192368L38.58105251491254,115.20618538257597A129.41810783799374,129.41810783799374 0,0,0 38.58105251491254,204.79381461742406L69.94284344009957,193.22383910807633A95.9901814392168,95.9901814392168 0,0,1 69.94284344009957,126.77616089192368Z" style="opacity: 1; stroke-width: 0.5px; fill: rgb(197, 197, 195); fill-opacity: 1; stroke: rgb(229, 236, 246); stroke-opacity: 1;"/></g><g class="point" style="vector-effect: none; stroke-miterlimit: 2;"><path d="M145.70898009462903,129.0003814305149L144.0316736040441,125.36202239270314A38.14153825701555,38.14153825701555 0,0,0 125.36202239270312,144.0316736040441L129.0003814305149,145.70898009462903A34.13516663778389,34.13516663778389 0,0,1 145.70898009462903,129.0003814305149Z" style="opacity: 1; stroke-width: 0.5px; fill: rgb(197, 197, 195); fill-opacity: 1; stroke: rgb(229, 236, 246); stroke-opacity: 1;"/></g></g></g><g class="trace bars" style="opacity: 1;"><g class="points"><g class="point" style="vector-effect: none; stroke-miterlimit: 2;"><path d="M174.6849016662847,120.19483226711554L174.7003882483568,120.15285404955593A42.47230221036314,42.47230221036314 0,0,0 145.29961175164323,120.15285404955593L145.3150983337153,120.19483226711554A42.42755844014025,42.42755844014025 0,0,1 174.6849016662847,120.19483226711554Z" style="opacity: 1; stroke-width: 0.5px; fill: rgb(171, 171, 170); fill-opacity: 1; stroke: rgb(229, 236, 246); stroke-opacity: 1;"/></g><g class="point" style="vector-effect: none; stroke-miterlimit: 2;"><path d="M218.68693117173598,132.9449541554683L218.7347741348559,132.92289824736912A64.67567650975802,64.67567650975802 0,0,0 187.0771017526309,101.26522586514409L187.05504584453172,101.31306882826402A64.62299432868915,64.62299432868915 0,0,1 218.68693117173598,132.9449541554683Z" style="opacity: 1; stroke-width: 0.5px; fill: rgb(171, 171, 170); fill-opacity: 1; stroke: rgb(229, 236, 246); stroke-opacity: 1;"/></g><g class="point" style="vector-effect: none; stroke-miterlimit: 2;"><path d="M257.519461799148,195.97682885497346L258.8624262270433,196.4722745894897A105.37554808032418,105.37554808032418 0,0,0 258.86242622704333,123.52772541051033L257.5194617991481,124.02317114502654A103.9441082700484,103.9441082700484 0,0,1 257.519461799148,195.97682885497346Z" style="opacity: 1; stroke-width: 0.5px; fill: rgb(171, 171, 170); fill-opacity: 1; stroke: rgb(229, 236, 246); stroke-opacity: 1;"/></g><g class="point" style="vector-effect: none; stroke-miterlimit: 2;"><path d="M169.80249153932044,181.26324788305232L169.81140454327831,181.28258168321722A23.43527132795085,23.43527132795085 0,0,0 181.28258168321722,169.81140454327831L181.26324788305232,169.8024915393204A23.413981953409316,23.413981953409316 0,0,1 169.80249153932044,181.26324788305232Z" style="opacity: 1; stroke-width: 0.5px; fill: rgb(171, 171, 170); fill-opacity: 1; stroke: rgb(229, 236, 246); stroke-opacity: 1;"/></g><g class="point" style="vector-effect: none; stroke-miterlimit: 2;"><path d="M145.09004332650628,200.41520602354925L145.0788030653249,200.44567408468123A43.11026177289593,43.11026177289593 0,0,0 174.9211969346751,200.44567408468123L174.90995667349372,200.41520602354925A43.07778645579867,43.07778645579867 0,0,1 145.09004332650628,200.41520602354925Z" style="opacity: 1; stroke-width: 0.5px; fill: rgb(171, 171, 170); fill-opacity: 1; stroke: rgb(229, 236, 246); stroke-opacity: 1;"/></g><g class="point" style="vector-effect: none; stroke-miterlimit: 2;"><path d="M90.32360573792307,192.12125772134482L87.52905238527435,193.4095644629199A79.80123586623398,79.80123586623398 0,0,0 126.59043553708011,232.47094761472565L127.87874227865521,229.67639426207694A76.72401915284053,76.72401915284053 0,0,1 90.32360573792307,192.12125772134482Z" style="opacity: 1; stroke-width: 0.5px; fill: rgb(171, 171, 170); fill-opacity: 1; stroke: rgb(229, 236, 246); stroke-opacity: 1;"/></g><g class="point" style="vector-effect: none; stroke-miterlimit: 2;"><path d="M38.58105251491254,115.20618538257597L24.575900414578058,110.03941199287696A144.34592859703307,144.34592859703307 0,0,0 24.575900414578058,209.96058800712308L38.58105251491254,204.79381461742406A129.41810783799374,129.41810783799374 0,0,1 38.58105251491254,115.20618538257597Z" style="opacity: 1; stroke-width: 0.5px; fill: rgb(171, 171, 170); fill-opacity: 1; stroke: rgb(229, 236, 246); stroke-opacity: 1;"/></g><g class="point" style="vector-effect: none; stroke-miterlimit: 2;"><path d="M144.0316736040441,125.36202239270314L143.71805671901714,124.6817347801212A38.89063557139229,38.89063557139229 0,0,0 124.68173478012119,143.71805671901714L125.36202239270312,144.0316736040441A38.14153825701555,38.14153825701555 0,0,1 144.0316736040441,125.36202239270314Z" style="opacity: 1; stroke-width: 0.5px; fill: rgb(171, 171, 170); fill-opacity: 1; stroke: rgb(229, 236, 246); stroke-opacity: 1;"/></g></g></g><g class="trace bars" style="opacity: 1;"><g class="points"><g class="point" style="vector-effect: none; stroke-miterlimit: 2;"><path d="M174.7003882483568,120.15285404955593L174.70151227447494,120.14980724344272A42.475549742072864,42.475549742072864 0,0,0 145.2984877255251,120.14980724344272L145.29961175164323,120.15285404955593A42.47230221036314,42.47230221036314 0,0,1 174.7003882483568,120.15285404955593Z" style="opacity: 1; stroke-width: 0.5px; fill: rgb(146, 146, 145); fill-opacity: 1; stroke: rgb(229, 236, 246); stroke-opacity: 1;"/></g><g class="point" style="vector-effect: none; stroke-miterlimit: 2;"><path d="M218.7347741348559,132.92289824736912L218.73674028402522,132.92199184018696A64.67784153089784,64.67784153089784 0,0,0 187.07800815981307,101.26325971597478L187.0771017526309,101.26522586514409A64.67567650975802,64.67567650975802 0,0,1 218.7347741348559,132.92289824736912Z" style="opacity: 1; stroke-width: 0.5px; fill: rgb(146, 146, 145); fill-opacity: 1; stroke: rgb(229, 236, 246); stroke-opacity: 1;"/></g><g class="point" style="vector-effect: none; stroke-miterlimit: 2;"><path d="M258.8624262270433,196.4722745894897L259.01070412455226,196.52697719390565A105.53359462353083,105.53359462353083 0,0,0 259.01070412455226,123.47302280609438L258.86242622704333,123.52772541051033A105.37554808032418,105.37554808032418 0,0,1 258.8624262270433,196.4722745894897Z" style="opacity: 1; stroke-width: 0.5px; fill: rgb(146, 146, 145); fill-opacity: 1; stroke: rgb(229, 236, 246); stroke-opacity: 1;"/></g><g class="point" style="vector-effect: none; stroke-miterlimit: 2;"><path d="M169.81140454327831,181.28258168321722L169.81276415405156,181.2855309069712A23.438518859660576,23.438518859660576 0,0,0 181.2855309069712,169.81276415405154L181.28258168321722,169.81140454327831A23.43527132795085,23.43527132795085 0,0,1 169.81140454327831,181.28258168321722Z" style="opacity: 1; stroke-width: 0.5px; fill: rgb(146, 146, 145); fill-opacity: 1; stroke: rgb(229, 236, 246); stroke-opacity: 1;"/></g><g class="point" style="vector-effect: none; stroke-miterlimit: 2;"><path d="M145.0788030653249,200.44567408468123L145.07767903920677,200.44872089079442A43.11350930460566,43.11350930460566 0,0,0 174.92232096079323,200.44872089079442L174.9211969346751,200.44567408468123A43.11026177289593,43.11026177289593 0,0,1 145.0788030653249,200.44567408468123Z" style="opacity: 1; stroke-width: 0.5px; fill: rgb(146, 146, 145); fill-opacity: 1; stroke: rgb(229, 236, 246); stroke-opacity: 1;"/></g><g class="point" style="vector-effect: none; stroke-miterlimit: 2;"><path d="M87.52905238527435,193.4095644629199L86.45094725743498,193.90657773447032A80.98838912456705,80.98838912456705 0,0,0 126.09342226552968,233.54905274256504L126.59043553708011,232.47094761472565A79.80123586623398,79.80123586623398 0,0,1 87.52905238527435,193.4095644629199Z" style="opacity: 1; stroke-width: 0.5px; fill: rgb(146, 146, 145); fill-opacity: 1; stroke: rgb(229, 236, 246); stroke-opacity: 1;"/></g><g class="point" style="vector-effect: none; stroke-miterlimit: 2;"><path d="M24.575900414578058,110.03941199287696L19.42002740302152,108.13731001740885A149.84147392360228,149.84147392360228 0,0,0 19.42002740302152,211.86268998259118L24.575900414578058,209.96058800712308A144.34592859703307,144.34592859703307 0,0,1 24.575900414578058,110.03941199287696Z" style="opacity: 1; stroke-width: 0.5px; fill: rgb(146, 146, 145); fill-opacity: 1; stroke: rgb(229, 236, 246); stroke-opacity: 1;"/></g><g class="point" style="vector-effect: none; stroke-miterlimit: 2;"><path d="M143.71805671901714,124.6817347801212L143.66065093081374,124.5572119993981A39.02775357691404,39.02775357691404 0,0,0 124.5572119993981,143.66065093081377L124.68173478012119,143.71805671901714A38.89063557139229,38.89063557139229 0,0,1 143.71805671901714,124.6817347801212Z" style="opacity: 1; stroke-width: 0.5px; fill: rgb(146, 146, 145); fill-opacity: 1; stroke: rgb(229, 236, 246); stroke-opacity: 1;"/></g></g></g><g class="trace bars" style="opacity: 1;"><g class="points"><g class="point" style="vector-effect: none; stroke-miterlimit: 2;"><path d="M0,0Z" style="opacity: 1; stroke-width: 0.5px; fill: rgb(124, 123, 122); fill-opacity: 1; stroke: rgb(229, 236, 246); stroke-opacity: 1;"/></g><g class="point" style="vector-effect: none; stroke-miterlimit: 2;"><path d="M0,0Z" style="opacity: 1; stroke-width: 0.5px; fill: rgb(124, 123, 122); fill-opacity: 1; stroke: rgb(229, 236, 246); stroke-opacity: 1;"/></g><g class="point" style="vector-effect: none; stroke-miterlimit: 2;"><path d="M259.01070412455226,196.52697719390565L259.01578213474096,196.5288505707692A105.53900717638038,105.53900717638038 0,0,0 259.01578213474096,123.47114942923082L259.01070412455226,123.47302280609438A105.53359462353083,105.53359462353083 0,0,1 259.01070412455226,196.52697719390565Z" style="opacity: 1; stroke-width: 0.5px; fill: rgb(124, 123, 122); fill-opacity: 1; stroke: rgb(229, 236, 246); stroke-opacity: 1;"/></g><g class="point" style="vector-effect: none; stroke-miterlimit: 2;"><path d="M169.81276415405156,181.2855309069712L169.81351949337002,181.28716936461228A23.440323043943756,23.440323043943756 0,0,0 181.28716936461228,169.81351949337002L181.2855309069712,169.81276415405154A23.438518859660576,23.438518859660576 0,0,1 169.81276415405156,181.2855309069712Z" style="opacity: 1; stroke-width: 0.5px; fill: rgb(124, 123, 122); fill-opacity: 1; stroke: rgb(229, 236, 246); stroke-opacity: 1;"/></g><g class="point" style="vector-effect: none; stroke-miterlimit: 2;"><path d="M145.07767903920677,200.44872089079442L145.07742925562496,200.4493979588196A43.11423097831893,43.11423097831893 0,0,0 174.92257074437504,200.4493979588196L174.92232096079323,200.44872089079442A43.11350930460566,43.11350930460566 0,0,1 145.07767903920677,200.44872089079442Z" style="opacity: 1; stroke-width: 0.5px; fill: rgb(124, 123, 122); fill-opacity: 1; stroke: rgb(229, 236, 246); stroke-opacity: 1;"/></g><g class="point" style="vector-effect: none; stroke-miterlimit: 2;"><path d="M86.45094725743498,193.90657773447032L86.08360505430186,194.07592480967034A81.39288724085623,81.39288724085623 0,0,0 125.92407519032967,233.91639494569813L126.09342226552968,233.54905274256504A80.98838912456705,80.98838912456705 0,0,1 86.45094725743498,193.90657773447032Z" style="opacity: 1; stroke-width: 0.5px; fill: rgb(124, 123, 122); fill-opacity: 1; stroke: rgb(229, 236, 246); stroke-opacity: 1;"/></g><g class="point" style="vector-effect: none; stroke-miterlimit: 2;"><path d="M19.42002740302152,108.13731001740885L17.87326549955455,107.56667942476842A151.49013752157305,151.49013752157305 0,0,0 17.87326549955455,212.43332057523162L19.42002740302152,211.86268998259118A149.84147392360228,149.84147392360228 0,0,1 19.42002740302152,108.13731001740885Z" style="opacity: 1; stroke-width: 0.5px; fill: rgb(124, 123, 122); fill-opacity: 1; stroke: rgb(229, 236, 246); stroke-opacity: 1;"/></g><g class="point" style="vector-effect: none; stroke-miterlimit: 2;"><path d="M143.66065093081374,124.5572119993981L143.64962297676416,124.53329051783815A39.05409466744848,39.05409466744848 0,0,0 124.53329051783814,143.64962297676416L124.5572119993981,143.66065093081377A39.02775357691404,39.02775357691404 0,0,1 143.66065093081374,124.5572119993981Z" style="opacity: 1; stroke-width: 0.5px; fill: rgb(124, 123, 122); fill-opacity: 1; stroke: rgb(229, 236, 246); stroke-opacity: 1;"/></g></g></g><g class="trace bars" style="opacity: 1;"><g class="points"><g class="point" style="vector-effect: none; stroke-miterlimit: 2;"><path d="M0,0Z" style="opacity: 1; stroke-width: 0.5px; fill: rgb(102, 101, 101); fill-opacity: 1; stroke: rgb(229, 236, 246); stroke-opacity: 1;"/></g><g class="point" style="vector-effect: none; stroke-miterlimit: 2;"><path d="M0,0Z" style="opacity: 1; stroke-width: 0.5px; fill: rgb(102, 101, 101); fill-opacity: 1; stroke: rgb(229, 236, 246); stroke-opacity: 1;"/></g><g class="point" style="vector-effect: none; stroke-miterlimit: 2;"><path d="M259.01578213474096,196.5288505707692L259.0164592027661,196.52910035435102A105.53972885009365,105.53972885009365 0,0,0 259.0164592027661,123.47089964564901L259.01578213474096,123.47114942923082A105.53900717638038,105.53900717638038 0,0,1 259.01578213474096,196.5288505707692Z" style="opacity: 1; stroke-width: 0.5px; fill: rgb(102, 101, 101); fill-opacity: 1; stroke: rgb(229, 236, 246); stroke-opacity: 1;"/></g><g class="point" style="vector-effect: none; stroke-miterlimit: 2;"><path d="M0,0Z" style="opacity: 1; stroke-width: 0.5px; fill: rgb(102, 101, 101); fill-opacity: 1; stroke: rgb(229, 236, 246); stroke-opacity: 1;"/></g><g class="point" style="vector-effect: none; stroke-miterlimit: 2;"><path d="M0,0Z" style="opacity: 1; stroke-width: 0.5px; fill: rgb(102, 101, 101); fill-opacity: 1; stroke: rgb(229, 236, 246); stroke-opacity: 1;"/></g><g class="point" style="vector-effect: none; stroke-miterlimit: 2;"><path d="M86.08360505430186,194.07592480967034L85.96629148719957,194.13000710487248A81.52206683553199,81.52206683553199 0,0,0 125.86999289512752,234.03370851280044L125.92407519032967,233.91639494569813A81.39288724085623,81.39288724085623 0,0,1 86.08360505430186,194.07592480967034Z" style="opacity: 1; stroke-width: 0.5px; fill: rgb(102, 101, 101); fill-opacity: 1; stroke: rgb(229, 236, 246); stroke-opacity: 1;"/></g><g class="point" style="vector-effect: none; stroke-miterlimit: 2;"><path d="M17.87326549955455,107.56667942476842L17.486659657190927,107.42405299955604A151.9022132118516,151.9022132118516 0,0,0 17.486659657190927,212.575947000444L17.87326549955455,212.43332057523162A151.49013752157305,151.49013752157305 0,0,1 17.87326549955455,107.56667942476842Z" style="opacity: 1; stroke-width: 0.5px; fill: rgb(102, 101, 101); fill-opacity: 1; stroke: rgb(229, 236, 246); stroke-opacity: 1;"/></g><g class="point" style="vector-effect: none; stroke-miterlimit: 2;"><path d="M143.64962297676416,124.53329051783815L143.64886763744568,124.53165206019706A39.05589885173166,39.05589885173166 0,0,0 124.53165206019705,143.6488676374457L124.53329051783814,143.64962297676416A39.05409466744848,39.05409466744848 0,0,1 143.64962297676416,124.53329051783815Z" style="opacity: 1; stroke-width: 0.5px; fill: rgb(102, 101, 101); fill-opacity: 1; stroke: rgb(229, 236, 246); stroke-opacity: 1;"/></g></g></g><g class="trace bars" style="opacity: 1;"><g class="points"><g class="point" style="vector-effect: none; stroke-miterlimit: 2;"><path d="M0,0Z" style="opacity: 1; stroke-width: 0.5px; fill: rgb(81, 80, 80); fill-opacity: 1; stroke: rgb(229, 236, 246); stroke-opacity: 1;"/></g><g class="point" style="vector-effect: none; stroke-miterlimit: 2;"><path d="M0,0Z" style="opacity: 1; stroke-width: 0.5px; fill: rgb(81, 80, 80); fill-opacity: 1; stroke: rgb(229, 236, 246); stroke-opacity: 1;"/></g><g class="point" style="vector-effect: none; stroke-miterlimit: 2;"><path d="M0,0Z" style="opacity: 1; stroke-width: 0.5px; fill: rgb(81, 80, 80); fill-opacity: 1; stroke: rgb(229, 236, 246); stroke-opacity: 1;"/></g><g class="point" style="vector-effect: none; stroke-miterlimit: 2;"><path d="M0,0Z" style="opacity: 1; stroke-width: 0.5px; fill: rgb(81, 80, 80); fill-opacity: 1; stroke: rgb(229, 236, 246); stroke-opacity: 1;"/></g><g class="point" style="vector-effect: none; stroke-miterlimit: 2;"><path d="M0,0Z" style="opacity: 1; stroke-width: 0.5px; fill: rgb(81, 80, 80); fill-opacity: 1; stroke: rgb(229, 236, 246); stroke-opacity: 1;"/></g><g class="point" style="vector-effect: none; stroke-miterlimit: 2;"><path d="M85.96629148719957,194.13000710487248L85.93352233437771,194.1451138912418A81.5581505211956,81.5581505211956 0,0,0 125.85488610875822,234.0664776656223L125.86999289512752,234.03370851280044A81.52206683553199,81.52206683553199 0,0,1 85.96629148719957,194.13000710487248Z" style="opacity: 1; stroke-width: 0.5px; fill: rgb(81, 80, 80); fill-opacity: 1; stroke: rgb(229, 236, 246); stroke-opacity: 1;"/></g><g class="point" style="vector-effect: none; stroke-miterlimit: 2;"><path d="M17.486659657190927,107.42405299955604L17.394916939782433,107.39020732422105A152,152 0,0,0 17.394916939782433,212.60979267577898L17.486659657190927,212.575947000444A151.9022132118516,151.9022132118516 0,0,1 17.486659657190927,107.42405299955604Z" style="opacity: 1; stroke-width: 0.5px; fill: rgb(81, 80, 80); fill-opacity: 1; stroke: rgb(229, 236, 246); stroke-opacity: 1;"/></g><g class="point" style="vector-effect: none; stroke-miterlimit: 2;"><path d="M143.64886763744568,124.53165206019706L143.64811229812722,124.53001360255597A39.05770303601484,39.05770303601484 0,0,0 124.53001360255595,143.64811229812722L124.53165206019705,143.6488676374457A39.05589885173166,39.05589885173166 0,0,1 143.64886763744568,124.53165206019706Z" style="opacity: 1; stroke-width: 0.5px; fill: rgb(81, 80, 80); fill-opacity: 1; stroke: rgb(229, 236, 246); stroke-opacity: 1;"/></g></g></g></g><g class="scatterlayer"/></g><g class="polarsublayer angular-line"><path d="M160,0A160,160 0,1,0 -160,-1.9594348786357652e-14A160,160 0,1,0 160,3.9188697572715304e-14Z" transform="translate(317.5,260)" stroke-width="1" style="fill: none; stroke: rgb(255, 255, 255); stroke-opacity: 1;"/></g><g class="polarsublayer radial-line"><line x1="0" y1="0" x2="160" y2="0" transform="translate(317.5,260)" stroke-width="1" style="fill: none; stroke: rgb(255, 255, 255); stroke-opacity: 1;"/></g><g class="polarsublayer angular-axis"><g class="angularaxistick"><text text-anchor="middle" x="1.7757378587636624e-16" y="-5.300000000000001" transform="translate(317.5,100)" style="font-family: 'Open Sans', verdana, arial, sans-serif; font-size: 12px; fill: rgb(42, 63, 95); fill-opacity: 1; white-space: pre; opacity: 1;">N</text></g><g class="angularaxistick"><text text-anchor="start" x="2.050609665440988" y="-0.7778174593052025" transform="translate(430.6370849898476,146.8629150101524)" style="font-family: 'Open Sans', verdana, arial, sans-serif; font-size: 12px; fill: rgb(42, 63, 95); fill-opacity: 1; white-space: pre; opacity: 1;">NE</text></g><g class="angularaxistick"><text text-anchor="start" x="2.9000000000000004" y="4.199999999999999" transform="translate(477.5,260)" style="font-family: 'Open Sans', verdana, arial, sans-serif; font-size: 12px; fill: rgb(42, 63, 95); fill-opacity: 1; white-space: pre; opacity: 1;">E</text></g><g class="angularaxistick"><text text-anchor="start" x="2.050609665440988" y="13.505739520663056" transform="translate(430.6370849898476,373.1370849898476)" style="font-family: 'Open Sans', verdana, arial, sans-serif; font-size: 12px; fill: rgb(42, 63, 95); fill-opacity: 1; white-space: pre; opacity: 1;">SE</text></g><g class="angularaxistick"><text text-anchor="middle" x="1.7757378587636624e-16" y="14.9" transform="translate(317.5,420)" style="font-family: 'Open Sans', verdana, arial, sans-serif; font-size: 12px; fill: rgb(42, 63, 95); fill-opacity: 1; white-space: pre; opacity: 1;">S</text></g><g class="angularaxistick"><text text-anchor="end" x="-2.0506096654409878" y="13.505739520663058" transform="translate(204.3629150101524,373.1370849898476)" style="font-family: 'Open Sans', verdana, arial, sans-serif; font-size: 12px; fill: rgb(42, 63, 95); fill-opacity: 1; white-space: pre; opacity: 1;">SW</text></g><g class="angularaxistick"><text text-anchor="end" x="-2.9000000000000004" y="4.200000000000001" transform="translate(157.5,260)" style="font-family: 'Open Sans', verdana, arial, sans-serif; font-size: 12px; fill: rgb(42, 63, 95); fill-opacity: 1; white-space: pre; opacity: 1;">W</text></g><g class="angularaxistick"><text text-anchor="end" x="-2.0506096654409887" y="-0.7778174593052021" transform="translate(204.36291501015236,146.8629150101524)" style="font-family: 'Open Sans', verdana, arial, sans-serif; font-size: 12px; fill: rgb(42, 63, 95); fill-opacity: 1; white-space: pre; opacity: 1;">NW</text></g></g><g class="polarsublayer radial-axis" transform="translate(317.5,260)"><g class="xtick"><text text-anchor="start" x="0" y="14.9" transform=" rotate(90,0,8.9)" style="font-family: 'Open Sans', verdana, arial, sans-serif; font-size: 12px; fill: rgb(42, 63, 95); fill-opacity: 1; white-space: pre; opacity: 1;">0</text></g><g class="xtick"><text text-anchor="start" x="0" y="14.9" transform="translate(18.04,0) rotate(90,0,8.9)" style="font-family: 'Open Sans', verdana, arial, sans-serif; font-size: 12px; fill: rgb(42, 63, 95); fill-opacity: 1; white-space: pre; opacity: 1;">50k</text></g><g class="xtick"><text text-anchor="start" x="0" y="14.9" transform="translate(36.08,0) rotate(90,0,8.9)" style="font-family: 'Open Sans', verdana, arial, sans-serif; font-size: 12px; fill: rgb(42, 63, 95); fill-opacity: 1; white-space: pre; opacity: 1;">100k</text></g><g class="xtick"><text text-anchor="start" x="0" y="14.9" transform="translate(54.13,0) rotate(90,0,8.9)" style="font-family: 'Open Sans', verdana, arial, sans-serif; font-size: 12px; fill: rgb(42, 63, 95); fill-opacity: 1; white-space: pre; opacity: 1;">150k</text></g><g class="xtick"><text text-anchor="start" x="0" y="14.9" transform="translate(72.17,0) rotate(90,0,8.9)" style="font-family: 'Open Sans', verdana, arial, sans-serif; font-size: 12px; fill: rgb(42, 63, 95); fill-opacity: 1; white-space: pre; opacity: 1;">200k</text></g><g class="xtick"><text text-anchor="start" x="0" y="14.9" transform="translate(90.21,0) rotate(90,0,8.9)" style="font-family: 'Open Sans', verdana, arial, sans-serif; font-size: 12px; fill: rgb(42, 63, 95); fill-opacity: 1; white-space: pre; opacity: 1;">250k</text></g><g class="xtick"><text text-anchor="start" x="0" y="14.9" transform="translate(108.25,0) rotate(90,0,8.9)" style="font-family: 'Open Sans', verdana, arial, sans-serif; font-size: 12px; fill: rgb(42, 63, 95); fill-opacity: 1; white-space: pre; opacity: 1;">300k</text></g><g class="xtick"><text text-anchor="start" x="0" y="14.9" transform="translate(126.29,0) rotate(90,0,8.9)" style="font-family: 'Open Sans', verdana, arial, sans-serif; font-size: 12px; fill: rgb(42, 63, 95); fill-opacity: 1; white-space: pre; opacity: 1;">350k</text></g><g class="xtick"><text text-anchor="start" x="0" y="14.9" transform="translate(144.33,0) rotate(90,0,8.9)" style="font-family: 'Open Sans', verdana, arial, sans-serif; font-size: 12px; fill: rgb(42, 63, 95); fill-opacity: 1; white-space: pre; opacity: 1;">400k</text></g></g></g></g><g class="smithlayer"/><g class="ternarylayer"/><g class="geolayer"/><g class="funnelarealayer"/><g class="pielayer"/><g class="iciclelayer"/><g class="treemaplayer"/><g class="sunburstlayer"/><g class="glimages"/><defs id="topdefs-6dfb3c"><g class="clips"/><clipPath id="legend6dfb3c"><rect width="123" height="181" x="0" y="0"/></clipPath></defs><g class="layer-above"><g class="imagelayer"/><g class="shapelayer"/></g><g class="infolayer"><g class="legend" pointer-events="all" transform="translate(564.5,100)"><rect class="bg" shape-rendering="crispEdges" width="123" height="181" x="0" y="0" style="stroke: rgb(68, 68, 68); stroke-opacity: 1; fill: rgb(255, 255, 255); fill-opacity: 1; stroke-width: 0px;"/><g class="scrollbox" transform="" clip-path="url(#legend6dfb3c)"><text class="legendtitletext" text-anchor="start" x="2" y="18.2" style="font-family: 'Open Sans', verdana, arial, sans-serif; font-size: 14px; fill: rgb(42, 63, 95); fill-opacity: 1; white-space: pre;">SpeedRange [m/s]</text><g class="groups" transform=""><g class="traces" transform="translate(0,32.7)" style="opacity: 1;"><text class="legendtext" text-anchor="start" x="40" y="4.680000000000001" style="font-family: 'Open Sans', verdana, arial, sans-serif; font-size: 12px; fill: rgb(42, 63, 95); fill-opacity: 1; white-space: pre;">&#60;2.5</text><g class="layers" style="opacity: 1;"><g class="legendfill"/><g class="legendlines"/><g class="legendsymbols"><g class="legendpoints"><path class="legendundefined" d="M6,6H-6V-6H6Z" transform="translate(20,0)" style="stroke-width: 0.5px; fill: rgb(254, 254, 253); fill-opacity: 1; stroke: rgb(229, 236, 246); stroke-opacity: 1;"/></g></g></g><rect class="legendtoggle" x="0" y="-9.5" width="91.5625" height="19" style="fill: rgb(0, 0, 0); fill-opacity: 0;"/></g></g><g class="groups" transform=""><g class="traces" transform="translate(0,51.7)" style="opacity: 1;"><text class="legendtext" text-anchor="start" x="40" y="4.680000000000001" style="font-family: 'Open Sans', verdana, arial, sans-serif; font-size: 12px; fill: rgb(42, 63, 95); fill-opacity: 1; white-space: pre;">2.5-5.0</text><g class="layers" style="opacity: 1;"><g class="legendfill"/><g class="legendlines"/><g class="legendsymbols"><g class="legendpoints"><path class="legendundefined" d="M6,6H-6V-6H6Z" transform="translate(20,0)" style="stroke-width: 0.5px; fill: rgb(224, 224, 223); fill-opacity: 1; stroke: rgb(229, 236, 246); stroke-opacity: 1;"/></g></g></g><rect class="legendtoggle" x="0" y="-9.5" width="91.5625" height="19" style="fill: rgb(0, 0, 0); fill-opacity: 0;"/></g></g><g class="groups" transform=""><g class="traces" transform="translate(0,70.7)" style="opacity: 1;"><text class="legendtext" text-anchor="start" x="40" y="4.680000000000001" style="font-family: 'Open Sans', verdana, arial, sans-serif; font-size: 12px; fill: rgb(42, 63, 95); fill-opacity: 1; white-space: pre;">5.0-7.5</text><g class="layers" style="opacity: 1;"><g class="legendfill"/><g class="legendlines"/><g class="legendsymbols"><g class="legendpoints"><path class="legendundefined" d="M6,6H-6V-6H6Z" transform="translate(20,0)" style="stroke-width: 0.5px; fill: rgb(197, 197, 195); fill-opacity: 1; stroke: rgb(229, 236, 246); stroke-opacity: 1;"/></g></g></g><rect class="legendtoggle" x="0" y="-9.5" width="91.5625" height="19" style="fill: rgb(0, 0, 0); fill-opacity: 0;"/></g></g><g class="groups" transform=""><g class="traces" transform="translate(0,89.7)" style="opacity: 1;"><text class="legendtext" text-anchor="start" x="40" y="4.680000000000001" style="font-family: 'Open Sans', verdana, arial, sans-serif; font-size: 12px; fill: rgb(42, 63, 95); fill-opacity: 1; white-space: pre;">7.5-10.0</text><g class="layers" style="opacity: 1;"><g class="legendfill"/><g class="legendlines"/><g class="legendsymbols"><g class="legendpoints"><path class="legendundefined" d="M6,6H-6V-6H6Z" transform="translate(20,0)" style="stroke-width: 0.5px; fill: rgb(171, 171, 170); fill-opacity: 1; stroke: rgb(229, 236, 246); stroke-opacity: 1;"/></g></g></g><rect class="legendtoggle" x="0" y="-9.5" width="91.5625" height="19" style="fill: rgb(0, 0, 0); fill-opacity: 0;"/></g></g><g class="groups" transform=""><g class="traces" transform="translate(0,108.7)" style="opacity: 1;"><text class="legendtext" text-anchor="start" x="40" y="4.680000000000001" style="font-family: 'Open Sans', verdana, arial, sans-serif; font-size: 12px; fill: rgb(42, 63, 95); fill-opacity: 1; white-space: pre;">10.0-12.5</text><g class="layers" style="opacity: 1;"><g class="legendfill"/><g class="legendlines"/><g class="legendsymbols"><g class="legendpoints"><path class="legendundefined" d="M6,6H-6V-6H6Z" transform="translate(20,0)" style="stroke-width: 0.5px; fill: rgb(146, 146, 145); fill-opacity: 1; stroke: rgb(229, 236, 246); stroke-opacity: 1;"/></g></g></g><rect class="legendtoggle" x="0" y="-9.5" width="91.5625" height="19" style="fill: rgb(0, 0, 0); fill-opacity: 0;"/></g></g><g class="groups" transform=""><g class="traces" transform="translate(0,127.7)" style="opacity: 1;"><text class="legendtext" text-anchor="start" x="40" y="4.680000000000001" style="font-family: 'Open Sans', verdana, arial, sans-serif; font-size: 12px; fill: rgb(42, 63, 95); fill-opacity: 1; white-space: pre;">12.5-15.0</text><g class="layers" style="opacity: 1;"><g class="legendfill"/><g class="legendlines"/><g class="legendsymbols"><g class="legendpoints"><path class="legendundefined" d="M6,6H-6V-6H6Z" transform="translate(20,0)" style="stroke-width: 0.5px; fill: rgb(124, 123, 122); fill-opacity: 1; stroke: rgb(229, 236, 246); stroke-opacity: 1;"/></g></g></g><rect class="legendtoggle" x="0" y="-9.5" width="91.5625" height="19" style="fill: rgb(0, 0, 0); fill-opacity: 0;"/></g></g><g class="groups" transform=""><g class="traces" transform="translate(0,146.7)" style="opacity: 1;"><text class="legendtext" text-anchor="start" x="40" y="4.680000000000001" style="font-family: 'Open Sans', verdana, arial, sans-serif; font-size: 12px; fill: rgb(42, 63, 95); fill-opacity: 1; white-space: pre;">15.0-17.5</text><g class="layers" style="opacity: 1;"><g class="legendfill"/><g class="legendlines"/><g class="legendsymbols"><g class="legendpoints"><path class="legendundefined" d="M6,6H-6V-6H6Z" transform="translate(20,0)" style="stroke-width: 0.5px; fill: rgb(102, 101, 101); fill-opacity: 1; stroke: rgb(229, 236, 246); stroke-opacity: 1;"/></g></g></g><rect class="legendtoggle" x="0" y="-9.5" width="91.5625" height="19" style="fill: rgb(0, 0, 0); fill-opacity: 0;"/></g></g><g class="groups" transform=""><g class="traces" transform="translate(0,165.7)" style="opacity: 1;"><text class="legendtext" text-anchor="start" x="40" y="4.680000000000001" style="font-family: 'Open Sans', verdana, arial, sans-serif; font-size: 12px; fill: rgb(42, 63, 95); fill-opacity: 1; white-space: pre;">17.5></text><g class="layers" style="opacity: 1;"><g class="legendfill"/><g class="legendlines"/><g class="legendsymbols"><g class="legendpoints"><path class="legendundefined" d="M6,6H-6V-6H6Z" transform="translate(20,0)" style="stroke-width: 0.5px; fill: rgb(81, 80, 80); fill-opacity: 1; stroke: rgb(229, 236, 246); stroke-opacity: 1;"/></g></g></g><rect class="legendtoggle" x="0" y="-9.5" width="91.5625" height="19" style="fill: rgb(0, 0, 0); fill-opacity: 0;"/></g></g></g><rect class="scrollbar" rx="20" ry="3" width="0" height="0" x="0" y="0" style="fill: rgb(128, 139, 164); fill-opacity: 1;"/></g><g class="g-gtitle"><text class="gtitle" x="35" y="50" text-anchor="start" dy="0em" style="font-family: 'Open Sans', verdana, arial, sans-serif; font-size: 17px; fill: rgb(42, 63, 95); opacity: 1; font-weight: normal; white-space: pre;">Wind direction and intensity in Munich airport</text></g><g class="g-polartitle"/></g></svg>