<svg class="main-svg" xmlns="http://www.w3.org/2000/svg" xmlns:xlink="http://www.w3.org/1999/xlink" width="700" height="500" style="" viewBox="0 0 700 500"><rect x="0" y="0" width="700" height="500" style="fill: rgb(255, 255, 255); fill-opacity: 1;"/><defs id="defs-7e906c"><g class="clips"><clipPath id="clip7e906cpolar-for-traces"><path d="M160,0A160,160 0,1,0 -160,-1.9594348786357652e-14A160,160 0,1,0 160,3.9188697572715304e-14Z" transform="translate(160,160)"/></clipPath></g><g class="gradients"/><g class="patterns"/></defs><g class="bglayer"/><g class="layer-below"><g class="imagelayer"/><g class="shapelayer"/></g><g class="cartesianlayer"/><g class="polarlayer"><g class="polar"><g class="polarsublayer draglayer"/><g class="polarsublayer plotbg"><path d="M160,0A160,160 0,1,0 -160,-1.9594348786357652e-14A160,160 0,1,0 160,3.9188697572715304e-14Z" transform="translate(317.5,260)" style="fill: rgb(229, 236, 246); fill-opacity: 1;"/></g><g class="polarsublayer backplot"><g class="maplayer"/></g><g class="polarsublayer angular-grid" style="fill: none;"><path class="angularaxisgrid" d="M317.5,260L317.5,100" style="stroke: rgb(255, 255, 255); stroke-opacity: 1; stroke-width: 1px;"/><path class="angularaxisgrid" d="M317.5,260L430.6370849898476,146.8629150101524" style="stroke: rgb(255, 255, 255); stroke-opacity: 1; stroke-width: 1px;"/><path class="angularaxisgrid" d="M317.5,260L477.5,260" style="stroke: rgb(255, 255, 255); stroke-opacity: 1; stroke-width: 1px;"/><path class="angularaxisgrid" d="M317.5,260L430.6370849898476,373.1370849898476" style="stroke: rgb(255, 255, 255); stroke-opacity: 1; stroke-width: 1px;"/><path class="angularaxisgrid" d="M317.5,260L317.5,420" style="stroke: rgb(255, 255, 255); stroke-opacity: 1; stroke-width: 1px;"/><path class="angularaxisgrid" d="M317.5,260L204.3629150101524,373.1370849898476" style="stroke: rgb(255, 255, 255); stroke-opacity: 1; stroke-width: 1px;"/><path class="angularaxisgrid" d="M317.5,260L157.5,260" style="stroke: rgb(255, 255, 255); stroke-opacity: 1; stroke-width: 1px;"/><path class="angularaxisgrid" d="M317.5,260L204.36291501015236,146.8629150101524" style="stroke: rgb(255, 255, 255); stroke-opacity: 1; stroke-width: 1px;"/></g><g class="polarsublayer radial-grid" transform="translate(317.5,260)" style="fill: none;"><path class="xgrid" d="M22.67,0A22.67,22.67 0,1,0 -22.67,-2.77627429366705e-15A22.67,22.67 0,1,0 22.67,5.5525485873341e-15Z" style="stroke: rgb(255, 255, 255); stroke-opacity: 1; stroke-width: 1px;"/><path class="xgrid" d="M45.35,0A45.35,45.35 0,1,0 -45.35,-5.553773234133247e-15A45.35,45.35 0,1,0 45.35,1.1107546468266493e-14Z" style="stroke: rgb(255, 255, 255); stroke-opacity: 1; stroke-width: 1px;"/><path class="xgrid" d="M68.02,0A68.02,68.02 0,1,0 -68.02,-8.330047527800296e-15A68.02,68.02 0,1,0 68.02,1.6660095055600593e-14Z" style="stroke: rgb(255, 255, 255); stroke-opacity: 1; stroke-width: 1px;"/><path class="xgrid" d="M90.7,0A90.7,90.7 0,1,0 -90.7,-1.1107546468266493e-14A90.7,90.7 0,1,0 90.7,2.2215092936532987e-14Z" style="stroke: rgb(255, 255, 255); stroke-opacity: 1; stroke-width: 1px;"/><path class="xgrid" d="M113.37,0A113.37,113.37 0,1,0 -113.37,-1.3883820761933544e-14A113.37,113.37 0,1,0 113.37,2.7767641523867088e-14Z" style="stroke: rgb(255, 255, 255); stroke-opacity: 1; stroke-width: 1px;"/><path class="xgrid" d="M136.05,0A136.05,136.05 0,1,0 -136.05,-1.666131970239974e-14A136.05,136.05 0,1,0 136.05,3.332263940479948e-14Z" style="stroke: rgb(255, 255, 255); stroke-opacity: 1; stroke-width: 1px;"/><path class="xgrid" d="M158.72,0A158.72,158.72 0,1,0 -158.72,-1.943759399606679e-14A158.72,158.72 0,1,0 158.72,3.887518799213358e-14Z" style="stroke: rgb(255, 255, 255); stroke-opacity: 1; stroke-width: 1px;"/></g><g class="polarsublayer frontplot" transform="translate(157.5,100)" clip-path="url(#clip7e906cpolar-for-traces)"><g class="barlayer"><g class="trace bars" style="opacity: 1;"><g class="points"><g class="point" style="vector-effect: none; stroke-miterlimit: 2;"><path d="M160,160L170.87703939760678,130.51649459437814A31.42589819019375,31.42589819019375 0,0,0 149.12296060239322,130.51649459437814L160,160A0,0 0,0,1 160,160Z" style="opacity: 1; stroke-width: 0.5px; fill: rgb(254, 254, 253); fill-opacity: 1; stroke: rgb(229, 236, 246); stroke-opacity: 1;"/></g><g class="point" style="vector-effect: none; stroke-miterlimit: 2;"><path d="M160,160L185.8610251794297,148.07790409471906A28.476815027418592,28.476815027418592 0,0,0 171.92209590528097,134.1389748205703L160,160A0,0 0,0,1 160,160Z" style="opacity: 1; stroke-width: 0.5px; fill: rgb(254, 254, 253); fill-opacity: 1; stroke: rgb(229, 236, 246); stroke-opacity: 1;"/></g><g class="point" style="vector-effect: none; stroke-miterlimit: 2;"><path d="M160,160L212.90242091483066,179.5167334617433A56.38766730116297,56.38766730116297 0,0,0 212.90242091483066,140.4832665382567L160,160A0,0 0,0,1 160,160Z" style="opacity: 1; stroke-width: 0.5px; fill: rgb(254, 254, 253); fill-opacity: 1; stroke: rgb(229, 236, 246); stroke-opacity: 1;"/></g><g class="point" style="vector-effect: none; stroke-miterlimit: 2;"><path d="M160,160L169.430747329476,180.45687235584023A22.526043189507536,22.526043189507536 0,0,0 180.45687235584023,169.430747329476L160,160A0,0 0,0,1 160,160Z" style="opacity: 1; stroke-width: 0.5px; fill: rgb(254, 254, 253); fill-opacity: 1; stroke: rgb(229, 236, 246); stroke-opacity: 1;"/></g><g class="point" style="vector-effect: none; stroke-miterlimit: 2;"><path d="M160,160L146.64216622919994,196.2079927995329A38.59339924934511,38.59339924934511 0,0,0 173.35783377080006,196.2079927995329L160,160A0,0 0,0,1 160,160Z" style="opacity: 1; stroke-width: 0.5px; fill: rgb(254, 254, 253); fill-opacity: 1; stroke: rgb(229, 236, 246); stroke-opacity: 1;"/></g><g class="point" style="vector-effect: none; stroke-miterlimit: 2;"><path d="M160,160L115.7968963032556,180.3779099214847A48.674157303370784,48.674157303370784 0,0,0 139.62209007851533,204.2031036967444L160,160A0,0 0,0,1 160,160Z" style="opacity: 1; stroke-width: 0.5px; fill: rgb(254, 254, 253); fill-opacity: 1; stroke: rgb(229, 236, 246); stroke-opacity: 1;"/></g><g class="point" style="vector-effect: none; stroke-miterlimit: 2;"><path d="M160,160L114.03437392669579,143.04238526401076A48.993871839701164,48.993871839701164 0,0,0 114.03437392669579,176.95761473598924L160,160A0,0 0,0,1 160,160Z" style="opacity: 1; stroke-width: 0.5px; fill: rgb(254, 254, 253); fill-opacity: 1; stroke: rgb(229, 236, 246); stroke-opacity: 1;"/></g><g class="point" style="vector-effect: none; stroke-miterlimit: 2;"><path d="M160,160L148.99644885997924,136.13145244292406A26.282802365338597,26.282802365338597 0,0,0 136.13145244292406,148.99644885997927L160,160A0,0 0,0,1 160,160Z" style="opacity: 1; stroke-width: 0.5px; fill: rgb(254, 254, 253); fill-opacity: 1; stroke: rgb(229, 236, 246); stroke-opacity: 1;"/></g></g></g><g class="trace bars" style="opacity: 1;"><g class="points"><g class="point" style="vector-effect: none; stroke-miterlimit: 2;"><path d="M170.87703939760678,130.51649459437814L174.65057799462923,120.28787065024558A42.32839062695793,42.32839062695793 0,0,0 145.3494220053708,120.28787065024558L149.12296060239322,130.51649459437814A31.42589819019375,31.42589819019375 0,0,1 170.87703939760678,130.51649459437814Z" style="opacity: 1; stroke-width: 0.5px; fill: rgb(224, 224, 223); fill-opacity: 1; stroke: rgb(229, 236, 246); stroke-opacity: 1;"/></g><g class="point" style="vector-effect: none; stroke-miterlimit: 2;"><path d="M185.8610251794297,148.07790409471906L203.6079961803531,139.89643840133488A48.01885587784255,48.01885587784255 0,0,0 180.10356159866515,116.3920038196469L171.92209590528097,134.1389748205703A28.476815027418592,28.476815027418592 0,0,1 185.8610251794297,148.07790409471906Z" style="opacity: 1; stroke-width: 0.5px; fill: rgb(224, 224, 223); fill-opacity: 1; stroke: rgb(229, 236, 246); stroke-opacity: 1;"/></g><g class="point" style="vector-effect: none; stroke-miterlimit: 2;"><path d="M212.90242091483066,179.5167334617433L247.74254108092958,192.3699323758641A93.5230775656823,93.5230775656823 0,0,0 247.74254108092958,127.63006762413593L212.90242091483066,140.4832665382567A56.38766730116297,56.38766730116297 0,0,1 212.90242091483066,179.5167334617433Z" style="opacity: 1; stroke-width: 0.5px; fill: rgb(224, 224, 223); fill-opacity: 1; stroke: rgb(229, 236, 246); stroke-opacity: 1;"/></g><g class="point" style="vector-effect: none; stroke-miterlimit: 2;"><path d="M169.430747329476,180.45687235584023L173.17574433128615,188.58039883391538A31.47124776981508,31.47124776981508 0,0,0 188.58039883391538,173.17574433128615L180.45687235584023,169.430747329476A22.526043189507536,22.526043189507536 0,0,1 169.430747329476,180.45687235584023Z" style="opacity: 1; stroke-width: 0.5px; fill: rgb(224, 224, 223); fill-opacity: 1; stroke: rgb(229, 236, 246); stroke-opacity: 1;"/></g><g class="point" style="vector-effect: none; stroke-miterlimit: 2;"><path d="M146.64216622919994,196.2079927995329L142.68529527989088,206.93356082946667A50.025574776086444,50.025574776086444 0,0,0 177.31470472010912,206.93356082946667L173.35783377080006,196.2079927995329A38.59339924934511,38.59339924934511 0,0,1 146.64216622919994,196.2079927995329Z" style="opacity: 1; stroke-width: 0.5px; fill: rgb(224, 224, 223); fill-opacity: 1; stroke: rgb(229, 236, 246); stroke-opacity: 1;"/></g><g class="point" style="vector-effect: none; stroke-miterlimit: 2;"><path d="M115.7968963032556,180.3779099214847L84.6548581946316,194.73458613369652A82.96614892563265,82.96614892563265 0,0,0 125.26541386630349,235.3451418053684L139.62209007851533,204.2031036967444A48.674157303370784,48.674157303370784 0,0,1 115.7968963032556,180.3779099214847Z" style="opacity: 1; stroke-width: 0.5px; fill: rgb(224, 224, 223); fill-opacity: 1; stroke: rgb(229, 236, 246); stroke-opacity: 1;"/></g><g class="point" style="vector-effect: none; stroke-miterlimit: 2;"><path d="M114.03437392669579,143.04238526401076L52.45074828011184,120.32298629194568A114.63466736680051,114.63466736680051 0,0,0 52.45074828011184,199.67701370805435L114.03437392669579,176.95761473598924A48.993871839701164,48.993871839701164 0,0,1 114.03437392669579,143.04238526401076Z" style="opacity: 1; stroke-width: 0.5px; fill: rgb(224, 224, 223); fill-opacity: 1; stroke: rgb(229, 236, 246); stroke-opacity: 1;"/></g><g class="point" style="vector-effect: none; stroke-miterlimit: 2;"><path d="M148.99644885997924,136.13145244292406L140.17762169967102,117.00193754405905A47.347228603650635,47.347228603650635 0,0,0 117.00193754405903,140.17762169967102L136.13145244292406,148.99644885997927A26.282802365338597,26.282802365338597 0,0,1 148.99644885997924,136.13145244292406Z" style="opacity: 1; stroke-width: 0.5px; fill: rgb(224, 224, 223); fill-opacity: 1; stroke: rgb(229, 236, 246); stroke-opacity: 1;"/></g></g></g><g class="trace bars" style="opacity: 1;"><g class="points"><g class="point" style="vector-effect: none; stroke-miterlimit: 2;"><path d="M174.65057799462923,120.28787065024558L174.7726949210667,119.95685823692936A42.68121035641189,42.68121035641189 0,0,0 145.2273050789333,119.95685823692936L145.3494220053708,120.28787065024558A42.32839062695793,42.32839062695793 0,0,1 174.65057799462923,120.28787065024558Z" style="opacity: 1; stroke-width: 0.5px; fill: rgb(197, 197, 195); fill-opacity: 1; stroke: rgb(229, 236, 246); stroke-opacity: 1;"/></g><g class="point" style="vector-effect: none; stroke-miterlimit: 2;"><path d="M203.6079961803531,139.89643840133488L204.80850719092794,139.34299524492033A49.340796123804346,49.340796123804346 0,0,0 180.65700475507967,115.19149280907206L180.10356159866515,116.3920038196469A48.01885587784255,48.01885587784255 0,0,1 203.6079961803531,139.89643840133488Z" style="opacity: 1; stroke-width: 0.5px; fill: rgb(197, 197, 195); fill-opacity: 1; stroke: rgb(229, 236, 246); stroke-opacity: 1;"/></g><g class="point" style="vector-effect: none; stroke-miterlimit: 2;"><path d="M247.74254108092958,192.3699323758641L250.91736708114243,193.5411875237773A96.90706319702602,96.90706319702602 0,0,0 250.91736708114246,126.45881247622273L247.74254108092958,127.63006762413593A93.5230775656823,93.5230775656823 0,0,1 247.74254108092958,192.3699323758641Z" style="opacity: 1; stroke-width: 0.5px; fill: rgb(197, 197, 195); fill-opacity: 1; stroke: rgb(229, 236, 246); stroke-opacity: 1;"/></g><g class="point" style="vector-effect: none; stroke-miterlimit: 2;"><path d="M173.17574433128615,188.58039883391538L173.36104811195875,188.98235380692432A31.91385966691927,31.91385966691927 0,0,0 188.98235380692432,173.36104811195872L188.58039883391538,173.17574433128615A31.47124776981508,31.47124776981508 0,0,1 173.17574433128615,188.58039883391538Z" style="opacity: 1; stroke-width: 0.5px; fill: rgb(197, 197, 195); fill-opacity: 1; stroke: rgb(229, 236, 246); stroke-opacity: 1;"/></g><g class="point" style="vector-effect: none; stroke-miterlimit: 2;"><path d="M142.68529527989088,206.93356082946667L142.61293550728462,207.12970057566048A50.23463633814078,50.23463633814078 0,0,0 177.38706449271538,207.12970057566048L177.31470472010912,206.93356082946667A50.025574776086444,50.025574776086444 0,0,1 142.68529527989088,206.93356082946667Z" style="opacity: 1; stroke-width: 0.5px; fill: rgb(197, 197, 195); fill-opacity: 1; stroke: rgb(229, 236, 246); stroke-opacity: 1;"/></g><g class="point" style="vector-effect: none; stroke-miterlimit: 2;"><path d="M84.6548581946316,194.73458613369652L79.97513036850395,196.8919702113426A88.11922165800449,88.11922165800449 0,0,0 123.10802978865742,240.02486963149605L125.26541386630349,235.3451418053684A82.96614892563265,82.96614892563265 0,0,1 84.6548581946316,194.73458613369652Z" style="opacity: 1; stroke-width: 0.5px; fill: rgb(197, 197, 195); fill-opacity: 1; stroke: rgb(229, 236, 246); stroke-opacity: 1;"/></g><g class="point" style="vector-effect: none; stroke-miterlimit: 2;"><path d="M52.45074828011184,120.32298629194568L26.246308002289567,110.65565788669579A142.56547345557829,142.56547345557829 0,0,0 26.246308002289567,209.34434211330424L52.45074828011184,199.67701370805435A114.63466736680051,114.63466736680051 0,0,1 52.45074828011184,120.32298629194568Z" style="opacity: 1; stroke-width: 0.5px; fill: rgb(197, 197, 195); fill-opacity: 1; stroke: rgb(229, 236, 246); stroke-opacity: 1;"/></g><g class="point" style="vector-effect: none; stroke-miterlimit: 2;"><path d="M140.17762169967102,117.00193754405905L138.83227068548462,114.08364559862733A50.56069981561815,50.56069981561815 0,0,0 114.08364559862733,138.83227068548464L117.00193754405903,140.17762169967102A47.347228603650635,47.347228603650635 0,0,1 140.17762169967102,117.00193754405905Z" style="opacity: 1; stroke-width: 0.5px; fill: rgb(197, 197, 195); fill-opacity: 1; stroke: rgb(229, 236, 246); stroke-opacity: 1;"/></g></g></g><g class="trace bars" style="opacity: 1;"><g class="points"><g class="point" style="vector-effect: none; stroke-miterlimit: 2;"><path d="M174.7726949210667,119.95685823692936L174.77583417367435,119.94834892039168A42.69028027233615,42.69028027233615 0,0,0 145.22416582632565,119.94834892039168L145.2273050789333,119.95685823692936A42.68121035641189,42.68121035641189 0,0,1 174.7726949210667,119.95685823692936Z" style="opacity: 1; stroke-width: 0.5px; fill: rgb(171, 171, 170); fill-opacity: 1; stroke: rgb(229, 236, 246); stroke-opacity: 1;"/></g><g class="point" style="vector-effect: none; stroke-miterlimit: 2;"><path d="M204.80850719092794,139.34299524492033L204.81962684694358,139.33786901328287A49.35304051030211,49.35304051030211 0,0,0 180.66213098671713,115.18037315305644L180.65700475507967,115.19149280907206A49.340796123804346,49.340796123804346 0,0,1 204.80850719092794,139.34299524492033Z" style="opacity: 1; stroke-width: 0.5px; fill: rgb(171, 171, 170); fill-opacity: 1; stroke: rgb(229, 236, 246); stroke-opacity: 1;"/></g><g class="point" style="vector-effect: none; stroke-miterlimit: 2;"><path d="M250.91736708114243,193.5411875237773L251.00288571234623,193.57273701248414A96.99821585206489,96.99821585206489 0,0,0 251.00288571234626,126.42726298751587L250.91736708114246,126.45881247622273A96.90706319702602,96.90706319702602 0,0,1 250.91736708114243,193.5411875237773Z" style="opacity: 1; stroke-width: 0.5px; fill: rgb(171, 171, 170); fill-opacity: 1; stroke: rgb(229, 236, 246); stroke-opacity: 1;"/></g><g class="point" style="vector-effect: none; stroke-miterlimit: 2;"><path d="M173.36104811195875,188.98235380692432L173.36693378532027,188.99512081938667A31.92791803660188,31.92791803660188 0,0,0 188.9951208193867,173.36693378532024L188.98235380692432,173.36104811195872A31.91385966691927,31.91385966691927 0,0,1 173.36104811195875,188.98235380692432Z" style="opacity: 1; stroke-width: 0.5px; fill: rgb(171, 171, 170); fill-opacity: 1; stroke: rgb(229, 236, 246); stroke-opacity: 1;"/></g><g class="point" style="vector-effect: none; stroke-miterlimit: 2;"><path d="M142.61293550728462,207.12970057566048L142.60901144152507,207.14033722133257A50.245973733046114,50.245973733046114 0,0,0 177.39098855847496,207.14033722133257L177.38706449271538,207.12970057566048A50.23463633814078,50.23463633814078 0,0,1 142.61293550728462,207.12970057566048Z" style="opacity: 1; stroke-width: 0.5px; fill: rgb(171, 171, 170); fill-opacity: 1; stroke: rgb(229, 236, 246); stroke-opacity: 1;"/></g><g class="point" style="vector-effect: none; stroke-miterlimit: 2;"><path d="M79.97513036850395,196.8919702113426L79.04972788453767,197.31858659983777A89.1382267120958,89.1382267120958 0,0,0 122.68141340016223,240.95027211546233L123.10802978865742,240.02486963149605A88.11922165800449,88.11922165800449 0,0,1 79.97513036850395,196.8919702113426Z" style="opacity: 1; stroke-width: 0.5px; fill: rgb(171, 171, 170); fill-opacity: 1; stroke: rgb(229, 236, 246); stroke-opacity: 1;"/></g><g class="point" style="vector-effect: none; stroke-miterlimit: 2;"><path d="M26.246308002289567,110.65565788669579L18.965736772640383,107.96971335559275A150.32569352038044,150.32569352038044 0,0,0 18.965736772640383,212.03028664440728L26.246308002289567,209.34434211330424A142.56547345557829,142.56547345557829 0,0,1 26.246308002289567,110.65565788669579Z" style="opacity: 1; stroke-width: 0.5px; fill: rgb(171, 171, 170); fill-opacity: 1; stroke: rgb(229, 236, 246); stroke-opacity: 1;"/></g><g class="point" style="vector-effect: none; stroke-miterlimit: 2;"><path d="M138.83227068548462,114.08364559862733L138.6955711751524,113.7871214382109A50.887216788891735,50.887216788891735 0,0,0 113.78712143821089,138.6955711751524L114.08364559862733,138.83227068548464A50.56069981561815,50.56069981561815 0,0,1 138.83227068548462,114.08364559862733Z" style="opacity: 1; stroke-width: 0.5px; fill: rgb(171, 171, 170); fill-opacity: 1; stroke: rgb(229, 236, 246); stroke-opacity: 1;"/></g></g></g><g class="trace bars" style="opacity: 1;"><g class="points"><g class="point" style="vector-effect: none; stroke-miterlimit: 2;"><path d="M0,0Z" style="opacity: 1; stroke-width: 0.5px; fill: rgb(146, 146, 145); fill-opacity: 1; stroke: rgb(229, 236, 246); stroke-opacity: 1;"/></g><g class="point" style="vector-effect: none; stroke-miterlimit: 2;"><path d="M0,0Z" style="opacity: 1; stroke-width: 0.5px; fill: rgb(146, 146, 145); fill-opacity: 1; stroke: rgb(229, 236, 246); stroke-opacity: 1;"/></g><g class="point" style="vector-effect: none; stroke-miterlimit: 2;"><path d="M0,0Z" style="opacity: 1; stroke-width: 0.5px; fill: rgb(146, 146, 145); fill-opacity: 1; stroke: rgb(229, 236, 246); stroke-opacity: 1;"/></g><g class="point" style="vector-effect: none; stroke-miterlimit: 2;"><path d="M173.36693378532027,188.99512081938667L173.36750336661333,188.99635633672176A31.929278523990522,31.929278523990522 0,0,0 188.99635633672176,173.3675033666133L188.9951208193867,173.36693378532024A31.92791803660188,31.92791803660188 0,0,1 173.36693378532027,188.99512081938667Z" style="opacity: 1; stroke-width: 0.5px; fill: rgb(146, 146, 145); fill-opacity: 1; stroke: rgb(229, 236, 246); stroke-opacity: 1;"/></g><g class="point" style="vector-effect: none; stroke-miterlimit: 2;"><path d="M142.60901144152507,207.14033722133257L142.60885447889467,207.14076268715945A50.24642722884233,50.24642722884233 0,0,0 177.39114552110533,207.14076268715945L177.39098855847496,207.14033722133257A50.245973733046114,50.245973733046114 0,0,1 142.60901144152507,207.14033722133257Z" style="opacity: 1; stroke-width: 0.5px; fill: rgb(146, 146, 145); fill-opacity: 1; stroke: rgb(229, 236, 246); stroke-opacity: 1;"/></g><g class="point" style="vector-effect: none; stroke-miterlimit: 2;"><path d="M79.04972788453767,197.31858659983777L78.89775925232426,197.38864509888305A89.3055666608985,89.3055666608985 0,0,0 122.61135490111697,241.10224074767575L122.68141340016223,240.95027211546233A89.1382267120958,89.1382267120958 0,0,1 79.04972788453767,197.31858659983777Z" style="opacity: 1; stroke-width: 0.5px; fill: rgb(146, 146, 145); fill-opacity: 1; stroke: rgb(229, 236, 246); stroke-opacity: 1;"/></g><g class="point" style="vector-effect: none; stroke-miterlimit: 2;"><path d="M18.965736772640383,107.96971335559275L17.562975941401845,107.45220756322209A151.82086916049573,151.82086916049573 0,0,0 17.562975941401845,212.54779243677794L18.965736772640383,212.03028664440728A150.32569352038044,150.32569352038044 0,0,1 18.965736772640383,107.96971335559275Z" style="opacity: 1; stroke-width: 0.5px; fill: rgb(146, 146, 145); fill-opacity: 1; stroke: rgb(229, 236, 246); stroke-opacity: 1;"/></g><g class="point" style="vector-effect: none; stroke-miterlimit: 2;"><path d="M138.6955711751524,113.7871214382109L138.68019248024,113.75376247016405A50.923949948385015,50.923949948385015 0,0,0 113.75376247016405,138.68019248024L113.78712143821089,138.6955711751524A50.887216788891735,50.887216788891735 0,0,1 138.6955711751524,113.7871214382109Z" style="opacity: 1; stroke-width: 0.5px; fill: rgb(146, 146, 145); fill-opacity: 1; stroke: rgb(229, 236, 246); stroke-opacity: 1;"/></g></g></g><g class="trace bars" style="opacity: 1;"><g class="points"><g class="point" style="vector-effect: none; stroke-miterlimit: 2;"><path d="M0,0Z" style="opacity: 1; stroke-width: 0.5px; fill: rgb(124, 123, 122); fill-opacity: 1; stroke: rgb(229, 236, 246); stroke-opacity: 1;"/></g><g class="point" style="vector-effect: none; stroke-miterlimit: 2;"><path d="M0,0Z" style="opacity: 1; stroke-width: 0.5px; fill: rgb(124, 123, 122); fill-opacity: 1; stroke: rgb(229, 236, 246); stroke-opacity: 1;"/></g><g class="point" style="vector-effect: none; stroke-miterlimit: 2;"><path d="M0,0Z" style="opacity: 1; stroke-width: 0.5px; fill: rgb(124, 123, 122); fill-opacity: 1; stroke: rgb(229, 236, 246); stroke-opacity: 1;"/></g><g class="point" style="vector-effect: none; stroke-miterlimit: 2;"><path d="M0,0Z" style="opacity: 1; stroke-width: 0.5px; fill: rgb(124, 123, 122); fill-opacity: 1; stroke: rgb(229, 236, 246); stroke-opacity: 1;"/></g><g class="point" style="vector-effect: none; stroke-miterlimit: 2;"><path d="M0,0Z" style="opacity: 1; stroke-width: 0.5px; fill: rgb(124, 123, 122); fill-opacity: 1; stroke: rgb(229, 236, 246); stroke-opacity: 1;"/></g><g class="point" style="vector-effect: none; stroke-miterlimit: 2;"><path d="M78.89775925232426,197.38864509888305L78.88046200963329,197.39661923698577A89.32461348433947,89.32461348433947 0,0,0 122.60338076301426,241.11953799036672L122.61135490111697,241.10224074767575A89.3055666608985,89.3055666608985 0,0,1 78.89775925232426,197.38864509888305Z" style="opacity: 1; stroke-width: 0.5px; fill: rgb(124, 123, 122); fill-opacity: 1; stroke: rgb(229, 236, 246); stroke-opacity: 1;"/></g><g class="point" style="vector-effect: none; stroke-miterlimit: 2;"><path d="M17.562975941401845,107.45220756322209L17.410659175377162,107.3960149415452A151.9832206555401,151.9832206555401 0,0,0 17.410659175377162,212.60398505845484L17.562975941401845,212.54779243677794A151.82086916049573,151.82086916049573 0,0,1 17.562975941401845,107.45220756322209Z" style="opacity: 1; stroke-width: 0.5px; fill: rgb(124, 123, 122); fill-opacity: 1; stroke: rgb(229, 236, 246); stroke-opacity: 1;"/></g><g class="point" style="vector-effect: none; stroke-miterlimit: 2;"><path d="M138.68019248024,113.75376247016405L138.67867359679187,113.75046775727053A50.92757791475472,50.92757791475472 0,0,0 113.75046775727051,138.6786735967919L113.75376247016405,138.68019248024A50.923949948385015,50.923949948385015 0,0,1 138.68019248024,113.75376247016405Z" style="opacity: 1; stroke-width: 0.5px; fill: rgb(124, 123, 122); fill-opacity: 1; stroke: rgb(229, 236, 246); stroke-opacity: 1;"/></g></g></g><g class="trace bars" style="opacity: 1;"><g class="points"><g class="point" style="vector-effect: none; stroke-miterlimit: 2;"><path d="M0,0Z" style="opacity: 1; stroke-width: 0.5px; fill: rgb(102, 101, 101); fill-opacity: 1; stroke: rgb(229, 236, 246); stroke-opacity: 1;"/></g><g class="point" style="vector-effect: none; stroke-miterlimit: 2;"><path d="M0,0Z" style="opacity: 1; stroke-width: 0.5px; fill: rgb(102, 101, 101); fill-opacity: 1; stroke: rgb(229, 236, 246); stroke-opacity: 1;"/></g><g class="point" style="vector-effect: none; stroke-miterlimit: 2;"><path d="M0,0Z" style="opacity: 1; stroke-width: 0.5px; fill: rgb(102, 101, 101); fill-opacity: 1; stroke: rgb(229, 236, 246); stroke-opacity: 1;"/></g><g class="point" style="vector-effect: none; stroke-miterlimit: 2;"><path d="M0,0Z" style="opacity: 1; stroke-width: 0.5px; fill: rgb(102, 101, 101); fill-opacity: 1; stroke: rgb(229, 236, 246); stroke-opacity: 1;"/></g><g class="point" style="vector-effect: none; stroke-miterlimit: 2;"><path d="M0,0Z" style="opacity: 1; stroke-width: 0.5px; fill: rgb(102, 101, 101); fill-opacity: 1; stroke: rgb(229, 236, 246); stroke-opacity: 1;"/></g><g class="point" style="vector-effect: none; stroke-miterlimit: 2;"><path d="M78.88046200963329,197.39661923698577L78.87963833140992,197.39699895784779A89.3255204759319,89.3255204759319 0,0,0 122.60300104215221,241.12036166859008L122.60338076301426,241.11953799036672A89.32461348433947,89.32461348433947 0,0,1 78.88046200963329,197.39661923698577Z" style="opacity: 1; stroke-width: 0.5px; fill: rgb(102, 101, 101); fill-opacity: 1; stroke: rgb(229, 236, 246); stroke-opacity: 1;"/></g><g class="point" style="vector-effect: none; stroke-miterlimit: 2;"><path d="M17.410659175377162,107.3960149415452L17.39576787143622,107.39052124948182A151.99909300840756,151.99909300840756 0,0,0 17.39576787143622,212.6094787505182L17.410659175377162,212.60398505845484A151.9832206555401,151.9832206555401 0,0,1 17.410659175377162,107.3960149415452Z" style="opacity: 1; stroke-width: 0.5px; fill: rgb(102, 101, 101); fill-opacity: 1; stroke: rgb(229, 236, 246); stroke-opacity: 1;"/></g><g class="point" style="vector-effect: none; stroke-miterlimit: 2;"><path d="M138.67867359679187,113.75046775727053L138.67848373636085,113.75005591815884A50.928031410550936,50.928031410550936 0,0,0 113.75005591815884,138.67848373636087L113.75046775727051,138.6786735967919A50.92757791475472,50.92757791475472 0,0,1 138.67867359679187,113.75046775727053Z" style="opacity: 1; stroke-width: 0.5px; fill: rgb(102, 101, 101); fill-opacity: 1; stroke: rgb(229, 236, 246); stroke-opacity: 1;"/></g></g></g><g class="trace bars" style="opacity: 1;"><g class="points"><g class="point" style="vector-effect: none; stroke-miterlimit: 2;"><path d="M174.77583417367435,119.94834892039168L174.77614809893512,119.9474979887379A42.69118726392858,42.69118726392858 0,0,0 145.2238519010649,119.9474979887379L145.22416582632565,119.94834892039168A42.69028027233615,42.69028027233615 0,0,1 174.77583417367435,119.94834892039168Z" style="opacity: 1; stroke-width: 0.5px; fill: rgb(81, 80, 80); fill-opacity: 1; stroke: rgb(229, 236, 246); stroke-opacity: 1;"/></g><g class="point" style="vector-effect: none; stroke-miterlimit: 2;"><path d="M0,0Z" style="opacity: 1; stroke-width: 0.5px; fill: rgb(81, 80, 80); fill-opacity: 1; stroke: rgb(229, 236, 246); stroke-opacity: 1;"/></g><g class="point" style="vector-effect: none; stroke-miterlimit: 2;"><path d="M251.00288571234623,193.57273701248414L251.00331117817313,193.57289397511454A96.99866934786111,96.99866934786111 0,0,0 251.00331117817313,126.42710602488549L251.00288571234626,126.42726298751587A96.99821585206489,96.99821585206489 0,0,1 251.00288571234623,193.57273701248414Z" style="opacity: 1; stroke-width: 0.5px; fill: rgb(81, 80, 80); fill-opacity: 1; stroke: rgb(229, 236, 246); stroke-opacity: 1;"/></g><g class="point" style="vector-effect: none; stroke-miterlimit: 2;"><path d="M0,0Z" style="opacity: 1; stroke-width: 0.5px; fill: rgb(81, 80, 80); fill-opacity: 1; stroke: rgb(229, 236, 246); stroke-opacity: 1;"/></g><g class="point" style="vector-effect: none; stroke-miterlimit: 2;"><path d="M142.60885447889467,207.14076268715945L142.60838359100353,207.14203908464012A50.24778771623097,50.24778771623097 0,0,0 177.39161640899647,207.14203908464012L177.39114552110533,207.14076268715945A50.24642722884233,50.24642722884233 0,0,1 142.60885447889467,207.14076268715945Z" style="opacity: 1; stroke-width: 0.5px; fill: rgb(81, 80, 80); fill-opacity: 1; stroke: rgb(229, 236, 246); stroke-opacity: 1;"/></g><g class="point" style="vector-effect: none; stroke-miterlimit: 2;"><path d="M78.87963833140992,197.39699895784779L78.87881465318654,197.39737867870983A89.32642746752433,89.32642746752433 0,0,0 122.60262132129019,241.12118534681346L122.60300104215221,241.12036166859008A89.3255204759319,89.3255204759319 0,0,1 78.87963833140992,197.39699895784779Z" style="opacity: 1; stroke-width: 0.5px; fill: rgb(81, 80, 80); fill-opacity: 1; stroke: rgb(229, 236, 246); stroke-opacity: 1;"/></g><g class="point" style="vector-effect: none; stroke-miterlimit: 2;"><path d="M17.39576787143622,107.39052124948182L17.394916939782433,107.39020732422105A152,152 0,0,0 17.394916939782433,212.60979267577898L17.39576787143622,212.6094787505182A151.99909300840756,151.99909300840756 0,0,1 17.39576787143622,107.39052124948182Z" style="opacity: 1; stroke-width: 0.5px; fill: rgb(81, 80, 80); fill-opacity: 1; stroke: rgb(229, 236, 246); stroke-opacity: 1;"/></g><g class="point" style="vector-effect: none; stroke-miterlimit: 2;"><path d="M138.67848373636085,113.75005591815884L138.67829387592985,113.74964407904716A50.928484906347144,50.928484906347144 0,0,0 113.74964407904714,138.67829387592985L113.75005591815884,138.67848373636087A50.928031410550936,50.928031410550936 0,0,1 138.67848373636085,113.75005591815884Z" style="opacity: 1; stroke-width: 0.5px; fill: rgb(81, 80, 80); fill-opacity: 1; stroke: rgb(229, 236, 246); stroke-opacity: 1;"/></g></g></g></g><g class="scatterlayer"/></g><g class="polarsublayer angular-line"><path d="M160,0A160,160 0,1,0 -160,-1.9594348786357652e-14A160,160 0,1,0 160,3.9188697572715304e-14Z" transform="translate(317.5,260)" stroke-width="1" style="fill: none; stroke: rgb(255, 255, 255); stroke-opacity: 1;"/></g><g class="polarsublayer radial-line"><line x1="0" y1="0" x2="160" y2="0" transform="translate(317.5,260)" stroke-width="1" style="fill: none; stroke: rgb(255, 255, 255); stroke-opacity: 1;"/></g><g class="polarsublayer angular-axis"><g class="angularaxistick"><text text-anchor="middle" x="1.7757378587636624e-16" y="-5.300000000000001" transform="translate(317.5,100)" style="font-family: 'Open Sans', verdana, arial, sans-serif; font-size: 12px; fill: rgb(42, 63, 95); fill-opacity: 1; white-space: pre; opacity: 1;">N</text></g><g class="angularaxistick"><text text-anchor="start" x="2.050609665440988" y="-0.7778174593052025" transform="translate(430.6370849898476,146.8629150101524)" style="font-family: 'Open Sans', verdana, arial, sans-serif; font-size: 12px; fill: rgb(42, 63, 95); fill-opacity: 1; white-space: pre; opacity: 1;">NE</text></g><g class="angularaxistick"><text text-anchor="start" x="2.9000000000000004" y="4.199999999999999" transform="translate(477.5,260)" style="font-family: 'Open Sans', verdana, arial, sans-serif; font-size: 12px; fill: rgb(42, 63, 95); fill-opacity: 1; white-space: pre; opacity: 1;">E</text></g><g class="angularaxistick"><text text-anchor="start" x="2.050609665440988" y="13.505739520663056" transform="translate(430.6370849898476,373.1370849898476)" style="font-family: 'Open Sans', verdana, arial, sans-serif; font-size: 12px; fill: rgb(42, 63, 95); fill-opacity: 1; white-space: pre; opacity: 1;">SE</text></g><g class="angularaxistick"><text text-anchor="middle" x="1.7757378587636624e-16" y="14.9" transform="translate(317.5,420)" style="font-family: 'Open Sans', verdana, arial, sans-serif; font-size: 12px; fill: rgb(42, 63, 95); fill-opacity: 1; white-space: pre; opacity: 1;">S</text></g><g class="angularaxistick"><text text-anchor="end" x="-2.0506096654409878" y="13.505739520663058" transform="translate(204.3629150101524,373.1370849898476)" style="font-family: 'Open Sans', verdana, arial, sans-serif; font-size: 12px; fill: rgb(42, 63, 95); fill-opacity: 1; white-space: pre; opacity: 1;">SW</text></g><g class="angularaxistick"><text text-anchor="end" x="-2.9000000000000004" y="4.200000000000001" transform="translate(157.5,260)" style="font-family: 'Open Sans', verdana, arial, sans-serif; font-size: 12px; fill: rgb(42, 63, 95); fill-opacity: 1; white-space: pre; opacity: 1;">W</text></g><g class="angularaxistick"><text text-anchor="end" x="-2.0506096654409887" y="-0.7778174593052021" transform="translate(204.36291501015236,146.8629150101524)" style="font-family: 'Open Sans', verdana, arial, sans-serif; font-size: 12px; fill: rgb(42, 63, 95); fill-opacity: 1; white-space: pre; opacity: 1;">NW</text></g></g><g class="polarsublayer radial-axis" transform="translate(317.5,260)"><g class="xtick"><text text-anchor="start" x="0" y="14.9" transform=" rotate(90,0,8.9)" style="font-family: 'Open Sans', verdana, arial, sans-serif; font-size: 12px; fill: rgb(42, 63, 95); fill-opacity: 1; white-space: pre; opacity: 1;">0</text></g><g class="xtick"><text text-anchor="start" x="0" y="14.9" transform="translate(22.67,0) rotate(90,0,8.9)" style="font-family: 'Open Sans', verdana, arial, sans-serif; font-size: 12px; fill: rgb(42, 63, 95); fill-opacity: 1; white-space: pre; opacity: 1;">50k</text></g><g class="xtick"><text text-anchor="start" x="0" y="14.9" transform="translate(45.35,0) rotate(90,0,8.9)" style="font-family: 'Open Sans', verdana, arial, sans-serif; font-size: 12px; fill: rgb(42, 63, 95); fill-opacity: 1; white-space: pre; opacity: 1;">100k</text></g><g class="xtick"><text text-anchor="start" x="0" y="14.9" transform="translate(68.02,0) rotate(90,0,8.9)" style="font-family: 'Open Sans', verdana, arial, sans-serif; font-size: 12px; fill: rgb(42, 63, 95); fill-opacity: 1; white-space: pre; opacity: 1;">150k</text></g><g class="xtick"><text text-anchor="start" x="0" y="14.9" transform="translate(90.7,0) rotate(90,0,8.9)" style="font-family: 'Open Sans', verdana, arial, sans-serif; font-size: 12px; fill: rgb(42, 63, 95); fill-opacity: 1; white-space: pre; opacity: 1;">200k</text></g><g class="xtick"><text text-anchor="start" x="0" y="14.9" transform="translate(113.37,0) rotate(90,0,8.9)" style="font-family: 'Open Sans', verdana, arial, sans-serif; font-size: 12px; fill: rgb(42, 63, 95); fill-opacity: 1; white-space: pre; opacity: 1;">250k</text></g><g class="xtick"><text text-anchor="start" x="0" y="14.9" transform="translate(136.05,0) rotate(90,0,8.9)" style="font-family: 'Open Sans', verdana, arial, sans-serif; font-size: 12px; fill: rgb(42, 63, 95); fill-opacity: 1; white-space: pre; opacity: 1;">300k</text></g><g class="xtick"><text text-anchor="start" x="0" y="14.9" transform="translate(158.72,0) rotate(90,0,8.9)" style="font-family: 'Open Sans', verdana, arial, sans-serif; font-size: 12px; fill: rgb(42, 63, 95); fill-opacity: 1; white-space: pre; opacity: 1;">350k</text></g></g></g></g><g class="smithlayer"/><g class="ternarylayer"/><g class="geolayer"/><g class="funnelarealayer"/><g class="pielayer"/><g class="iciclelayer"/><g class="treemaplayer"/><g class="sunburstlayer"/><g class="glimages"/><defs id="topdefs-7e906c"><g class="clips"/><clipPath id="legend7e906c"><rect width="123" height="181" x="0" y="0"/></clipPath></defs><g class="layer-above"><g class="imagelayer"/><g class="shapelayer"/></g><g class="infolayer"><g class="legend" pointer-events="all" transform="translate(564.5,100)"><rect class="bg" shape-rendering="crispEdges" width="123" height="181" x="0" y="0" style="stroke: rgb(68, 68, 68); stroke-opacity: 1; fill: rgb(255, 255, 255); fill-opacity: 1; stroke-width: 0px;"/><g class="scrollbox" transform="" clip-path="url(#legend7e906c)"><text class="legendtitletext" text-anchor="start" x="2" y="18.2" style="font-family: 'Open Sans', verdana, arial, sans-serif; font-size: 14px; fill: rgb(42, 63, 95); fill-opacity: 1; white-space: pre;">SpeedRange [m/s]</text><g class="groups" transform=""><g class="traces" transform="translate(0,32.7)" style="opacity: 1;"><text class="legendtext" text-anchor="start" x="40" y="4.680000000000001" style="font-family: 'Open Sans', verdana, arial, sans-serif; font-size: 12px; fill: rgb(42, 63, 95); fill-opacity: 1; white-space: pre;">&#60;2.5</text><g class="layers" style="opacity: 1;"><g class="legendfill"/><g class="legendlines"/><g class="legendsymbols"><g class="legendpoints"><path class="legendundefined" d="M6,6H-6V-6H6Z" transform="translate(20,0)" style="stroke-width: 0.5px; fill: rgb(254, 254, 253); fill-opacity: 1; stroke: rgb(229, 236, 246); stroke-opacity: 1;"/></g></g></g><rect class="legendtoggle" x="0" y="-9.5" width="91.5625" height="19" style="fill: rgb(0, 0, 0); fill-opacity: 0;"/></g></g><g class="groups" transform=""><g class="traces" transform="translate(0,51.7)" style="opacity: 1;"><text class="legendtext" text-anchor="start" x="40" y="4.680000000000001" style="font-family: 'Open Sans', verdana, arial, sans-serif; font-size: 12px; fill: rgb(42, 63, 95); fill-opacity: 1; white-space: pre;">2.5-5.0</text><g class="layers" style="opacity: 1;"><g class="legendfill"/><g class="legendlines"/><g class="legendsymbols"><g class="legendpoints"><path class="legendundefined" d="M6,6H-6V-6H6Z" transform="translate(20,0)" style="stroke-width: 0.5px; fill: rgb(224, 224, 223); fill-opacity: 1; stroke: rgb(229, 236, 246); stroke-opacity: 1;"/></g></g></g><rect class="legendtoggle" x="0" y="-9.5" width="91.5625" height="19" style="fill: rgb(0, 0, 0); fill-opacity: 0;"/></g></g><g class="groups" transform=""><g class="traces" transform="translate(0,70.7)" style="opacity: 1;"><text class="legendtext" text-anchor="start" x="40" y="4.680000000000001" style="font-family: 'Open Sans', verdana, arial, sans-serif; font-size: 12px; fill: rgb(42, 63, 95); fill-opacity: 1; white-space: pre;">5.0-7.5</text><g class="layers" style="opacity: 1;"><g class="legendfill"/><g class="legendlines"/><g class="legendsymbols"><g class="legendpoints"><path class="legendundefined" d="M6,6H-6V-6H6Z" transform="translate(20,0)" style="stroke-width: 0.5px; fill: rgb(197, 197, 195); fill-opacity: 1; stroke: rgb(229, 236, 246); stroke-opacity: 1;"/></g></g></g><rect class="legendtoggle" x="0" y="-9.5" width="91.5625" height="19" style="fill: rgb(0, 0, 0); fill-opacity: 0;"/></g></g><g class="groups" transform=""><g class="traces" transform="translate(0,89.7)" style="opacity: 1;"><text class="legendtext" text-anchor="start" x="40" y="4.680000000000001" style="font-family: 'Open Sans', verdana, arial, sans-serif; font-size: 12px; fill: rgb(42, 63, 95); fill-opacity: 1; white-space: pre;">7.5-10.0</text><g class="layers" style="opacity: 1;"><g class="legendfill"/><g class="legendlines"/><g class="legendsymbols"><g class="legendpoints"><path class="legendundefined" d="M6,6H-6V-6H6Z" transform="translate(20,0)" style="stroke-width: 0.5px; fill: rgb(171, 171, 170); fill-opacity: 1; stroke: rgb(229, 236, 246); stroke-opacity: 1;"/></g></g></g><rect class="legendtoggle" x="0" y="-9.5" width="91.5625" height="19" style="fill: rgb(0, 0, 0); fill-opacity: 0;"/></g></g><g class="groups" transform=""><g class="traces" transform="translate(0,108.7)" style="opacity: 1;"><text class="legendtext" text-anchor="start" x="40" y="4.680000000000001" style="font-family: 'Open Sans', verdana, arial, sans-serif; font-size: 12px; fill: rgb(42, 63, 95); fill-opacity: 1; white-space: pre;">10.0-12.5</text><g class="layers" style="opacity: 1;"><g class="legendfill"/><g class="legendlines"/><g class="legendsymbols"><g class="legendpoints"><path class="legendundefined" d="M6,6H-6V-6H6Z" transform="translate(20,0)" style="stroke-width: 0.5px; fill: rgb(146, 146, 145); fill-opacity: 1; stroke: rgb(229, 236, 246); stroke-opacity: 1;"/></g></g></g><rect class="legendtoggle" x="0" y="-9.5" width="91.5625" height="19" style="fill: rgb(0, 0, 0); fill-opacity: 0;"/></g></g><g class="groups" transform=""><g class="traces" transform="translate(0,127.7)" style="opacity: 1;"><text class="legendtext" text-anchor="start" x="40" y="4.680000000000001" style="font-family: 'Open Sans', verdana, arial, sans-serif; font-size: 12px; fill: rgb(42, 63, 95); fill-opacity: 1; white-space: pre;">12.5-15.0</text><g class="layers" style="opacity: 1;"><g class="legendfill"/><g class="legendlines"/><g class="legendsymbols"><g class="legendpoints"><path class="legendundefined" d="M6,6H-6V-6H6Z" transform="translate(20,0)" style="stroke-width: 0.5px; fill: rgb(124, 123, 122); fill-opacity: 1; stroke: rgb(229, 236, 246); stroke-opacity: 1;"/></g></g></g><rect class="legendtoggle" x="0" y="-9.5" width="91.5625" height="19" style="fill: rgb(0, 0, 0); fill-opacity: 0;"/></g></g><g class="groups" transform=""><g class="traces" transform="translate(0,146.7)" style="opacity: 1;"><text class="legendtext" text-anchor="start" x="40" y="4.680000000000001" style="font-family: 'Open Sans', verdana, arial, sans-serif; font-size: 12px; fill: rgb(42, 63, 95); fill-opacity: 1; white-space: pre;">15.0-17.5</text><g class="layers" style="opacity: 1;"><g class="legendfill"/><g class="legendlines"/><g class="legendsymbols"><g class="legendpoints"><path class="legendundefined" d="M6,6H-6V-6H6Z" transform="translate(20,0)" style="stroke-width: 0.5px; fill: rgb(102, 101, 101); fill-opacity: 1; stroke: rgb(229, 236, 246); stroke-opacity: 1;"/></g></g></g><rect class="legendtoggle" x="0" y="-9.5" width="91.5625" height="19" style="fill: rgb(0, 0, 0); fill-opacity: 0;"/></g></g><g class="groups" transform=""><g class="traces" transform="translate(0,165.7)" style="opacity: 1;"><text class="legendtext" text-anchor="start" x="40" y="4.680000000000001" style="font-family: 'Open Sans', verdana, arial, sans-serif; font-size: 12px; fill: rgb(42, 63, 95); fill-opacity: 1; white-space: pre;">17.5></text><g class="layers" style="opacity: 1;"><g class="legendfill"/><g class="legendlines"/><g class="legendsymbols"><g class="legendpoints"><path class="legendundefined" d="M6,6H-6V-6H6Z" transform="translate(20,0)" style="stroke-width: 0.5px; fill: rgb(81, 80, 80); fill-opacity: 1; stroke: rgb(229, 236, 246); stroke-opacity: 1;"/></g></g></g><rect class="legendtoggle" x="0" y="-9.5" width="91.5625" height="19" style="fill: rgb(0, 0, 0); fill-opacity: 0;"/></g></g></g><rect class="scrollbar" rx="20" ry="3" width="0" height="0" x="0" y="0" style="fill: rgb(128, 139, 164); fill-opacity: 1;"/></g><g class="g-gtitle"><text class="gtitle" x="35" y="50" text-anchor="start" dy="0em" style="font-family: 'Open Sans', verdana, arial, sans-serif; font-size: 17px; fill: rgb(42, 63, 95); opacity: 1; font-weight: normal; white-space: pre;">Wind direction and intensity in Munich city</text></g><g class="g-polartitle"/></g></svg>