<svg class="main-svg" xmlns="http://www.w3.org/2000/svg" xmlns:xlink="http://www.w3.org/1999/xlink" width="700" height="500" style="" viewBox="0 0 700 500"><rect x="0" y="0" width="700" height="500" style="fill: rgb(17, 17, 17); fill-opacity: 1;"/><defs id="defs-5be300"><g class="clips"><clipPath id="clip5be300polar-for-traces"><path d="M160,0A160,160 0,1,0 -160,-1.9594348786357652e-14A160,160 0,1,0 160,3.9188697572715304e-14Z" transform="translate(160,160)"/></clipPath></g><g class="gradients"/><g class="patterns"/></defs><g class="bglayer"/><g class="layer-below"><g class="imagelayer"/><g class="shapelayer"/></g><g class="cartesianlayer"/><g class="polarlayer"><g class="polar"><g class="polarsublayer draglayer"/><g class="polarsublayer plotbg"><path d="M160,0A160,160 0,1,0 -160,-1.9594348786357652e-14A160,160 0,1,0 160,3.9188697572715304e-14Z" transform="translate(317.5,260)" style="fill: rgb(17, 17, 17); fill-opacity: 1;"/></g><g class="polarsublayer backplot"><g class="maplayer"/></g><g class="polarsublayer angular-grid" style="fill: none;"><path class="angularaxisgrid" d="M317.5,260L317.5,100" style="stroke: rgb(80, 103, 132); stroke-opacity: 1; stroke-width: 1px;"/><path class="angularaxisgrid" d="M317.5,260L430.6370849898476,146.8629150101524" style="stroke: rgb(80, 103, 132); stroke-opacity: 1; stroke-width: 1px;"/><path class="angularaxisgrid" d="M317.5,260L477.5,260" style="stroke: rgb(80, 103, 132); stroke-opacity: 1; stroke-width: 1px;"/><path class="angularaxisgrid" d="M317.5,260L430.6370849898476,373.1370849898476" style="stroke: rgb(80, 103, 132); stroke-opacity: 1; stroke-width: 1px;"/><path class="angularaxisgrid" d="M317.5,260L317.5,420" style="stroke: rgb(80, 103, 132); stroke-opacity: 1; stroke-width: 1px;"/><path class="angularaxisgrid" d="M317.5,260L204.3629150101524,373.1370849898476" style="stroke: rgb(80, 103, 132); stroke-opacity: 1; stroke-width: 1px;"/><path class="angularaxisgrid" d="M317.5,260L157.5,260" style="stroke: rgb(80, 103, 132); stroke-opacity: 1; stroke-width: 1px;"/><path class="angularaxisgrid" d="M317.5,260L204.36291501015236,146.8629150101524" style="stroke: rgb(80, 103, 132); stroke-opacity: 1; stroke-width: 1px;"/></g><g class="polarsublayer radial-grid" transform="translate(317.5,260)" style="fill: none;"><path class="xgrid" d="M20.8,0A20.8,20.8 0,1,0 -20.8,-2.547265342226495e-15A20.8,20.8 0,1,0 20.8,5.09453068445299e-15Z" style="stroke: rgb(80, 103, 132); stroke-opacity: 1; stroke-width: 1px;"/><path class="xgrid" d="M41.61,0A41.61,41.61 0,1,0 -41.61,-5.095755331252137e-15A41.61,41.61 0,1,0 41.61,1.0191510662504273e-14Z" style="stroke: rgb(80, 103, 132); stroke-opacity: 1; stroke-width: 1px;"/><path class="xgrid" d="M62.41,0A62.41,62.41 0,1,0 -62.41,-7.64302067347863e-15A62.41,62.41 0,1,0 62.41,1.528604134695726e-14Z" style="stroke: rgb(80, 103, 132); stroke-opacity: 1; stroke-width: 1px;"/><path class="xgrid" d="M83.22,0A83.22,83.22 0,1,0 -83.22,-1.0191510662504273e-14A83.22,83.22 0,1,0 83.22,2.0383021325008547e-14Z" style="stroke: rgb(80, 103, 132); stroke-opacity: 1; stroke-width: 1px;"/><path class="xgrid" d="M104.02,0A104.02,104.02 0,1,0 -104.02,-1.2738776004730768e-14A104.02,104.02 0,1,0 104.02,2.5477552009461536e-14Z" style="stroke: rgb(80, 103, 132); stroke-opacity: 1; stroke-width: 1px;"/><path class="xgrid" d="M124.83,0A124.83,124.83 0,1,0 -124.83,-1.528726599375641e-14A124.83,124.83 0,1,0 124.83,3.057453198751282e-14Z" style="stroke: rgb(80, 103, 132); stroke-opacity: 1; stroke-width: 1px;"/><path class="xgrid" d="M145.63,0A145.63,145.63 0,1,0 -145.63,-1.7834531335982905e-14A145.63,145.63 0,1,0 145.63,3.566906267196581e-14Z" style="stroke: rgb(80, 103, 132); stroke-opacity: 1; stroke-width: 1px;"/></g><g class="polarsublayer frontplot" transform="translate(157.5,100)" clip-path="url(#clip5be300polar-for-traces)"><g class="barlayer"><g class="trace bars" style="opacity: 1;"><g class="points"><g class="point" style="vector-effect: non-scaling-stroke; stroke-miterlimit: 2;"><path d="M160,160L163.4253754860075,150.71511346366844A9.896580986011882,9.896580986011882 0,0,0 156.5746245139925,150.71511346366844L160,160A0,0 0,0,1 160,160Z" style="opacity: 1; stroke-width: 0.5px; fill: rgb(240, 249, 33); fill-opacity: 1; stroke: rgb(17, 17, 17); stroke-opacity: 1;"/></g><g class="point" style="vector-effect: non-scaling-stroke; stroke-miterlimit: 2;"><path d="M160,160L169.6827835593022,155.53617563792866A10.662177328843997,10.662177328843997 0,0,0 164.46382436207134,150.3172164406978L160,160A0,0 0,0,1 160,160Z" style="opacity: 1; stroke-width: 0.5px; fill: rgb(240, 249, 33); fill-opacity: 1; stroke: rgb(17, 17, 17); stroke-opacity: 1;"/></g><g class="point" style="vector-effect: non-scaling-stroke; stroke-miterlimit: 2;"><path d="M160,160L172.13456792019616,164.47667845207246A12.934001259204514,12.934001259204514 0,0,0 172.13456792019616,155.52332154792754L160,160A0,0 0,0,1 160,160Z" style="opacity: 1; stroke-width: 0.5px; fill: rgb(240, 249, 33); fill-opacity: 1; stroke: rgb(17, 17, 17); stroke-opacity: 1;"/></g><g class="point" style="vector-effect: non-scaling-stroke; stroke-miterlimit: 2;"><path d="M160,160L162.9160749198468,166.32545548420367A6.965262379896528,6.965262379896528 0,0,0 166.32545548420367,162.9160749198468L160,160A0,0 0,0,1 160,160Z" style="opacity: 1; stroke-width: 0.5px; fill: rgb(240, 249, 33); fill-opacity: 1; stroke: rgb(17, 17, 17); stroke-opacity: 1;"/></g><g class="point" style="vector-effect: non-scaling-stroke; stroke-miterlimit: 2;"><path d="M160,160L156.6891157274201,168.9745445226093A9.565793435712136,9.565793435712136 0,0,0 163.3108842725799,168.9745445226093L160,160A0,0 0,0,1 160,160Z" style="opacity: 1; stroke-width: 0.5px; fill: rgb(240, 249, 33); fill-opacity: 1; stroke: rgb(17, 17, 17); stroke-opacity: 1;"/></g><g class="point" style="vector-effect: non-scaling-stroke; stroke-miterlimit: 2;"><path d="M160,160L152.5711795209412,163.42473314959307A8.18023048917358,8.18023048917358 0,0,0 156.57526685040693,167.4288204790588L160,160A0,0 0,0,1 160,160Z" style="opacity: 1; stroke-width: 0.5px; fill: rgb(240, 249, 33); fill-opacity: 1; stroke: rgb(17, 17, 17); stroke-opacity: 1;"/></g><g class="point" style="vector-effect: non-scaling-stroke; stroke-miterlimit: 2;"><path d="M160,160L153.68971238764772,157.67201199363836A6.726013522761491,6.726013522761491 0,0,0 153.68971238764772,162.32798800636164L160,160A0,0 0,0,1 160,160Z" style="opacity: 1; stroke-width: 0.5px; fill: rgb(240, 249, 33); fill-opacity: 1; stroke: rgb(17, 17, 17); stroke-opacity: 1;"/></g><g class="point" style="vector-effect: non-scaling-stroke; stroke-miterlimit: 2;"><path d="M160,160L157.77200727450176,155.16711017664485A5.321726752621062,5.321726752621062 0,0,0 155.16711017664485,157.77200727450176L160,160A0,0 0,0,1 160,160Z" style="opacity: 1; stroke-width: 0.5px; fill: rgb(240, 249, 33); fill-opacity: 1; stroke: rgb(17, 17, 17); stroke-opacity: 1;"/></g></g></g><g class="trace bars" style="opacity: 1;"><g class="points"><g class="point" style="vector-effect: non-scaling-stroke; stroke-miterlimit: 2;"><path d="M163.4253754860075,150.71511346366844L169.9909785302405,132.91826767046456A28.86589471955326,28.86589471955326 0,0,0 150.0090214697595,132.91826767046456L156.5746245139925,150.71511346366844A9.896580986011882,9.896580986011882 0,0,1 163.4253754860075,150.71511346366844Z" style="opacity: 1; stroke-width: 0.5px; fill: rgb(253, 202, 38); fill-opacity: 1; stroke: rgb(17, 17, 17); stroke-opacity: 1;"/></g><g class="point" style="vector-effect: non-scaling-stroke; stroke-miterlimit: 2;"><path d="M169.6827835593022,155.53617563792866L207.1178417922806,138.27837741157128A51.88371520078838,51.88371520078838 0,0,0 181.72162258842874,112.88215820771943L164.46382436207134,150.3172164406978A10.662177328843997,10.662177328843997 0,0,1 169.6827835593022,155.53617563792866Z" style="opacity: 1; stroke-width: 0.5px; fill: rgb(253, 202, 38); fill-opacity: 1; stroke: rgb(17, 17, 17); stroke-opacity: 1;"/></g><g class="point" style="vector-effect: non-scaling-stroke; stroke-miterlimit: 2;"><path d="M172.13456792019616,164.47667845207246L223.91093646113939,183.57798926084294A68.12143111330104,68.12143111330104 0,0,0 223.91093646113939,136.4220107391571L172.13456792019616,155.52332154792754A12.934001259204514,12.934001259204514 0,0,1 172.13456792019616,164.47667845207246Z" style="opacity: 1; stroke-width: 0.5px; fill: rgb(253, 202, 38); fill-opacity: 1; stroke: rgb(17, 17, 17); stroke-opacity: 1;"/></g><g class="point" style="vector-effect: non-scaling-stroke; stroke-miterlimit: 2;"><path d="M162.9160749198468,166.32545548420367L167.89029949190328,177.11538268560366A18.846568667706883,18.846568667706883 0,0,0 177.11538268560366,167.89029949190328L166.32545548420367,162.9160749198468A6.965262379896528,6.965262379896528 0,0,1 162.9160749198468,166.32545548420367Z" style="opacity: 1; stroke-width: 0.5px; fill: rgb(253, 202, 38); fill-opacity: 1; stroke: rgb(17, 17, 17); stroke-opacity: 1;"/></g><g class="point" style="vector-effect: non-scaling-stroke; stroke-miterlimit: 2;"><path d="M156.6891157274201,168.9745445226093L148.00218491741495,192.52150083421404A34.66403876159974,34.66403876159974 0,0,0 171.99781508258505,192.52150083421404L163.3108842725799,168.9745445226093A9.565793435712136,9.565793435712136 0,0,1 156.6891157274201,168.9745445226093Z" style="opacity: 1; stroke-width: 0.5px; fill: rgb(253, 202, 38); fill-opacity: 1; stroke: rgb(17, 17, 17); stroke-opacity: 1;"/></g><g class="point" style="vector-effect: non-scaling-stroke; stroke-miterlimit: 2;"><path d="M152.5711795209412,163.42473314959307L115.26648461783442,180.62243305770988A49.25821904683694,49.25821904683694 0,0,0 139.37756694229012,204.7335153821656L156.57526685040693,167.4288204790588A8.18023048917358,8.18023048917358 0,0,1 152.5711795209412,163.42473314959307Z" style="opacity: 1; stroke-width: 0.5px; fill: rgb(253, 202, 38); fill-opacity: 1; stroke: rgb(17, 17, 17); stroke-opacity: 1;"/></g><g class="point" style="vector-effect: non-scaling-stroke; stroke-miterlimit: 2;"><path d="M153.68971238764772,157.67201199363836L114.2352880770726,143.11650640731176A48.77972133256687,48.77972133256687 0,0,0 114.2352880770726,176.88349359268827L153.68971238764772,162.32798800636164A6.726013522761491,6.726013522761491 0,0,1 153.68971238764772,157.67201199363836Z" style="opacity: 1; stroke-width: 0.5px; fill: rgb(253, 202, 38); fill-opacity: 1; stroke: rgb(17, 17, 17); stroke-opacity: 1;"/></g><g class="point" style="vector-effect: non-scaling-stroke; stroke-miterlimit: 2;"><path d="M157.77200727450176,155.16711017664485L151.16467622851673,140.83470118525625A21.10382962415483,21.10382962415483 0,0,0 140.83470118525625,151.16467622851675L155.16711017664485,157.77200727450176A5.321726752621062,5.321726752621062 0,0,1 157.77200727450176,155.16711017664485Z" style="opacity: 1; stroke-width: 0.5px; fill: rgb(253, 202, 38); fill-opacity: 1; stroke: rgb(17, 17, 17); stroke-opacity: 1;"/></g></g></g><g class="trace bars" style="opacity: 1;"><g class="points"><g class="point" style="vector-effect: non-scaling-stroke; stroke-miterlimit: 2;"><path d="M169.9909785302405,132.91826767046456L171.64642066653047,128.4309954091599A33.64879143740933,33.64879143740933 0,0,0 148.35357933346955,128.4309954091599L150.0090214697595,132.91826767046456A28.86589471955326,28.86589471955326 0,0,1 169.9909785302405,132.91826767046456Z" style="opacity: 1; stroke-width: 0.5px; fill: rgb(251, 159, 58); fill-opacity: 1; stroke: rgb(17, 17, 17); stroke-opacity: 1;"/></g><g class="point" style="vector-effect: non-scaling-stroke; stroke-miterlimit: 2;"><path d="M207.1178417922806,138.27837741157128L216.16770193843814,134.1063347395085A61.84895020667379,61.84895020667379 0,0,0 185.8936652604915,103.83229806156186L181.72162258842874,112.88215820771943A51.88371520078838,51.88371520078838 0,0,1 207.1178417922806,138.27837741157128Z" style="opacity: 1; stroke-width: 0.5px; fill: rgb(251, 159, 58); fill-opacity: 1; stroke: rgb(17, 17, 17); stroke-opacity: 1;"/></g><g class="point" style="vector-effect: non-scaling-stroke; stroke-miterlimit: 2;"><path d="M223.91093646113939,183.57798926084294L254.4708415482411,194.85213346610246A100.69464290602504,100.69464290602504 0,0,0 254.47084154824114,125.14786653389757L223.91093646113939,136.4220107391571A68.12143111330104,68.12143111330104 0,0,1 223.91093646113939,183.57798926084294Z" style="opacity: 1; stroke-width: 0.5px; fill: rgb(251, 159, 58); fill-opacity: 1; stroke: rgb(17, 17, 17); stroke-opacity: 1;"/></g><g class="point" style="vector-effect: non-scaling-stroke; stroke-miterlimit: 2;"><path d="M167.89029949190328,177.11538268560366L168.38589286985814,178.19040782613888A20.030330404314146,20.030330404314146 0,0,0 178.19040782613888,168.3858928698581L177.11538268560366,167.89029949190328A18.846568667706883,18.846568667706883 0,0,1 167.89029949190328,177.11538268560366Z" style="opacity: 1; stroke-width: 0.5px; fill: rgb(251, 159, 58); fill-opacity: 1; stroke: rgb(17, 17, 17); stroke-opacity: 1;"/></g><g class="point" style="vector-effect: non-scaling-stroke; stroke-miterlimit: 2;"><path d="M148.00218491741495,192.52150083421404L146.6275702857588,196.24755683544527A38.63556979004134,38.63556979004134 0,0,0 173.3724297142412,196.24755683544527L171.99781508258505,192.52150083421404A34.66403876159974,34.66403876159974 0,0,1 148.00218491741495,192.52150083421404Z" style="opacity: 1; stroke-width: 0.5px; fill: rgb(251, 159, 58); fill-opacity: 1; stroke: rgb(17, 17, 17); stroke-opacity: 1;"/></g><g class="point" style="vector-effect: non-scaling-stroke; stroke-miterlimit: 2;"><path d="M115.26648461783442,180.62243305770988L94.8957973326839,190.01344852538855A71.68935972188005,71.68935972188005 0,0,0 129.98655147461145,225.1042026673161L139.37756694229012,204.7335153821656A49.25821904683694,49.25821904683694 0,0,1 115.26648461783442,180.62243305770988Z" style="opacity: 1; stroke-width: 0.5px; fill: rgb(251, 159, 58); fill-opacity: 1; stroke: rgb(17, 17, 17); stroke-opacity: 1;"/></g><g class="point" style="vector-effect: non-scaling-stroke; stroke-miterlimit: 2;"><path d="M114.2352880770726,143.11650640731176L54.663284298351755,121.1392339228814A112.27636801620544,112.27636801620544 0,0,0 54.663284298351755,198.86076607711863L114.2352880770726,176.88349359268827A48.77972133256687,48.77972133256687 0,0,1 114.2352880770726,143.11650640731176Z" style="opacity: 1; stroke-width: 0.5px; fill: rgb(251, 159, 58); fill-opacity: 1; stroke: rgb(17, 17, 17); stroke-opacity: 1;"/></g><g class="point" style="vector-effect: non-scaling-stroke; stroke-miterlimit: 2;"><path d="M151.16467622851673,140.83470118525625L146.07025501997913,129.7840473241131A33.27223454052723,33.27223454052723 0,0,0 129.7840473241131,146.07025501997913L140.83470118525625,151.16467622851675A21.10382962415483,21.10382962415483 0,0,1 151.16467622851673,140.83470118525625Z" style="opacity: 1; stroke-width: 0.5px; fill: rgb(251, 159, 58); fill-opacity: 1; stroke: rgb(17, 17, 17); stroke-opacity: 1;"/></g></g></g><g class="trace bars" style="opacity: 1;"><g class="points"><g class="point" style="vector-effect: non-scaling-stroke; stroke-miterlimit: 2;"><path d="M171.64642066653047,128.4309954091599L171.6975456737843,128.29241501309525A33.79650160137965,33.79650160137965 0,0,0 148.3024543262157,128.29241501309525L148.35357933346955,128.4309954091599A33.64879143740933,33.64879143740933 0,0,1 171.64642066653047,128.4309954091599Z" style="opacity: 1; stroke-width: 0.5px; fill: rgb(237, 121, 83); fill-opacity: 1; stroke: rgb(17, 17, 17); stroke-opacity: 1;"/></g><g class="point" style="vector-effect: non-scaling-stroke; stroke-miterlimit: 2;"><path d="M216.16770193843814,134.1063347395085L216.4605470997439,133.97133127099707A62.17141605759493,62.17141605759493 0,0,0 186.02866872900293,103.53945290025612L185.8936652604915,103.83229806156186A61.84895020667379,61.84895020667379 0,0,1 216.16770193843814,134.1063347395085Z" style="opacity: 1; stroke-width: 0.5px; fill: rgb(237, 121, 83); fill-opacity: 1; stroke: rgb(17, 17, 17); stroke-opacity: 1;"/></g><g class="point" style="vector-effect: non-scaling-stroke; stroke-miterlimit: 2;"><path d="M254.4708415482411,194.85213346610246L259.3348182664539,196.6465492136599A105.87906161889903,105.87906161889903 0,0,0 259.3348182664539,123.35345078634013L254.47084154824114,125.14786653389757A100.69464290602504,100.69464290602504 0,0,1 254.4708415482411,194.85213346610246Z" style="opacity: 1; stroke-width: 0.5px; fill: rgb(237, 121, 83); fill-opacity: 1; stroke: rgb(17, 17, 17); stroke-opacity: 1;"/></g><g class="point" style="vector-effect: non-scaling-stroke; stroke-miterlimit: 2;"><path d="M168.38589286985814,178.19040782613888L168.42334544499357,178.27164874185593A20.119788672634204,20.119788672634204 0,0,0 178.27164874185596,168.42334544499354L178.19040782613888,168.3858928698581A20.030330404314146,20.030330404314146 0,0,1 168.38589286985814,178.19040782613888Z" style="opacity: 1; stroke-width: 0.5px; fill: rgb(237, 121, 83); fill-opacity: 1; stroke: rgb(17, 17, 17); stroke-opacity: 1;"/></g><g class="point" style="vector-effect: non-scaling-stroke; stroke-miterlimit: 2;"><path d="M146.6275702857588,196.24755683544527L146.5901266184743,196.34905233678836A38.74375188196327,38.74375188196327 0,0,0 173.40987338152573,196.34905233678836L173.3724297142412,196.24755683544527A38.63556979004134,38.63556979004134 0,0,1 146.6275702857588,196.24755683544527Z" style="opacity: 1; stroke-width: 0.5px; fill: rgb(237, 121, 83); fill-opacity: 1; stroke: rgb(17, 17, 17); stroke-opacity: 1;"/></g><g class="point" style="vector-effect: non-scaling-stroke; stroke-miterlimit: 2;"><path d="M94.8957973326839,190.01344852538855L89.32040332614714,192.58374036782223A77.82869343844955,77.82869343844955 0,0,0 127.41625963217778,230.67959667385287L129.98655147461145,225.1042026673161A71.68935972188005,71.68935972188005 0,0,1 94.8957973326839,190.01344852538855Z" style="opacity: 1; stroke-width: 0.5px; fill: rgb(237, 121, 83); fill-opacity: 1; stroke: rgb(17, 17, 17); stroke-opacity: 1;"/></g><g class="point" style="vector-effect: non-scaling-stroke; stroke-miterlimit: 2;"><path d="M54.663284298351755,121.1392339228814L24.226344914800364,109.91045416067811A144.7185130437163,144.7185130437163 0,0,0 24.226344914800364,210.08954583932191L54.663284298351755,198.86076607711863A112.27636801620544,112.27636801620544 0,0,1 54.663284298351755,121.1392339228814Z" style="opacity: 1; stroke-width: 0.5px; fill: rgb(237, 121, 83); fill-opacity: 1; stroke: rgb(17, 17, 17); stroke-opacity: 1;"/></g><g class="point" style="vector-effect: non-scaling-stroke; stroke-miterlimit: 2;"><path d="M146.07025501997913,129.7840473241131L145.23323351520827,127.9684073240176A35.27152281623827,35.27152281623827 0,0,0 127.9684073240176,145.2332335152083L129.7840473241131,146.07025501997913A33.27223454052723,33.27223454052723 0,0,1 146.07025501997913,129.7840473241131Z" style="opacity: 1; stroke-width: 0.5px; fill: rgb(237, 121, 83); fill-opacity: 1; stroke: rgb(17, 17, 17); stroke-opacity: 1;"/></g></g></g><g class="trace bars" style="opacity: 1;"><g class="points"><g class="point" style="vector-effect: non-scaling-stroke; stroke-miterlimit: 2;"><path d="M171.6975456737843,128.29241501309525L171.698265744309,128.29046317653095A33.79858202622431,33.79858202622431 0,0,0 148.301734255691,128.29046317653095L148.3024543262157,128.29241501309525A33.79650160137965,33.79650160137965 0,0,1 171.6975456737843,128.29241501309525Z" style="opacity: 1; stroke-width: 0.5px; fill: rgb(216, 87, 107); fill-opacity: 1; stroke: rgb(17, 17, 17); stroke-opacity: 1;"/></g><g class="point" style="vector-effect: non-scaling-stroke; stroke-miterlimit: 2;"><path d="M216.4605470997439,133.97133127099707L216.4624364233652,133.97046028087766A62.17349648243958,62.17349648243958 0,0,0 186.02953971912237,103.5375635766348L186.02866872900293,103.53945290025612A62.17141605759493,62.17141605759493 0,0,1 216.4605470997439,133.97133127099707Z" style="opacity: 1; stroke-width: 0.5px; fill: rgb(216, 87, 107); fill-opacity: 1; stroke: rgb(17, 17, 17); stroke-opacity: 1;"/></g><g class="point" style="vector-effect: non-scaling-stroke; stroke-miterlimit: 2;"><path d="M259.3348182664539,196.6465492136599L259.4792541722114,196.69983443248785A106.03301305740332,106.03301305740332 0,0,0 259.4792541722114,123.30016556751218L259.3348182664539,123.35345078634013A105.87906161889903,105.87906161889903 0,0,1 259.3348182664539,196.6465492136599Z" style="opacity: 1; stroke-width: 0.5px; fill: rgb(216, 87, 107); fill-opacity: 1; stroke: rgb(17, 17, 17); stroke-opacity: 1;"/></g><g class="point" style="vector-effect: non-scaling-stroke; stroke-miterlimit: 2;"><path d="M168.42334544499357,178.27164874185593L168.42421643511298,178.27353806547728A20.121869097478857,20.121869097478857 0,0,0 178.27353806547728,168.42421643511298L178.27164874185596,168.42334544499354A20.119788672634204,20.119788672634204 0,0,1 168.42334544499357,178.27164874185593Z" style="opacity: 1; stroke-width: 0.5px; fill: rgb(216, 87, 107); fill-opacity: 1; stroke: rgb(17, 17, 17); stroke-opacity: 1;"/></g><g class="point" style="vector-effect: non-scaling-stroke; stroke-miterlimit: 2;"><path d="M146.5901266184743,196.34905233678836L146.5886864774249,196.35295600991697A38.747912731652576,38.747912731652576 0,0,0 173.4113135225751,196.35295600991697L173.40987338152573,196.34905233678836A38.74375188196327,38.74375188196327 0,0,1 146.5901266184743,196.34905233678836Z" style="opacity: 1; stroke-width: 0.5px; fill: rgb(216, 87, 107); fill-opacity: 1; stroke: rgb(17, 17, 17); stroke-opacity: 1;"/></g><g class="point" style="vector-effect: non-scaling-stroke; stroke-miterlimit: 2;"><path d="M89.32040332614714,192.58374036782223L87.9733155841408,193.2047563229748A79.31203635268677,79.31203635268677 0,0,0 126.79524367702521,232.0266844158592L127.41625963217778,230.67959667385287A77.82869343844955,77.82869343844955 0,0,1 89.32040332614714,192.58374036782223Z" style="opacity: 1; stroke-width: 0.5px; fill: rgb(216, 87, 107); fill-opacity: 1; stroke: rgb(17, 17, 17); stroke-opacity: 1;"/></g><g class="point" style="vector-effect: non-scaling-stroke; stroke-miterlimit: 2;"><path d="M24.226344914800364,109.91045416067811L17.394916939782405,107.39020732422105A152.00000000000003,152.00000000000003 0,0,0 17.394916939782405,212.60979267577898L24.226344914800364,210.08954583932191A144.7185130437163,144.7185130437163 0,0,1 24.226344914800364,109.91045416067811Z" style="opacity: 1; stroke-width: 0.5px; fill: rgb(216, 87, 107); fill-opacity: 1; stroke: rgb(17, 17, 17); stroke-opacity: 1;"/></g><g class="point" style="vector-effect: non-scaling-stroke; stroke-miterlimit: 2;"><path d="M145.23323351520827,127.9684073240176L145.20361985114772,127.90417032089249A35.34225726095645,35.34225726095645 0,0,0 127.90417032089248,145.20361985114772L127.9684073240176,145.2332335152083A35.27152281623827,35.27152281623827 0,0,1 145.23323351520827,127.9684073240176Z" style="opacity: 1; stroke-width: 0.5px; fill: rgb(216, 87, 107); fill-opacity: 1; stroke: rgb(17, 17, 17); stroke-opacity: 1;"/></g></g></g></g><g class="scatterlayer"/></g><g class="polarsublayer angular-line"><path d="M160,0A160,160 0,1,0 -160,-1.9594348786357652e-14A160,160 0,1,0 160,3.9188697572715304e-14Z" transform="translate(317.5,260)" stroke-width="1" style="fill: none; stroke: rgb(80, 103, 132); stroke-opacity: 1;"/></g><g class="polarsublayer radial-line"><line x1="0" y1="0" x2="160" y2="0" transform="translate(317.5,260)" stroke-width="1" style="fill: none; stroke: rgb(80, 103, 132); stroke-opacity: 1;"/></g><g class="polarsublayer angular-axis"><g class="angularaxistick"><text text-anchor="middle" x="1.7757378587636624e-16" y="-5.300000000000001" transform="translate(317.5,100)" style="font-family: 'Open Sans', verdana, arial, sans-serif; font-size: 12px; fill: rgb(242, 245, 250); fill-opacity: 1; white-space: pre; opacity: 1;">N</text></g><g class="angularaxistick"><text text-anchor="start" x="2.050609665440988" y="-0.7778174593052025" transform="translate(430.6370849898476,146.8629150101524)" style="font-family: 'Open Sans', verdana, arial, sans-serif; font-size: 12px; fill: rgb(242, 245, 250); fill-opacity: 1; white-space: pre; opacity: 1;">NE</text></g><g class="angularaxistick"><text text-anchor="start" x="2.9000000000000004" y="4.199999999999999" transform="translate(477.5,260)" style="font-family: 'Open Sans', verdana, arial, sans-serif; font-size: 12px; fill: rgb(242, 245, 250); fill-opacity: 1; white-space: pre; opacity: 1;">E</text></g><g class="angularaxistick"><text text-anchor="start" x="2.050609665440988" y="13.505739520663056" transform="translate(430.6370849898476,373.1370849898476)" style="font-family: 'Open Sans', verdana, arial, sans-serif; font-size: 12px; fill: rgb(242, 245, 250); fill-opacity: 1; white-space: pre; opacity: 1;">SE</text></g><g class="angularaxistick"><text text-anchor="middle" x="1.7757378587636624e-16" y="14.9" transform="translate(317.5,420)" style="font-family: 'Open Sans', verdana, arial, sans-serif; font-size: 12px; fill: rgb(242, 245, 250); fill-opacity: 1; white-space: pre; opacity: 1;">S</text></g><g class="angularaxistick"><text text-anchor="end" x="-2.0506096654409878" y="13.505739520663058" transform="translate(204.3629150101524,373.1370849898476)" style="font-family: 'Open Sans', verdana, arial, sans-serif; font-size: 12px; fill: rgb(242, 245, 250); fill-opacity: 1; white-space: pre; opacity: 1;">SW</text></g><g class="angularaxistick"><text text-anchor="end" x="-2.9000000000000004" y="4.200000000000001" transform="translate(157.5,260)" style="font-family: 'Open Sans', verdana, arial, sans-serif; font-size: 12px; fill: rgb(242, 245, 250); fill-opacity: 1; white-space: pre; opacity: 1;">W</text></g><g class="angularaxistick"><text text-anchor="end" x="-2.0506096654409887" y="-0.7778174593052021" transform="translate(204.36291501015236,146.8629150101524)" style="font-family: 'Open Sans', verdana, arial, sans-serif; font-size: 12px; fill: rgb(242, 245, 250); fill-opacity: 1; white-space: pre; opacity: 1;">NW</text></g></g><g class="polarsublayer radial-axis" transform="translate(317.5,260)"><g class="xtick"><text text-anchor="start" x="0" y="14.9" transform=" rotate(90,0,8.9)" style="font-family: 'Open Sans', verdana, arial, sans-serif; font-size: 12px; fill: rgb(242, 245, 250); fill-opacity: 1; white-space: pre; opacity: 1;">0</text></g><g class="xtick"><text text-anchor="start" x="0" y="14.9" transform="translate(20.8,0) rotate(90,0,8.9)" style="font-family: 'Open Sans', verdana, arial, sans-serif; font-size: 12px; fill: rgb(242, 245, 250); fill-opacity: 1; white-space: pre; opacity: 1;">10k</text></g><g class="xtick"><text text-anchor="start" x="0" y="14.9" transform="translate(41.61,0) rotate(90,0,8.9)" style="font-family: 'Open Sans', verdana, arial, sans-serif; font-size: 12px; fill: rgb(242, 245, 250); fill-opacity: 1; white-space: pre; opacity: 1;">20k</text></g><g class="xtick"><text text-anchor="start" x="0" y="14.9" transform="translate(62.41,0) rotate(90,0,8.9)" style="font-family: 'Open Sans', verdana, arial, sans-serif; font-size: 12px; fill: rgb(242, 245, 250); fill-opacity: 1; white-space: pre; opacity: 1;">30k</text></g><g class="xtick"><text text-anchor="start" x="0" y="14.9" transform="translate(83.22,0) rotate(90,0,8.9)" style="font-family: 'Open Sans', verdana, arial, sans-serif; font-size: 12px; fill: rgb(242, 245, 250); fill-opacity: 1; white-space: pre; opacity: 1;">40k</text></g><g class="xtick"><text text-anchor="start" x="0" y="14.9" transform="translate(104.02,0) rotate(90,0,8.9)" style="font-family: 'Open Sans', verdana, arial, sans-serif; font-size: 12px; fill: rgb(242, 245, 250); fill-opacity: 1; white-space: pre; opacity: 1;">50k</text></g><g class="xtick"><text text-anchor="start" x="0" y="14.9" transform="translate(124.83,0) rotate(90,0,8.9)" style="font-family: 'Open Sans', verdana, arial, sans-serif; font-size: 12px; fill: rgb(242, 245, 250); fill-opacity: 1; white-space: pre; opacity: 1;">60k</text></g><g class="xtick"><text text-anchor="start" x="0" y="14.9" transform="translate(145.63,0) rotate(90,0,8.9)" style="font-family: 'Open Sans', verdana, arial, sans-serif; font-size: 12px; fill: rgb(242, 245, 250); fill-opacity: 1; white-space: pre; opacity: 1;">70k</text></g></g></g></g><g class="smithlayer"/><g class="ternarylayer"/><g class="geolayer"/><g class="funnelarealayer"/><g class="pielayer"/><g class="iciclelayer"/><g class="treemaplayer"/><g class="sunburstlayer"/><g class="glimages"/><defs id="topdefs-5be300"><g class="clips"/><clipPath id="legend5be300"><rect width="123" height="124" x="0" y="0"/></clipPath></defs><g class="layer-above"><g class="imagelayer"/><g class="shapelayer"/></g><g class="infolayer"><g class="legend" pointer-events="all" transform="translate(564.5,100)"><rect class="bg" shape-rendering="crispEdges" width="123" height="124" x="0" y="0" style="stroke: rgb(68, 68, 68); stroke-opacity: 1; fill: rgb(17, 17, 17); fill-opacity: 1; stroke-width: 0px;"/><g class="scrollbox" transform="" clip-path="url(#legend5be300)"><text class="legendtitletext" text-anchor="start" x="2" y="18.2" style="font-family: 'Open Sans', verdana, arial, sans-serif; font-size: 14px; fill: rgb(242, 245, 250); fill-opacity: 1; white-space: pre;">SpeedRange [m/s]</text><g class="groups" transform=""><g class="traces" transform="translate(0,32.7)" style="opacity: 1;"><text class="legendtext" text-anchor="start" x="40" y="4.680000000000001" style="font-family: 'Open Sans', verdana, arial, sans-serif; font-size: 12px; fill: rgb(242, 245, 250); fill-opacity: 1; white-space: pre;">&#60;1</text><g class="layers" style="opacity: 1;"><g class="legendfill"/><g class="legendlines"/><g class="legendsymbols"><g class="legendpoints"><path class="legendundefined" d="M6,6H-6V-6H6Z" transform="translate(20,0)" style="stroke-width: 0.5px; fill: rgb(240, 249, 33); fill-opacity: 1; stroke: rgb(17, 17, 17); stroke-opacity: 1;"/></g></g></g><rect class="legendtoggle" x="0" y="-9.5" width="64.59375" height="19" style="fill: rgb(0, 0, 0); fill-opacity: 0;"/></g></g><g class="groups" transform=""><g class="traces" transform="translate(0,51.7)" style="opacity: 1;"><text class="legendtext" text-anchor="start" x="40" y="4.680000000000001" style="font-family: 'Open Sans', verdana, arial, sans-serif; font-size: 12px; fill: rgb(242, 245, 250); fill-opacity: 1; white-space: pre;">1-3</text><g class="layers" style="opacity: 1;"><g class="legendfill"/><g class="legendlines"/><g class="legendsymbols"><g class="legendpoints"><path class="legendundefined" d="M6,6H-6V-6H6Z" transform="translate(20,0)" style="stroke-width: 0.5px; fill: rgb(253, 202, 38); fill-opacity: 1; stroke: rgb(17, 17, 17); stroke-opacity: 1;"/></g></g></g><rect class="legendtoggle" x="0" y="-9.5" width="64.59375" height="19" style="fill: rgb(0, 0, 0); fill-opacity: 0;"/></g></g><g class="groups" transform=""><g class="traces" transform="translate(0,70.7)" style="opacity: 1;"><text class="legendtext" text-anchor="start" x="40" y="4.680000000000001" style="font-family: 'Open Sans', verdana, arial, sans-serif; font-size: 12px; fill: rgb(242, 245, 250); fill-opacity: 1; white-space: pre;">3-6</text><g class="layers" style="opacity: 1;"><g class="legendfill"/><g class="legendlines"/><g class="legendsymbols"><g class="legendpoints"><path class="legendundefined" d="M6,6H-6V-6H6Z" transform="translate(20,0)" style="stroke-width: 0.5px; fill: rgb(251, 159, 58); fill-opacity: 1; stroke: rgb(17, 17, 17); stroke-opacity: 1;"/></g></g></g><rect class="legendtoggle" x="0" y="-9.5" width="64.59375" height="19" style="fill: rgb(0, 0, 0); fill-opacity: 0;"/></g></g><g class="groups" transform=""><g class="traces" transform="translate(0,89.7)" style="opacity: 1;"><text class="legendtext" text-anchor="start" x="40" y="4.680000000000001" style="font-family: 'Open Sans', verdana, arial, sans-serif; font-size: 12px; fill: rgb(242, 245, 250); fill-opacity: 1; white-space: pre;">6-10</text><g class="layers" style="opacity: 1;"><g class="legendfill"/><g class="legendlines"/><g class="legendsymbols"><g class="legendpoints"><path class="legendundefined" d="M6,6H-6V-6H6Z" transform="translate(20,0)" style="stroke-width: 0.5px; fill: rgb(237, 121, 83); fill-opacity: 1; stroke: rgb(17, 17, 17); stroke-opacity: 1;"/></g></g></g><rect class="legendtoggle" x="0" y="-9.5" width="64.59375" height="19" style="fill: rgb(0, 0, 0); fill-opacity: 0;"/></g></g><g class="groups" transform=""><g class="traces" transform="translate(0,108.7)" style="opacity: 1;"><text class="legendtext" text-anchor="start" x="40" y="4.680000000000001" style="font-family: 'Open Sans', verdana, arial, sans-serif; font-size: 12px; fill: rgb(242, 245, 250); fill-opacity: 1; white-space: pre;">>10</text><g class="layers" style="opacity: 1;"><g class="legendfill"/><g class="legendlines"/><g class="legendsymbols"><g class="legendpoints"><path class="legendundefined" d="M6,6H-6V-6H6Z" transform="translate(20,0)" style="stroke-width: 0.5px; fill: rgb(216, 87, 107); fill-opacity: 1; stroke: rgb(17, 17, 17); stroke-opacity: 1;"/></g></g></g><rect class="legendtoggle" x="0" y="-9.5" width="64.59375" height="19" style="fill: rgb(0, 0, 0); fill-opacity: 0;"/></g></g></g><rect class="scrollbar" rx="20" ry="3" width="0" height="0" x="0" y="0" style="fill: rgb(128, 139, 164); fill-opacity: 1;"/></g><g class="g-gtitle"><text class="gtitle" x="35" y="50" text-anchor="start" dy="0em" style="font-family: 'Open Sans', verdana, arial, sans-serif; font-size: 17px; fill: rgb(242, 245, 250); opacity: 1; font-weight: normal; white-space: pre;">Wind direction and intensity in Munich airport</text></g><g class="g-polartitle"/></g></svg>