<svg class="main-svg" xmlns="http://www.w3.org/2000/svg" xmlns:xlink="http://www.w3.org/1999/xlink" width="700" height="500" style="" viewBox="0 0 700 500"><rect x="0" y="0" width="700" height="500" style="fill: rgb(17, 17, 17); fill-opacity: 1;"/><defs id="defs-394e70"><g class="clips"><clipPath id="clip394e70polar-for-traces"><path d="M160,0A160,160 0,1,0 -160,-1.9594348786357652e-14A160,160 0,1,0 160,3.9188697572715304e-14Z" transform="translate(160,160)"/></clipPath></g><g class="gradients"/><g class="patterns"/></defs><g class="bglayer"/><g class="layer-below"><g class="imagelayer"/><g class="shapelayer"/></g><g class="cartesianlayer"/><g class="polarlayer"><g class="polar"><g class="polarsublayer draglayer"/><g class="polarsublayer plotbg"><path d="M160,0A160,160 0,1,0 -160,-1.9594348786357652e-14A160,160 0,1,0 160,3.9188697572715304e-14Z" transform="translate(317.5,260)" style="fill: rgb(17, 17, 17); fill-opacity: 1;"/></g><g class="polarsublayer backplot"><g class="maplayer"/></g><g class="polarsublayer angular-grid" style="fill: none;"><path class="angularaxisgrid" d="M317.5,260L317.5,100" style="stroke: rgb(80, 103, 132); stroke-opacity: 1; stroke-width: 1px;"/><path class="angularaxisgrid" d="M317.5,260L430.6370849898476,146.8629150101524" style="stroke: rgb(80, 103, 132); stroke-opacity: 1; stroke-width: 1px;"/><path class="angularaxisgrid" d="M317.5,260L477.5,260" style="stroke: rgb(80, 103, 132); stroke-opacity: 1; stroke-width: 1px;"/><path class="angularaxisgrid" d="M317.5,260L430.6370849898476,373.1370849898476" style="stroke: rgb(80, 103, 132); stroke-opacity: 1; stroke-width: 1px;"/><path class="angularaxisgrid" d="M317.5,260L317.5,420" style="stroke: rgb(80, 103, 132); stroke-opacity: 1; stroke-width: 1px;"/><path class="angularaxisgrid" d="M317.5,260L204.3629150101524,373.1370849898476" style="stroke: rgb(80, 103, 132); stroke-opacity: 1; stroke-width: 1px;"/><path class="angularaxisgrid" d="M317.5,260L157.5,260" style="stroke: rgb(80, 103, 132); stroke-opacity: 1; stroke-width: 1px;"/><path class="angularaxisgrid" d="M317.5,260L204.36291501015236,146.8629150101524" style="stroke: rgb(80, 103, 132); stroke-opacity: 1; stroke-width: 1px;"/></g><g class="polarsublayer radial-grid" transform="translate(317.5,260)" style="fill: none;"><path class="xgrid" d="M25.66,0A25.66,25.66 0,1,0 -25.66,-3.1424436866121082e-15A25.66,25.66 0,1,0 25.66,6.2848873732242164e-15Z" style="stroke: rgb(80, 103, 132); stroke-opacity: 1; stroke-width: 1px;"/><path class="xgrid" d="M51.32,0A51.32,51.32 0,1,0 -51.32,-6.2848873732242164e-15A51.32,51.32 0,1,0 51.32,1.2569774746448433e-14Z" style="stroke: rgb(80, 103, 132); stroke-opacity: 1; stroke-width: 1px;"/><path class="xgrid" d="M76.98,0A76.98,76.98 0,1,0 -76.98,-9.427331059836325e-15A76.98,76.98 0,1,0 76.98,1.885466211967265e-14Z" style="stroke: rgb(80, 103, 132); stroke-opacity: 1; stroke-width: 1px;"/><path class="xgrid" d="M102.64,0A102.64,102.64 0,1,0 -102.64,-1.2569774746448433e-14A102.64,102.64 0,1,0 102.64,2.5139549492896866e-14Z" style="stroke: rgb(80, 103, 132); stroke-opacity: 1; stroke-width: 1px;"/><path class="xgrid" d="M128.3,0A128.3,128.3 0,1,0 -128.3,-1.5712218433060543e-14A128.3,128.3 0,1,0 128.3,3.142443686612109e-14Z" style="stroke: rgb(80, 103, 132); stroke-opacity: 1; stroke-width: 1px;"/><path class="xgrid" d="M153.96,0A153.96,153.96 0,1,0 -153.96,-1.885466211967265e-14A153.96,153.96 0,1,0 153.96,3.77093242393453e-14Z" style="stroke: rgb(80, 103, 132); stroke-opacity: 1; stroke-width: 1px;"/></g><g class="polarsublayer frontplot" transform="translate(157.5,100)" clip-path="url(#clip394e70polar-for-traces)"><g class="barlayer"><g class="trace bars" style="opacity: 1;"><g class="points"><g class="point" style="vector-effect: non-scaling-stroke; stroke-miterlimit: 2;"><path d="M160,160L161.71410797258852,155.35370703109226A4.95239381457222,4.95239381457222 0,0,0 158.28589202741148,155.35370703109226L160,160A0,0 0,0,1 160,160Z" style="opacity: 1; stroke-width: 0.5px; fill: rgb(240, 249, 33); fill-opacity: 1; stroke: rgb(17, 17, 17); stroke-opacity: 1;"/></g><g class="point" style="vector-effect: non-scaling-stroke; stroke-miterlimit: 2;"><path d="M160,160L162.38855943145973,158.89885901971215A2.6301573367546762,2.6301573367546762 0,0,0 161.10114098028785,157.61144056854027L160,160A0,0 0,0,1 160,160Z" style="opacity: 1; stroke-width: 0.5px; fill: rgb(240, 249, 33); fill-opacity: 1; stroke: rgb(17, 17, 17); stroke-opacity: 1;"/></g><g class="point" style="vector-effect: non-scaling-stroke; stroke-miterlimit: 2;"><path d="M160,160L162.86481276321257,161.05688522662194A3.053548517793234,3.053548517793234 0,0,0 162.86481276321257,158.94311477337806L160,160A0,0 0,0,1 160,160Z" style="opacity: 1; stroke-width: 0.5px; fill: rgb(240, 249, 33); fill-opacity: 1; stroke: rgb(17, 17, 17); stroke-opacity: 1;"/></g><g class="point" style="vector-effect: non-scaling-stroke; stroke-miterlimit: 2;"><path d="M160,160L160.8572785387997,161.85958090371204A2.0476737119319335,2.0476737119319335 0,0,0 161.85958090371204,160.8572785387997L160,160A0,0 0,0,1 160,160Z" style="opacity: 1; stroke-width: 0.5px; fill: rgb(240, 249, 33); fill-opacity: 1; stroke: rgb(17, 17, 17); stroke-opacity: 1;"/></g><g class="point" style="vector-effect: non-scaling-stroke; stroke-miterlimit: 2;"><path d="M160,160L158.7335140057455,163.43296050448834A3.659126207036262,3.659126207036262 0,0,0 161.2664859942545,163.43296050448834L160,160A0,0 0,0,1 160,160Z" style="opacity: 1; stroke-width: 0.5px; fill: rgb(240, 249, 33); fill-opacity: 1; stroke: rgb(17, 17, 17); stroke-opacity: 1;"/></g><g class="point" style="vector-effect: non-scaling-stroke; stroke-miterlimit: 2;"><path d="M160,160L157.18965592747276,161.29558636314843A3.0946046323181853,3.0946046323181853 0,0,0 158.70441363685157,162.81034407252724L160,160A0,0 0,0,1 160,160Z" style="opacity: 1; stroke-width: 0.5px; fill: rgb(240, 249, 33); fill-opacity: 1; stroke: rgb(17, 17, 17); stroke-opacity: 1;"/></g><g class="point" style="vector-effect: non-scaling-stroke; stroke-miterlimit: 2;"><path d="M160,160L155.67870679834743,158.40579077160808A4.605982848267946,4.605982848267946 0,0,0 155.67870679834743,161.59420922839192L160,160A0,0 0,0,1 160,160Z" style="opacity: 1; stroke-width: 0.5px; fill: rgb(240, 249, 33); fill-opacity: 1; stroke: rgb(17, 17, 17); stroke-opacity: 1;"/></g><g class="point" style="vector-effect: non-scaling-stroke; stroke-miterlimit: 2;"><path d="M160,160L158.54327105437042,156.84011064482013A3.479505705989601,3.479505705989601 0,0,0 156.84011064482013,158.54327105437042L160,160A0,0 0,0,1 160,160Z" style="opacity: 1; stroke-width: 0.5px; fill: rgb(240, 249, 33); fill-opacity: 1; stroke: rgb(17, 17, 17); stroke-opacity: 1;"/></g></g></g><g class="trace bars" style="opacity: 1;"><g class="points"><g class="point" style="vector-effect: non-scaling-stroke; stroke-miterlimit: 2;"><path d="M161.71410797258852,155.35370703109226L171.71543951627726,128.24391163064132A33.84820041866433,33.84820041866433 0,0,0 148.28456048372274,128.24391163064132L158.28589202741148,155.35370703109226A4.95239381457222,4.95239381457222 0,0,1 161.71410797258852,155.35370703109226Z" style="opacity: 1; stroke-width: 0.5px; fill: rgb(253, 202, 38); fill-opacity: 1; stroke: rgb(17, 17, 17); stroke-opacity: 1;"/></g><g class="point" style="vector-effect: non-scaling-stroke; stroke-miterlimit: 2;"><path d="M162.38855943145973,158.89885901971215L191.08156653347285,145.67120156577622A34.22540347086232,34.22540347086232 0,0,0 174.3287984342238,128.91843346652715L161.10114098028785,157.61144056854027A2.6301573367546762,2.6301573367546762 0,0,1 162.38855943145973,158.89885901971215Z" style="opacity: 1; stroke-width: 0.5px; fill: rgb(253, 202, 38); fill-opacity: 1; stroke: rgb(17, 17, 17); stroke-opacity: 1;"/></g><g class="point" style="vector-effect: non-scaling-stroke; stroke-miterlimit: 2;"><path d="M162.86481276321257,161.05688522662194L224.38606500178133,183.75327343361653A68.62786143561348,68.62786143561348 0,0,0 224.38606500178133,136.2467265663835L162.86481276321257,158.94311477337806A3.053548517793234,3.053548517793234 0,0,1 162.86481276321257,161.05688522662194Z" style="opacity: 1; stroke-width: 0.5px; fill: rgb(253, 202, 38); fill-opacity: 1; stroke: rgb(17, 17, 17); stroke-opacity: 1;"/></g><g class="point" style="vector-effect: non-scaling-stroke; stroke-miterlimit: 2;"><path d="M160.8572785387997,161.85958090371204L169.7835033243722,181.22205926078402A23.368627186170574,23.368627186170574 0,0,0 181.22205926078402,169.78350332437216L161.85958090371204,160.8572785387997A2.0476737119319335,2.0476737119319335 0,0,1 160.8572785387997,161.85958090371204Z" style="opacity: 1; stroke-width: 0.5px; fill: rgb(253, 202, 38); fill-opacity: 1; stroke: rgb(17, 17, 17); stroke-opacity: 1;"/></g><g class="point" style="vector-effect: non-scaling-stroke; stroke-miterlimit: 2;"><path d="M158.7335140057455,163.43296050448834L145.5570860879614,199.14923122299376A41.72840840029712,41.72840840029712 0,0,0 174.4429139120386,199.14923122299376L161.2664859942545,163.43296050448834A3.659126207036262,3.659126207036262 0,0,1 158.7335140057455,163.43296050448834Z" style="opacity: 1; stroke-width: 0.5px; fill: rgb(253, 202, 38); fill-opacity: 1; stroke: rgb(17, 17, 17); stroke-opacity: 1;"/></g><g class="point" style="vector-effect: non-scaling-stroke; stroke-miterlimit: 2;"><path d="M157.18965592747276,161.29558636314843L106.13041133945929,184.83422052811153A59.31838746708083,59.31838746708083 0,0,0 135.1657794718885,213.86958866054073L158.70441363685157,162.81034407252724A3.0946046323181853,3.0946046323181853 0,0,1 157.18965592747276,161.29558636314843Z" style="opacity: 1; stroke-width: 0.5px; fill: rgb(253, 202, 38); fill-opacity: 1; stroke: rgb(17, 17, 17); stroke-opacity: 1;"/></g><g class="point" style="vector-effect: non-scaling-stroke; stroke-miterlimit: 2;"><path d="M155.67870679834743,158.40579077160808L99.72337649973448,137.76277957633613A64.24768721723277,64.24768721723277 0,0,0 99.72337649973448,182.2372204236639L155.67870679834743,161.59420922839192A4.605982848267946,4.605982848267946 0,0,1 155.67870679834743,158.40579077160808Z" style="opacity: 1; stroke-width: 0.5px; fill: rgb(253, 202, 38); fill-opacity: 1; stroke: rgb(17, 17, 17); stroke-opacity: 1;"/></g><g class="point" style="vector-effect: non-scaling-stroke; stroke-miterlimit: 2;"><path d="M158.54327105437042,156.84011064482013L147.4641813668498,132.80770731150886A29.94273752447836,29.94273752447836 0,0,0 132.80770731150886,147.4641813668498L156.84011064482013,158.54327105437042A3.479505705989601,3.479505705989601 0,0,1 158.54327105437042,156.84011064482013Z" style="opacity: 1; stroke-width: 0.5px; fill: rgb(253, 202, 38); fill-opacity: 1; stroke: rgb(17, 17, 17); stroke-opacity: 1;"/></g></g></g><g class="trace bars" style="opacity: 1;"><g class="points"><g class="point" style="vector-effect: non-scaling-stroke; stroke-miterlimit: 2;"><path d="M171.71543951627726,128.24391163064132L173.4304356277117,123.59521125605019A38.803160240394355,38.803160240394355 0,0,0 146.5695643722883,123.59521125605019L148.28456048372274,128.24391163064132A33.84820041866433,33.84820041866433 0,0,1 171.71543951627726,128.24391163064132Z" style="opacity: 1; stroke-width: 0.5px; fill: rgb(251, 159, 58); fill-opacity: 1; stroke: rgb(17, 17, 17); stroke-opacity: 1;"/></g><g class="point" style="vector-effect: non-scaling-stroke; stroke-miterlimit: 2;"><path d="M191.08156653347285,145.67120156577622L202.18312471052076,140.5533131461749A46.44986157066649,46.44986157066649 0,0,0 179.4466868538251,117.81687528947926L174.3287984342238,128.91843346652715A34.22540347086232,34.22540347086232 0,0,1 191.08156653347285,145.67120156577622Z" style="opacity: 1; stroke-width: 0.5px; fill: rgb(251, 159, 58); fill-opacity: 1; stroke: rgb(17, 17, 17); stroke-opacity: 1;"/></g><g class="point" style="vector-effect: non-scaling-stroke; stroke-miterlimit: 2;"><path d="M224.38606500178133,183.75327343361653L248.36382560816543,192.59913633878836A94.1852927273955,94.1852927273955 0,0,0 248.36382560816543,127.40086366121167L224.38606500178133,136.2467265663835A68.62786143561348,68.62786143561348 0,0,1 224.38606500178133,183.75327343361653Z" style="opacity: 1; stroke-width: 0.5px; fill: rgb(251, 159, 58); fill-opacity: 1; stroke: rgb(17, 17, 17); stroke-opacity: 1;"/></g><g class="point" style="vector-effect: non-scaling-stroke; stroke-miterlimit: 2;"><path d="M169.7835033243722,181.22205926078402L171.57003742214653,185.09735129445963A27.635897089607674,27.635897089607674 0,0,0 185.09735129445966,171.57003742214653L181.22205926078402,169.78350332437216A23.368627186170574,23.368627186170574 0,0,1 169.7835033243722,181.22205926078402Z" style="opacity: 1; stroke-width: 0.5px; fill: rgb(251, 159, 58); fill-opacity: 1; stroke: rgb(17, 17, 17); stroke-opacity: 1;"/></g><g class="point" style="vector-effect: non-scaling-stroke; stroke-miterlimit: 2;"><path d="M145.5570860879614,199.14923122299376L144.03925680031696,203.26348753587632A46.11371463299345,46.11371463299345 0,0,0 175.96074319968304,203.26348753587632L174.4429139120386,199.14923122299376A41.72840840029712,41.72840840029712 0,0,1 145.5570860879614,199.14923122299376Z" style="opacity: 1; stroke-width: 0.5px; fill: rgb(251, 159, 58); fill-opacity: 1; stroke: rgb(17, 17, 17); stroke-opacity: 1;"/></g><g class="point" style="vector-effect: non-scaling-stroke; stroke-miterlimit: 2;"><path d="M106.13041133945929,184.83422052811153L86.6211239636732,193.82812519832606A80.80099939226147,80.80099939226147 0,0,0 126.17187480167395,233.3788760363268L135.1657794718885,213.86958866054073A59.31838746708083,59.31838746708083 0,0,1 106.13041133945929,184.83422052811153Z" style="opacity: 1; stroke-width: 0.5px; fill: rgb(251, 159, 58); fill-opacity: 1; stroke: rgb(17, 17, 17); stroke-opacity: 1;"/></g><g class="point" style="vector-effect: non-scaling-stroke; stroke-miterlimit: 2;"><path d="M99.72337649973448,137.76277957633613L37.51601364140471,114.81327179825982A130.5533121750287,130.5533121750287 0,0,0 37.51601364140471,205.1867282017402L99.72337649973448,182.2372204236639A64.24768721723277,64.24768721723277 0,0,1 99.72337649973448,137.76277957633613Z" style="opacity: 1; stroke-width: 0.5px; fill: rgb(251, 159, 58); fill-opacity: 1; stroke: rgb(17, 17, 17); stroke-opacity: 1;"/></g><g class="point" style="vector-effect: non-scaling-stroke; stroke-miterlimit: 2;"><path d="M147.4641813668498,132.80770731150886L140.80147272319587,118.35517502476432A45.85711391721251,45.85711391721251 0,0,0 118.35517502476432,140.8014727231959L132.80770731150886,147.4641813668498A29.94273752447836,29.94273752447836 0,0,1 147.4641813668498,132.80770731150886Z" style="opacity: 1; stroke-width: 0.5px; fill: rgb(251, 159, 58); fill-opacity: 1; stroke: rgb(17, 17, 17); stroke-opacity: 1;"/></g></g></g><g class="trace bars" style="opacity: 1;"><g class="points"><g class="point" style="vector-effect: non-scaling-stroke; stroke-miterlimit: 2;"><path d="M173.4304356277117,123.59521125605019L173.4393170161707,123.57113719921648A38.82882031197245,38.82882031197245 0,0,0 146.5606829838293,123.57113719921648L146.5695643722883,123.59521125605019A38.803160240394355,38.803160240394355 0,0,1 173.4304356277117,123.59521125605019Z" style="opacity: 1; stroke-width: 0.5px; fill: rgb(237, 121, 83); fill-opacity: 1; stroke: rgb(17, 17, 17); stroke-opacity: 1;"/></g><g class="point" style="vector-effect: non-scaling-stroke; stroke-miterlimit: 2;"><path d="M202.18312471052076,140.5533131461749L202.28798829531655,140.50497037143057A46.565331892767915,46.565331892767915 0,0,0 179.49502962856945,117.71201170468348L179.4466868538251,117.81687528947926A46.44986157066649,46.44986157066649 0,0,1 202.18312471052076,140.5533131461749Z" style="opacity: 1; stroke-width: 0.5px; fill: rgb(237, 121, 83); fill-opacity: 1; stroke: rgb(17, 17, 17); stroke-opacity: 1;"/></g><g class="point" style="vector-effect: non-scaling-stroke; stroke-miterlimit: 2;"><path d="M248.36382560816543,192.59913633878836L249.01863995404256,192.84071010487338A94.88324667431968,94.88324667431968 0,0,0 249.01863995404258,127.15928989512665L248.36382560816543,127.40086366121167A94.1852927273955,94.1852927273955 0,0,1 248.36382560816543,192.59913633878836Z" style="opacity: 1; stroke-width: 0.5px; fill: rgb(237, 121, 83); fill-opacity: 1; stroke: rgb(17, 17, 17); stroke-opacity: 1;"/></g><g class="point" style="vector-effect: non-scaling-stroke; stroke-miterlimit: 2;"><path d="M171.57003742214653,185.09735129445963L171.60548879029238,185.17425125664323A27.720575325815386,27.720575325815386 0,0,0 185.17425125664323,171.60548879029236L185.09735129445966,171.57003742214653A27.635897089607674,27.635897089607674 0,0,1 171.57003742214653,185.09735129445963Z" style="opacity: 1; stroke-width: 0.5px; fill: rgb(237, 121, 83); fill-opacity: 1; stroke: rgb(17, 17, 17); stroke-opacity: 1;"/></g><g class="point" style="vector-effect: non-scaling-stroke; stroke-miterlimit: 2;"><path d="M144.03925680031696,203.26348753587632L144.03392796724157,203.27793196997658A46.12911067594031,46.12911067594031 0,0,0 175.96607203275843,203.27793196997658L175.96074319968304,203.26348753587632A46.11371463299345,46.11371463299345 0,0,1 144.03925680031696,203.26348753587632Z" style="opacity: 1; stroke-width: 0.5px; fill: rgb(237, 121, 83); fill-opacity: 1; stroke: rgb(17, 17, 17); stroke-opacity: 1;"/></g><g class="point" style="vector-effect: non-scaling-stroke; stroke-miterlimit: 2;"><path d="M86.6211239636732,193.82812519832606L84.55647649413827,194.77994071884805A83.07448173408063,83.07448173408063 0,0,0 125.22005928115196,235.44352350586172L126.17187480167395,233.3788760363268A80.80099939226147,80.80099939226147 0,0,1 86.6211239636732,193.82812519832606Z" style="opacity: 1; stroke-width: 0.5px; fill: rgb(237, 121, 83); fill-opacity: 1; stroke: rgb(17, 17, 17); stroke-opacity: 1;"/></g><g class="point" style="vector-effect: non-scaling-stroke; stroke-miterlimit: 2;"><path d="M37.51601364140471,114.81327179825982L18.759915962254297,107.8937820498468A150.54507394152205,150.54507394152205 0,0,0 18.759915962254297,212.10621795015322L37.51601364140471,205.1867282017402A130.5533121750287,130.5533121750287 0,0,1 37.51601364140471,114.81327179825982Z" style="opacity: 1; stroke-width: 0.5px; fill: rgb(237, 121, 83); fill-opacity: 1; stroke: rgb(17, 17, 17); stroke-opacity: 1;"/></g><g class="point" style="vector-effect: non-scaling-stroke; stroke-miterlimit: 2;"><path d="M140.80147272319587,118.35517502476432L140.37175916991282,117.42305427102394A46.883516780336286,46.883516780336286 0,0,0 117.42305427102394,140.37175916991282L118.35517502476432,140.8014727231959A45.85711391721251,45.85711391721251 0,0,1 140.80147272319587,118.35517502476432Z" style="opacity: 1; stroke-width: 0.5px; fill: rgb(237, 121, 83); fill-opacity: 1; stroke: rgb(17, 17, 17); stroke-opacity: 1;"/></g></g></g><g class="trace bars" style="opacity: 1;"><g class="points"><g class="point" style="vector-effect: non-scaling-stroke; stroke-miterlimit: 2;"><path d="M0,0Z" style="opacity: 1; stroke-width: 0.5px; fill: rgb(216, 87, 107); fill-opacity: 1; stroke: rgb(17, 17, 17); stroke-opacity: 1;"/></g><g class="point" style="vector-effect: non-scaling-stroke; stroke-miterlimit: 2;"><path d="M0,0Z" style="opacity: 1; stroke-width: 0.5px; fill: rgb(216, 87, 107); fill-opacity: 1; stroke: rgb(17, 17, 17); stroke-opacity: 1;"/></g><g class="point" style="vector-effect: non-scaling-stroke; stroke-miterlimit: 2;"><path d="M0,0Z" style="opacity: 1; stroke-width: 0.5px; fill: rgb(216, 87, 107); fill-opacity: 1; stroke: rgb(17, 17, 17); stroke-opacity: 1;"/></g><g class="point" style="vector-effect: non-scaling-stroke; stroke-miterlimit: 2;"><path d="M0,0Z" style="opacity: 1; stroke-width: 0.5px; fill: rgb(216, 87, 107); fill-opacity: 1; stroke: rgb(17, 17, 17); stroke-opacity: 1;"/></g><g class="point" style="vector-effect: non-scaling-stroke; stroke-miterlimit: 2;"><path d="M0,0Z" style="opacity: 1; stroke-width: 0.5px; fill: rgb(216, 87, 107); fill-opacity: 1; stroke: rgb(17, 17, 17); stroke-opacity: 1;"/></g><g class="point" style="vector-effect: non-scaling-stroke; stroke-miterlimit: 2;"><path d="M84.55647649413827,194.77994071884805L84.44695230557377,194.8304320613588A83.19508407049767,83.19508407049767 0,0,0 125.1695679386412,235.55304769442623L125.22005928115196,235.44352350586172A83.07448173408063,83.07448173408063 0,0,1 84.55647649413827,194.77994071884805Z" style="opacity: 1; stroke-width: 0.5px; fill: rgb(216, 87, 107); fill-opacity: 1; stroke: rgb(17, 17, 17); stroke-opacity: 1;"/></g><g class="point" style="vector-effect: non-scaling-stroke; stroke-miterlimit: 2;"><path d="M18.759915962254297,107.8937820498468L17.394916939782433,107.39020732422105A152,152 0,0,0 17.394916939782433,212.60979267577898L18.759915962254297,212.10621795015322A150.54507394152205,150.54507394152205 0,0,1 18.759915962254297,107.8937820498468Z" style="opacity: 1; stroke-width: 0.5px; fill: rgb(216, 87, 107); fill-opacity: 1; stroke: rgb(17, 17, 17); stroke-opacity: 1;"/></g><g class="point" style="vector-effect: non-scaling-stroke; stroke-miterlimit: 2;"><path d="M140.37175916991282,117.42305427102394L140.36853631826318,117.41606336537089A46.89121480180971,46.89121480180971 0,0,0 117.41606336537089,140.3685363182632L117.42305427102394,140.37175916991282A46.883516780336286,46.883516780336286 0,0,1 140.37175916991282,117.42305427102394Z" style="opacity: 1; stroke-width: 0.5px; fill: rgb(216, 87, 107); fill-opacity: 1; stroke: rgb(17, 17, 17); stroke-opacity: 1;"/></g></g></g></g><g class="scatterlayer"/></g><g class="polarsublayer angular-line"><path d="M160,0A160,160 0,1,0 -160,-1.9594348786357652e-14A160,160 0,1,0 160,3.9188697572715304e-14Z" transform="translate(317.5,260)" stroke-width="1" style="fill: none; stroke: rgb(80, 103, 132); stroke-opacity: 1;"/></g><g class="polarsublayer radial-line"><line x1="0" y1="0" x2="160" y2="0" transform="translate(317.5,260)" stroke-width="1" style="fill: none; stroke: rgb(80, 103, 132); stroke-opacity: 1;"/></g><g class="polarsublayer angular-axis"><g class="angularaxistick"><text text-anchor="middle" x="1.7757378587636624e-16" y="-5.300000000000001" transform="translate(317.5,100)" style="font-family: 'Open Sans', verdana, arial, sans-serif; font-size: 12px; fill: rgb(242, 245, 250); fill-opacity: 1; white-space: pre; opacity: 1;">N</text></g><g class="angularaxistick"><text text-anchor="start" x="2.050609665440988" y="-0.7778174593052025" transform="translate(430.6370849898476,146.8629150101524)" style="font-family: 'Open Sans', verdana, arial, sans-serif; font-size: 12px; fill: rgb(242, 245, 250); fill-opacity: 1; white-space: pre; opacity: 1;">NE</text></g><g class="angularaxistick"><text text-anchor="start" x="2.9000000000000004" y="4.199999999999999" transform="translate(477.5,260)" style="font-family: 'Open Sans', verdana, arial, sans-serif; font-size: 12px; fill: rgb(242, 245, 250); fill-opacity: 1; white-space: pre; opacity: 1;">E</text></g><g class="angularaxistick"><text text-anchor="start" x="2.050609665440988" y="13.505739520663056" transform="translate(430.6370849898476,373.1370849898476)" style="font-family: 'Open Sans', verdana, arial, sans-serif; font-size: 12px; fill: rgb(242, 245, 250); fill-opacity: 1; white-space: pre; opacity: 1;">SE</text></g><g class="angularaxistick"><text text-anchor="middle" x="1.7757378587636624e-16" y="14.9" transform="translate(317.5,420)" style="font-family: 'Open Sans', verdana, arial, sans-serif; font-size: 12px; fill: rgb(242, 245, 250); fill-opacity: 1; white-space: pre; opacity: 1;">S</text></g><g class="angularaxistick"><text text-anchor="end" x="-2.0506096654409878" y="13.505739520663058" transform="translate(204.3629150101524,373.1370849898476)" style="font-family: 'Open Sans', verdana, arial, sans-serif; font-size: 12px; fill: rgb(242, 245, 250); fill-opacity: 1; white-space: pre; opacity: 1;">SW</text></g><g class="angularaxistick"><text text-anchor="end" x="-2.9000000000000004" y="4.200000000000001" transform="translate(157.5,260)" style="font-family: 'Open Sans', verdana, arial, sans-serif; font-size: 12px; fill: rgb(242, 245, 250); fill-opacity: 1; white-space: pre; opacity: 1;">W</text></g><g class="angularaxistick"><text text-anchor="end" x="-2.0506096654409887" y="-0.7778174593052021" transform="translate(204.36291501015236,146.8629150101524)" style="font-family: 'Open Sans', verdana, arial, sans-serif; font-size: 12px; fill: rgb(242, 245, 250); fill-opacity: 1; white-space: pre; opacity: 1;">NW</text></g></g><g class="polarsublayer radial-axis" transform="translate(317.5,260)"><g class="xtick"><text text-anchor="middle" x="0" y="14.9" transform="" style="font-family: 'Open Sans', verdana, arial, sans-serif; font-size: 12px; fill: rgb(242, 245, 250); fill-opacity: 1; white-space: pre; opacity: 1;">0</text></g><g class="xtick"><text text-anchor="middle" x="0" y="14.9" transform="translate(25.66,0)" style="font-family: 'Open Sans', verdana, arial, sans-serif; font-size: 12px; fill: rgb(242, 245, 250); fill-opacity: 1; white-space: pre; opacity: 1;">10k</text></g><g class="xtick"><text text-anchor="middle" x="0" y="14.9" transform="translate(51.32,0)" style="font-family: 'Open Sans', verdana, arial, sans-serif; font-size: 12px; fill: rgb(242, 245, 250); fill-opacity: 1; white-space: pre; opacity: 1;">20k</text></g><g class="xtick"><text text-anchor="middle" x="0" y="14.9" transform="translate(76.98,0)" style="font-family: 'Open Sans', verdana, arial, sans-serif; font-size: 12px; fill: rgb(242, 245, 250); fill-opacity: 1; white-space: pre; opacity: 1;">30k</text></g><g class="xtick"><text text-anchor="middle" x="0" y="14.9" transform="translate(102.64,0)" style="font-family: 'Open Sans', verdana, arial, sans-serif; font-size: 12px; fill: rgb(242, 245, 250); fill-opacity: 1; white-space: pre; opacity: 1;">40k</text></g><g class="xtick"><text text-anchor="middle" x="0" y="14.9" transform="translate(128.3,0)" style="font-family: 'Open Sans', verdana, arial, sans-serif; font-size: 12px; fill: rgb(242, 245, 250); fill-opacity: 1; white-space: pre; opacity: 1;">50k</text></g><g class="xtick"><text text-anchor="middle" x="0" y="14.9" transform="translate(153.96,0)" style="font-family: 'Open Sans', verdana, arial, sans-serif; font-size: 12px; fill: rgb(242, 245, 250); fill-opacity: 1; white-space: pre; opacity: 1;">60k</text></g></g></g></g><g class="smithlayer"/><g class="ternarylayer"/><g class="geolayer"/><g class="funnelarealayer"/><g class="pielayer"/><g class="iciclelayer"/><g class="treemaplayer"/><g class="sunburstlayer"/><g class="glimages"/><defs id="topdefs-394e70"><g class="clips"/><clipPath id="legend394e70"><rect width="123" height="124" x="0" y="0"/></clipPath></defs><g class="layer-above"><g class="imagelayer"/><g class="shapelayer"/></g><g class="infolayer"><g class="legend" pointer-events="all" transform="translate(564.5,100)"><rect class="bg" shape-rendering="crispEdges" width="123" height="124" x="0" y="0" style="stroke: rgb(68, 68, 68); stroke-opacity: 1; fill: rgb(17, 17, 17); fill-opacity: 1; stroke-width: 0px;"/><g class="scrollbox" transform="" clip-path="url(#legend394e70)"><text class="legendtitletext" text-anchor="start" x="2" y="18.2" style="font-family: 'Open Sans', verdana, arial, sans-serif; font-size: 14px; fill: rgb(242, 245, 250); fill-opacity: 1; white-space: pre;">SpeedRange [m/s]</text><g class="groups" transform=""><g class="traces" transform="translate(0,32.7)" style="opacity: 1;"><text class="legendtext" text-anchor="start" x="40" y="4.680000000000001" style="font-family: 'Open Sans', verdana, arial, sans-serif; font-size: 12px; fill: rgb(242, 245, 250); fill-opacity: 1; white-space: pre;">&#60;1</text><g class="layers" style="opacity: 1;"><g class="legendfill"/><g class="legendlines"/><g class="legendsymbols"><g class="legendpoints"><path class="legendundefined" d="M6,6H-6V-6H6Z" transform="translate(20,0)" style="stroke-width: 0.5px; fill: rgb(240, 249, 33); fill-opacity: 1; stroke: rgb(17, 17, 17); stroke-opacity: 1;"/></g></g></g><rect class="legendtoggle" x="0" y="-9.5" width="64.59375" height="19" style="fill: rgb(0, 0, 0); fill-opacity: 0;"/></g></g><g class="groups" transform=""><g class="traces" transform="translate(0,51.7)" style="opacity: 1;"><text class="legendtext" text-anchor="start" x="40" y="4.680000000000001" style="font-family: 'Open Sans', verdana, arial, sans-serif; font-size: 12px; fill: rgb(242, 245, 250); fill-opacity: 1; white-space: pre;">1-3</text><g class="layers" style="opacity: 1;"><g class="legendfill"/><g class="legendlines"/><g class="legendsymbols"><g class="legendpoints"><path class="legendundefined" d="M6,6H-6V-6H6Z" transform="translate(20,0)" style="stroke-width: 0.5px; fill: rgb(253, 202, 38); fill-opacity: 1; stroke: rgb(17, 17, 17); stroke-opacity: 1;"/></g></g></g><rect class="legendtoggle" x="0" y="-9.5" width="64.59375" height="19" style="fill: rgb(0, 0, 0); fill-opacity: 0;"/></g></g><g class="groups" transform=""><g class="traces" transform="translate(0,70.7)" style="opacity: 1;"><text class="legendtext" text-anchor="start" x="40" y="4.680000000000001" style="font-family: 'Open Sans', verdana, arial, sans-serif; font-size: 12px; fill: rgb(242, 245, 250); fill-opacity: 1; white-space: pre;">3-6</text><g class="layers" style="opacity: 1;"><g class="legendfill"/><g class="legendlines"/><g class="legendsymbols"><g class="legendpoints"><path class="legendundefined" d="M6,6H-6V-6H6Z" transform="translate(20,0)" style="stroke-width: 0.5px; fill: rgb(251, 159, 58); fill-opacity: 1; stroke: rgb(17, 17, 17); stroke-opacity: 1;"/></g></g></g><rect class="legendtoggle" x="0" y="-9.5" width="64.59375" height="19" style="fill: rgb(0, 0, 0); fill-opacity: 0;"/></g></g><g class="groups" transform=""><g class="traces" transform="translate(0,89.7)" style="opacity: 1;"><text class="legendtext" text-anchor="start" x="40" y="4.680000000000001" style="font-family: 'Open Sans', verdana, arial, sans-serif; font-size: 12px; fill: rgb(242, 245, 250); fill-opacity: 1; white-space: pre;">6-10</text><g class="layers" style="opacity: 1;"><g class="legendfill"/><g class="legendlines"/><g class="legendsymbols"><g class="legendpoints"><path class="legendundefined" d="M6,6H-6V-6H6Z" transform="translate(20,0)" style="stroke-width: 0.5px; fill: rgb(237, 121, 83); fill-opacity: 1; stroke: rgb(17, 17, 17); stroke-opacity: 1;"/></g></g></g><rect class="legendtoggle" x="0" y="-9.5" width="64.59375" height="19" style="fill: rgb(0, 0, 0); fill-opacity: 0;"/></g></g><g class="groups" transform=""><g class="traces" transform="translate(0,108.7)" style="opacity: 1;"><text class="legendtext" text-anchor="start" x="40" y="4.680000000000001" style="font-family: 'Open Sans', verdana, arial, sans-serif; font-size: 12px; fill: rgb(242, 245, 250); fill-opacity: 1; white-space: pre;">>10</text><g class="layers" style="opacity: 1;"><g class="legendfill"/><g class="legendlines"/><g class="legendsymbols"><g class="legendpoints"><path class="legendundefined" d="M6,6H-6V-6H6Z" transform="translate(20,0)" style="stroke-width: 0.5px; fill: rgb(216, 87, 107); fill-opacity: 1; stroke: rgb(17, 17, 17); stroke-opacity: 1;"/></g></g></g><rect class="legendtoggle" x="0" y="-9.5" width="64.59375" height="19" style="fill: rgb(0, 0, 0); fill-opacity: 0;"/></g></g></g><rect class="scrollbar" rx="20" ry="3" width="0" height="0" x="0" y="0" style="fill: rgb(128, 139, 164); fill-opacity: 1;"/></g><g class="g-gtitle"><text class="gtitle" x="35" y="50" text-anchor="start" dy="0em" style="font-family: 'Open Sans', verdana, arial, sans-serif; font-size: 17px; fill: rgb(242, 245, 250); opacity: 1; font-weight: normal; white-space: pre;">Wind direction and intensity in Munich city</text></g><g class="g-polartitle"/></g></svg>