<svg class="main-svg" xmlns="http://www.w3.org/2000/svg" xmlns:xlink="http://www.w3.org/1999/xlink" width="700" height="500" style="" viewBox="0 0 700 500"><rect x="0" y="0" width="700" height="500" style="fill: rgb(17, 17, 17); fill-opacity: 1;"/><defs id="defs-228b25"><g class="clips"><clipPath id="clip228b25polar-for-traces"><path d="M160,0A160,160 0,1,0 -160,-1.9594348786357652e-14A160,160 0,1,0 160,3.9188697572715304e-14Z" transform="translate(160,160)"/></clipPath></g><g class="gradients"/><g class="patterns"/></defs><g class="bglayer"/><g class="layer-below"><g class="imagelayer"/><g class="shapelayer"/></g><g class="cartesianlayer"/><g class="polarlayer"><g class="polar"><g class="polarsublayer draglayer"/><g class="polarsublayer plotbg"><path d="M160,0A160,160 0,1,0 -160,-1.9594348786357652e-14A160,160 0,1,0 160,3.9188697572715304e-14Z" transform="translate(317.5,260)" style="fill: rgb(17, 17, 17); fill-opacity: 1;"/></g><g class="polarsublayer backplot"><g class="maplayer"/></g><g class="polarsublayer angular-grid" style="fill: none;"><path class="angularaxisgrid" d="M317.5,260L317.5,100" style="stroke: rgb(80, 103, 132); stroke-opacity: 1; stroke-width: 1px;"/><path class="angularaxisgrid" d="M317.5,260L430.6370849898476,146.8629150101524" style="stroke: rgb(80, 103, 132); stroke-opacity: 1; stroke-width: 1px;"/><path class="angularaxisgrid" d="M317.5,260L477.5,260" style="stroke: rgb(80, 103, 132); stroke-opacity: 1; stroke-width: 1px;"/><path class="angularaxisgrid" d="M317.5,260L430.6370849898476,373.1370849898476" style="stroke: rgb(80, 103, 132); stroke-opacity: 1; stroke-width: 1px;"/><path class="angularaxisgrid" d="M317.5,260L317.5,420" style="stroke: rgb(80, 103, 132); stroke-opacity: 1; stroke-width: 1px;"/><path class="angularaxisgrid" d="M317.5,260L204.3629150101524,373.1370849898476" style="stroke: rgb(80, 103, 132); stroke-opacity: 1; stroke-width: 1px;"/><path class="angularaxisgrid" d="M317.5,260L157.5,260" style="stroke: rgb(80, 103, 132); stroke-opacity: 1; stroke-width: 1px;"/><path class="angularaxisgrid" d="M317.5,260L204.36291501015236,146.8629150101524" style="stroke: rgb(80, 103, 132); stroke-opacity: 1; stroke-width: 1px;"/></g><g class="polarsublayer radial-grid" transform="translate(317.5,260)" style="fill: none;"><path class="xgrid" d="M17.85,0A17.85,17.85 0,1,0 -17.85,-2.1859945364780258e-15A17.85,17.85 0,1,0 17.85,4.3719890729560516e-15Z" style="stroke: rgb(80, 103, 132); stroke-opacity: 1; stroke-width: 1px;"/><path class="xgrid" d="M35.7,0A35.7,35.7 0,1,0 -35.7,-4.3719890729560516e-15A35.7,35.7 0,1,0 35.7,8.743978145912103e-15Z" style="stroke: rgb(80, 103, 132); stroke-opacity: 1; stroke-width: 1px;"/><path class="xgrid" d="M53.55,0A53.55,53.55 0,1,0 -53.55,-6.557983609434076e-15A53.55,53.55 0,1,0 53.55,1.3115967218868152e-14Z" style="stroke: rgb(80, 103, 132); stroke-opacity: 1; stroke-width: 1px;"/><path class="xgrid" d="M71.4,0A71.4,71.4 0,1,0 -71.4,-8.743978145912103e-15A71.4,71.4 0,1,0 71.4,1.7487956291824206e-14Z" style="stroke: rgb(80, 103, 132); stroke-opacity: 1; stroke-width: 1px;"/><path class="xgrid" d="M89.25,0A89.25,89.25 0,1,0 -89.25,-1.0929972682390128e-14A89.25,89.25 0,1,0 89.25,2.1859945364780255e-14Z" style="stroke: rgb(80, 103, 132); stroke-opacity: 1; stroke-width: 1px;"/><path class="xgrid" d="M107.1,0A107.1,107.1 0,1,0 -107.1,-1.3115967218868152e-14A107.1,107.1 0,1,0 107.1,2.6231934437736305e-14Z" style="stroke: rgb(80, 103, 132); stroke-opacity: 1; stroke-width: 1px;"/><path class="xgrid" d="M124.95,0A124.95,124.95 0,1,0 -124.95,-1.530196175534618e-14A124.95,124.95 0,1,0 124.95,3.060392351069236e-14Z" style="stroke: rgb(80, 103, 132); stroke-opacity: 1; stroke-width: 1px;"/><path class="xgrid" d="M142.8,0A142.8,142.8 0,1,0 -142.8,-1.7487956291824206e-14A142.8,142.8 0,1,0 142.8,3.497591258364841e-14Z" style="stroke: rgb(80, 103, 132); stroke-opacity: 1; stroke-width: 1px;"/></g><g class="polarsublayer frontplot" transform="translate(157.5,100)" clip-path="url(#clip228b25polar-for-traces)"><g class="barlayer"><g class="trace bars" style="opacity: 1;"><g class="points"><g class="point" style="vector-effect: non-scaling-stroke; stroke-miterlimit: 2;"><path d="M160,160L160.4775634842071,153.9319805951435A6.086782925253949,6.086782925253949 0,0,0 159.5224365157929,153.9319805951435L160,160A0,0 0,0,1 160,160Z" style="opacity: 1; stroke-width: 0.5px; fill: rgb(240, 249, 33); fill-opacity: 1; stroke: rgb(17, 17, 17); stroke-opacity: 1;"/></g><g class="point" style="vector-effect: non-scaling-stroke; stroke-miterlimit: 2;"><path d="M160,160L160.67485430721126,157.39053201315738A2.695320298279608,2.695320298279608 0,0,0 160.25833500227165,157.3170884217106L160,160A0,0 0,0,1 160,160Z" style="opacity: 1; stroke-width: 0.5px; fill: rgb(240, 249, 33); fill-opacity: 1; stroke: rgb(17, 17, 17); stroke-opacity: 1;"/></g><g class="point" style="vector-effect: non-scaling-stroke; stroke-miterlimit: 2;"><path d="M160,160L161.09552453605716,157.59609080504507A2.6417708883800133,2.6417708883800133 0,0,0 160.70598256218148,157.45430912155703L160,160A0,0 0,0,1 160,160Z" style="opacity: 1; stroke-width: 0.5px; fill: rgb(240, 249, 33); fill-opacity: 1; stroke: rgb(17, 17, 17); stroke-opacity: 1;"/></g><g class="point" style="vector-effect: non-scaling-stroke; stroke-miterlimit: 2;"><path d="M160,160L161.40532334845258,157.9552418397973A2.4811226586812283,2.4811226586812283 0,0,0 161.06815083710478,157.76057519960733L160,160A0,0 0,0,1 160,160Z" style="opacity: 1; stroke-width: 0.5px; fill: rgb(240, 249, 33); fill-opacity: 1; stroke: rgb(17, 17, 17); stroke-opacity: 1;"/></g><g class="point" style="vector-effect: non-scaling-stroke; stroke-miterlimit: 2;"><path d="M160,160L161.46379782236022,158.51042851414974A2.0884269860841997,2.0884269860841997 0,0,0 161.2127557236056,158.29977918167472L160,160A0,0 0,0,1 160,160Z" style="opacity: 1; stroke-width: 0.5px; fill: rgb(240, 249, 33); fill-opacity: 1; stroke: rgb(17, 17, 17); stroke-opacity: 1;"/></g><g class="point" style="vector-effect: non-scaling-stroke; stroke-miterlimit: 2;"><path d="M160,160L161.89640014351664,158.6473109236707A2.3293993306323766,2.3293993306323766 0,0,0 161.661445118833,158.3673024289059L160,160A0,0 0,0,1 160,160Z" style="opacity: 1; stroke-width: 0.5px; fill: rgb(240, 249, 33); fill-opacity: 1; stroke: rgb(17, 17, 17); stroke-opacity: 1;"/></g><g class="point" style="vector-effect: non-scaling-stroke; stroke-miterlimit: 2;"><path d="M160,160L162.02998219316171,159.03174816204893A2.2490752157829843,2.2490752157829843 0,0,0 161.85352178550747,158.72610977046745L160,160A0,0 0,0,1 160,160Z" style="opacity: 1; stroke-width: 0.5px; fill: rgb(240, 249, 33); fill-opacity: 1; stroke: rgb(17, 17, 17); stroke-opacity: 1;"/></g><g class="point" style="vector-effect: non-scaling-stroke; stroke-miterlimit: 2;"><path d="M160,160L162.175877676507,159.3965757154327A2.2580001174329167,2.2580001174329167 0,0,0 162.05469265649864,159.06362260938357L160,160A0,0 0,0,1 160,160Z" style="opacity: 1; stroke-width: 0.5px; fill: rgb(240, 249, 33); fill-opacity: 1; stroke: rgb(17, 17, 17); stroke-opacity: 1;"/></g><g class="point" style="vector-effect: non-scaling-stroke; stroke-miterlimit: 2;"><path d="M160,160L162.40751336992196,159.76818282908738A2.4186483471317013,2.4186483471317013 0,0,0 162.34160869017995,159.39441881703888L160,160A0,0 0,0,1 160,160Z" style="opacity: 1; stroke-width: 0.5px; fill: rgb(240, 249, 33); fill-opacity: 1; stroke: rgb(17, 17, 17); stroke-opacity: 1;"/></g><g class="point" style="vector-effect: non-scaling-stroke; stroke-miterlimit: 2;"><path d="M160,160L161.8862465012164,160.1484508191377A1.892079149785685,1.892079149785685 0,0,0 161.8862465012164,159.8515491808623L160,160A0,0 0,0,1 160,160Z" style="opacity: 1; stroke-width: 0.5px; fill: rgb(240, 249, 33); fill-opacity: 1; stroke: rgb(17, 17, 17); stroke-opacity: 1;"/></g><g class="point" style="vector-effect: non-scaling-stroke; stroke-miterlimit: 2;"><path d="M160,160L162.05646814857133,160.53183882488835A2.1241265926839294,2.1241265926839294 0,0,0 162.11434753520822,160.203588511724L160,160A0,0 0,0,1 160,160Z" style="opacity: 1; stroke-width: 0.5px; fill: rgb(240, 249, 33); fill-opacity: 1; stroke: rgb(17, 17, 17); stroke-opacity: 1;"/></g><g class="point" style="vector-effect: non-scaling-stroke; stroke-miterlimit: 2;"><path d="M160,160L161.75420400712926,160.79943682360928A1.927778756385415,1.927778756385415 0,0,0 161.85766631670162,160.5151764642946L160,160A0,0 0,0,1 160,160Z" style="opacity: 1; stroke-width: 0.5px; fill: rgb(240, 249, 33); fill-opacity: 1; stroke: rgb(17, 17, 17); stroke-opacity: 1;"/></g><g class="point" style="vector-effect: non-scaling-stroke; stroke-miterlimit: 2;"><path d="M160,160L161.3974965843112,160.96047279210788A1.6957313134871705,1.6957313134871705 0,0,0 161.53054212976477,160.73003114766152L160,160A0,0 0,0,1 160,160Z" style="opacity: 1; stroke-width: 0.5px; fill: rgb(240, 249, 33); fill-opacity: 1; stroke: rgb(17, 17, 17); stroke-opacity: 1;"/></g><g class="point" style="vector-effect: non-scaling-stroke; stroke-miterlimit: 2;"><path d="M160,160L161.1521899099953,161.1322538711419A1.6154071986377783,1.6154071986377783 0,0,0 161.31512806887554,160.9380717349257L160,160A0,0 0,0,1 160,160Z" style="opacity: 1; stroke-width: 0.5px; fill: rgb(240, 249, 33); fill-opacity: 1; stroke: rgb(17, 17, 17); stroke-opacity: 1;"/></g><g class="point" style="vector-effect: non-scaling-stroke; stroke-miterlimit: 2;"><path d="M160,160L161.0106297696713,161.41685068193772A1.740355821736833,1.740355821736833 0,0,0 161.21983151863353,161.2413095715419L160,160A0,0 0,0,1 160,160Z" style="opacity: 1; stroke-width: 0.5px; fill: rgb(240, 249, 33); fill-opacity: 1; stroke: rgb(17, 17, 17); stroke-opacity: 1;"/></g><g class="point" style="vector-effect: non-scaling-stroke; stroke-miterlimit: 2;"><path d="M160,160L160.89140645398672,161.86887249529173A2.0705771827843344,2.0705771827843344 0,0,0 161.1727878303633,161.70641688189576L160,160A0,0 0,0,1 160,160Z" style="opacity: 1; stroke-width: 0.5px; fill: rgb(240, 249, 33); fill-opacity: 1; stroke: rgb(17, 17, 17); stroke-opacity: 1;"/></g><g class="point" style="vector-effect: non-scaling-stroke; stroke-miterlimit: 2;"><path d="M160,160L160.64397058036826,162.32208289587703A2.409723445481769,2.409723445481769 0,0,0 160.9992960295116,162.1927550089116L160,160A0,0 0,0,1 160,160Z" style="opacity: 1; stroke-width: 0.5px; fill: rgb(240, 249, 33); fill-opacity: 1; stroke: rgb(17, 17, 17); stroke-opacity: 1;"/></g><g class="point" style="vector-effect: non-scaling-stroke; stroke-miterlimit: 2;"><path d="M160,160L160.26774455533453,162.78063352319398A2.793494216428865,2.793494216428865 0,0,0 160.6994350932355,162.70451483404548L160,160A0,0 0,0,1 160,160Z" style="opacity: 1; stroke-width: 0.5px; fill: rgb(240, 249, 33); fill-opacity: 1; stroke: rgb(17, 17, 17); stroke-opacity: 1;"/></g><g class="point" style="vector-effect: non-scaling-stroke; stroke-miterlimit: 2;"><path d="M160,160L159.78292568899676,162.75819063857114A2.7667195114790677,2.7667195114790677 0,0,0 160.21707431100324,162.75819063857114L160,160A0,0 0,0,1 160,160Z" style="opacity: 1; stroke-width: 0.5px; fill: rgb(240, 249, 33); fill-opacity: 1; stroke: rgb(17, 17, 17); stroke-opacity: 1;"/></g><g class="point" style="vector-effect: non-scaling-stroke; stroke-miterlimit: 2;"><path d="M160,160L159.40782651850668,162.28976495534204A2.3650989372321063,2.3650989372321063 0,0,0 159.77331531257622,162.3542104908831L160,160A0,0 0,0,1 160,160Z" style="opacity: 1; stroke-width: 0.5px; fill: rgb(240, 249, 33); fill-opacity: 1; stroke: rgb(17, 17, 17); stroke-opacity: 1;"/></g><g class="point" style="vector-effect: non-scaling-stroke; stroke-miterlimit: 2;"><path d="M160,160L159.0081061632996,162.17651237921595A2.3918736421819036,2.3918736421819036 0,0,0 159.36079957207892,162.3048822818335L160,160A0,0 0,0,1 160,160Z" style="opacity: 1; stroke-width: 0.5px; fill: rgb(240, 249, 33); fill-opacity: 1; stroke: rgb(17, 17, 17); stroke-opacity: 1;"/></g><g class="point" style="vector-effect: non-scaling-stroke; stroke-miterlimit: 2;"><path d="M160,160L158.75644049021824,161.80939031442395A2.1955258058833893,2.1955258058833893 0,0,0 159.05480177723823,161.98164928380072L160,160A0,0 0,0,1 160,160Z" style="opacity: 1; stroke-width: 0.5px; fill: rgb(240, 249, 33); fill-opacity: 1; stroke: rgb(17, 17, 17); stroke-opacity: 1;"/></g><g class="point" style="vector-effect: non-scaling-stroke; stroke-miterlimit: 2;"><path d="M160,160L158.1483583101768,161.88424427269948A2.6417708883800133,2.6417708883800133 0,0,0 158.4659158368066,162.15070667617212L160,160A0,0 0,0,1 160,160Z" style="opacity: 1; stroke-width: 0.5px; fill: rgb(240, 249, 33); fill-opacity: 1; stroke: rgb(17, 17, 17); stroke-opacity: 1;"/></g><g class="point" style="vector-effect: non-scaling-stroke; stroke-miterlimit: 2;"><path d="M160,160L157.66764580050253,161.66365208238201A2.864893429628325,2.864893429628325 0,0,0 157.95661347453873,162.00803034605826L160,160A0,0 0,0,1 160,160Z" style="opacity: 1; stroke-width: 0.5px; fill: rgb(240, 249, 33); fill-opacity: 1; stroke: rgb(17, 17, 17); stroke-opacity: 1;"/></g><g class="point" style="vector-effect: non-scaling-stroke; stroke-miterlimit: 2;"><path d="M160,160L157.2369686815299,161.31789833498897A3.0612412659268395,3.0612412659268395 0,0,0 157.47715090305928,161.73390614575263L160,160A0,0 0,0,1 160,160Z" style="opacity: 1; stroke-width: 0.5px; fill: rgb(240, 249, 33); fill-opacity: 1; stroke: rgb(17, 17, 17); stroke-opacity: 1;"/></g><g class="point" style="vector-effect: non-scaling-stroke; stroke-miterlimit: 2;"><path d="M160,160L157.11029684068635,160.80138561112494A2.998766954377312,2.998766954377312 0,0,0 157.27123821113224,161.2435683922811L160,160A0,0 0,0,1 160,160Z" style="opacity: 1; stroke-width: 0.5px; fill: rgb(240, 249, 33); fill-opacity: 1; stroke: rgb(17, 17, 17); stroke-opacity: 1;"/></g><g class="point" style="vector-effect: non-scaling-stroke; stroke-miterlimit: 2;"><path d="M160,160L156.77517581814882,160.31051525107486A3.239739298925489,3.239739298925489 0,0,0 156.86345404230505,160.8111659388003L160,160A0,0 0,0,1 160,160Z" style="opacity: 1; stroke-width: 0.5px; fill: rgb(240, 249, 33); fill-opacity: 1; stroke: rgb(17, 17, 17); stroke-opacity: 1;"/></g><g class="point" style="vector-effect: non-scaling-stroke; stroke-miterlimit: 2;"><path d="M160,160L156.69906862287132,159.74021106650903A3.311138512124949,3.311138512124949 0,0,0 156.69906862287132,160.25978893349097L160,160A0,0 0,0,1 160,160Z" style="opacity: 1; stroke-width: 0.5px; fill: rgb(240, 249, 33); fill-opacity: 1; stroke: rgb(17, 17, 17); stroke-opacity: 1;"/></g><g class="point" style="vector-effect: non-scaling-stroke; stroke-miterlimit: 2;"><path d="M160,160L156.932579022089,159.20671099649007A3.168340085726029,3.168340085726029 0,0,0 156.84624632353396,159.6963280602436L160,160A0,0 0,0,1 160,160Z" style="opacity: 1; stroke-width: 0.5px; fill: rgb(240, 249, 33); fill-opacity: 1; stroke: rgb(17, 17, 17); stroke-opacity: 1;"/></g><g class="point" style="vector-effect: non-scaling-stroke; stroke-miterlimit: 2;"><path d="M160,160L156.99511350630632,158.63059432992856A3.3022136104750164,3.3022136104750164 0,0,0 156.81788640194628,159.11752179727313L160,160A0,0 0,0,1 160,160Z" style="opacity: 1; stroke-width: 0.5px; fill: rgb(240, 249, 33); fill-opacity: 1; stroke: rgb(17, 17, 17); stroke-opacity: 1;"/></g><g class="point" style="vector-effect: non-scaling-stroke; stroke-miterlimit: 2;"><path d="M160,160L157.49186139342046,158.27620409416429A3.0433914626269747,3.0433914626269747 0,0,0 157.25307965131688,158.68978620340746L160,160A0,0 0,0,1 160,160Z" style="opacity: 1; stroke-width: 0.5px; fill: rgb(240, 249, 33); fill-opacity: 1; stroke: rgb(17, 17, 17); stroke-opacity: 1;"/></g><g class="point" style="vector-effect: non-scaling-stroke; stroke-miterlimit: 2;"><path d="M160,160L157.8993222635445,157.9356697376971A2.945217544477717,2.945217544477717 0,0,0 157.6022526921054,158.28970346671008L160,160A0,0 0,0,1 160,160Z" style="opacity: 1; stroke-width: 0.5px; fill: rgb(240, 249, 33); fill-opacity: 1; stroke: rgb(17, 17, 17); stroke-opacity: 1;"/></g><g class="point" style="vector-effect: non-scaling-stroke; stroke-miterlimit: 2;"><path d="M160,160L158.28970346671008,157.6022526921054A2.945217544477717,2.945217544477717 0,0,0 157.9356697376971,157.8993222635445L160,160A0,0 0,0,1 160,160Z" style="opacity: 1; stroke-width: 0.5px; fill: rgb(240, 249, 33); fill-opacity: 1; stroke: rgb(17, 17, 17); stroke-opacity: 1;"/></g><g class="point" style="vector-effect: non-scaling-stroke; stroke-miterlimit: 2;"><path d="M160,160L158.6359944346324,157.1403028628079A3.168340085726029,3.168340085726029 0,0,0 158.20543241474581,157.38888796089225L160,160A0,0 0,0,1 160,160Z" style="opacity: 1; stroke-width: 0.5px; fill: rgb(240, 249, 33); fill-opacity: 1; stroke: rgb(17, 17, 17); stroke-opacity: 1;"/></g><g class="point" style="vector-effect: non-scaling-stroke; stroke-miterlimit: 2;"><path d="M160,160L159.22008007488733,157.18769960388224A2.91844283952792,2.91844283952792 0,0,0 158.78974147536928,157.34433004476261L160,160A0,0 0,0,1 160,160Z" style="opacity: 1; stroke-width: 0.5px; fill: rgb(240, 249, 33); fill-opacity: 1; stroke: rgb(17, 17, 17); stroke-opacity: 1;"/></g><g class="point" style="vector-effect: non-scaling-stroke; stroke-miterlimit: 2;"><path d="M160,160L159.7237013055174,157.13052834507457A2.88274323292819,2.88274323292819 0,0,0 159.2782187376515,157.20907894122462L160,160A0,0 0,0,1 160,160Z" style="opacity: 1; stroke-width: 0.5px; fill: rgb(240, 249, 33); fill-opacity: 1; stroke: rgb(17, 17, 17); stroke-opacity: 1;"/></g></g></g><g class="trace bars" style="opacity: 1;"><g class="points"><g class="point" style="vector-effect: non-scaling-stroke; stroke-miterlimit: 2;"><path d="M160.4775634842071,153.9319805951435L162.46274307031732,128.70788233595263A31.38887910281252,31.38887910281252 0,0,0 157.53725692968268,128.70788233595263L159.5224365157929,153.9319805951435A6.086782925253949,6.086782925253949 0,0,1 160.4775634842071,153.9319805951435Z" style="opacity: 1; stroke-width: 0.5px; fill: rgb(253, 202, 38); fill-opacity: 1; stroke: rgb(17, 17, 17); stroke-opacity: 1;"/></g><g class="point" style="vector-effect: non-scaling-stroke; stroke-miterlimit: 2;"><path d="M160.67485430721126,157.39053201315738L165.22900357243165,139.7809434132062A20.884269860841997,20.884269860841997 0,0,0 162.00166856064783,139.21187717484364L160.25833500227165,157.3170884217106A2.695320298279608,2.695320298279608 0,0,1 160.67485430721126,157.39053201315738Z" style="opacity: 1; stroke-width: 0.5px; fill: rgb(253, 202, 38); fill-opacity: 1; stroke: rgb(17, 17, 17); stroke-opacity: 1;"/></g><g class="point" style="vector-effect: non-scaling-stroke; stroke-miterlimit: 2;"><path d="M161.09552453605716,157.59609080504507L167.7278892948897,143.04269459775034A18.635194645059013,18.635194645059013 0,0,0 164.9800391548478,142.04255893855088L160.70598256218148,157.45430912155703A2.6417708883800133,2.6417708883800133 0,0,1 161.09552453605716,157.59609080504507Z" style="opacity: 1; stroke-width: 0.5px; fill: rgb(253, 202, 38); fill-opacity: 1; stroke: rgb(17, 17, 17); stroke-opacity: 1;"/></g><g class="point" style="vector-effect: non-scaling-stroke; stroke-miterlimit: 2;"><path d="M161.40532334845258,157.9552418397973L169.96364143812957,145.50281174906658A17.590981152016912,17.590981152016912 0,0,0 167.57311258968886,144.12263927491378L161.06815083710478,157.76057519960733A2.4811226586812283,2.4811226586812283 0,0,1 161.40532334845258,157.9552418397973Z" style="opacity: 1; stroke-width: 0.5px; fill: rgb(253, 202, 38); fill-opacity: 1; stroke: rgb(17, 17, 17); stroke-opacity: 1;"/></g><g class="point" style="vector-effect: non-scaling-stroke; stroke-miterlimit: 2;"><path d="M161.46379782236022,158.51042851414974L174.90696671232664,144.83056046674704A21.26804063178909,21.26804063178909 0,0,0 172.35041405706028,142.68535807662778L161.2127557236056,158.29977918167472A2.0884269860841997,2.0884269860841997 0,0,1 161.46379782236022,158.51042851414974Z" style="opacity: 1; stroke-width: 0.5px; fill: rgb(253, 202, 38); fill-opacity: 1; stroke: rgb(17, 17, 17); stroke-opacity: 1;"/></g><g class="point" style="vector-effect: non-scaling-stroke; stroke-miterlimit: 2;"><path d="M161.89640014351664,158.6473109236707L187.00735376801282,140.73584177503437A33.17385943279901,33.17385943279901 0,0,0 183.66127014062158,136.74813459097018L161.661445118833,158.3673024289059A2.3293993306323766,2.3293993306323766 0,0,1 161.89640014351664,158.6473109236707Z" style="opacity: 1; stroke-width: 0.5px; fill: rgb(253, 202, 38); fill-opacity: 1; stroke: rgb(17, 17, 17); stroke-opacity: 1;"/></g><g class="point" style="vector-effect: non-scaling-stroke; stroke-miterlimit: 2;"><path d="M162.02998219316171,159.03174816204893L202.4282389340584,139.76276813298267A47.007456990194356,47.007456990194356 0,0,0 198.7400763661422,133.37468317877807L161.85352178550747,158.72610977046745A2.2490752157829843,2.2490752157829843 0,0,1 162.02998219316171,159.03174816204893Z" style="opacity: 1; stroke-width: 0.5px; fill: rgb(253, 202, 38); fill-opacity: 1; stroke: rgb(17, 17, 17); stroke-opacity: 1;"/></g><g class="point" style="vector-effect: non-scaling-stroke; stroke-miterlimit: 2;"><path d="M162.175877676507,159.3965757154327L210.17419116498763,146.08546531159863A52.067876225706065,52.067876225706065 0,0,0 207.37975082218605,138.40780356973826L162.05469265649864,159.06362260938357A2.2580001174329167,2.2580001174329167 0,0,1 162.175877676507,159.3965757154327Z" style="opacity: 1; stroke-width: 0.5px; fill: rgb(253, 202, 38); fill-opacity: 1; stroke: rgb(17, 17, 17); stroke-opacity: 1;"/></g><g class="point" style="vector-effect: non-scaling-stroke; stroke-miterlimit: 2;"><path d="M162.40751336992196,159.76818282908738L221.37826521325016,154.08994526260003A61.66214549938348,61.66214549938348 0,0,0 219.69806066587967,144.5610317598588L162.34160869017995,159.39441881703888A2.4186483471317013,2.4186483471317013 0,0,1 162.40751336992196,159.76818282908738Z" style="opacity: 1; stroke-width: 0.5px; fill: rgb(253, 202, 38); fill-opacity: 1; stroke: rgb(17, 17, 17); stroke-opacity: 1;"/></g><g class="point" style="vector-effect: non-scaling-stroke; stroke-miterlimit: 2;"><path d="M161.8862465012164,160.1484508191377L214.31856080153798,164.27496344733785A54.48652457283777,54.48652457283777 0,0,0 214.31856080153798,155.72503655266215L161.8862465012164,159.8515491808623A1.892079149785685,1.892079149785685 0,0,1 161.8862465012164,160.1484508191377Z" style="opacity: 1; stroke-width: 0.5px; fill: rgb(253, 202, 38); fill-opacity: 1; stroke: rgb(17, 17, 17); stroke-opacity: 1;"/></g><g class="point" style="vector-effect: non-scaling-stroke; stroke-miterlimit: 2;"><path d="M162.05646814857133,160.53183882488835L196.87817671471623,169.53734497740953A38.09148024191181,38.09148024191181 0,0,0 197.91611462297752,163.6509065883953L162.11434753520822,160.203588511724A2.1241265926839294,2.1241265926839294 0,0,1 162.05646814857133,160.53183882488835Z" style="opacity: 1; stroke-width: 0.5px; fill: rgb(253, 202, 38); fill-opacity: 1; stroke: rgb(17, 17, 17); stroke-opacity: 1;"/></g><g class="point" style="vector-effect: non-scaling-stroke; stroke-miterlimit: 2;"><path d="M161.75420400712926,160.79943682360928L189.47225158274136,173.43127885591701A32.388468087604956,32.388468087604956 0,0,0 191.21051418199178,168.65544161539398L161.85766631670162,160.5151764642946A1.927778756385415,1.927778756385415 0,0,1 161.75420400712926,160.79943682360928Z" style="opacity: 1; stroke-width: 0.5px; fill: rgb(253, 202, 38); fill-opacity: 1; stroke: rgb(17, 17, 17); stroke-opacity: 1;"/></g><g class="point" style="vector-effect: non-scaling-stroke; stroke-miterlimit: 2;"><path d="M161.3974965843112,160.96047279210788L180.53584454419385,174.11389492402725A24.918325406611476,24.918325406611476 0,0,0 182.49091382264876,170.72761560142632L161.53054212976477,160.73003114766152A1.6957313134871705,1.6957313134871705 0,0,1 161.3974965843112,160.96047279210788Z" style="opacity: 1; stroke-width: 0.5px; fill: rgb(253, 202, 38); fill-opacity: 1; stroke: rgb(17, 17, 17); stroke-opacity: 1;"/></g><g class="point" style="vector-effect: non-scaling-stroke; stroke-miterlimit: 2;"><path d="M161.1521899099953,161.1322538711419L174.78749812662468,174.53163393736247A20.732546532793144,20.732546532793144 0,0,0 176.8786878673914,172.03945105100757L161.31512806887554,160.9380717349257A1.6154071986377783,1.6154071986377783 0,0,1 161.1521899099953,161.1322538711419Z" style="opacity: 1; stroke-width: 0.5px; fill: rgb(253, 202, 38); fill-opacity: 1; stroke: rgb(17, 17, 17); stroke-opacity: 1;"/></g><g class="point" style="vector-effect: non-scaling-stroke; stroke-miterlimit: 2;"><path d="M161.0106297696713,161.41685068193772L170.70749284174846,175.0113513276068A18.4388468087605,18.4388468087605 0,0,0 172.92395855126597,173.15151576823357L161.21983151863353,161.2413095715419A1.740355821736833,1.740355821736833 0,0,1 161.0106297696713,161.41685068193772Z" style="opacity: 1; stroke-width: 0.5px; fill: rgb(253, 202, 38); fill-opacity: 1; stroke: rgb(17, 17, 17); stroke-opacity: 1;"/></g><g class="point" style="vector-effect: non-scaling-stroke; stroke-miterlimit: 2;"><path d="M160.89140645398672,161.86887249529173L167.400210475769,175.51486390487878A17.18936057776995,17.18936057776995 0,0,0 169.73616103999873,174.16620221780707L161.1727878303633,161.70641688189576A2.0705771827843344,2.0705771827843344 0,0,1 160.89140645398672,161.86887249529173Z" style="opacity: 1; stroke-width: 0.5px; fill: rgb(253, 202, 38); fill-opacity: 1; stroke: rgb(17, 17, 17); stroke-opacity: 1;"/></g><g class="point" style="vector-effect: non-scaling-stroke; stroke-miterlimit: 2;"><path d="M160.64397058036826,162.32208289587703L165.7528038512897,180.74394053650155A21.526862779637135,21.526862779637135 0,0,0 168.92704453030362,179.58861141294358L160.9992960295116,162.1927550089116A2.409723445481769,2.409723445481769 0,0,1 160.64397058036826,162.32208289587703Z" style="opacity: 1; stroke-width: 0.5px; fill: rgb(253, 202, 38); fill-opacity: 1; stroke: rgb(17, 17, 17); stroke-opacity: 1;"/></g><g class="point" style="vector-effect: non-scaling-stroke; stroke-miterlimit: 2;"><path d="M160.26774455533453,162.78063352319398L162.84938375022136,189.59198167974182A29.72884739592508,29.72884739592508 0,0,0 167.4435089315256,188.78191345752572L160.6994350932355,162.70451483404548A2.793494216428865,2.793494216428865 0,0,1 160.26774455533453,162.78063352319398Z" style="opacity: 1; stroke-width: 0.5px; fill: rgb(253, 202, 38); fill-opacity: 1; stroke: rgb(17, 17, 17); stroke-opacity: 1;"/></g><g class="point" style="vector-effect: non-scaling-stroke; stroke-miterlimit: 2;"><path d="M159.78292568899676,162.75819063857114L157.74242716556637,188.6851826411398A28.773882919382306,28.773882919382306 0,0,0 162.25757283443363,188.6851826411398L160.21707431100324,162.75819063857114A2.7667195114790677,2.7667195114790677 0,0,1 159.78292568899676,162.75819063857114Z" style="opacity: 1; stroke-width: 0.5px; fill: rgb(253, 202, 38); fill-opacity: 1; stroke: rgb(17, 17, 17); stroke-opacity: 1;"/></g><g class="point" style="vector-effect: non-scaling-stroke; stroke-miterlimit: 2;"><path d="M159.40782651850668,162.28976495534204L152.98777213235445,187.11427332023888A28.006341377488113,28.006341377488113 0,0,0 157.31571113533636,187.8774057373251L159.77331531257622,162.3542104908831A2.3650989372321063,2.3650989372321063 0,0,1 159.40782651850668,162.28976495534204Z" style="opacity: 1; stroke-width: 0.5px; fill: rgb(253, 202, 38); fill-opacity: 1; stroke: rgb(17, 17, 17); stroke-opacity: 1;"/></g><g class="point" style="vector-effect: non-scaling-stroke; stroke-miterlimit: 2;"><path d="M159.0081061632996,162.17651237921595L144.61454224192696,193.7603058223907A37.100816158769305,37.100816158769305 0,0,0 150.08523813855254,195.75147628948466L159.36079957207892,162.3048822818335A2.3918736421819036,2.3918736421819036 0,0,1 159.0081061632996,162.17651237921595Z" style="opacity: 1; stroke-width: 0.5px; fill: rgb(253, 202, 38); fill-opacity: 1; stroke: rgb(17, 17, 17); stroke-opacity: 1;"/></g><g class="point" style="vector-effect: non-scaling-stroke; stroke-miterlimit: 2;"><path d="M158.75644049021824,161.80939031442395L134.04701413325358,197.76182875712436A45.82044507075334,45.82044507075334 0,0,0 140.27378993634574,201.35685944322307L159.05480177723823,161.98164928380072A2.1955258058833893,2.1955258058833893 0,0,1 158.75644049021824,161.80939031442395Z" style="opacity: 1; stroke-width: 0.5px; fill: rgb(253, 202, 38); fill-opacity: 1; stroke: rgb(17, 17, 17); stroke-opacity: 1;"/></g><g class="point" style="vector-effect: non-scaling-stroke; stroke-miterlimit: 2;"><path d="M158.1483583101768,161.88424427269948L129.64808959789812,190.88632841600645A43.30362280547238,43.30362280547238 0,0,0 134.85345824387053,195.25415132698367L158.4659158368066,162.15070667617212A2.6417708883800133,2.6417708883800133 0,0,1 158.1483583101768,161.88424427269948Z" style="opacity: 1; stroke-width: 0.5px; fill: rgb(253, 202, 38); fill-opacity: 1; stroke: rgb(17, 17, 17); stroke-opacity: 1;"/></g><g class="point" style="vector-effect: non-scaling-stroke; stroke-miterlimit: 2;"><path d="M157.66764580050253,161.66365208238201L118.6352259883516,189.50520655763503A50.80946509306559,50.80946509306559 0,0,0 123.76012620108726,195.61282479784956L157.95661347453873,162.00803034605826A2.864893429628325,2.864893429628325 0,0,1 157.66764580050253,161.66365208238201Z" style="opacity: 1; stroke-width: 0.5px; fill: rgb(253, 202, 38); fill-opacity: 1; stroke: rgb(17, 17, 17); stroke-opacity: 1;"/></g><g class="point" style="vector-effect: non-scaling-stroke; stroke-miterlimit: 2;"><path d="M157.2369686815299,161.31789833498897L100.08330336215559,188.5787982963499A66.38341847219776,66.38341847219776 0,0,0 105.29168634680735,197.59998225104397L157.47715090305928,161.73390614575263A3.0612412659268395,3.0612412659268395 0,0,1 157.2369686815299,161.31789833498897Z" style="opacity: 1; stroke-width: 0.5px; fill: rgb(253, 202, 38); fill-opacity: 1; stroke: rgb(17, 17, 17); stroke-opacity: 1;"/></g><g class="point" style="vector-effect: non-scaling-stroke; stroke-miterlimit: 2;"><path d="M157.11029684068635,160.80138561112494L104.94083444664882,175.2692579833983A57.137220362867716,57.137220362867716 0,0,0 108.0073423442518,183.69441918864172L157.27123821113224,161.2435683922811A2.998766954377312,2.998766954377312 0,0,1 157.11029684068635,160.80138561112494Z" style="opacity: 1; stroke-width: 0.5px; fill: rgb(253, 202, 38); fill-opacity: 1; stroke: rgb(17, 17, 17); stroke-opacity: 1;"/></g><g class="point" style="vector-effect: non-scaling-stroke; stroke-miterlimit: 2;"><path d="M156.77517581814882,160.31051525107486L110.14404047231727,164.80058288989554A50.086548059421055,50.086548059421055 0,0,0 111.50882668158681,172.5406701061908L156.86345404230505,160.8111659388003A3.239739298925489,3.239739298925489 0,0,1 156.77517581814882,160.31051525107486Z" style="opacity: 1; stroke-width: 0.5px; fill: rgb(253, 202, 38); fill-opacity: 1; stroke: rgb(17, 17, 17); stroke-opacity: 1;"/></g><g class="point" style="vector-effect: non-scaling-stroke; stroke-miterlimit: 2;"><path d="M156.69906862287132,159.74021106650903L117.39040332865432,156.6465520148565A42.74135400152663,42.74135400152663 0,0,0 117.39040332865432,163.35344798514348L156.69906862287132,160.25978893349097A3.311138512124949,3.311138512124949 0,0,1 156.69906862287132,159.74021106650903Z" style="opacity: 1; stroke-width: 0.5px; fill: rgb(253, 202, 38); fill-opacity: 1; stroke: rgb(17, 17, 17); stroke-opacity: 1;"/></g><g class="point" style="vector-effect: non-scaling-stroke; stroke-miterlimit: 2;"><path d="M156.932579022089,159.20671099649007L124.82402591246256,150.90287455411567A36.333274616875116,36.333274616875116 0,0,0 123.8339965721318,156.51760995282166L156.84624632353396,159.6963280602436A3.168340085726029,3.168340085726029 0,0,1 156.932579022089,159.20671099649007Z" style="opacity: 1; stroke-width: 0.5px; fill: rgb(253, 202, 38); fill-opacity: 1; stroke: rgb(17, 17, 17); stroke-opacity: 1;"/></g><g class="point" style="vector-effect: non-scaling-stroke; stroke-miterlimit: 2;"><path d="M156.99511350630632,158.63059432992856L126.18284497367455,144.58863456708775A37.163290470318834,37.163290470318834 0,0,0 124.18832156136297,150.0685426049874L156.81788640194628,159.11752179727313A3.3022136104750164,3.3022136104750164 0,0,1 156.99511350630632,158.63059432992856Z" style="opacity: 1; stroke-width: 0.5px; fill: rgb(253, 202, 38); fill-opacity: 1; stroke: rgb(17, 17, 17); stroke-opacity: 1;"/></g><g class="point" style="vector-effect: non-scaling-stroke; stroke-miterlimit: 2;"><path d="M157.49186139342046,158.27620409416429L134.05805024807603,142.1705919065028A31.478128119311844,31.478128119311844 0,0,0 131.58830478062958,146.44831653788302L157.25307965131688,158.68978620340746A3.0433914626269747,3.0433914626269747 0,0,1 157.49186139342046,158.27620409416429Z" style="opacity: 1; stroke-width: 0.5px; fill: rgb(253, 202, 38); fill-opacity: 1; stroke: rgb(17, 17, 17); stroke-opacity: 1;"/></g><g class="point" style="vector-effect: non-scaling-stroke; stroke-miterlimit: 2;"><path d="M157.8993222635445,157.9356697376971L140.20270375643446,140.5452511643576A27.756444131290003,27.756444131290003 0,0,0 137.40304809832662,143.88175085293432L157.6022526921054,158.28970346671008A2.945217544477717,2.945217544477717 0,0,1 157.8993222635445,157.9356697376971Z" style="opacity: 1; stroke-width: 0.5px; fill: rgb(253, 202, 38); fill-opacity: 1; stroke: rgb(17, 17, 17); stroke-opacity: 1;"/></g><g class="point" style="vector-effect: non-scaling-stroke; stroke-miterlimit: 2;"><path d="M158.28970346671008,157.6022526921054L146.6856006241763,141.33390050308716A22.928072338676532,22.928072338676532 0,0,0 143.92950168528446,143.6465421061994L157.9356697376971,157.8993222635445A2.945217544477717,2.945217544477717 0,0,1 158.28970346671008,157.6022526921054Z" style="opacity: 1; stroke-width: 0.5px; fill: rgb(253, 202, 38); fill-opacity: 1; stroke: rgb(17, 17, 17); stroke-opacity: 1;"/></g><g class="point" style="vector-effect: non-scaling-stroke; stroke-miterlimit: 2;"><path d="M158.6359944346324,157.1403028628079L150.53649096478762,140.15934070731234A21.98203276378369,21.98203276378369 0,0,0 147.5492395423069,141.88403112021868L158.20543241474581,157.38888796089225A3.168340085726029,3.168340085726029 0,0,1 158.6359944346324,157.1403028628079Z" style="opacity: 1; stroke-width: 0.5px; fill: rgb(253, 202, 38); fill-opacity: 1; stroke: rgb(17, 17, 17); stroke-opacity: 1;"/></g><g class="point" style="vector-effect: non-scaling-stroke; stroke-miterlimit: 2;"><path d="M159.22008007488733,157.18769960388224L154.2805872158405,139.37646376180317A21.40191415653808,21.40191415653808 0,0,0 151.12477081937476,140.5250869949259L158.78974147536928,157.34433004476261A2.91844283952792,2.91844283952792 0,0,1 159.22008007488733,157.18769960388224Z" style="opacity: 1; stroke-width: 0.5px; fill: rgb(253, 202, 38); fill-opacity: 1; stroke: rgb(17, 17, 17); stroke-opacity: 1;"/></g><g class="point" style="vector-effect: non-scaling-stroke; stroke-miterlimit: 2;"><path d="M159.7237013055174,157.13052834507457L157.56378117063034,134.6989000828866A25.418119899007692,25.418119899007692 0,0,0 153.6358110366302,135.39150719692788L159.2782187376515,157.20907894122462A2.88274323292819,2.88274323292819 0,0,1 159.7237013055174,157.13052834507457Z" style="opacity: 1; stroke-width: 0.5px; fill: rgb(253, 202, 38); fill-opacity: 1; stroke: rgb(17, 17, 17); stroke-opacity: 1;"/></g></g></g><g class="trace bars" style="opacity: 1;"><g class="points"><g class="point" style="vector-effect: non-scaling-stroke; stroke-miterlimit: 2;"><path d="M162.46274307031732,128.70788233595263L162.75124183203775,125.04215800340003A35.0659385825847,35.0659385825847 0,0,0 157.24875816796225,125.04215800340003L157.53725692968268,128.70788233595263A31.38887910281252,31.38887910281252 0,0,1 162.46274307031732,128.70788233595263Z" style="opacity: 1; stroke-width: 0.5px; fill: rgb(251, 159, 58); fill-opacity: 1; stroke: rgb(17, 17, 17); stroke-opacity: 1;"/></g><g class="point" style="vector-effect: non-scaling-stroke; stroke-miterlimit: 2;"><path d="M165.22900357243165,139.7809434132062L165.82788090465888,137.4652565904452A23.2761435030239,23.2761435030239 0,0,0 162.23091948981605,136.8310152444411L162.00166856064783,139.21187717484364A20.884269860841997,20.884269860841997 0,0,1 165.22900357243165,139.7809434132062Z" style="opacity: 1; stroke-width: 0.5px; fill: rgb(251, 159, 58); fill-opacity: 1; stroke: rgb(17, 17, 17); stroke-opacity: 1;"/></g><g class="point" style="vector-effect: non-scaling-stroke; stroke-miterlimit: 2;"><path d="M167.7278892948897,143.04269459775034L168.54213050412136,141.2560053312298A20.598673008044155,20.598673008044155 0,0,0 165.50475592403674,140.1504913937622L164.9800391548478,142.04255893855088A18.635194645059013,18.635194645059013 0,0,1 167.7278892948897,143.04269459775034Z" style="opacity: 1; stroke-width: 0.5px; fill: rgb(251, 159, 58); fill-opacity: 1; stroke: rgb(17, 17, 17); stroke-opacity: 1;"/></g><g class="point" style="vector-effect: non-scaling-stroke; stroke-miterlimit: 2;"><path d="M169.96364143812957,145.50281174906658L171.36390966662367,143.4654088340445A20.063178909048208,20.063178909048208 0,0,0 168.6374211575954,141.89126995941461L167.57311258968886,144.12263927491378A17.590981152016912,17.590981152016912 0,0,1 169.96364143812957,145.50281174906658Z" style="opacity: 1; stroke-width: 0.5px; fill: rgb(251, 159, 58); fill-opacity: 1; stroke: rgb(17, 17, 17); stroke-opacity: 1;"/></g><g class="point" style="vector-effect: non-scaling-stroke; stroke-miterlimit: 2;"><path d="M174.90696671232664,144.83056046674704L177.78451798705186,141.90234301593028A25.37349539075803,25.37349539075803 0,0,0 174.7344637701311,139.34304364744136L172.35041405706028,142.68535807662778A21.26804063178909,21.26804063178909 0,0,1 174.90696671232664,144.83056046674704Z" style="opacity: 1; stroke-width: 0.5px; fill: rgb(251, 159, 58); fill-opacity: 1; stroke: rgb(17, 17, 17); stroke-opacity: 1;"/></g><g class="point" style="vector-effect: non-scaling-stroke; stroke-miterlimit: 2;"><path d="M187.00735376801282,140.73584177503437L196.48935448559604,133.97239639338784A44.8208560859609,44.8208560859609 0,0,0 191.96849573478656,128.58464673549966L183.66127014062158,136.74813459097018A33.17385943279901,33.17385943279901 0,0,1 187.00735376801282,140.73584177503437Z" style="opacity: 1; stroke-width: 0.5px; fill: rgb(251, 159, 58); fill-opacity: 1; stroke: rgb(17, 17, 17); stroke-opacity: 1;"/></g><g class="point" style="vector-effect: non-scaling-stroke; stroke-miterlimit: 2;"><path d="M202.4282389340584,139.76276813298267L224.3552688141623,129.30411137543166A71.30103928131055,71.30103928131055 0,0,0 218.7610537476951,119.6146466518432L198.7400763661422,133.37468317877807A47.007456990194356,47.007456990194356 0,0,1 202.4282389340584,139.76276813298267Z" style="opacity: 1; stroke-width: 0.5px; fill: rgb(251, 159, 58); fill-opacity: 1; stroke: rgb(17, 17, 17); stroke-opacity: 1;"/></g><g class="point" style="vector-effect: non-scaling-stroke; stroke-miterlimit: 2;"><path d="M210.17419116498763,146.08546531159863L231.7179602545135,140.1108493715154A74.42475485878693,74.42475485878693 0,0,0 227.72364451597693,129.13655707371396L207.37975082218605,138.40780356973826A52.067876225706065,52.067876225706065 0,0,1 210.17419116498763,146.08546531159863Z" style="opacity: 1; stroke-width: 0.5px; fill: rgb(251, 159, 58); fill-opacity: 1; stroke: rgb(17, 17, 17); stroke-opacity: 1;"/></g><g class="point" style="vector-effect: non-scaling-stroke; stroke-miterlimit: 2;"><path d="M221.37826521325016,154.08994526260003L251.60988144145836,151.1789717105126A92.0335858141037,92.0335858141037 0,0,0 249.1020989414606,136.95663041071992L219.69806066587967,144.5610317598588A61.66214549938348,61.66214549938348 0,0,1 221.37826521325016,154.08994526260003Z" style="opacity: 1; stroke-width: 0.5px; fill: rgb(251, 159, 58); fill-opacity: 1; stroke: rgb(17, 17, 17); stroke-opacity: 1;"/></g><g class="point" style="vector-effect: non-scaling-stroke; stroke-miterlimit: 2;"><path d="M214.31856080153798,164.27496344733785L236.01039556552644,165.98214786742133A76.24543479537314,76.24543479537314 0,0,0 236.01039556552644,154.01785213257867L214.31856080153798,155.72503655266215A54.48652457283777,54.48652457283777 0,0,1 214.31856080153798,164.27496344733785Z" style="opacity: 1; stroke-width: 0.5px; fill: rgb(251, 159, 58); fill-opacity: 1; stroke: rgb(17, 17, 17); stroke-opacity: 1;"/></g><g class="point" style="vector-effect: non-scaling-stroke; stroke-miterlimit: 2;"><path d="M196.87817671471623,169.53734497740953L206.03723653608438,171.90603890338286A47.55187599084024,47.55187599084024 0,0,0 207.3329565865099,164.55764533809045L197.91611462297752,163.6509065883953A38.09148024191181,38.09148024191181 0,0,1 196.87817671471623,169.53734497740953Z" style="opacity: 1; stroke-width: 0.5px; fill: rgb(251, 159, 58); fill-opacity: 1; stroke: rgb(17, 17, 17); stroke-opacity: 1;"/></g><g class="point" style="vector-effect: non-scaling-stroke; stroke-miterlimit: 2;"><path d="M189.47225158274136,173.43127885591701L193.97146000843406,175.4816862646186A37.33286360166755,37.33286360166755 0,0,0 195.9750842720506,169.9767738432607L191.21051418199178,168.65544161539398A32.388468087604956,32.388468087604956 0,0,1 189.47225158274136,173.43127885591701Z" style="opacity: 1; stroke-width: 0.5px; fill: rgb(251, 159, 58); fill-opacity: 1; stroke: rgb(17, 17, 17); stroke-opacity: 1;"/></g><g class="point" style="vector-effect: non-scaling-stroke; stroke-miterlimit: 2;"><path d="M180.53584454419385,174.11389492402725L184.14726992786117,176.59595882363234A29.30045211672832,29.30045211672832 0,0,0 186.4461569053567,172.61416977775164L182.49091382264876,170.72761560142632A24.918325406611476,24.918325406611476 0,0,1 180.53584454419385,174.11389492402725Z" style="opacity: 1; stroke-width: 0.5px; fill: rgb(251, 159, 58); fill-opacity: 1; stroke: rgb(17, 17, 17); stroke-opacity: 1;"/></g><g class="point" style="vector-effect: non-scaling-stroke; stroke-miterlimit: 2;"><path d="M174.78749812662468,174.53163393736247L177.60113315545297,177.29658537959847A24.677353062063297,24.677353062063297 0,0,0 180.09021607978354,174.33021186226256L176.8786878673914,172.03945105100757A20.732546532793144,20.732546532793144 0,0,1 174.78749812662468,174.53163393736247Z" style="opacity: 1; stroke-width: 0.5px; fill: rgb(251, 159, 58); fill-opacity: 1; stroke: rgb(17, 17, 17); stroke-opacity: 1;"/></g><g class="point" style="vector-effect: non-scaling-stroke; stroke-miterlimit: 2;"><path d="M170.70749284174846,175.0113513276068L173.2003796069377,178.50624967638652A22.731724502378018,22.731724502378018 0,0,0 175.9328762972287,176.21341271137024L172.92395855126597,173.15151576823357A18.4388468087605,18.4388468087605 0,0,1 170.70749284174846,175.0113513276068Z" style="opacity: 1; stroke-width: 0.5px; fill: rgb(251, 159, 58); fill-opacity: 1; stroke: rgb(17, 17, 17); stroke-opacity: 1;"/></g><g class="point" style="vector-effect: non-scaling-stroke; stroke-miterlimit: 2;"><path d="M167.400210475769,175.51486390487878L168.35693550612544,177.52067964335998A19.411661088603136,19.411661088603136 0,0,0 170.9948859096559,175.99765826777278L169.73616103999873,174.16620221780707A17.18936057776995,17.18936057776995 0,0,1 167.400210475769,175.51486390487878Z" style="opacity: 1; stroke-width: 0.5px; fill: rgb(251, 159, 58); fill-opacity: 1; stroke: rgb(17, 17, 17); stroke-opacity: 1;"/></g><g class="point" style="vector-effect: non-scaling-stroke; stroke-miterlimit: 2;"><path d="M165.7528038512897,180.74394053650155L166.02231746455493,181.71577522996122A22.535376666079504,22.535376666079504 0,0,0 169.34526842413626,180.5063199907473L168.92704453030362,179.58861141294358A21.526862779637135,21.526862779637135 0,0,1 165.7528038512897,180.74394053650155Z" style="opacity: 1; stroke-width: 0.5px; fill: rgb(251, 159, 58); fill-opacity: 1; stroke: rgb(17, 17, 17); stroke-opacity: 1;"/></g><g class="point" style="vector-effect: non-scaling-stroke; stroke-miterlimit: 2;"><path d="M162.84938375022136,189.59198167974182L162.97427418178313,190.88901840302083A31.03188303681522,31.03188303681522 0,0,0 167.76976300057476,190.04344433858208L167.4435089315256,188.78191345752572A29.72884739592508,29.72884739592508 0,0,1 162.84938375022136,189.59198167974182Z" style="opacity: 1; stroke-width: 0.5px; fill: rgb(251, 159, 58); fill-opacity: 1; stroke: rgb(17, 17, 17); stroke-opacity: 1;"/></g><g class="point" style="vector-effect: non-scaling-stroke; stroke-miterlimit: 2;"><path d="M157.74242716556637,188.6851826411398L157.54145836796016,191.23873332910728A31.335329692912925,31.335329692912925 0,0,0 162.45854163203984,191.23873332910728L162.25757283443363,188.6851826411398A28.773882919382306,28.773882919382306 0,0,1 157.74242716556637,188.6851826411398Z" style="opacity: 1; stroke-width: 0.5px; fill: rgb(251, 159, 58); fill-opacity: 1; stroke: rgb(17, 17, 17); stroke-opacity: 1;"/></g><g class="point" style="vector-effect: non-scaling-stroke; stroke-miterlimit: 2;"><path d="M152.98777213235445,187.11427332023888L152.0983946016588,190.55324106448842A31.558452234161237,31.558452234161237 0,0,0 156.97525639724327,191.41316338023628L157.31571113533636,187.8774057373251A28.006341377488113,28.006341377488113 0,0,1 152.98777213235445,187.11427332023888Z" style="opacity: 1; stroke-width: 0.5px; fill: rgb(251, 159, 58); fill-opacity: 1; stroke: rgb(17, 17, 17); stroke-opacity: 1;"/></g><g class="point" style="vector-effect: non-scaling-stroke; stroke-miterlimit: 2;"><path d="M144.61454224192696,193.7603058223907L141.7832034916441,199.97311168097355A43.92836592096765,43.92836592096765 0,0,0 148.26065482750917,202.3307111611363L150.08523813855254,195.75147628948466A37.100816158769305,37.100816158769305 0,0,1 144.61454224192696,193.7603058223907Z" style="opacity: 1; stroke-width: 0.5px; fill: rgb(251, 159, 58); fill-opacity: 1; stroke: rgb(17, 17, 17); stroke-opacity: 1;"/></g><g class="point" style="vector-effect: non-scaling-stroke; stroke-miterlimit: 2;"><path d="M134.04701413325358,197.76182875712436L129.8007133681451,203.94023470881592A53.317362456696614,53.317362456696614 0,0,0 137.04628380984212,208.1234667537621L140.27378993634574,201.35685944322307A45.82044507075334,45.82044507075334 0,0,1 134.04701413325358,197.76182875712436Z" style="opacity: 1; stroke-width: 0.5px; fill: rgb(251, 159, 58); fill-opacity: 1; stroke: rgb(17, 17, 17); stroke-opacity: 1;"/></g><g class="point" style="vector-effect: non-scaling-stroke; stroke-miterlimit: 2;"><path d="M129.64808959789812,190.88632841600645L125.41934033330189,195.189534930685A49.33685632082673,49.33685632082673 0,0,0 131.34994170900995,200.1659003577011L134.85345824387053,195.25415132698367A43.30362280547238,43.30362280547238 0,0,1 129.64808959789812,190.88632841600645Z" style="opacity: 1; stroke-width: 0.5px; fill: rgb(251, 159, 58); fill-opacity: 1; stroke: rgb(17, 17, 17); stroke-opacity: 1;"/></g><g class="point" style="vector-effect: non-scaling-stroke; stroke-miterlimit: 2;"><path d="M118.6352259883516,189.50520655763503L106.35585341155806,198.26399789478648A65.89254888145148,65.89254888145148 0,0,0 113.00210991439087,206.18469795934013L123.76012620108726,195.61282479784956A50.80946509306559,50.80946509306559 0,0,1 118.6352259883516,189.50520655763503Z" style="opacity: 1; stroke-width: 0.5px; fill: rgb(251, 159, 58); fill-opacity: 1; stroke: rgb(17, 17, 17); stroke-opacity: 1;"/></g><g class="point" style="vector-effect: non-scaling-stroke; stroke-miterlimit: 2;"><path d="M100.08330336215559,188.5787982963499L58.468668402340555,208.42796097434714A112.48946039574894,112.48946039574894 0,0,0 67.29448974390425,223.71473195646118L105.29168634680735,197.59998225104397A66.38341847219776,66.38341847219776 0,0,1 100.08330336215559,188.5787982963499Z" style="opacity: 1; stroke-width: 0.5px; fill: rgb(251, 159, 58); fill-opacity: 1; stroke: rgb(17, 17, 17); stroke-opacity: 1;"/></g><g class="point" style="vector-effect: non-scaling-stroke; stroke-miterlimit: 2;"><path d="M104.94083444664882,175.2692579833983L44.61828099597635,191.99818261563126A119.73648053549411,119.73648053549411 0,0,0 51.04444000163731,209.6539093775097L108.0073423442518,183.69441918864172A57.137220362867716,57.137220362867716 0,0,1 104.94083444664882,175.2692579833983Z" style="opacity: 1; stroke-width: 0.5px; fill: rgb(251, 159, 58); fill-opacity: 1; stroke: rgb(17, 17, 17); stroke-opacity: 1;"/></g><g class="point" style="vector-effect: non-scaling-stroke; stroke-miterlimit: 2;"><path d="M110.14404047231727,164.80058288989554L46.562589592127466,170.92278027816755A113.96206916798779,113.96206916798779 0,0,0 49.66789164240589,188.53382334033324L111.50882668158681,172.5406701061908A50.086548059421055,50.086548059421055 0,0,1 110.14404047231727,164.80058288989554Z" style="opacity: 1; stroke-width: 0.5px; fill: rgb(251, 159, 58); fill-opacity: 1; stroke: rgb(17, 17, 17); stroke-opacity: 1;"/></g><g class="point" style="vector-effect: non-scaling-stroke; stroke-miterlimit: 2;"><path d="M117.39040332865432,156.6465520148565L76.80941138503191,153.4527586842573A83.44783042686866,83.44783042686866 0,0,0 76.80941138503191,166.54724131574264L117.39040332865432,163.35344798514348A42.74135400152663,42.74135400152663 0,0,1 117.39040332865432,156.6465520148565Z" style="opacity: 1; stroke-width: 0.5px; fill: rgb(251, 159, 58); fill-opacity: 1; stroke: rgb(17, 17, 17); stroke-opacity: 1;"/></g><g class="point" style="vector-effect: non-scaling-stroke; stroke-miterlimit: 2;"><path d="M124.82402591246256,150.90287455411567L94.98795651323222,143.18674235941202A67.15096001409195,67.15096001409195 0,0,0 93.15818968526644,153.56386570499387L123.8339965721318,156.51760995282166A36.333274616875116,36.333274616875116 0,0,1 124.82402591246256,150.90287455411567Z" style="opacity: 1; stroke-width: 0.5px; fill: rgb(251, 159, 58); fill-opacity: 1; stroke: rgb(17, 17, 17); stroke-opacity: 1;"/></g><g class="point" style="vector-effect: non-scaling-stroke; stroke-miterlimit: 2;"><path d="M126.18284497367455,144.58863456708775L96.49943920488985,131.06112720462514A69.78380600082204,69.78380600082204 0,0,0 92.75419939680525,141.35108900778016L124.18832156136297,150.0685426049874A37.163290470318834,37.163290470318834 0,0,1 126.18284497367455,144.58863456708775Z" style="opacity: 1; stroke-width: 0.5px; fill: rgb(251, 159, 58); fill-opacity: 1; stroke: rgb(17, 17, 17); stroke-opacity: 1;"/></g><g class="point" style="vector-effect: non-scaling-stroke; stroke-miterlimit: 2;"><path d="M134.05805024807603,142.1705919065028L116.12596249780935,129.84620944777126A53.237038341847224,53.237038341847224 0,0,0 111.9490326102794,137.08086423262606L131.58830478062958,146.44831653788302A31.478128119311844,31.478128119311844 0,0,1 134.05805024807603,142.1705919065028Z" style="opacity: 1; stroke-width: 0.5px; fill: rgb(251, 159, 58); fill-opacity: 1; stroke: rgb(17, 17, 17); stroke-opacity: 1;"/></g><g class="point" style="vector-effect: non-scaling-stroke; stroke-miterlimit: 2;"><path d="M140.20270375643446,140.5452511643576L128.87177535979566,129.4103788404208A43.64276906816981,43.64276906816981 0,0,0 124.46974443756181,134.65651500670378L137.40304809832662,143.88175085293432A27.756444131290003,27.756444131290003 0,0,1 140.20270375643446,140.5452511643576Z" style="opacity: 1; stroke-width: 0.5px; fill: rgb(251, 159, 58); fill-opacity: 1; stroke: rgb(17, 17, 17); stroke-opacity: 1;"/></g><g class="point" style="vector-effect: non-scaling-stroke; stroke-miterlimit: 2;"><path d="M146.6856006241763,141.33390050308716L140.8861405612932,133.20335735904456A32.91503728495098,32.91503728495098 0,0,0 136.92954543220284,136.52333487258207L143.92950168528446,143.6465421061994A22.928072338676532,22.928072338676532 0,0,1 146.6856006241763,141.33390050308716Z" style="opacity: 1; stroke-width: 0.5px; fill: rgb(251, 159, 58); fill-opacity: 1; stroke: rgb(17, 17, 17); stroke-opacity: 1;"/></g><g class="point" style="vector-effect: non-scaling-stroke; stroke-miterlimit: 2;"><path d="M150.53649096478762,140.15934070731234L147.21292810832853,133.19134627443583A29.70207269097528,29.70207269097528 0,0,0 143.17656077823685,135.52174403901248L147.5492395423069,141.88403112021868A21.98203276378369,21.98203276378369 0,0,1 150.53649096478762,140.15934070731234Z" style="opacity: 1; stroke-width: 0.5px; fill: rgb(251, 159, 58); fill-opacity: 1; stroke: rgb(17, 17, 17); stroke-opacity: 1;"/></g><g class="point" style="vector-effect: non-scaling-stroke; stroke-miterlimit: 2;"><path d="M154.2805872158405,139.37646376180317L152.9592549879738,134.61189367174435A26.34630967060067,26.34630967060067 0,0,0 149.0743634106732,136.02587856923327L151.12477081937476,140.5250869949259A21.40191415653808,21.40191415653808 0,0,1 154.2805872158405,139.37646376180317Z" style="opacity: 1; stroke-width: 0.5px; fill: rgb(251, 159, 58); fill-opacity: 1; stroke: rgb(17, 17, 17); stroke-opacity: 1;"/></g><g class="point" style="vector-effect: non-scaling-stroke; stroke-miterlimit: 2;"><path d="M157.56378117063034,134.6989000828866L157.1557487332675,130.46132119929703A29.675297986025484,29.675297986025484 0,0,0 152.5698987699422,131.2699302773122L153.6358110366302,135.39150719692788A25.418119899007692,25.418119899007692 0,0,1 157.56378117063034,134.6989000828866Z" style="opacity: 1; stroke-width: 0.5px; fill: rgb(251, 159, 58); fill-opacity: 1; stroke: rgb(17, 17, 17); stroke-opacity: 1;"/></g></g></g><g class="trace bars" style="opacity: 1;"><g class="points"><g class="point" style="vector-effect: non-scaling-stroke; stroke-miterlimit: 2;"><path d="M162.75124183203775,125.04215800340003L162.75264231146357,125.02436322508667A35.08378838588457,35.08378838588457 0,0,0 157.24735768853643,125.02436322508667L157.24875816796225,125.04215800340003A35.0659385825847,35.0659385825847 0,0,1 162.75124183203775,125.04215800340003Z" style="opacity: 1; stroke-width: 0.5px; fill: rgb(237, 121, 83); fill-opacity: 1; stroke: rgb(17, 17, 17); stroke-opacity: 1;"/></g><g class="point" style="vector-effect: non-scaling-stroke; stroke-miterlimit: 2;"><path d="M165.82788090465888,137.4652565904452L165.83011552157018,137.4566159679722A23.285068404673833,23.285068404673833 0,0,0 162.23177490373087,136.82213143126796L162.23091948981605,136.8310152444411A23.2761435030239,23.2761435030239 0,0,1 165.82788090465888,137.4652565904452Z" style="opacity: 1; stroke-width: 0.5px; fill: rgb(237, 121, 83); fill-opacity: 1; stroke: rgb(17, 17, 17); stroke-opacity: 1;"/></g><g class="point" style="vector-effect: non-scaling-stroke; stroke-miterlimit: 2;"><path d="M168.54213050412136,141.2560053312298L168.54583160052698,141.24788401638196A20.60759790969409,20.60759790969409 0,0,0 165.50714100026033,140.14189108674043L165.50475592403674,140.1504913937622A20.598673008044155,20.598673008044155 0,0,1 168.54213050412136,141.2560053312298Z" style="opacity: 1; stroke-width: 0.5px; fill: rgb(237, 121, 83); fill-opacity: 1; stroke: rgb(17, 17, 17); stroke-opacity: 1;"/></g><g class="point" style="vector-effect: non-scaling-stroke; stroke-miterlimit: 2;"><path d="M171.36390966662367,143.4654088340445L171.37401990654058,143.4506983436833A20.081028712348072,20.081028712348072 0,0,0 168.64510569599184,141.8751589896276L168.6374211575954,141.89126995941461A20.063178909048208,20.063178909048208 0,0,1 171.36390966662367,143.4654088340445Z" style="opacity: 1; stroke-width: 0.5px; fill: rgb(237, 121, 83); fill-opacity: 1; stroke: rgb(17, 17, 17); stroke-opacity: 1;"/></g><g class="point" style="vector-effect: non-scaling-stroke; stroke-miterlimit: 2;"><path d="M177.78451798705186,141.90234301593028L177.79077353330126,141.8959773258198A25.382420292407964,25.382420292407964 0,0,0 174.73964648689864,139.33577774650834L174.7344637701311,139.34304364744136A25.37349539075803,25.37349539075803 0,0,1 177.78451798705186,141.90234301593028Z" style="opacity: 1; stroke-width: 0.5px; fill: rgb(237, 121, 83); fill-opacity: 1; stroke: rgb(17, 17, 17); stroke-opacity: 1;"/></g><g class="point" style="vector-effect: non-scaling-stroke; stroke-miterlimit: 2;"><path d="M196.48935448559604,133.97239639338784L196.56927939585918,133.91538650894483A44.919030004110155,44.919030004110155 0,0,0 192.03851832600174,128.51583572675622L191.96849573478656,128.58464673549966A44.8208560859609,44.8208560859609 0,0,1 196.48935448559604,133.97239639338784Z" style="opacity: 1; stroke-width: 0.5px; fill: rgb(237, 121, 83); fill-opacity: 1; stroke: rgb(17, 17, 17); stroke-opacity: 1;"/></g><g class="point" style="vector-effect: non-scaling-stroke; stroke-miterlimit: 2;"><path d="M224.3552688141623,129.30411137543166L224.60498884586076,129.18500103028688A71.57771123245847,71.57771123245847 0,0,0 218.98906634829325,119.45793793313086L218.7610537476951,119.6146466518432A71.30103928131055,71.30103928131055 0,0,1 224.3552688141623,129.30411137543166Z" style="opacity: 1; stroke-width: 0.5px; fill: rgb(237, 121, 83); fill-opacity: 1; stroke: rgb(17, 17, 17); stroke-opacity: 1;"/></g><g class="point" style="vector-effect: non-scaling-stroke; stroke-miterlimit: 2;"><path d="M231.7179602545135,140.1108493715154L232.01897100027534,140.02737170368988A74.73712641653457,74.73712641653457 0,0,0 228.00789053565066,129.00701869951803L227.72364451597693,129.13655707371396A74.42475485878693,74.42475485878693 0,0,1 231.7179602545135,140.1108493715154Z" style="opacity: 1; stroke-width: 0.5px; fill: rgb(237, 121, 83); fill-opacity: 1; stroke: rgb(17, 17, 17); stroke-opacity: 1;"/></g><g class="point" style="vector-effect: non-scaling-stroke; stroke-miterlimit: 2;"><path d="M251.60988144145836,151.1789717105126L253.01352392281507,151.04381631197313A93.44372027479304,93.44372027479304 0,0,0 250.46731729219283,136.60356093873523L249.1020989414606,136.95663041071992A92.0335858141037,92.0335858141037 0,0,1 251.60988144145836,151.1789717105126Z" style="opacity: 1; stroke-width: 0.5px; fill: rgb(237, 121, 83); fill-opacity: 1; stroke: rgb(17, 17, 17); stroke-opacity: 1;"/></g><g class="point" style="vector-effect: non-scaling-stroke; stroke-miterlimit: 2;"><path d="M236.01039556552644,165.98214786742133L236.63321280649413,166.03116464732528A76.87017791086842,76.87017791086842 0,0,0 236.63321280649413,153.96883535267472L236.01039556552644,154.01785213257867A76.24543479537314,76.24543479537314 0,0,1 236.01039556552644,165.98214786742133Z" style="opacity: 1; stroke-width: 0.5px; fill: rgb(237, 121, 83); fill-opacity: 1; stroke: rgb(17, 17, 17); stroke-opacity: 1;"/></g><g class="point" style="vector-effect: non-scaling-stroke; stroke-miterlimit: 2;"><path d="M206.03723653608438,171.90603890338286L206.1063615158683,171.92391583867322A47.62327520403969,47.62327520403969 0,0,0 207.40402709189505,164.5644886494089L207.3329565865099,164.55764533809045A47.55187599084024,47.55187599084024 0,0,1 206.03723653608438,171.90603890338286Z" style="opacity: 1; stroke-width: 0.5px; fill: rgb(237, 121, 83); fill-opacity: 1; stroke: rgb(17, 17, 17); stroke-opacity: 1;"/></g><g class="point" style="vector-effect: non-scaling-stroke; stroke-miterlimit: 2;"><path d="M193.97146000843406,175.4816862646186L193.97958132328188,175.48538736102418A37.34178850331748,37.34178850331748 0,0,0 195.98368457907236,169.9791589194843L195.9750842720506,169.9767738432607A37.33286360166755,37.33286360166755 0,0,1 193.97146000843406,175.4816862646186Z" style="opacity: 1; stroke-width: 0.5px; fill: rgb(237, 121, 83); fill-opacity: 1; stroke: rgb(17, 17, 17); stroke-opacity: 1;"/></g><g class="point" style="vector-effect: non-scaling-stroke; stroke-miterlimit: 2;"><path d="M184.14726992786117,176.59595882363234L184.15462517304178,176.6010139435908A29.309377018378253,29.309377018378253 0,0,0 186.4542123902502,172.61801204694984L186.4461569053567,172.61416977775164A29.30045211672832,29.30045211672832 0,0,1 184.14726992786117,176.59595882363234Z" style="opacity: 1; stroke-width: 0.5px; fill: rgb(237, 121, 83); fill-opacity: 1; stroke: rgb(17, 17, 17); stroke-opacity: 1;"/></g><g class="point" style="vector-effect: non-scaling-stroke; stroke-miterlimit: 2;"><path d="M177.60113315545297,177.29658537959847L177.66479005655768,177.35914084209247A24.766602078562624,24.766602078562624 0,0,0 180.1628750891137,174.38203902993803L180.09021607978354,174.33021186226256A24.677353062063297,24.677353062063297 0,0,1 177.60113315545297,177.29658537959847Z" style="opacity: 1; stroke-width: 0.5px; fill: rgb(237, 121, 83); fill-opacity: 1; stroke: rgb(17, 17, 17); stroke-opacity: 1;"/></g><g class="point" style="vector-effect: non-scaling-stroke; stroke-miterlimit: 2;"><path d="M173.2003796069377,178.50624967638652L173.2677549249158,178.6007063885157A22.84774822382714,22.84774822382714 0,0,0 176.0141983984709,176.29616668280636L175.9328762972287,176.21341271137024A22.731724502378018,22.731724502378018 0,0,1 173.2003796069377,178.50624967638652Z" style="opacity: 1; stroke-width: 0.5px; fill: rgb(237, 121, 83); fill-opacity: 1; stroke: rgb(17, 17, 17); stroke-opacity: 1;"/></g><g class="point" style="vector-effect: non-scaling-stroke; stroke-miterlimit: 2;"><path d="M168.35693550612544,177.52067964335998L168.3915159289094,177.5931790074015A19.49198520345253,19.49198520345253 0,0,0 171.04038198928205,176.06385547439805L170.9948859096559,175.99765826777278A19.411661088603136,19.411661088603136 0,0,1 168.35693550612544,177.52067964335998Z" style="opacity: 1; stroke-width: 0.5px; fill: rgb(237, 121, 83); fill-opacity: 1; stroke: rgb(17, 17, 17); stroke-opacity: 1;"/></g><g class="point" style="vector-effect: non-scaling-stroke; stroke-miterlimit: 2;"><path d="M166.02231746455493,181.71577522996122L166.0270876170021,181.73297584400476A22.553226469379368,22.553226469379368 0,0,0 169.35267061694745,180.52256262044295L169.34526842413626,180.5063199907473A22.535376666079504,22.535376666079504 0,0,1 166.02231746455493,181.71577522996122Z" style="opacity: 1; stroke-width: 0.5px; fill: rgb(237, 121, 83); fill-opacity: 1; stroke: rgb(17, 17, 17); stroke-opacity: 1;"/></g><g class="point" style="vector-effect: non-scaling-stroke; stroke-miterlimit: 2;"><path d="M162.97427418178313,190.88901840302083L162.97512959569795,190.89790221619396A31.040807938465154,31.040807938465154 0,0,0 167.77199761748605,190.05208496105507L167.76976300057476,190.04344433858208A31.03188303681522,31.03188303681522 0,0,1 162.97427418178313,190.88901840302083Z" style="opacity: 1; stroke-width: 0.5px; fill: rgb(237, 121, 83); fill-opacity: 1; stroke: rgb(17, 17, 17); stroke-opacity: 1;"/></g><g class="point" style="vector-effect: non-scaling-stroke; stroke-miterlimit: 2;"><path d="M157.54145836796016,191.23873332910728L157.54005788853434,191.25652810742062A31.35317949621279,31.35317949621279 0,0,0 162.45994211146566,191.25652810742062L162.45854163203984,191.23873332910728A31.335329692912925,31.335329692912925 0,0,1 157.54145836796016,191.23873332910728Z" style="opacity: 1; stroke-width: 0.5px; fill: rgb(237, 121, 83); fill-opacity: 1; stroke: rgb(17, 17, 17); stroke-opacity: 1;"/></g><g class="point" style="vector-effect: non-scaling-stroke; stroke-miterlimit: 2;"><path d="M0,0Z" style="opacity: 1; stroke-width: 0.5px; fill: rgb(237, 121, 83); fill-opacity: 1; stroke: rgb(17, 17, 17); stroke-opacity: 1;"/></g><g class="point" style="vector-effect: non-scaling-stroke; stroke-miterlimit: 2;"><path d="M141.7832034916441,199.97311168097355L141.7795023952385,199.98123299582136A43.937290822617584,43.937290822617584 0,0,0 148.25826975128558,202.33931146815806L148.26065482750917,202.3307111611363A43.92836592096765,43.92836592096765 0,0,1 141.7832034916441,199.97311168097355Z" style="opacity: 1; stroke-width: 0.5px; fill: rgb(237, 121, 83); fill-opacity: 1; stroke: rgb(17, 17, 17); stroke-opacity: 1;"/></g><g class="point" style="vector-effect: non-scaling-stroke; stroke-miterlimit: 2;"><path d="M129.8007133681451,203.94023470881592L129.77038264839433,203.98436617989944A53.37091186659621,53.37091186659621 0,0,0 137.0232301946528,208.17179966312307L137.04628380984212,208.1234667537621A53.317362456696614,53.317362456696614 0,0,1 129.8007133681451,203.94023470881592Z" style="opacity: 1; stroke-width: 0.5px; fill: rgb(237, 121, 83); fill-opacity: 1; stroke: rgb(17, 17, 17); stroke-opacity: 1;"/></g><g class="point" style="vector-effect: non-scaling-stroke; stroke-miterlimit: 2;"><path d="M125.41934033330189,195.189534930685L125.38180705580547,195.22772907134782A49.39040573072633,49.39040573072633 0,0,0 131.31884540840468,200.20949576329917L131.34994170900995,200.1659003577011A49.33685632082673,49.33685632082673 0,0,1 125.41934033330189,195.189534930685Z" style="opacity: 1; stroke-width: 0.5px; fill: rgb(237, 121, 83); fill-opacity: 1; stroke: rgb(17, 17, 17); stroke-opacity: 1;"/></g><g class="point" style="vector-effect: non-scaling-stroke; stroke-miterlimit: 2;"><path d="M106.35585341155806,198.26399789478648L106.10154687890255,198.44539298165057A66.20492043919911,66.20492043919911 0,0,0 112.77931076052438,206.40364207806923L113.00210991439087,206.18469795934013A65.89254888145148,65.89254888145148 0,0,1 106.35585341155806,198.26399789478648Z" style="opacity: 1; stroke-width: 0.5px; fill: rgb(237, 121, 83); fill-opacity: 1; stroke: rgb(17, 17, 17); stroke-opacity: 1;"/></g><g class="point" style="vector-effect: non-scaling-stroke; stroke-miterlimit: 2;"><path d="M58.468668402340555,208.42796097434714L51.71011657669503,211.65162483165255A119.97745288004228,119.97745288004228 0,0,0 61.12343903739328,227.9559776016112L67.29448974390425,223.71473195646118A112.48946039574894,112.48946039574894 0,0,1 58.468668402340555,208.42796097434714Z" style="opacity: 1; stroke-width: 0.5px; fill: rgb(237, 121, 83); fill-opacity: 1; stroke: rgb(17, 17, 17); stroke-opacity: 1;"/></g><g class="point" style="vector-effect: non-scaling-stroke; stroke-miterlimit: 2;"><path d="M44.61828099597635,191.99818261563126L16.72748532438655,199.73298480872103A148.67993658622512,148.67993658622512 0,0,0 24.707015950154755,221.6565650208657L51.04444000163731,209.6539093775097A119.73648053549411,119.73648053549411 0,0,1 44.61828099597635,191.99818261563126Z" style="opacity: 1; stroke-width: 0.5px; fill: rgb(237, 121, 83); fill-opacity: 1; stroke: rgb(17, 17, 17); stroke-opacity: 1;"/></g><g class="point" style="vector-effect: non-scaling-stroke; stroke-miterlimit: 2;"><path d="M46.562589592127466,170.92278027816755L23.793376429360052,173.11520614181728A136.83659209676472,136.83659209676472 0,0,0 27.521976244135573,194.26114648398382L49.66789164240589,188.53382334033324A113.96206916798779,113.96206916798779 0,0,1 46.562589592127466,170.92278027816755Z" style="opacity: 1; stroke-width: 0.5px; fill: rgb(237, 121, 83); fill-opacity: 1; stroke: rgb(17, 17, 17); stroke-opacity: 1;"/></g><g class="point" style="vector-effect: non-scaling-stroke; stroke-miterlimit: 2;"><path d="M76.80941138503191,153.4527586842573L68.6771976958254,152.81273958665423A91.60519053490694,91.60519053490694 0,0,0 68.6771976958254,167.1872604133457L76.80941138503191,166.54724131574264A83.44783042686866,83.44783042686866 0,0,1 76.80941138503191,153.4527586842573Z" style="opacity: 1; stroke-width: 0.5px; fill: rgb(237, 121, 83); fill-opacity: 1; stroke: rgb(17, 17, 17); stroke-opacity: 1;"/></g><g class="point" style="vector-effect: non-scaling-stroke; stroke-miterlimit: 2;"><path d="M94.98795651323222,143.18674235941202L90.64172340931884,142.06273005303035A71.64018554400799,71.64018554400799 0,0,0 88.68963165917513,153.13359250584608L93.15818968526644,153.56386570499387A67.15096001409195,67.15096001409195 0,0,1 94.98795651323222,143.18674235941202Z" style="opacity: 1; stroke-width: 0.5px; fill: rgb(237, 121, 83); fill-opacity: 1; stroke: rgb(17, 17, 17); stroke-opacity: 1;"/></g><g class="point" style="vector-effect: non-scaling-stroke; stroke-miterlimit: 2;"><path d="M96.49943920488985,131.06112720462514L91.8865323713277,128.95890444624519A74.85315013798368,74.85315013798368 0,0,0 87.86922500844172,139.99636571278324L92.75419939680525,141.35108900778016A69.78380600082204,69.78380600082204 0,0,1 96.49943920488985,131.06112720462514Z" style="opacity: 1; stroke-width: 0.5px; fill: rgb(237, 121, 83); fill-opacity: 1; stroke: rgb(17, 17, 17); stroke-opacity: 1;"/></g><g class="point" style="vector-effect: non-scaling-stroke; stroke-miterlimit: 2;"><path d="M116.12596249780935,129.84620944777126L114.38276939001067,128.64814601761563A55.35224003288122,55.35224003288122 0,0,0 110.03988269052019,136.17024643264824L111.9490326102794,137.08086423262606A53.237038341847224,53.237038341847224 0,0,1 116.12596249780935,129.84620944777126Z" style="opacity: 1; stroke-width: 0.5px; fill: rgb(237, 121, 83); fill-opacity: 1; stroke: rgb(17, 17, 17); stroke-opacity: 1;"/></g><g class="point" style="vector-effect: non-scaling-stroke; stroke-miterlimit: 2;"><path d="M128.87177535979566,129.4103788404208L128.24157203885903,128.79107976172992A44.52633433151313,44.52633433151313 0,0,0 123.75042024519342,134.14342604671683L124.46974443756181,134.65651500670378A43.64276906816981,43.64276906816981 0,0,1 128.87177535979566,129.4103788404208Z" style="opacity: 1; stroke-width: 0.5px; fill: rgb(237, 121, 83); fill-opacity: 1; stroke: rgb(17, 17, 17); stroke-opacity: 1;"/></g><g class="point" style="vector-effect: non-scaling-stroke; stroke-miterlimit: 2;"><path d="M140.8861405612932,133.20335735904456L140.67883189059137,132.912721321724A33.27203335094827,33.27203335094827 0,0,0 136.67932358222674,136.26870726816324L136.92954543220284,136.52333487258207A32.91503728495098,32.91503728495098 0,0,1 140.8861405612932,133.20335735904456Z" style="opacity: 1; stroke-width: 0.5px; fill: rgb(237, 121, 83); fill-opacity: 1; stroke: rgb(17, 17, 17); stroke-opacity: 1;"/></g><g class="point" style="vector-effect: non-scaling-stroke; stroke-miterlimit: 2;"><path d="M147.21292810832853,133.19134627443583L147.12071364757128,132.99801463699188A29.91627033057366,29.91627033057366 0,0,0 143.05523789923376,135.34521815467843L143.17656077823685,135.52174403901248A29.70207269097528,29.70207269097528 0,0,1 147.21292810832853,133.19134627443583Z" style="opacity: 1; stroke-width: 0.5px; fill: rgb(237, 121, 83); fill-opacity: 1; stroke: rgb(17, 17, 17); stroke-opacity: 1;"/></g><g class="point" style="vector-effect: non-scaling-stroke; stroke-miterlimit: 2;"><path d="M152.9592549879738,134.61189367174435L152.94971468307946,134.5774924436573A26.3820092772004,26.3820092772004 0,0,0 149.0595590250508,135.99339330984196L149.0743634106732,136.02587856923327A26.34630967060067,26.34630967060067 0,0,1 152.9592549879738,134.61189367174435Z" style="opacity: 1; stroke-width: 0.5px; fill: rgb(237, 121, 83); fill-opacity: 1; stroke: rgb(17, 17, 17); stroke-opacity: 1;"/></g><g class="point" style="vector-effect: non-scaling-stroke; stroke-miterlimit: 2;"><path d="M157.1557487332675,130.46132119929703L157.1540379054379,130.44355357295075A29.693147789325348,29.693147789325348 0,0,0 152.5654295361196,131.25264903236624L152.5698987699422,131.2699302773122A29.675297986025484,29.675297986025484 0,0,1 157.1557487332675,130.46132119929703Z" style="opacity: 1; stroke-width: 0.5px; fill: rgb(237, 121, 83); fill-opacity: 1; stroke: rgb(17, 17, 17); stroke-opacity: 1;"/></g></g></g><g class="trace bars" style="opacity: 1;"><g class="points"><g class="point" style="vector-effect: non-scaling-stroke; stroke-miterlimit: 2;"><path d="M0,0Z" style="opacity: 1; stroke-width: 0.5px; fill: rgb(216, 87, 107); fill-opacity: 1; stroke: rgb(17, 17, 17); stroke-opacity: 1;"/></g><g class="point" style="vector-effect: non-scaling-stroke; stroke-miterlimit: 2;"><path d="M0,0Z" style="opacity: 1; stroke-width: 0.5px; fill: rgb(216, 87, 107); fill-opacity: 1; stroke: rgb(17, 17, 17); stroke-opacity: 1;"/></g><g class="point" style="vector-effect: non-scaling-stroke; stroke-miterlimit: 2;"><path d="M0,0Z" style="opacity: 1; stroke-width: 0.5px; fill: rgb(216, 87, 107); fill-opacity: 1; stroke: rgb(17, 17, 17); stroke-opacity: 1;"/></g><g class="point" style="vector-effect: non-scaling-stroke; stroke-miterlimit: 2;"><path d="M0,0Z" style="opacity: 1; stroke-width: 0.5px; fill: rgb(216, 87, 107); fill-opacity: 1; stroke: rgb(17, 17, 17); stroke-opacity: 1;"/></g><g class="point" style="vector-effect: non-scaling-stroke; stroke-miterlimit: 2;"><path d="M0,0Z" style="opacity: 1; stroke-width: 0.5px; fill: rgb(216, 87, 107); fill-opacity: 1; stroke: rgb(17, 17, 17); stroke-opacity: 1;"/></g><g class="point" style="vector-effect: non-scaling-stroke; stroke-miterlimit: 2;"><path d="M0,0Z" style="opacity: 1; stroke-width: 0.5px; fill: rgb(216, 87, 107); fill-opacity: 1; stroke: rgb(17, 17, 17); stroke-opacity: 1;"/></g><g class="point" style="vector-effect: non-scaling-stroke; stroke-miterlimit: 2;"><path d="M0,0Z" style="opacity: 1; stroke-width: 0.5px; fill: rgb(216, 87, 107); fill-opacity: 1; stroke: rgb(17, 17, 17); stroke-opacity: 1;"/></g><g class="point" style="vector-effect: non-scaling-stroke; stroke-miterlimit: 2;"><path d="M0,0Z" style="opacity: 1; stroke-width: 0.5px; fill: rgb(216, 87, 107); fill-opacity: 1; stroke: rgb(17, 17, 17); stroke-opacity: 1;"/></g><g class="point" style="vector-effect: non-scaling-stroke; stroke-miterlimit: 2;"><path d="M0,0Z" style="opacity: 1; stroke-width: 0.5px; fill: rgb(216, 87, 107); fill-opacity: 1; stroke: rgb(17, 17, 17); stroke-opacity: 1;"/></g><g class="point" style="vector-effect: non-scaling-stroke; stroke-miterlimit: 2;"><path d="M0,0Z" style="opacity: 1; stroke-width: 0.5px; fill: rgb(216, 87, 107); fill-opacity: 1; stroke: rgb(17, 17, 17); stroke-opacity: 1;"/></g><g class="point" style="vector-effect: non-scaling-stroke; stroke-miterlimit: 2;"><path d="M0,0Z" style="opacity: 1; stroke-width: 0.5px; fill: rgb(216, 87, 107); fill-opacity: 1; stroke: rgb(17, 17, 17); stroke-opacity: 1;"/></g><g class="point" style="vector-effect: non-scaling-stroke; stroke-miterlimit: 2;"><path d="M0,0Z" style="opacity: 1; stroke-width: 0.5px; fill: rgb(216, 87, 107); fill-opacity: 1; stroke: rgb(17, 17, 17); stroke-opacity: 1;"/></g><g class="point" style="vector-effect: non-scaling-stroke; stroke-miterlimit: 2;"><path d="M0,0Z" style="opacity: 1; stroke-width: 0.5px; fill: rgb(216, 87, 107); fill-opacity: 1; stroke: rgb(17, 17, 17); stroke-opacity: 1;"/></g><g class="point" style="vector-effect: non-scaling-stroke; stroke-miterlimit: 2;"><path d="M0,0Z" style="opacity: 1; stroke-width: 0.5px; fill: rgb(216, 87, 107); fill-opacity: 1; stroke: rgb(17, 17, 17); stroke-opacity: 1;"/></g><g class="point" style="vector-effect: non-scaling-stroke; stroke-miterlimit: 2;"><path d="M0,0Z" style="opacity: 1; stroke-width: 0.5px; fill: rgb(216, 87, 107); fill-opacity: 1; stroke: rgb(17, 17, 17); stroke-opacity: 1;"/></g><g class="point" style="vector-effect: non-scaling-stroke; stroke-miterlimit: 2;"><path d="M0,0Z" style="opacity: 1; stroke-width: 0.5px; fill: rgb(216, 87, 107); fill-opacity: 1; stroke: rgb(17, 17, 17); stroke-opacity: 1;"/></g><g class="point" style="vector-effect: non-scaling-stroke; stroke-miterlimit: 2;"><path d="M0,0Z" style="opacity: 1; stroke-width: 0.5px; fill: rgb(216, 87, 107); fill-opacity: 1; stroke: rgb(17, 17, 17); stroke-opacity: 1;"/></g><g class="point" style="vector-effect: non-scaling-stroke; stroke-miterlimit: 2;"><path d="M0,0Z" style="opacity: 1; stroke-width: 0.5px; fill: rgb(216, 87, 107); fill-opacity: 1; stroke: rgb(17, 17, 17); stroke-opacity: 1;"/></g><g class="point" style="vector-effect: non-scaling-stroke; stroke-miterlimit: 2;"><path d="M0,0Z" style="opacity: 1; stroke-width: 0.5px; fill: rgb(216, 87, 107); fill-opacity: 1; stroke: rgb(17, 17, 17); stroke-opacity: 1;"/></g><g class="point" style="vector-effect: non-scaling-stroke; stroke-miterlimit: 2;"><path d="M0,0Z" style="opacity: 1; stroke-width: 0.5px; fill: rgb(216, 87, 107); fill-opacity: 1; stroke: rgb(17, 17, 17); stroke-opacity: 1;"/></g><g class="point" style="vector-effect: non-scaling-stroke; stroke-miterlimit: 2;"><path d="M0,0Z" style="opacity: 1; stroke-width: 0.5px; fill: rgb(216, 87, 107); fill-opacity: 1; stroke: rgb(17, 17, 17); stroke-opacity: 1;"/></g><g class="point" style="vector-effect: non-scaling-stroke; stroke-miterlimit: 2;"><path d="M0,0Z" style="opacity: 1; stroke-width: 0.5px; fill: rgb(216, 87, 107); fill-opacity: 1; stroke: rgb(17, 17, 17); stroke-opacity: 1;"/></g><g class="point" style="vector-effect: non-scaling-stroke; stroke-miterlimit: 2;"><path d="M0,0Z" style="opacity: 1; stroke-width: 0.5px; fill: rgb(216, 87, 107); fill-opacity: 1; stroke: rgb(17, 17, 17); stroke-opacity: 1;"/></g><g class="point" style="vector-effect: non-scaling-stroke; stroke-miterlimit: 2;"><path d="M0,0Z" style="opacity: 1; stroke-width: 0.5px; fill: rgb(216, 87, 107); fill-opacity: 1; stroke: rgb(17, 17, 17); stroke-opacity: 1;"/></g><g class="point" style="vector-effect: non-scaling-stroke; stroke-miterlimit: 2;"><path d="M51.71011657669503,211.65162483165255L51.33150878670058,211.83221148396882A120.39692325758911,120.39692325758911 0,0,0 60.777742513905764,228.19356823965893L61.12343903739328,227.9559776016112A119.97745288004228,119.97745288004228 0,0,1 51.71011657669503,211.65162483165255Z" style="opacity: 1; stroke-width: 0.5px; fill: rgb(216, 87, 107); fill-opacity: 1; stroke: rgb(17, 17, 17); stroke-opacity: 1;"/></g><g class="point" style="vector-effect: non-scaling-stroke; stroke-miterlimit: 2;"><path d="M16.72748532438655,199.73298480872103L13.5281711122893,200.62023316389508A152,152 0,0,0 21.685886826765454,223.03337288374837L24.707015950154755,221.6565650208657A148.67993658622512,148.67993658622512 0,0,1 16.72748532438655,199.73298480872103Z" style="opacity: 1; stroke-width: 0.5px; fill: rgb(216, 87, 107); fill-opacity: 1; stroke: rgb(17, 17, 17); stroke-opacity: 1;"/></g><g class="point" style="vector-effect: non-scaling-stroke; stroke-miterlimit: 2;"><path d="M23.793376429360052,173.11520614181728L22.585177837812495,173.231542434231A138.05037872115554,138.05037872115554 0,0,0 26.346851587809113,194.56505438392003L27.521976244135573,194.26114648398382A136.83659209676472,136.83659209676472 0,0,1 23.793376429360052,173.11520614181728Z" style="opacity: 1; stroke-width: 0.5px; fill: rgb(216, 87, 107); fill-opacity: 1; stroke: rgb(17, 17, 17); stroke-opacity: 1;"/></g><g class="point" style="vector-effect: non-scaling-stroke; stroke-miterlimit: 2;"><path d="M68.6771976958254,152.81273958665423L68.35689168618488,152.78753095698934A91.92648699430451,91.92648699430451 0,0,0 68.35689168618488,167.2124690430106L68.6771976958254,167.1872604133457A91.60519053490694,91.60519053490694 0,0,1 68.6771976958254,152.81273958665423Z" style="opacity: 1; stroke-width: 0.5px; fill: rgb(216, 87, 107); fill-opacity: 1; stroke: rgb(17, 17, 17); stroke-opacity: 1;"/></g><g class="point" style="vector-effect: non-scaling-stroke; stroke-miterlimit: 2;"><path d="M90.64172340931884,142.06273005303035L90.52939531716999,142.0336800331835A71.75620926545712,71.75620926545712 0,0,0 88.57414208792426,153.1224721249536L88.68963165917513,153.13359250584608A71.64018554400799,71.64018554400799 0,0,1 90.64172340931884,142.06273005303035Z" style="opacity: 1; stroke-width: 0.5px; fill: rgb(216, 87, 107); fill-opacity: 1; stroke: rgb(17, 17, 17); stroke-opacity: 1;"/></g><g class="point" style="vector-effect: non-scaling-stroke; stroke-miterlimit: 2;"><path d="M91.8865323713277,128.95890444624519L91.80531922284949,128.9218934821892A74.94239915448301,74.94239915448301 0,0,0 87.78322193822403,139.97251495054738L87.86922500844172,139.99636571278324A74.85315013798368,74.85315013798368 0,0,1 91.8865323713277,128.95890444624519Z" style="opacity: 1; stroke-width: 0.5px; fill: rgb(216, 87, 107); fill-opacity: 1; stroke: rgb(17, 17, 17); stroke-opacity: 1;"/></g><g class="point" style="vector-effect: non-scaling-stroke; stroke-miterlimit: 2;"><path d="M114.38276939001067,128.64814601761563L114.3680588996495,128.63803577769872A55.37008983618109,55.37008983618109 0,0,0 110.02377172073318,136.1625618942518L110.03988269052019,136.17024643264824A55.35224003288122,55.35224003288122 0,0,1 114.38276939001067,128.64814601761563Z" style="opacity: 1; stroke-width: 0.5px; fill: rgb(216, 87, 107); fill-opacity: 1; stroke: rgb(17, 17, 17); stroke-opacity: 1;"/></g><g class="point" style="vector-effect: non-scaling-stroke; stroke-miterlimit: 2;"><path d="M128.24157203885903,128.79107976172992L128.23520634874856,128.7848242154805A44.53525923316306,44.53525923316306 0,0,0 123.7431543442604,134.13824332994926L123.75042024519342,134.14342604671683A44.52633433151313,44.52633433151313 0,0,1 128.24157203885903,128.79107976172992Z" style="opacity: 1; stroke-width: 0.5px; fill: rgb(216, 87, 107); fill-opacity: 1; stroke: rgb(17, 17, 17); stroke-opacity: 1;"/></g><g class="point" style="vector-effect: non-scaling-stroke; stroke-miterlimit: 2;"><path d="M0,0Z" style="opacity: 1; stroke-width: 0.5px; fill: rgb(216, 87, 107); fill-opacity: 1; stroke: rgb(17, 17, 17); stroke-opacity: 1;"/></g><g class="point" style="vector-effect: non-scaling-stroke; stroke-miterlimit: 2;"><path d="M0,0Z" style="opacity: 1; stroke-width: 0.5px; fill: rgb(216, 87, 107); fill-opacity: 1; stroke: rgb(17, 17, 17); stroke-opacity: 1;"/></g><g class="point" style="vector-effect: non-scaling-stroke; stroke-miterlimit: 2;"><path d="M0,0Z" style="opacity: 1; stroke-width: 0.5px; fill: rgb(216, 87, 107); fill-opacity: 1; stroke: rgb(17, 17, 17); stroke-opacity: 1;"/></g><g class="point" style="vector-effect: non-scaling-stroke; stroke-miterlimit: 2;"><path d="M0,0Z" style="opacity: 1; stroke-width: 0.5px; fill: rgb(216, 87, 107); fill-opacity: 1; stroke: rgb(17, 17, 17); stroke-opacity: 1;"/></g></g></g></g><g class="scatterlayer"/></g><g class="polarsublayer angular-line"><path d="M160,0A160,160 0,1,0 -160,-1.9594348786357652e-14A160,160 0,1,0 160,3.9188697572715304e-14Z" transform="translate(317.5,260)" stroke-width="1" style="fill: none; stroke: rgb(80, 103, 132); stroke-opacity: 1;"/></g><g class="polarsublayer radial-line"><line x1="0" y1="0" x2="160" y2="0" transform="translate(317.5,260)" stroke-width="1" style="fill: none; stroke: rgb(80, 103, 132); stroke-opacity: 1;"/></g><g class="polarsublayer angular-axis"><g class="angularaxistick"><text text-anchor="middle" x="1.7757378587636624e-16" y="-5.300000000000001" transform="translate(317.5,100)" style="font-family: 'Open Sans', verdana, arial, sans-serif; font-size: 12px; fill: rgb(242, 245, 250); fill-opacity: 1; white-space: pre; opacity: 1;">0</text></g><g class="angularaxistick"><text text-anchor="start" x="2.050609665440988" y="-0.7778174593052025" transform="translate(430.6370849898476,146.8629150101524)" style="font-family: 'Open Sans', verdana, arial, sans-serif; font-size: 12px; fill: rgb(242, 245, 250); fill-opacity: 1; white-space: pre; opacity: 1;">45</text></g><g class="angularaxistick"><text text-anchor="start" x="2.9000000000000004" y="4.199999999999999" transform="translate(477.5,260)" style="font-family: 'Open Sans', verdana, arial, sans-serif; font-size: 12px; fill: rgb(242, 245, 250); fill-opacity: 1; white-space: pre; opacity: 1;">90</text></g><g class="angularaxistick"><text text-anchor="start" x="2.050609665440988" y="13.505739520663056" transform="translate(430.6370849898476,373.1370849898476)" style="font-family: 'Open Sans', verdana, arial, sans-serif; font-size: 12px; fill: rgb(242, 245, 250); fill-opacity: 1; white-space: pre; opacity: 1;">135</text></g><g class="angularaxistick"><text text-anchor="middle" x="1.7757378587636624e-16" y="14.9" transform="translate(317.5,420)" style="font-family: 'Open Sans', verdana, arial, sans-serif; font-size: 12px; fill: rgb(242, 245, 250); fill-opacity: 1; white-space: pre; opacity: 1;">180</text></g><g class="angularaxistick"><text text-anchor="end" x="-2.0506096654409878" y="13.505739520663058" transform="translate(204.3629150101524,373.1370849898476)" style="font-family: 'Open Sans', verdana, arial, sans-serif; font-size: 12px; fill: rgb(242, 245, 250); fill-opacity: 1; white-space: pre; opacity: 1;">225</text></g><g class="angularaxistick"><text text-anchor="end" x="-2.9000000000000004" y="4.200000000000001" transform="translate(157.5,260)" style="font-family: 'Open Sans', verdana, arial, sans-serif; font-size: 12px; fill: rgb(242, 245, 250); fill-opacity: 1; white-space: pre; opacity: 1;">270</text></g><g class="angularaxistick"><text text-anchor="end" x="-2.0506096654409887" y="-0.7778174593052021" transform="translate(204.36291501015236,146.8629150101524)" style="font-family: 'Open Sans', verdana, arial, sans-serif; font-size: 12px; fill: rgb(242, 245, 250); fill-opacity: 1; white-space: pre; opacity: 1;">315</text></g></g><g class="polarsublayer radial-axis" transform="translate(317.5,260)"><g class="xtick"><text text-anchor="start" x="0" y="14.9" transform=" rotate(90,0,8.9)" style="font-family: 'Open Sans', verdana, arial, sans-serif; font-size: 12px; fill: rgb(242, 245, 250); fill-opacity: 1; white-space: pre; opacity: 1;">0</text></g><g class="xtick"><text text-anchor="start" x="0" y="14.9" transform="translate(17.85,0) rotate(90,0,8.9)" style="font-family: 'Open Sans', verdana, arial, sans-serif; font-size: 12px; fill: rgb(242, 245, 250); fill-opacity: 1; white-space: pre; opacity: 1;">2k</text></g><g class="xtick"><text text-anchor="start" x="0" y="14.9" transform="translate(35.7,0) rotate(90,0,8.9)" style="font-family: 'Open Sans', verdana, arial, sans-serif; font-size: 12px; fill: rgb(242, 245, 250); fill-opacity: 1; white-space: pre; opacity: 1;">4k</text></g><g class="xtick"><text text-anchor="start" x="0" y="14.9" transform="translate(53.55,0) rotate(90,0,8.9)" style="font-family: 'Open Sans', verdana, arial, sans-serif; font-size: 12px; fill: rgb(242, 245, 250); fill-opacity: 1; white-space: pre; opacity: 1;">6k</text></g><g class="xtick"><text text-anchor="start" x="0" y="14.9" transform="translate(71.4,0) rotate(90,0,8.9)" style="font-family: 'Open Sans', verdana, arial, sans-serif; font-size: 12px; fill: rgb(242, 245, 250); fill-opacity: 1; white-space: pre; opacity: 1;">8k</text></g><g class="xtick"><text text-anchor="start" x="0" y="14.9" transform="translate(89.25,0) rotate(90,0,8.9)" style="font-family: 'Open Sans', verdana, arial, sans-serif; font-size: 12px; fill: rgb(242, 245, 250); fill-opacity: 1; white-space: pre; opacity: 1;">10k</text></g><g class="xtick"><text text-anchor="start" x="0" y="14.9" transform="translate(107.1,0) rotate(90,0,8.9)" style="font-family: 'Open Sans', verdana, arial, sans-serif; font-size: 12px; fill: rgb(242, 245, 250); fill-opacity: 1; white-space: pre; opacity: 1;">12k</text></g><g class="xtick"><text text-anchor="start" x="0" y="14.9" transform="translate(124.95,0) rotate(90,0,8.9)" style="font-family: 'Open Sans', verdana, arial, sans-serif; font-size: 12px; fill: rgb(242, 245, 250); fill-opacity: 1; white-space: pre; opacity: 1;">14k</text></g><g class="xtick"><text text-anchor="start" x="0" y="14.9" transform="translate(142.8,0) rotate(90,0,8.9)" style="font-family: 'Open Sans', verdana, arial, sans-serif; font-size: 12px; fill: rgb(242, 245, 250); fill-opacity: 1; white-space: pre; opacity: 1;">16k</text></g></g></g></g><g class="smithlayer"/><g class="ternarylayer"/><g class="geolayer"/><g class="funnelarealayer"/><g class="pielayer"/><g class="iciclelayer"/><g class="treemaplayer"/><g class="sunburstlayer"/><g class="glimages"/><defs id="topdefs-228b25"><g class="clips"/><clipPath id="legend228b25"><rect width="123" height="124" x="0" y="0"/></clipPath></defs><g class="layer-above"><g class="imagelayer"/><g class="shapelayer"/></g><g class="infolayer"><g class="legend" pointer-events="all" transform="translate(564.5,100)"><rect class="bg" shape-rendering="crispEdges" width="123" height="124" x="0" y="0" style="stroke: rgb(68, 68, 68); stroke-opacity: 1; fill: rgb(17, 17, 17); fill-opacity: 1; stroke-width: 0px;"/><g class="scrollbox" transform="" clip-path="url(#legend228b25)"><text class="legendtitletext" text-anchor="start" x="2" y="18.2" style="font-family: 'Open Sans', verdana, arial, sans-serif; font-size: 14px; fill: rgb(242, 245, 250); fill-opacity: 1; white-space: pre;">SpeedRange [m/s]</text><g class="groups" transform=""><g class="traces" transform="translate(0,32.7)" style="opacity: 1;"><text class="legendtext" text-anchor="start" x="40" y="4.680000000000001" style="font-family: 'Open Sans', verdana, arial, sans-serif; font-size: 12px; fill: rgb(242, 245, 250); fill-opacity: 1; white-space: pre;">&#60;1</text><g class="layers" style="opacity: 1;"><g class="legendfill"/><g class="legendlines"/><g class="legendsymbols"><g class="legendpoints"><path class="legendundefined" d="M6,6H-6V-6H6Z" transform="translate(20,0)" style="stroke-width: 0.5px; fill: rgb(240, 249, 33); fill-opacity: 1; stroke: rgb(17, 17, 17); stroke-opacity: 1;"/></g></g></g><rect class="legendtoggle" x="0" y="-9.5" width="64.59375" height="19" style="fill: rgb(0, 0, 0); fill-opacity: 0;"/></g></g><g class="groups" transform=""><g class="traces" transform="translate(0,51.7)" style="opacity: 1;"><text class="legendtext" text-anchor="start" x="40" y="4.680000000000001" style="font-family: 'Open Sans', verdana, arial, sans-serif; font-size: 12px; fill: rgb(242, 245, 250); fill-opacity: 1; white-space: pre;">1-3</text><g class="layers" style="opacity: 1;"><g class="legendfill"/><g class="legendlines"/><g class="legendsymbols"><g class="legendpoints"><path class="legendundefined" d="M6,6H-6V-6H6Z" transform="translate(20,0)" style="stroke-width: 0.5px; fill: rgb(253, 202, 38); fill-opacity: 1; stroke: rgb(17, 17, 17); stroke-opacity: 1;"/></g></g></g><rect class="legendtoggle" x="0" y="-9.5" width="64.59375" height="19" style="fill: rgb(0, 0, 0); fill-opacity: 0;"/></g></g><g class="groups" transform=""><g class="traces" transform="translate(0,70.7)" style="opacity: 1;"><text class="legendtext" text-anchor="start" x="40" y="4.680000000000001" style="font-family: 'Open Sans', verdana, arial, sans-serif; font-size: 12px; fill: rgb(242, 245, 250); fill-opacity: 1; white-space: pre;">3-6</text><g class="layers" style="opacity: 1;"><g class="legendfill"/><g class="legendlines"/><g class="legendsymbols"><g class="legendpoints"><path class="legendundefined" d="M6,6H-6V-6H6Z" transform="translate(20,0)" style="stroke-width: 0.5px; fill: rgb(251, 159, 58); fill-opacity: 1; stroke: rgb(17, 17, 17); stroke-opacity: 1;"/></g></g></g><rect class="legendtoggle" x="0" y="-9.5" width="64.59375" height="19" style="fill: rgb(0, 0, 0); fill-opacity: 0;"/></g></g><g class="groups" transform=""><g class="traces" transform="translate(0,89.7)" style="opacity: 1;"><text class="legendtext" text-anchor="start" x="40" y="4.680000000000001" style="font-family: 'Open Sans', verdana, arial, sans-serif; font-size: 12px; fill: rgb(242, 245, 250); fill-opacity: 1; white-space: pre;">6-10</text><g class="layers" style="opacity: 1;"><g class="legendfill"/><g class="legendlines"/><g class="legendsymbols"><g class="legendpoints"><path class="legendundefined" d="M6,6H-6V-6H6Z" transform="translate(20,0)" style="stroke-width: 0.5px; fill: rgb(237, 121, 83); fill-opacity: 1; stroke: rgb(17, 17, 17); stroke-opacity: 1;"/></g></g></g><rect class="legendtoggle" x="0" y="-9.5" width="64.59375" height="19" style="fill: rgb(0, 0, 0); fill-opacity: 0;"/></g></g><g class="groups" transform=""><g class="traces" transform="translate(0,108.7)" style="opacity: 1;"><text class="legendtext" text-anchor="start" x="40" y="4.680000000000001" style="font-family: 'Open Sans', verdana, arial, sans-serif; font-size: 12px; fill: rgb(242, 245, 250); fill-opacity: 1; white-space: pre;">>10</text><g class="layers" style="opacity: 1;"><g class="legendfill"/><g class="legendlines"/><g class="legendsymbols"><g class="legendpoints"><path class="legendundefined" d="M6,6H-6V-6H6Z" transform="translate(20,0)" style="stroke-width: 0.5px; fill: rgb(216, 87, 107); fill-opacity: 1; stroke: rgb(17, 17, 17); stroke-opacity: 1;"/></g></g></g><rect class="legendtoggle" x="0" y="-9.5" width="64.59375" height="19" style="fill: rgb(0, 0, 0); fill-opacity: 0;"/></g></g></g><rect class="scrollbar" rx="20" ry="3" width="0" height="0" x="0" y="0" style="fill: rgb(128, 139, 164); fill-opacity: 1;"/></g><g class="g-gtitle"><text class="gtitle" x="35" y="50" text-anchor="start" dy="0em" style="font-family: 'Open Sans', verdana, arial, sans-serif; font-size: 17px; fill: rgb(242, 245, 250); opacity: 1; font-weight: normal; white-space: pre;">Wind direction and intensity in Munich city</text></g><g class="g-polartitle"/></g></svg>