<svg class="main-svg" xmlns="http://www.w3.org/2000/svg" xmlns:xlink="http://www.w3.org/1999/xlink" width="700" height="500" style="" viewBox="0 0 700 500"><rect x="0" y="0" width="700" height="500" style="fill: rgb(17, 17, 17); fill-opacity: 1;"/><defs id="defs-2a9b54"><g class="clips"><clipPath id="clip2a9b54polar-for-traces"><path d="M160,0A160,160 0,1,0 -160,-1.9594348786357652e-14A160,160 0,1,0 160,3.9188697572715304e-14Z" transform="translate(160,160)"/></clipPath></g><g class="gradients"/><g class="patterns"/></defs><g class="bglayer"/><g class="layer-below"><g class="imagelayer"/><g class="shapelayer"/></g><g class="cartesianlayer"/><g class="polarlayer"><g class="polar"><g class="polarsublayer draglayer"/><g class="polarsublayer plotbg"><path d="M160,0A160,160 0,1,0 -160,-1.9594348786357652e-14A160,160 0,1,0 160,3.9188697572715304e-14Z" transform="translate(317.5,260)" style="fill: rgb(17, 17, 17); fill-opacity: 1;"/></g><g class="polarsublayer backplot"><g class="maplayer"/></g><g class="polarsublayer angular-grid" style="fill: none;"><path class="angularaxisgrid" d="M317.5,260L317.5,100" style="stroke: rgb(80, 103, 132); stroke-opacity: 1; stroke-width: 1px;"/><path class="angularaxisgrid" d="M317.5,260L430.6370849898476,146.8629150101524" style="stroke: rgb(80, 103, 132); stroke-opacity: 1; stroke-width: 1px;"/><path class="angularaxisgrid" d="M317.5,260L477.5,260" style="stroke: rgb(80, 103, 132); stroke-opacity: 1; stroke-width: 1px;"/><path class="angularaxisgrid" d="M317.5,260L430.6370849898476,373.1370849898476" style="stroke: rgb(80, 103, 132); stroke-opacity: 1; stroke-width: 1px;"/><path class="angularaxisgrid" d="M317.5,260L317.5,420" style="stroke: rgb(80, 103, 132); stroke-opacity: 1; stroke-width: 1px;"/><path class="angularaxisgrid" d="M317.5,260L204.3629150101524,373.1370849898476" style="stroke: rgb(80, 103, 132); stroke-opacity: 1; stroke-width: 1px;"/><path class="angularaxisgrid" d="M317.5,260L157.5,260" style="stroke: rgb(80, 103, 132); stroke-opacity: 1; stroke-width: 1px;"/><path class="angularaxisgrid" d="M317.5,260L204.36291501015236,146.8629150101524" style="stroke: rgb(80, 103, 132); stroke-opacity: 1; stroke-width: 1px;"/></g><g class="polarsublayer radial-grid" transform="translate(317.5,260)" style="fill: none;"><path class="xgrid" d="M35.46,0A35.46,35.46 0,1,0 -35.46,-4.3425975497765146e-15A35.46,35.46 0,1,0 35.46,8.685195099553029e-15Z" style="stroke: rgb(80, 103, 132); stroke-opacity: 1; stroke-width: 1px;"/><path class="xgrid" d="M70.92,0A70.92,70.92 0,1,0 -70.92,-8.685195099553029e-15A70.92,70.92 0,1,0 70.92,1.7370390199106058e-14Z" style="stroke: rgb(80, 103, 132); stroke-opacity: 1; stroke-width: 1px;"/><path class="xgrid" d="M106.38,0A106.38,106.38 0,1,0 -106.38,-1.3027792649329543e-14A106.38,106.38 0,1,0 106.38,2.6055585298659086e-14Z" style="stroke: rgb(80, 103, 132); stroke-opacity: 1; stroke-width: 1px;"/><path class="xgrid" d="M141.84,0A141.84,141.84 0,1,0 -141.84,-1.7370390199106058e-14A141.84,141.84 0,1,0 141.84,3.4740780398212117e-14Z" style="stroke: rgb(80, 103, 132); stroke-opacity: 1; stroke-width: 1px;"/></g><g class="polarsublayer frontplot" transform="translate(157.5,100)" clip-path="url(#clip2a9b54polar-for-traces)"><g class="barlayer"><g class="trace bars" style="opacity: 1;"><g class="points"><g class="point" style="vector-effect: non-scaling-stroke; stroke-miterlimit: 2;"><path d="M160,160L160.77791358742928,150.11567069107153A9.914893617021276,9.914893617021276 0,0,0 159.22208641257072,150.11567069107153L160,160A0,0 0,0,1 160,160Z" style="opacity: 1; stroke-width: 0.5px; fill: rgb(240, 249, 33); fill-opacity: 1; stroke: rgb(17, 17, 17); stroke-opacity: 1;"/></g><g class="point" style="vector-effect: non-scaling-stroke; stroke-miterlimit: 2;"><path d="M160,160L161.5786370468397,153.89586345889265A6.304964539007092,6.304964539007092 0,0,0 160.60430407085445,153.72406226703248L160,160A0,0 0,0,1 160,160Z" style="opacity: 1; stroke-width: 0.5px; fill: rgb(240, 249, 33); fill-opacity: 1; stroke: rgb(17, 17, 17); stroke-opacity: 1;"/></g><g class="point" style="vector-effect: non-scaling-stroke; stroke-miterlimit: 2;"><path d="M160,160L162.78226813867235,153.8948697712822A6.709219858156028,6.709219858156028 0,0,0 161.79296101964562,153.5347914274088L160,160A0,0 0,0,1 160,160Z" style="opacity: 1; stroke-width: 0.5px; fill: rgb(240, 249, 33); fill-opacity: 1; stroke: rgb(17, 17, 17); stroke-opacity: 1;"/></g><g class="point" style="vector-effect: non-scaling-stroke; stroke-miterlimit: 2;"><path d="M160,160L164.43484032315612,153.5472672890872A7.829787234042553,7.829787234042553 0,0,0 163.37081028990326,152.9329492629628L160,160A0,0 0,0,1 160,160Z" style="opacity: 1; stroke-width: 0.5px; fill: rgb(240, 249, 33); fill-opacity: 1; stroke: rgb(17, 17, 17); stroke-opacity: 1;"/></g><g class="point" style="vector-effect: non-scaling-stroke; stroke-miterlimit: 2;"><path d="M160,160L166.37777720635964,153.50992676407932A9.099290780141844,9.099290780141844 0,0,0 165.28398505090166,152.59212616984993L160,160A0,0 0,0,1 160,160Z" style="opacity: 1; stroke-width: 0.5px; fill: rgb(240, 249, 33); fill-opacity: 1; stroke: rgb(17, 17, 17); stroke-opacity: 1;"/></g><g class="point" style="vector-effect: non-scaling-stroke; stroke-miterlimit: 2;"><path d="M160,160L167.97371298475232,154.31240580257582A9.794326241134751,9.794326241134751 0,0,0 166.98580759065194,153.13506600001352L160,160A0,0 0,0,1 160,160Z" style="opacity: 1; stroke-width: 0.5px; fill: rgb(240, 249, 33); fill-opacity: 1; stroke: rgb(17, 17, 17); stroke-opacity: 1;"/></g><g class="point" style="vector-effect: non-scaling-stroke; stroke-miterlimit: 2;"><path d="M160,160L168.68658319760823,155.85671235199393A9.624113475177305,9.624113475177305 0,0,0 167.93148395716366,154.54884210278723L160,160A0,0 0,0,1 160,160Z" style="opacity: 1; stroke-width: 0.5px; fill: rgb(240, 249, 33); fill-opacity: 1; stroke: rgb(17, 17, 17); stroke-opacity: 1;"/></g><g class="point" style="vector-effect: non-scaling-stroke; stroke-miterlimit: 2;"><path d="M160,160L169.75932118568733,157.29350070184574A10.127659574468085,10.127659574468085 0,0,0 169.21577797738797,155.80012801054534L160,160A0,0 0,0,1 160,160Z" style="opacity: 1; stroke-width: 0.5px; fill: rgb(240, 249, 33); fill-opacity: 1; stroke: rgb(17, 17, 17); stroke-opacity: 1;"/></g><g class="point" style="vector-effect: non-scaling-stroke; stroke-miterlimit: 2;"><path d="M160,160L169.4244959207105,159.0925242580532A9.46808510638298,9.46808510638298 0,0,0 169.1665042546438,157.62938081267603L160,160A0,0 0,0,1 160,160Z" style="opacity: 1; stroke-width: 0.5px; fill: rgb(240, 249, 33); fill-opacity: 1; stroke: rgb(17, 17, 17); stroke-opacity: 1;"/></g><g class="point" style="vector-effect: non-scaling-stroke; stroke-miterlimit: 2;"><path d="M160,160L169.3469837957106,160.73562357838446A9.375886524822695,9.375886524822695 0,0,0 169.3469837957106,159.26437642161554L160,160A0,0 0,0,1 160,160Z" style="opacity: 1; stroke-width: 0.5px; fill: rgb(240, 249, 33); fill-opacity: 1; stroke: rgb(17, 17, 17); stroke-opacity: 1;"/></g><g class="point" style="vector-effect: non-scaling-stroke; stroke-miterlimit: 2;"><path d="M160,160L167.7108496464157,161.9941613088875A7.964539007092198,7.964539007092198 0,0,0 167.92787184940667,160.76336723461142L160,160A0,0 0,0,1 160,160Z" style="opacity: 1; stroke-width: 0.5px; fill: rgb(240, 249, 33); fill-opacity: 1; stroke: rgb(17, 17, 17); stroke-opacity: 1;"/></g><g class="point" style="vector-effect: non-scaling-stroke; stroke-miterlimit: 2;"><path d="M160,160L166.5117086688967,162.96755660879535A7.156028368794326,7.156028368794326 0,0,0 166.89576686019504,161.91236540044653L160,160A0,0 0,0,1 160,160Z" style="opacity: 1; stroke-width: 0.5px; fill: rgb(240, 249, 33); fill-opacity: 1; stroke: rgb(17, 17, 17); stroke-opacity: 1;"/></g><g class="point" style="vector-effect: non-scaling-stroke; stroke-miterlimit: 2;"><path d="M160,160L165.47079512446956,163.75997331745847A6.638297872340425,6.638297872340425 0,0,0 165.99162997270545,162.85786089796144L160,160A0,0 0,0,1 160,160Z" style="opacity: 1; stroke-width: 0.5px; fill: rgb(240, 249, 33); fill-opacity: 1; stroke: rgb(17, 17, 17); stroke-opacity: 1;"/></g><g class="point" style="vector-effect: non-scaling-stroke; stroke-miterlimit: 2;"><path d="M160,160L164.29467823639646,164.22036854886932A6.0212765957446805,6.0212765957446805 0,0,0 164.90201471691145,163.49657311630205L160,160A0,0 0,0,1 160,160Z" style="opacity: 1; stroke-width: 0.5px; fill: rgb(240, 249, 33); fill-opacity: 1; stroke: rgb(17, 17, 17); stroke-opacity: 1;"/></g><g class="point" style="vector-effect: non-scaling-stroke; stroke-miterlimit: 2;"><path d="M160,160L163.33183468915,164.67105995993094A5.73758865248227,5.73758865248227 0,0,0 164.02152904126652,164.09233768344492L160,160A0,0 0,0,1 160,160Z" style="opacity: 1; stroke-width: 0.5px; fill: rgb(240, 249, 33); fill-opacity: 1; stroke: rgb(17, 17, 17); stroke-opacity: 1;"/></g><g class="point" style="vector-effect: non-scaling-stroke; stroke-miterlimit: 2;"><path d="M160,160L162.30216572335783,164.82659081134605A5.347517730496453,5.347517730496453 0,0,0 163.0288673946193,164.4070294058227L160,160A0,0 0,0,1 160,160Z" style="opacity: 1; stroke-width: 0.5px; fill: rgb(240, 249, 33); fill-opacity: 1; stroke: rgb(17, 17, 17); stroke-opacity: 1;"/></g><g class="point" style="vector-effect: non-scaling-stroke; stroke-miterlimit: 2;"><path d="M160,160L161.55604756567553,165.61092625591687A5.822695035460993,5.822695035460993 0,0,0 162.4146322852537,165.29842697439463L160,160A0,0 0,0,1 160,160Z" style="opacity: 1; stroke-width: 0.5px; fill: rgb(240, 249, 33); fill-opacity: 1; stroke: rgb(17, 17, 17); stroke-opacity: 1;"/></g><g class="point" style="vector-effect: non-scaling-stroke; stroke-miterlimit: 2;"><path d="M160,160L160.56079961580983,165.8241266925739A5.8510638297872335,5.8510638297872335 0,0,0 161.46498938542493,165.6646936405102L160,160A0,0 0,0,1 160,160Z" style="opacity: 1; stroke-width: 0.5px; fill: rgb(240, 249, 33); fill-opacity: 1; stroke: rgb(17, 17, 17); stroke-opacity: 1;"/></g><g class="point" style="vector-effect: non-scaling-stroke; stroke-miterlimit: 2;"><path d="M160,160L159.51867292337172,166.11584038070322A6.134751773049645,6.134751773049645 0,0,0 160.48132707662828,166.11584038070322L160,160A0,0 0,0,1 160,160Z" style="opacity: 1; stroke-width: 0.5px; fill: rgb(240, 249, 33); fill-opacity: 1; stroke: rgb(17, 17, 17); stroke-opacity: 1;"/></g><g class="point" style="vector-effect: non-scaling-stroke; stroke-miterlimit: 2;"><path d="M160,160L158.2171523115556,166.89376050311787A7.120567375886525,7.120567375886525 0,0,0 159.3175238614872,167.08778569617482L160,160A0,0 0,0,1 160,160Z" style="opacity: 1; stroke-width: 0.5px; fill: rgb(240, 249, 33); fill-opacity: 1; stroke: rgb(17, 17, 17); stroke-opacity: 1;"/></g><g class="point" style="vector-effect: non-scaling-stroke; stroke-miterlimit: 2;"><path d="M160,160L156.8148029659808,166.989276995456A7.680851063829787,7.680851063829787 0,0,0 157.94738183480317,167.40150199166624L160,160A0,0 0,0,1 160,160Z" style="opacity: 1; stroke-width: 0.5px; fill: rgb(240, 249, 33); fill-opacity: 1; stroke: rgb(17, 17, 17); stroke-opacity: 1;"/></g><g class="point" style="vector-effect: non-scaling-stroke; stroke-miterlimit: 2;"><path d="M160,160L155.54105728378323,166.48780191042863A7.872340425531915,7.872340425531915 0,0,0 156.61087008895598,167.10545862147762L160,160A0,0 0,0,1 160,160Z" style="opacity: 1; stroke-width: 0.5px; fill: rgb(240, 249, 33); fill-opacity: 1; stroke: rgb(17, 17, 17); stroke-opacity: 1;"/></g><g class="point" style="vector-effect: non-scaling-stroke; stroke-miterlimit: 2;"><path d="M160,160L154.51700057785294,165.57954074763873A7.822695035460993,7.822695035460993 0,0,0 155.4573378712825,166.36857742373772L160,160A0,0 0,0,1 160,160Z" style="opacity: 1; stroke-width: 0.5px; fill: rgb(240, 249, 33); fill-opacity: 1; stroke: rgb(17, 17, 17); stroke-opacity: 1;"/></g><g class="point" style="vector-effect: non-scaling-stroke; stroke-miterlimit: 2;"><path d="M160,160L154.7631008854668,163.7354438356725A6.432624113475177,6.432624113475177 0,0,0 155.4119279618238,164.50868583489336L160,160A0,0 0,0,1 160,160Z" style="opacity: 1; stroke-width: 0.5px; fill: rgb(240, 249, 33); fill-opacity: 1; stroke: rgb(17, 17, 17); stroke-opacity: 1;"/></g><g class="point" style="vector-effect: non-scaling-stroke; stroke-miterlimit: 2;"><path d="M160,160L154.80213297239655,162.47925539438535A5.75886524822695,5.75886524822695 0,0,0 155.25396833219094,163.26185719420542L160,160A0,0 0,0,1 160,160Z" style="opacity: 1; stroke-width: 0.5px; fill: rgb(240, 249, 33); fill-opacity: 1; stroke: rgb(17, 17, 17); stroke-opacity: 1;"/></g><g class="point" style="vector-effect: non-scaling-stroke; stroke-miterlimit: 2;"><path d="M160,160L155.1681792168901,161.3399824956548A5.01418439716312,5.01418439716312 0,0,0 155.4372863935481,162.0793483869359L160,160A0,0 0,0,1 160,160Z" style="opacity: 1; stroke-width: 0.5px; fill: rgb(240, 249, 33); fill-opacity: 1; stroke: rgb(17, 17, 17); stroke-opacity: 1;"/></g><g class="point" style="vector-effect: non-scaling-stroke; stroke-miterlimit: 2;"><path d="M160,160L155.17832905329942,160.46427410617952A4.843971631205673,4.843971631205673 0,0,0 155.31032029518974,161.21283363666086L160,160A0,0 0,0,1 160,160Z" style="opacity: 1; stroke-width: 0.5px; fill: rgb(240, 249, 33); fill-opacity: 1; stroke: rgb(17, 17, 17); stroke-opacity: 1;"/></g><g class="point" style="vector-effect: non-scaling-stroke; stroke-miterlimit: 2;"><path d="M160,160L155.4679148161494,159.6433171605564A4.546099290780142,4.546099290780142 0,0,0 155.4679148161494,160.3566828394436L160,160A0,0 0,0,1 160,160Z" style="opacity: 1; stroke-width: 0.5px; fill: rgb(240, 249, 33); fill-opacity: 1; stroke: rgb(17, 17, 17); stroke-opacity: 1;"/></g><g class="point" style="vector-effect: non-scaling-stroke; stroke-miterlimit: 2;"><path d="M160,160L155.92142057883265,158.94520764249407A4.212765957446808,4.212765957446808 0,0,0 155.80662878134677,159.59622427661694L160,160A0,0 0,0,1 160,160Z" style="opacity: 1; stroke-width: 0.5px; fill: rgb(240, 249, 33); fill-opacity: 1; stroke: rgb(17, 17, 17); stroke-opacity: 1;"/></g><g class="point" style="vector-effect: non-scaling-stroke; stroke-miterlimit: 2;"><path d="M160,160L156.07619537097207,158.21181920897166A4.3120567375886525,4.3120567375886525 0,0,0 155.84477081169615,158.8476529598895L160,160A0,0 0,0,1 160,160Z" style="opacity: 1; stroke-width: 0.5px; fill: rgb(240, 249, 33); fill-opacity: 1; stroke: rgb(17, 17, 17); stroke-opacity: 1;"/></g><g class="point" style="vector-effect: non-scaling-stroke; stroke-miterlimit: 2;"><path d="M160,160L156.80285797747345,157.80266516597246A3.879432624113475,3.879432624113475 0,0,0 156.49848120184842,158.329861205999L160,160A0,0 0,0,1 160,160Z" style="opacity: 1; stroke-width: 0.5px; fill: rgb(240, 249, 33); fill-opacity: 1; stroke: rgb(17, 17, 17); stroke-opacity: 1;"/></g><g class="point" style="vector-effect: non-scaling-stroke; stroke-miterlimit: 2;"><path d="M160,160L156.84854588777975,156.90307466908646A4.418439716312057,4.418439716312057 0,0,0 156.40287966002847,157.434198997107L160,160A0,0 0,0,1 160,160Z" style="opacity: 1; stroke-width: 0.5px; fill: rgb(240, 249, 33); fill-opacity: 1; stroke: rgb(17, 17, 17); stroke-opacity: 1;"/></g><g class="point" style="vector-effect: non-scaling-stroke; stroke-miterlimit: 2;"><path d="M160,160L157.1294329068757,155.9756133596145A4.943262411347518,4.943262411347518 0,0,0 156.5352215800213,156.4742158648194L160,160A0,0 0,0,1 160,160Z" style="opacity: 1; stroke-width: 0.5px; fill: rgb(240, 249, 33); fill-opacity: 1; stroke: rgb(17, 17, 17); stroke-opacity: 1;"/></g><g class="point" style="vector-effect: non-scaling-stroke; stroke-miterlimit: 2;"><path d="M160,160L157.89019029862035,155.57669197527835A4.900709219858156,4.900709219858156 0,0,0 157.2242077325173,155.96119718909353L160,160A0,0 0,0,1 160,160Z" style="opacity: 1; stroke-width: 0.5px; fill: rgb(240, 249, 33); fill-opacity: 1; stroke: rgb(17, 17, 17); stroke-opacity: 1;"/></g><g class="point" style="vector-effect: non-scaling-stroke; stroke-miterlimit: 2;"><path d="M160,160L158.6164254288147,155.01099127062201A5.177304964539007,5.177304964539007 0,0,0 157.85300661603506,155.28885299475266L160,160A0,0 0,0,1 160,160Z" style="opacity: 1; stroke-width: 0.5px; fill: rgb(240, 249, 33); fill-opacity: 1; stroke: rgb(17, 17, 17); stroke-opacity: 1;"/></g><g class="point" style="vector-effect: non-scaling-stroke; stroke-miterlimit: 2;"><path d="M160,160L159.46027285460244,154.39471928011673A5.631205673758865,5.631205673758865 0,0,0 158.59005870057285,154.54816151446653L160,160A0,0 0,0,1 160,160Z" style="opacity: 1; stroke-width: 0.5px; fill: rgb(240, 249, 33); fill-opacity: 1; stroke: rgb(17, 17, 17); stroke-opacity: 1;"/></g></g></g><g class="trace bars" style="opacity: 1;"><g class="points"><g class="point" style="vector-effect: non-scaling-stroke; stroke-miterlimit: 2;"><path d="M160.77791358742928,150.11567069107153L161.8218090738508,136.85172091743078A23.21985815602837,23.21985815602837 0,0,0 158.1781909261492,136.85172091743078L159.22208641257072,150.11567069107153A9.914893617021276,9.914893617021276 0,0,1 160.77791358742928,150.11567069107153Z" style="opacity: 1; stroke-width: 0.5px; fill: rgb(253, 202, 38); fill-opacity: 1; stroke: rgb(17, 17, 17); stroke-opacity: 1;"/></g><g class="point" style="vector-effect: non-scaling-stroke; stroke-miterlimit: 2;"><path d="M161.5786370468397,153.89586345889265L164.65422688387724,142.00343996148212A18.588652482269502,18.588652482269502 0,0,0 161.78164338550005,141.49692598638032L160.60430407085445,153.72406226703248A6.304964539007092,6.304964539007092 0,0,1 161.5786370468397,153.89586345889265Z" style="opacity: 1; stroke-width: 0.5px; fill: rgb(253, 202, 38); fill-opacity: 1; stroke: rgb(17, 17, 17); stroke-opacity: 1;"/></g><g class="point" style="vector-effect: non-scaling-stroke; stroke-miterlimit: 2;"><path d="M162.78226813867235,153.8948697712822L169.03501873361677,140.1744608217536A21.78723404255319,21.78723404255319 0,0,0 165.82238504476882,139.00515778541214L161.79296101964562,153.5347914274088A6.709219858156028,6.709219858156028 0,0,1 162.78226813867235,153.8948697712822Z" style="opacity: 1; stroke-width: 0.5px; fill: rgb(253, 202, 38); fill-opacity: 1; stroke: rgb(17, 17, 17); stroke-opacity: 1;"/></g><g class="point" style="vector-effect: non-scaling-stroke; stroke-miterlimit: 2;"><path d="M164.43484032315612,153.5472672890872L176.96005058366416,135.3229732740273A29.94326241134752,29.94326241134752 0,0,0 172.89090674272782,132.9736519820914L163.37081028990326,152.9329492629628A7.829787234042553,7.829787234042553 0,0,1 164.43484032315612,153.5472672890872Z" style="opacity: 1; stroke-width: 0.5px; fill: rgb(253, 202, 38); fill-opacity: 1; stroke: rgb(17, 17, 17); stroke-opacity: 1;"/></g><g class="point" style="vector-effect: non-scaling-stroke; stroke-miterlimit: 2;"><path d="M166.37777720635964,153.50992676407932L187.41002612304524,132.10735477563009A39.1063829787234,39.1063829787234 0,0,0 182.70919218290868,128.16288675023586L165.28398505090166,152.59212616984993A9.099290780141844,9.099290780141844 0,0,1 166.37777720635964,153.50992676407932Z" style="opacity: 1; stroke-width: 0.5px; fill: rgb(253, 202, 38); fill-opacity: 1; stroke: rgb(17, 17, 17); stroke-opacity: 1;"/></g><g class="point" style="vector-effect: non-scaling-stroke; stroke-miterlimit: 2;"><path d="M167.97371298475232,154.31240580257582L202.09150445969905,129.97642165154076A51.702127659574465,51.702127659574465 0,0,0 196.87656577541833,123.7614997393907L166.98580759065194,153.13506600001352A9.794326241134751,9.794326241134751 0,0,1 167.97371298475232,154.31240580257582Z" style="opacity: 1; stroke-width: 0.5px; fill: rgb(253, 202, 38); fill-opacity: 1; stroke: rgb(17, 17, 17); stroke-opacity: 1;"/></g><g class="point" style="vector-effect: non-scaling-stroke; stroke-miterlimit: 2;"><path d="M168.68658319760823,155.85671235199393L210.65359826284003,135.83947298550328A56.12056737588652,56.12056737588652 0,0,0 206.2504292947944,128.21296061853758L167.93148395716366,154.54884210278723A9.624113475177305,9.624113475177305 0,0,1 168.68658319760823,155.85671235199393Z" style="opacity: 1; stroke-width: 0.5px; fill: rgb(253, 202, 38); fill-opacity: 1; stroke: rgb(17, 17, 17); stroke-opacity: 1;"/></g><g class="point" style="vector-effect: non-scaling-stroke; stroke-miterlimit: 2;"><path d="M169.75932118568733,157.29350070184574L215.90423480316693,144.49638357219757A58.01418439716312,58.01418439716312 0,0,0 212.79066096290867,135.94190975228344L169.21577797738797,155.80012801054534A10.127659574468085,10.127659574468085 0,0,1 169.75932118568733,157.29350070184574Z" style="opacity: 1; stroke-width: 0.5px; fill: rgb(253, 202, 38); fill-opacity: 1; stroke: rgb(17, 17, 17); stroke-opacity: 1;"/></g><g class="point" style="vector-effect: non-scaling-stroke; stroke-miterlimit: 2;"><path d="M169.4244959207105,159.0925242580532L216.9493697321137,154.51639939304505A57.212765957446805,57.212765957446805 0,0,0 215.39040436120706,145.67506742760867L169.1665042546438,157.62938081267603A9.46808510638298,9.46808510638298 0,0,1 169.4244959207105,159.0925242580532Z" style="opacity: 1; stroke-width: 0.5px; fill: rgb(253, 202, 38); fill-opacity: 1; stroke: rgb(17, 17, 17); stroke-opacity: 1;"/></g><g class="point" style="vector-effect: non-scaling-stroke; stroke-miterlimit: 2;"><path d="M169.3469837957106,160.73562357838446L210.62360361368223,163.9841640100097A50.78014184397163,50.78014184397163 0,0,0 210.62360361368223,156.01583598999028L169.3469837957106,159.26437642161554A9.375886524822695,9.375886524822695 0,0,1 169.3469837957106,160.73562357838446Z" style="opacity: 1; stroke-width: 0.5px; fill: rgb(253, 202, 38); fill-opacity: 1; stroke: rgb(17, 17, 17); stroke-opacity: 1;"/></g><g class="point" style="vector-effect: non-scaling-stroke; stroke-miterlimit: 2;"><path d="M167.7108496464157,161.9941613088875L197.30458248350538,169.64762100728922A38.53191489361702,38.53191489361702 0,0,0 198.35452160091407,163.69312037902395L167.92787184940667,160.76336723461142A7.964539007092198,7.964539007092198 0,0,1 167.7108496464157,161.9941613088875Z" style="opacity: 1; stroke-width: 0.5px; fill: rgb(253, 202, 38); fill-opacity: 1; stroke: rgb(17, 17, 17); stroke-opacity: 1;"/></g><g class="point" style="vector-effect: non-scaling-stroke; stroke-miterlimit: 2;"><path d="M166.5117086688967,162.96755660879535L185.19495603902146,171.48200297397133A27.68794326241135,27.68794326241135 0,0,0 186.68094531437208,167.39928099439373L166.89576686019504,161.91236540044653A7.156028368794326,7.156028368794326 0,0,1 166.5117086688967,162.96755660879535Z" style="opacity: 1; stroke-width: 0.5px; fill: rgb(253, 202, 38); fill-opacity: 1; stroke: rgb(17, 17, 17); stroke-opacity: 1;"/></g><g class="point" style="vector-effect: non-scaling-stroke; stroke-miterlimit: 2;"><path d="M165.47079512446956,163.75997331745847L176.80983630125473,171.55308040706254A20.397163120567374,20.397163120567374 0,0,0 178.4101792751078,168.78120506681316L165.99162997270545,162.85786089796144A6.638297872340425,6.638297872340425 0,0,1 165.47079512446956,163.75997331745847Z" style="opacity: 1; stroke-width: 0.5px; fill: rgb(253, 202, 38); fill-opacity: 1; stroke: rgb(17, 17, 17); stroke-opacity: 1;"/></g><g class="point" style="vector-effect: non-scaling-stroke; stroke-miterlimit: 2;"><path d="M164.29467823639646,164.22036854886932L171.1034378432158,170.91131797970334A15.567375886524822,15.567375886524822 0,0,0 172.6736422893058,169.04002118996817L164.90201471691145,163.49657311630205A6.0212765957446805,6.0212765957446805 0,0,1 164.29467823639646,164.22036854886932Z" style="opacity: 1; stroke-width: 0.5px; fill: rgb(253, 202, 38); fill-opacity: 1; stroke: rgb(17, 17, 17); stroke-opacity: 1;"/></g><g class="point" style="vector-effect: non-scaling-stroke; stroke-miterlimit: 2;"><path d="M163.33183468915,164.67105995993094L168.42225208814804,171.8075619506289A14.50354609929078,14.50354609929078 0,0,0 170.16566982619287,170.34466076964753L164.02152904126652,164.09233768344492A5.73758865248227,5.73758865248227 0,0,1 163.33183468915,164.67105995993094Z" style="opacity: 1; stroke-width: 0.5px; fill: rgb(253, 202, 38); fill-opacity: 1; stroke: rgb(17, 17, 17); stroke-opacity: 1;"/></g><g class="point" style="vector-effect: non-scaling-stroke; stroke-miterlimit: 2;"><path d="M162.30216572335783,164.82659081134605L165.9325039794221,172.43775324462254A13.78014184397163,13.78014184397163 0,0,0 167.8051582861344,171.35657577654308L163.0288673946193,164.4070294058227A5.347517730496453,5.347517730496453 0,0,1 162.30216572335783,164.82659081134605Z" style="opacity: 1; stroke-width: 0.5px; fill: rgb(253, 202, 38); fill-opacity: 1; stroke: rgb(17, 17, 17); stroke-opacity: 1;"/></g><g class="point" style="vector-effect: non-scaling-stroke; stroke-miterlimit: 2;"><path d="M161.55604756567553,165.61092625591687L164.1943157890864,175.124214134402A15.695035460992907,15.695035460992907 0,0,0 166.5086251489238,174.28187441453753L162.4146322852537,165.29842697439463A5.822695035460993,5.822695035460993 0,0,1 161.55604756567553,165.61092625591687Z" style="opacity: 1; stroke-width: 0.5px; fill: rgb(253, 202, 38); fill-opacity: 1; stroke: rgb(17, 17, 17); stroke-opacity: 1;"/></g><g class="point" style="vector-effect: non-scaling-stroke; stroke-miterlimit: 2;"><path d="M160.56079961580983,165.8241266925739L161.72794257380434,177.9453697606338A18.02836879432624,18.02836879432624 0,0,0 164.5139430518184,177.45412270809325L161.46498938542493,165.6646936405102A5.8510638297872335,5.8510638297872335 0,0,1 160.56079961580983,165.8241266925739Z" style="opacity: 1; stroke-width: 0.5px; fill: rgb(253, 202, 38); fill-opacity: 1; stroke: rgb(17, 17, 17); stroke-opacity: 1;"/></g><g class="point" style="vector-effect: non-scaling-stroke; stroke-miterlimit: 2;"><path d="M159.51867292337172,166.11584038070322L158.24273883469124,182.32812014134197A22.397163120567374,22.397163120567374 0,0,0 161.75726116530876,182.32812014134197L160.48132707662828,166.11584038070322A6.134751773049645,6.134751773049645 0,0,1 159.51867292337172,166.11584038070322Z" style="opacity: 1; stroke-width: 0.5px; fill: rgb(253, 202, 38); fill-opacity: 1; stroke: rgb(17, 17, 17); stroke-opacity: 1;"/></g><g class="point" style="vector-effect: non-scaling-stroke; stroke-miterlimit: 2;"><path d="M158.2171523115556,166.89376050311787L153.09945605847122,186.68242362063353A27.56028368794326,27.56028368794326 0,0,0 157.35846387025822,187.4334016088997L159.3175238614872,167.08778569617482A7.120567375886525,7.120567375886525 0,0,1 158.2171523115556,166.89376050311787Z" style="opacity: 1; stroke-width: 0.5px; fill: rgb(253, 202, 38); fill-opacity: 1; stroke: rgb(17, 17, 17); stroke-opacity: 1;"/></g><g class="point" style="vector-effect: non-scaling-stroke; stroke-miterlimit: 2;"><path d="M156.8148029659808,166.989276995456L145.69749475860078,191.38398340618886A34.48936170212766,34.48936170212766 0,0,0 150.78311898674778,193.2349992478974L157.94738183480317,167.40150199166624A7.680851063829787,7.680851063829787 0,0,1 156.8148029659808,166.989276995456Z" style="opacity: 1; stroke-width: 0.5px; fill: rgb(253, 202, 38); fill-opacity: 1; stroke: rgb(17, 17, 17); stroke-opacity: 1;"/></g><g class="point" style="vector-effect: non-scaling-stroke; stroke-miterlimit: 2;"><path d="M155.54105728378323,166.48780191042863L136.47606437282394,194.2275387274505A41.53191489361702,41.53191489361702 0,0,0 142.12004976660015,197.48609521384952L156.61087008895598,167.10545862147762A7.872340425531915,7.872340425531915 0,0,1 155.54105728378323,166.48780191042863Z" style="opacity: 1; stroke-width: 0.5px; fill: rgb(253, 202, 38); fill-opacity: 1; stroke: rgb(17, 17, 17); stroke-opacity: 1;"/></g><g class="point" style="vector-effect: non-scaling-stroke; stroke-miterlimit: 2;"><path d="M154.51700057785294,165.57954074763873L129.14507940773635,191.39819530425535A44.02127659574468,44.02127659574468 0,0,0 134.43671456668224,195.8384044144516L155.4573378712825,166.36857742373772A7.822695035460993,7.822695035460993 0,0,1 154.51700057785294,165.57954074763873Z" style="opacity: 1; stroke-width: 0.5px; fill: rgb(253, 202, 38); fill-opacity: 1; stroke: rgb(17, 17, 17); stroke-opacity: 1;"/></g><g class="point" style="vector-effect: non-scaling-stroke; stroke-miterlimit: 2;"><path d="M154.7631008854668,163.7354438356725L125.35678645292259,184.71076407280597A42.5531914893617,42.5531914893617 0,0,0 129.64891705726887,189.8259261404192L155.4119279618238,164.50868583489336A6.432624113475177,6.432624113475177 0,0,1 154.7631008854668,163.7354438356725Z" style="opacity: 1; stroke-width: 0.5px; fill: rgb(253, 202, 38); fill-opacity: 1; stroke: rgb(17, 17, 17); stroke-opacity: 1;"/></g><g class="point" style="vector-effect: non-scaling-stroke; stroke-miterlimit: 2;"><path d="M154.80213297239655,162.47925539438535L124.06302279191407,177.14105884738842A39.81560283687943,39.81560283687943 0,0,0 127.18691898635464,182.55180577373056L155.25396833219094,163.26185719420542A5.75886524822695,5.75886524822695 0,0,1 154.80213297239655,162.47925539438535Z" style="opacity: 1; stroke-width: 0.5px; fill: rgb(253, 202, 38); fill-opacity: 1; stroke: rgb(17, 17, 17); stroke-opacity: 1;"/></g><g class="point" style="vector-effect: non-scaling-stroke; stroke-miterlimit: 2;"><path d="M155.1681792168901,161.3399824956548L121.20874856445289,170.75776611787367A40.25531914893617,40.25531914893617 0,0,0 123.36921862769321,176.69360883203413L155.4372863935481,162.0793483869359A5.01418439716312,5.01418439716312 0,0,1 155.1681792168901,161.3399824956548Z" style="opacity: 1; stroke-width: 0.5px; fill: rgb(253, 202, 38); fill-opacity: 1; stroke: rgb(17, 17, 17); stroke-opacity: 1;"/></g><g class="point" style="vector-effect: non-scaling-stroke; stroke-miterlimit: 2;"><path d="M155.17832905329942,160.46427410617952L117.84744184077712,164.05882970424295A42.347517730496456,42.347517730496456 0,0,0 119.00135063334977,170.6029716610572L155.31032029518974,161.21283363666086A4.843971631205673,4.843971631205673 0,0,1 155.17832905329942,160.46427410617952Z" style="opacity: 1; stroke-width: 0.5px; fill: rgb(253, 202, 38); fill-opacity: 1; stroke: rgb(17, 17, 17); stroke-opacity: 1;"/></g><g class="point" style="vector-effect: non-scaling-stroke; stroke-miterlimit: 2;"><path d="M155.4679148161494,159.6433171605564L123.89886591460035,157.15877912917463A36.212765957446805,36.212765957446805 0,0,0 123.89886591460035,162.84122087082534L155.4679148161494,160.3566828394436A4.546099290780142,4.546099290780142 0,0,1 155.4679148161494,159.6433171605564Z" style="opacity: 1; stroke-width: 0.5px; fill: rgb(253, 202, 38); fill-opacity: 1; stroke: rgb(17, 17, 17); stroke-opacity: 1;"/></g><g class="point" style="vector-effect: non-scaling-stroke; stroke-miterlimit: 2;"><path d="M155.92142057883265,158.94520764249407L134.15526440862982,153.31609691304314A26.69503546099291,26.69503546099291 0,0,0 133.42786318685063,157.44139423768706L155.80662878134677,159.59622427661694A4.212765957446808,4.212765957446808 0,0,1 155.92142057883265,158.94520764249407Z" style="opacity: 1; stroke-width: 0.5px; fill: rgb(253, 202, 38); fill-opacity: 1; stroke: rgb(17, 17, 17); stroke-opacity: 1;"/></g><g class="point" style="vector-effect: non-scaling-stroke; stroke-miterlimit: 2;"><path d="M156.07619537097207,158.21181920897166L141.09087571866473,151.38261559586678A20.78014184397163,20.78014184397163 0,0,0 139.97562249715415,154.44674863894116L155.84477081169615,158.8476529598895A4.3120567375886525,4.3120567375886525 0,0,1 156.07619537097207,158.21181920897166Z" style="opacity: 1; stroke-width: 0.5px; fill: rgb(253, 202, 38); fill-opacity: 1; stroke: rgb(17, 17, 17); stroke-opacity: 1;"/></g><g class="point" style="vector-effect: non-scaling-stroke; stroke-miterlimit: 2;"><path d="M156.80285797747345,157.80266516597246L145.40536813482856,149.9693874212673A17.70921985815603,17.70921985815603 0,0,0 144.01591875871205,152.375984335246L156.49848120184842,158.329861205999A3.879432624113475,3.879432624113475 0,0,1 156.80285797747345,157.80266516597246Z" style="opacity: 1; stroke-width: 0.5px; fill: rgb(253, 202, 38); fill-opacity: 1; stroke: rgb(17, 17, 17); stroke-opacity: 1;"/></g><g class="point" style="vector-effect: non-scaling-stroke; stroke-miterlimit: 2;"><path d="M156.84854588777975,156.90307466908646L147.4447686893569,147.6620085532466A17.602836879432623,17.602836879432623 0,0,0 145.66925732935897,149.77798059521592L156.40287966002847,157.434198997107A4.418439716312057,4.418439716312057 0,0,1 156.84854588777975,156.90307466908646Z" style="opacity: 1; stroke-width: 0.5px; fill: rgb(253, 202, 38); fill-opacity: 1; stroke: rgb(17, 17, 17); stroke-opacity: 1;"/></g><g class="point" style="vector-effect: non-scaling-stroke; stroke-miterlimit: 2;"><path d="M157.1294329068757,155.9756133596145L149.27552839240224,144.9648453205684A18.46808510638298,18.46808510638298 0,0,0 147.05554805505807,146.82763000285468L156.5352215800213,156.4742158648194A4.943262411347518,4.943262411347518 0,0,1 157.1294329068757,155.9756133596145Z" style="opacity: 1; stroke-width: 0.5px; fill: rgb(253, 202, 38); fill-opacity: 1; stroke: rgb(17, 17, 17); stroke-opacity: 1;"/></g><g class="point" style="vector-effect: non-scaling-stroke; stroke-miterlimit: 2;"><path d="M157.89019029862035,155.57669197527835L152.1805750430777,143.60623465801424A18.163120567375888,18.163120567375888 0,0,0 149.71229522862058,145.03129667332638L157.2242077325173,155.96119718909353A4.900709219858156,4.900709219858156 0,0,1 157.89019029862035,155.57669197527835Z" style="opacity: 1; stroke-width: 0.5px; fill: rgb(253, 202, 38); fill-opacity: 1; stroke: rgb(17, 17, 17); stroke-opacity: 1;"/></g><g class="point" style="vector-effect: non-scaling-stroke; stroke-miterlimit: 2;"><path d="M158.6164254288147,155.01099127062201L155.40766960824385,143.44059157358515A17.18439716312057,17.18439716312057 0,0,0 152.87374661733284,144.36286411819955L157.85300661603506,155.28885299475266A5.177304964539007,5.177304964539007 0,0,1 158.6164254288147,155.01099127062201Z" style="opacity: 1; stroke-width: 0.5px; fill: rgb(253, 202, 38); fill-opacity: 1; stroke: rgb(17, 17, 17); stroke-opacity: 1;"/></g><g class="point" style="vector-effect: non-scaling-stroke; stroke-miterlimit: 2;"><path d="M159.46027285460244,154.39471928011673L158.31080358146983,142.45702444721675A17.624113475177303,17.624113475177303 0,0,0 155.58727439662917,142.93725612525108L158.59005870057285,154.54816151446653A5.631205673758865,5.631205673758865 0,0,1 159.46027285460244,154.39471928011673Z" style="opacity: 1; stroke-width: 0.5px; fill: rgb(253, 202, 38); fill-opacity: 1; stroke: rgb(17, 17, 17); stroke-opacity: 1;"/></g></g></g><g class="trace bars" style="opacity: 1;"><g class="points"><g class="point" style="vector-effect: non-scaling-stroke; stroke-miterlimit: 2;"><path d="M161.8218090738508,136.85172091743078L162.07443623314472,133.6417885095241A26.43971631205674,26.43971631205674 0,0,0 157.92556376685528,133.6417885095241L158.1781909261492,136.85172091743078A23.21985815602837,23.21985815602837 0,0,1 161.8218090738508,136.85172091743078Z" style="opacity: 1; stroke-width: 0.5px; fill: rgb(251, 159, 58); fill-opacity: 1; stroke: rgb(17, 17, 17); stroke-opacity: 1;"/></g><g class="point" style="vector-effect: non-scaling-stroke; stroke-miterlimit: 2;"><path d="M164.65422688387724,142.00343996148212L165.31480391585066,139.44917810176116A21.22695035460993,21.22695035460993 0,0,0 162.03451303044702,138.87077431409244L161.78164338550005,141.49692598638032A18.588652482269502,18.588652482269502 0,0,1 164.65422688387724,142.00343996148212Z" style="opacity: 1; stroke-width: 0.5px; fill: rgb(251, 159, 58); fill-opacity: 1; stroke: rgb(17, 17, 17); stroke-opacity: 1;"/></g><g class="point" style="vector-effect: non-scaling-stroke; stroke-miterlimit: 2;"><path d="M169.03501873361677,140.1744608217536L170.0467526022249,137.95441346585622A24.22695035460993,24.22695035460993 0,0,0 166.4743708700945,136.65417284992444L165.82238504476882,139.00515778541214A21.78723404255319,21.78723404255319 0,0,1 169.03501873361677,140.1744608217536Z" style="opacity: 1; stroke-width: 0.5px; fill: rgb(251, 159, 58); fill-opacity: 1; stroke: rgb(17, 17, 17); stroke-opacity: 1;"/></g><g class="point" style="vector-effect: non-scaling-stroke; stroke-miterlimit: 2;"><path d="M176.96005058366416,135.3229732740273L179.398409348298,131.77513925634247A34.248226950354606,34.248226950354606 0,0,0 174.74424174813657,129.08805433953563L172.89090674272782,132.9736519820914A29.94326241134752,29.94326241134752 0,0,1 176.96005058366416,135.3229732740273Z" style="opacity: 1; stroke-width: 0.5px; fill: rgb(251, 159, 58); fill-opacity: 1; stroke: rgb(17, 17, 17); stroke-opacity: 1;"/></g><g class="point" style="vector-effect: non-scaling-stroke; stroke-miterlimit: 2;"><path d="M187.41002612304524,132.10735477563009L192.05789961326056,127.37764435038781A45.737588652482266,45.737588652482266 0,0,0 186.5599529175876,122.7643193058163L182.70919218290868,128.16288675023586A39.1063829787234,39.1063829787234 0,0,1 187.41002612304524,132.10735477563009Z" style="opacity: 1; stroke-width: 0.5px; fill: rgb(251, 159, 58); fill-opacity: 1; stroke: rgb(17, 17, 17); stroke-opacity: 1;"/></g><g class="point" style="vector-effect: non-scaling-stroke; stroke-miterlimit: 2;"><path d="M202.09150445969905,129.97642165154076L210.40587571099763,124.04583827406734A61.91489361702128,61.91489361702128 0,0,0 204.1608256816738,116.6032774656901L196.87656577541833,123.7614997393907A51.702127659574465,51.702127659574465 0,0,1 202.09150445969905,129.97642165154076Z" style="opacity: 1; stroke-width: 0.5px; fill: rgb(251, 159, 58); fill-opacity: 1; stroke: rgb(17, 17, 17); stroke-opacity: 1;"/></g><g class="point" style="vector-effect: non-scaling-stroke; stroke-miterlimit: 2;"><path d="M210.65359826284003,135.83947298550328L222.22717410755317,130.31916048174867A68.94326241134752,68.94326241134752 0,0,0 216.8179480822313,120.95010617626738L206.2504292947944,128.21296061853758A56.12056737588652,56.12056737588652 0,0,1 210.65359826284003,135.83947298550328Z" style="opacity: 1; stroke-width: 0.5px; fill: rgb(251, 159, 58); fill-opacity: 1; stroke: rgb(17, 17, 17); stroke-opacity: 1;"/></g><g class="point" style="vector-effect: non-scaling-stroke; stroke-miterlimit: 2;"><path d="M215.90423480316693,144.49638357219757L236.08580025228085,138.89954013560825A78.95744680851064,78.95744680851064 0,0,0 231.8482186430394,127.25688035112121L212.79066096290867,135.94190975228344A58.01418439716312,58.01418439716312 0,0,1 215.90423480316693,144.49638357219757Z" style="opacity: 1; stroke-width: 0.5px; fill: rgb(251, 159, 58); fill-opacity: 1; stroke: rgb(17, 17, 17); stroke-opacity: 1;"/></g><g class="point" style="vector-effect: non-scaling-stroke; stroke-miterlimit: 2;"><path d="M216.9493697321137,154.51639939304505L253.5531235515025,150.99185877731907A93.98581560283688,93.98581560283688 0,0,0 250.99214560489847,136.4678311083017L215.39040436120706,145.67506742760867A57.212765957446805,57.212765957446805 0,0,1 216.9493697321137,154.51639939304505Z" style="opacity: 1; stroke-width: 0.5px; fill: rgb(251, 159, 58); fill-opacity: 1; stroke: rgb(17, 17, 17); stroke-opacity: 1;"/></g><g class="point" style="vector-effect: non-scaling-stroke; stroke-miterlimit: 2;"><path d="M210.62360361368223,163.9841640100097L242.44011426473952,166.48817770345156A82.69503546099291,82.69503546099291 0,0,0 242.44011426473952,153.51182229654842L210.62360361368223,156.01583598999028A50.78014184397163,50.78014184397163 0,0,1 210.62360361368223,163.9841640100097Z" style="opacity: 1; stroke-width: 0.5px; fill: rgb(251, 159, 58); fill-opacity: 1; stroke: rgb(17, 17, 17); stroke-opacity: 1;"/></g><g class="point" style="vector-effect: non-scaling-stroke; stroke-miterlimit: 2;"><path d="M197.30458248350538,169.64762100728922L212.8155436155206,173.6590283062891A54.5531914893617,54.5531914893617 0,0,0 214.30203941730736,165.22869169067775L198.35452160091407,163.69312037902395A38.53191489361702,38.53191489361702 0,0,1 197.30458248350538,169.64762100728922Z" style="opacity: 1; stroke-width: 0.5px; fill: rgb(251, 159, 58); fill-opacity: 1; stroke: rgb(17, 17, 17); stroke-opacity: 1;"/></g><g class="point" style="vector-effect: non-scaling-stroke; stroke-miterlimit: 2;"><path d="M185.19495603902146,171.48200297397133L190.09971182530637,173.71722896275674A33.07801418439716,33.07801418439716 0,0,0 191.8749817997519,168.83971479453186L186.68094531437208,167.39928099439373A27.68794326241135,27.68794326241135 0,0,1 185.19495603902146,171.48200297397133Z" style="opacity: 1; stroke-width: 0.5px; fill: rgb(251, 159, 58); fill-opacity: 1; stroke: rgb(17, 17, 17); stroke-opacity: 1;"/></g><g class="point" style="vector-effect: non-scaling-stroke; stroke-miterlimit: 2;"><path d="M176.80983630125473,171.55308040706254L178.04894801748074,172.40469829520484A21.900709219858154,21.900709219858154 0,0,0 179.7672578586693,169.42849834712067L178.4101792751078,168.78120506681316A20.397163120567374,20.397163120567374 0,0,1 176.80983630125473,171.55308040706254Z" style="opacity: 1; stroke-width: 0.5px; fill: rgb(251, 159, 58); fill-opacity: 1; stroke: rgb(17, 17, 17); stroke-opacity: 1;"/></g><g class="point" style="vector-effect: non-scaling-stroke; stroke-miterlimit: 2;"><path d="M171.1034378432158,170.91131797970334L171.7610446403083,171.55754637941243A16.48936170212766,16.48936170212766 0,0,0 173.4242452494925,169.57542107821232L172.6736422893058,169.04002118996817A15.567375886524822,15.567375886524822 0,0,1 171.1034378432158,170.91131797970334Z" style="opacity: 1; stroke-width: 0.5px; fill: rgb(251, 159, 58); fill-opacity: 1; stroke: rgb(17, 17, 17); stroke-opacity: 1;"/></g><g class="point" style="vector-effect: non-scaling-stroke; stroke-miterlimit: 2;"><path d="M168.42225208814804,171.8075619506289L168.84645353806454,172.40227044985372A15.23404255319149,15.23404255319149 0,0,0 170.67768155827008,170.86568769349773L170.16566982619287,170.34466076964753A14.50354609929078,14.50354609929078 0,0,1 168.42225208814804,171.8075619506289Z" style="opacity: 1; stroke-width: 0.5px; fill: rgb(251, 159, 58); fill-opacity: 1; stroke: rgb(17, 17, 17); stroke-opacity: 1;"/></g><g class="point" style="vector-effect: non-scaling-stroke; stroke-miterlimit: 2;"><path d="M165.9325039794221,172.43775324462254L166.3111094829982,173.23151618972454A14.659574468085106,14.659574468085106 0,0,0 168.30327440938743,172.08133923320358L167.8051582861344,171.35657577654308A13.78014184397163,13.78014184397163 0,0,1 165.9325039794221,172.43775324462254Z" style="opacity: 1; stroke-width: 0.5px; fill: rgb(251, 159, 58); fill-opacity: 1; stroke: rgb(17, 17, 17); stroke-opacity: 1;"/></g><g class="point" style="vector-effect: non-scaling-stroke; stroke-miterlimit: 2;"><path d="M164.1943157890864,175.124214134402L164.45207762700585,176.05367329494365A16.659574468085108,16.659574468085108 0,0,0 166.9086129574433,175.15956755524113L166.5086251489238,174.28187441453753A15.695035460992907,15.695035460992907 0,0,1 164.1943157890864,175.124214134402Z" style="opacity: 1; stroke-width: 0.5px; fill: rgb(251, 159, 58); fill-opacity: 1; stroke: rgb(17, 17, 17); stroke-opacity: 1;"/></g><g class="point" style="vector-effect: non-scaling-stroke; stroke-miterlimit: 2;"><path d="M161.72794257380434,177.9453697606338L161.88564622334115,179.58318478206067A19.673758865248228,19.673758865248228 0,0,0 164.92591582444697,179.04710322275795L164.5139430518184,177.45412270809325A18.02836879432624,18.02836879432624 0,0,1 161.72794257380434,177.9453697606338Z" style="opacity: 1; stroke-width: 0.5px; fill: rgb(251, 159, 58); fill-opacity: 1; stroke: rgb(17, 17, 17); stroke-opacity: 1;"/></g><g class="point" style="vector-effect: non-scaling-stroke; stroke-miterlimit: 2;"><path d="M158.24273883469124,182.32812014134197L158.03963550177875,184.90879267192773A24.98581560283688,24.98581560283688 0,0,0 161.96036449822125,184.90879267192773L161.75726116530876,182.32812014134197A22.397163120567374,22.397163120567374 0,0,1 158.24273883469124,182.32812014134197Z" style="opacity: 1; stroke-width: 0.5px; fill: rgb(251, 159, 58); fill-opacity: 1; stroke: rgb(17, 17, 17); stroke-opacity: 1;"/></g><g class="point" style="vector-effect: non-scaling-stroke; stroke-miterlimit: 2;"><path d="M153.09945605847122,186.68242362063353L152.2044807248298,190.1430364628361A31.134751773049643,31.134751773049643 0,0,0 157.01586628678166,190.9914135519994L157.35846387025822,187.4334016088997A27.56028368794326,27.56028368794326 0,0,1 153.09945605847122,186.68242362063353Z" style="opacity: 1; stroke-width: 0.5px; fill: rgb(251, 159, 58); fill-opacity: 1; stroke: rgb(17, 17, 17); stroke-opacity: 1;"/></g><g class="point" style="vector-effect: non-scaling-stroke; stroke-miterlimit: 2;"><path d="M145.69749475860078,191.38398340618886L143.7210844106221,195.72082010143026A39.25531914893617,39.25531914893617 0,0,0 149.5094722582046,197.8276209823385L150.78311898674778,193.2349992478974A34.48936170212766,34.48936170212766 0,0,1 145.69749475860078,191.38398340618886Z" style="opacity: 1; stroke-width: 0.5px; fill: rgb(251, 159, 58); fill-opacity: 1; stroke: rgb(17, 17, 17); stroke-opacity: 1;"/></g><g class="point" style="vector-effect: non-scaling-stroke; stroke-miterlimit: 2;"><path d="M136.47606437282394,194.2275387274505L132.8205347586282,199.5463673206848A47.98581560283688,47.98581560283688 0,0,0 139.34157389358208,203.3112910206465L142.12004976660015,197.48609521384952A41.53191489361702,41.53191489361702 0,0,1 136.47606437282394,194.2275387274505Z" style="opacity: 1; stroke-width: 0.5px; fill: rgb(251, 159, 58); fill-opacity: 1; stroke: rgb(17, 17, 17); stroke-opacity: 1;"/></g><g class="point" style="vector-effect: non-scaling-stroke; stroke-miterlimit: 2;"><path d="M129.14507940773635,191.39819530425535L121.9769151586556,198.6925722381584A54.248226950354606,54.248226950354606 0,0,0 128.49789426785122,204.16432340359918L134.43671456668224,195.8384044144516A44.02127659574468,44.02127659574468 0,0,1 129.14507940773635,191.39819530425535Z" style="opacity: 1; stroke-width: 0.5px; fill: rgb(251, 159, 58); fill-opacity: 1; stroke: rgb(17, 17, 17); stroke-opacity: 1;"/></g><g class="point" style="vector-effect: non-scaling-stroke; stroke-miterlimit: 2;"><path d="M125.35678645292259,184.71076407280597L108.61834044075971,196.65018158065004A63.11347517730496,63.11347517730496 0,0,0 114.98428548210595,204.23681945393173L129.64891705726887,189.8259261404192A42.5531914893617,42.5531914893617 0,0,1 125.35678645292259,184.71076407280597Z" style="opacity: 1; stroke-width: 0.5px; fill: rgb(251, 159, 58); fill-opacity: 1; stroke: rgb(17, 17, 17); stroke-opacity: 1;"/></g><g class="point" style="vector-effect: non-scaling-stroke; stroke-miterlimit: 2;"><path d="M124.06302279191407,177.14105884738842L88.65735465192058,194.0286962689961A79.04255319148936,79.04255319148936 0,0,0 94.85896189934493,204.77019511012242L127.18691898635464,182.55180577373056A39.81560283687943,39.81560283687943 0,0,1 124.06302279191407,177.14105884738842Z" style="opacity: 1; stroke-width: 0.5px; fill: rgb(251, 159, 58); fill-opacity: 1; stroke: rgb(17, 17, 17); stroke-opacity: 1;"/></g><g class="point" style="vector-effect: non-scaling-stroke; stroke-miterlimit: 2;"><path d="M121.20874856445289,170.75776611787367L65.03114341995018,186.3371948509465A98.5531914893617,98.5531914893617 0,0,0 70.32041262340113,200.86934255284467L123.36921862769321,176.69360883203413A40.25531914893617,40.25531914893617 0,0,1 121.20874856445289,170.75776611787367Z" style="opacity: 1; stroke-width: 0.5px; fill: rgb(251, 159, 58); fill-opacity: 1; stroke: rgb(17, 17, 17); stroke-opacity: 1;"/></g><g class="point" style="vector-effect: non-scaling-stroke; stroke-miterlimit: 2;"><path d="M117.84744184077712,164.05882970424295L52.89960478419525,170.31259511691A107.59574468085106,107.59574468085106 0,0,0 55.831433672508695,186.93982298943206L119.00135063334977,170.6029716610572A42.347517730496456,42.347517730496456 0,0,1 117.84744184077712,164.05882970424295Z" style="opacity: 1; stroke-width: 0.5px; fill: rgb(251, 159, 58); fill-opacity: 1; stroke: rgb(17, 17, 17); stroke-opacity: 1;"/></g><g class="point" style="vector-effect: non-scaling-stroke; stroke-miterlimit: 2;"><path d="M123.89886591460035,157.15877912917463L80.19712095144811,153.71937720936035A80.04964539007092,80.04964539007092 0,0,0 80.19712095144811,166.2806227906396L123.89886591460035,162.84122087082534A36.212765957446805,36.212765957446805 0,0,1 123.89886591460035,157.15877912917463Z" style="opacity: 1; stroke-width: 0.5px; fill: rgb(251, 159, 58); fill-opacity: 1; stroke: rgb(17, 17, 17); stroke-opacity: 1;"/></g><g class="point" style="vector-effect: non-scaling-stroke; stroke-miterlimit: 2;"><path d="M134.15526440862982,153.31609691304314L105.60520846045837,145.9325504105015A56.184397163120565,56.184397163120565 0,0,0 104.07426465627809,154.61496417400556L133.42786318685063,157.44139423768706A26.69503546099291,26.69503546099291 0,0,1 134.15526440862982,153.31609691304314Z" style="opacity: 1; stroke-width: 0.5px; fill: rgb(251, 159, 58); fill-opacity: 1; stroke: rgb(17, 17, 17); stroke-opacity: 1;"/></g><g class="point" style="vector-effect: non-scaling-stroke; stroke-miterlimit: 2;"><path d="M141.09087571866473,151.38261559586678L123.26596061113983,143.25933377872826A40.36879432624114,40.36879432624114 0,0,0 121.09940042791857,149.21190896001815L139.97562249715415,154.44674863894116A20.78014184397163,20.78014184397163 0,0,1 141.09087571866473,151.38261559586678Z" style="opacity: 1; stroke-width: 0.5px; fill: rgb(251, 159, 58); fill-opacity: 1; stroke: rgb(17, 17, 17); stroke-opacity: 1;"/></g><g class="point" style="vector-effect: non-scaling-stroke; stroke-miterlimit: 2;"><path d="M145.40536813482856,149.9693874212673L133.6688760301973,141.90311987697606A31.95035460992908,31.95035460992908 0,0,0 131.1620800993183,146.24501779346545L144.01591875871205,152.375984335246A17.70921985815603,17.70921985815603 0,0,1 145.40536813482856,149.9693874212673Z" style="opacity: 1; stroke-width: 0.5px; fill: rgb(251, 159, 58); fill-opacity: 1; stroke: rgb(17, 17, 17); stroke-opacity: 1;"/></g><g class="point" style="vector-effect: non-scaling-stroke; stroke-miterlimit: 2;"><path d="M147.4447686893569,147.6620085532466L139.00210911745387,139.36543009852A29.43971631205674,29.43971631205674 0,0,0 136.03267009434694,142.90426972229707L145.66925732935897,149.77798059521592A17.602836879432623,17.602836879432623 0,0,1 147.4447686893569,147.6620085532466Z" style="opacity: 1; stroke-width: 0.5px; fill: rgb(251, 159, 58); fill-opacity: 1; stroke: rgb(17, 17, 17); stroke-opacity: 1;"/></g><g class="point" style="vector-effect: non-scaling-stroke; stroke-miterlimit: 2;"><path d="M149.27552839240224,144.9648453205684L143.99154334150055,137.55697149041833A27.56737588652482,27.56737588652482 0,0,0 140.67777084869843,140.33755676693403L147.05554805505807,146.82763000285468A18.46808510638298,18.46808510638298 0,0,1 149.27552839240224,144.9648453205684Z" style="opacity: 1; stroke-width: 0.5px; fill: rgb(251, 159, 58); fill-opacity: 1; stroke: rgb(17, 17, 17); stroke-opacity: 1;"/></g><g class="point" style="vector-effect: non-scaling-stroke; stroke-miterlimit: 2;"><path d="M152.1805750430777,143.60623465801424L149.46621784405235,137.91546644675873A24.46808510638298,24.46808510638298 0,0,0 146.14112399013706,139.83521027839748L149.71229522862058,145.03129667332638A18.163120567375888,18.163120567375888 0,0,1 152.1805750430777,143.60623465801424Z" style="opacity: 1; stroke-width: 0.5px; fill: rgb(251, 159, 58); fill-opacity: 1; stroke: rgb(17, 17, 17); stroke-opacity: 1;"/></g><g class="point" style="vector-effect: non-scaling-stroke; stroke-miterlimit: 2;"><path d="M155.40766960824385,143.44059157358515L154.2382647994475,139.22385405848075A21.56028368794326,21.56028368794326 0,0,0 151.0590960448584,140.38097685486034L152.87374661733284,144.36286411819955A17.18439716312057,17.18439716312057 0,0,1 155.40766960824385,143.44059157358515Z" style="opacity: 1; stroke-width: 0.5px; fill: rgb(251, 159, 58); fill-opacity: 1; stroke: rgb(17, 17, 17); stroke-opacity: 1;"/></g><g class="point" style="vector-effect: non-scaling-stroke; stroke-miterlimit: 2;"><path d="M158.31080358146983,142.45702444721675L157.9627679411127,138.84253612406783A21.25531914893617,21.25531914893617 0,0,0 154.67809310531092,139.42171292047385L155.58727439662917,142.93725612525108A17.624113475177303,17.624113475177303 0,0,1 158.31080358146983,142.45702444721675Z" style="opacity: 1; stroke-width: 0.5px; fill: rgb(251, 159, 58); fill-opacity: 1; stroke: rgb(17, 17, 17); stroke-opacity: 1;"/></g></g></g><g class="trace bars" style="opacity: 1;"><g class="points"><g class="point" style="vector-effect: non-scaling-stroke; stroke-miterlimit: 2;"><path d="M162.07443623314472,133.6417885095241L162.08222649796878,133.54280380972082A26.53900709219858,26.53900709219858 0,0,0 157.91777350203122,133.54280380972082L157.92556376685528,133.6417885095241A26.43971631205674,26.43971631205674 0,0,1 162.07443623314472,133.6417885095241Z" style="opacity: 1; stroke-width: 0.5px; fill: rgb(237, 121, 83); fill-opacity: 1; stroke: rgb(17, 17, 17); stroke-opacity: 1;"/></g><g class="point" style="vector-effect: non-scaling-stroke; stroke-miterlimit: 2;"><path d="M165.31480391585066,139.44917810176116L165.3236826393987,139.414846625152A21.26241134751773,21.26241134751773 0,0,0 162.03791181599738,138.8354765765617L162.03451303044702,138.87077431409244A21.22695035460993,21.22695035460993 0,0,1 165.31480391585066,139.44917810176116Z" style="opacity: 1; stroke-width: 0.5px; fill: rgb(237, 121, 83); fill-opacity: 1; stroke: rgb(17, 17, 17); stroke-opacity: 1;"/></g><g class="point" style="vector-effect: non-scaling-stroke; stroke-miterlimit: 2;"><path d="M170.0467526022249,137.95441346585622L170.064399123189,137.9156917096487A24.26950354609929,24.26950354609929 0,0,0 166.48574271588507,136.61316729872405L166.4743708700945,136.65417284992444A24.22695035460993,24.22695035460993 0,0,1 170.0467526022249,137.95441346585622Z" style="opacity: 1; stroke-width: 0.5px; fill: rgb(237, 121, 83); fill-opacity: 1; stroke: rgb(17, 17, 17); stroke-opacity: 1;"/></g><g class="point" style="vector-effect: non-scaling-stroke; stroke-miterlimit: 2;"><path d="M179.398409348298,131.77513925634247L179.43054587237884,131.72838032365468A34.30496453900709,34.30496453900709 0,0,0 174.7686679096576,129.0368438269484L174.74424174813657,129.08805433953563A34.248226950354606,34.248226950354606 0,0,1 179.398409348298,131.77513925634247Z" style="opacity: 1; stroke-width: 0.5px; fill: rgb(237, 121, 83); fill-opacity: 1; stroke: rgb(17, 17, 17); stroke-opacity: 1;"/></g><g class="point" style="vector-effect: non-scaling-stroke; stroke-miterlimit: 2;"><path d="M192.05789961326056,127.37764435038781L192.1175514655414,127.31694218450235A45.82269503546099,45.82269503546099 0,0,0 186.6093744457332,122.69503287872215L186.5599529175876,122.7643193058163A45.737588652482266,45.737588652482266 0,0,1 192.05789961326056,127.37764435038781Z" style="opacity: 1; stroke-width: 0.5px; fill: rgb(237, 121, 83); fill-opacity: 1; stroke: rgb(17, 17, 17); stroke-opacity: 1;"/></g><g class="point" style="vector-effect: non-scaling-stroke; stroke-miterlimit: 2;"><path d="M210.40587571099763,124.04583827406734L210.64260433690265,123.87698138623651A62.205673758865245,62.205673758865245 0,0,0 204.36822474844914,116.39946697039723L204.1608256816738,116.6032774656901A61.91489361702128,61.91489361702128 0,0,1 210.40587571099763,124.04583827406734Z" style="opacity: 1; stroke-width: 0.5px; fill: rgb(237, 121, 83); fill-opacity: 1; stroke: rgb(17, 17, 17); stroke-opacity: 1;"/></g><g class="point" style="vector-effect: non-scaling-stroke; stroke-miterlimit: 2;"><path d="M222.22717410755317,130.31916048174867L222.82889763045307,130.03215308387647A69.60992907801418,69.60992907801418 0,0,0 217.36736554131264,120.5725020183175L216.8179480822313,120.95010617626738A68.94326241134752,68.94326241134752 0,0,1 222.22717410755317,130.31916048174867Z" style="opacity: 1; stroke-width: 0.5px; fill: rgb(237, 121, 83); fill-opacity: 1; stroke: rgb(17, 17, 17); stroke-opacity: 1;"/></g><g class="point" style="vector-effect: non-scaling-stroke; stroke-miterlimit: 2;"><path d="M236.08580025228085,138.89954013560825L238.9835258704401,138.09592969974173A81.9645390070922,81.9645390070922 0,0,0 234.58455608170362,126.00985953632514L231.8482186430394,127.25688035112121A78.95744680851064,78.95744680851064 0,0,1 236.08580025228085,138.89954013560825Z" style="opacity: 1; stroke-width: 0.5px; fill: rgb(237, 121, 83); fill-opacity: 1; stroke: rgb(17, 17, 17); stroke-opacity: 1;"/></g><g class="point" style="vector-effect: non-scaling-stroke; stroke-miterlimit: 2;"><path d="M253.5531235515025,150.99185877731907L260.8385765778495,150.29034943972422A101.30496453900709,101.30496453900709 0,0,0 258.0781623770276,134.63526256798835L250.99214560489847,136.4678311083017A93.98581560283688,93.98581560283688 0,0,1 253.5531235515025,150.99185877731907Z" style="opacity: 1; stroke-width: 0.5px; fill: rgb(237, 121, 83); fill-opacity: 1; stroke: rgb(17, 17, 17); stroke-opacity: 1;"/></g><g class="point" style="vector-effect: non-scaling-stroke; stroke-miterlimit: 2;"><path d="M242.44011426473952,166.48817770345156L248.11052349632794,166.93444858837165A88.38297872340425,88.38297872340425 0,0,0 248.11052349632794,153.06555141162835L242.44011426473952,153.51182229654842A82.69503546099291,82.69503546099291 0,0,1 242.44011426473952,166.48817770345156Z" style="opacity: 1; stroke-width: 0.5px; fill: rgb(237, 121, 83); fill-opacity: 1; stroke: rgb(17, 17, 17); stroke-opacity: 1;"/></g><g class="point" style="vector-effect: non-scaling-stroke; stroke-miterlimit: 2;"><path d="M212.8155436155206,173.6590283062891L214.1407386126339,174.00174703524306A55.92198581560284,55.92198581560284 0,0,0 215.66453208599438,165.35988481292173L214.30203941730736,165.22869169067775A54.5531914893617,54.5531914893617 0,0,1 212.8155436155206,173.6590283062891Z" style="opacity: 1; stroke-width: 0.5px; fill: rgb(237, 121, 83); fill-opacity: 1; stroke: rgb(17, 17, 17); stroke-opacity: 1;"/></g><g class="point" style="vector-effect: non-scaling-stroke; stroke-miterlimit: 2;"><path d="M190.09971182530637,173.71722896275674L190.36431049272437,173.83781352267803A33.36879432624114,33.36879432624114 0,0,0 192.15518639962107,168.91742240743403L191.8749817997519,168.83971479453186A33.07801418439716,33.07801418439716 0,0,1 190.09971182530637,173.71722896275674Z" style="opacity: 1; stroke-width: 0.5px; fill: rgb(237, 121, 83); fill-opacity: 1; stroke: rgb(17, 17, 17); stroke-opacity: 1;"/></g><g class="point" style="vector-effect: non-scaling-stroke; stroke-miterlimit: 2;"><path d="M178.04894801748074,172.40469829520484L178.1190864165124,172.4529030813261A21.98581560283688,21.98581560283688 0,0,0 179.84407362755013,169.46513758940222L179.7672578586693,169.42849834712067A21.900709219858154,21.900709219858154 0,0,1 178.04894801748074,172.40469829520484Z" style="opacity: 1; stroke-width: 0.5px; fill: rgb(237, 121, 83); fill-opacity: 1; stroke: rgb(17, 17, 17); stroke-opacity: 1;"/></g><g class="point" style="vector-effect: non-scaling-stroke; stroke-miterlimit: 2;"><path d="M171.7610446403083,171.55754637941243L171.81668829236997,171.6122272440032A16.56737588652482,16.56737588652482 0,0,0 173.48775780766215,169.6207241456791L173.4242452494925,169.57542107821232A16.48936170212766,16.48936170212766 0,0,1 171.7610446403083,171.55754637941243Z" style="opacity: 1; stroke-width: 0.5px; fill: rgb(237, 121, 83); fill-opacity: 1; stroke: rgb(17, 17, 17); stroke-opacity: 1;"/></g><g class="point" style="vector-effect: non-scaling-stroke; stroke-miterlimit: 2;"><path d="M168.84645353806454,172.40227044985372L168.89999352688895,172.4773307458724A15.326241134751772,15.326241134751772 0,0,0 170.74230439824098,170.931448373207L170.67768155827008,170.86568769349773A15.23404255319149,15.23404255319149 0,0,1 168.84645353806454,172.40227044985372Z" style="opacity: 1; stroke-width: 0.5px; fill: rgb(237, 121, 83); fill-opacity: 1; stroke: rgb(17, 17, 17); stroke-opacity: 1;"/></g><g class="point" style="vector-effect: non-scaling-stroke; stroke-miterlimit: 2;"><path d="M166.3111094829982,173.23151618972454L166.33248237432912,173.27632538823838A14.709219858156027,14.709219858156027 0,0,0 168.33139386795818,172.12225329930538L168.30327440938743,172.08133923320358A14.659574468085106,14.659574468085106 0,0,1 166.3111094829982,173.23151618972454Z" style="opacity: 1; stroke-width: 0.5px; fill: rgb(237, 121, 83); fill-opacity: 1; stroke: rgb(17, 17, 17); stroke-opacity: 1;"/></g><g class="point" style="vector-effect: non-scaling-stroke; stroke-miterlimit: 2;"><path d="M164.45207762700585,176.05367329494365L164.47482131858698,176.1356843973444A16.74468085106383,16.74468085106383 0,0,0 166.94390599937148,175.23701106765617L166.9086129574433,175.15956755524113A16.659574468085108,16.659574468085108 0,0,1 164.45207762700585,176.05367329494365Z" style="opacity: 1; stroke-width: 0.5px; fill: rgb(237, 121, 83); fill-opacity: 1; stroke: rgb(17, 17, 17); stroke-opacity: 1;"/></g><g class="point" style="vector-effect: non-scaling-stroke; stroke-miterlimit: 2;"><path d="M161.88564622334115,179.58318478206067L161.88632598045123,179.59024432956681A19.680851063829788,19.680851063829788 0,0,0 164.92769156915656,179.05396951807978L164.92591582444697,179.04710322275795A19.673758865248228,19.673758865248228 0,0,1 161.88564622334115,179.58318478206067Z" style="opacity: 1; stroke-width: 0.5px; fill: rgb(237, 121, 83); fill-opacity: 1; stroke: rgb(17, 17, 17); stroke-opacity: 1;"/></g><g class="point" style="vector-effect: non-scaling-stroke; stroke-miterlimit: 2;"><path d="M158.03963550177875,184.90879267192773L158.03407102690443,184.97949602893007A25.05673758865248,25.05673758865248 0,0,0 161.96592897309557,184.97949602893007L161.96036449822125,184.90879267192773A24.98581560283688,24.98581560283688 0,0,1 158.03963550177875,184.90879267192773Z" style="opacity: 1; stroke-width: 0.5px; fill: rgb(237, 121, 83); fill-opacity: 1; stroke: rgb(17, 17, 17); stroke-opacity: 1;"/></g><g class="point" style="vector-effect: non-scaling-stroke; stroke-miterlimit: 2;"><path d="M152.2044807248298,190.1430364628361L152.1813960436049,190.23229830201993A31.22695035460993,31.22695035460993 0,0,0 157.00702944435074,191.08318766957936L157.01586628678166,190.9914135519994A31.134751773049643,31.134751773049643 0,0,1 152.2044807248298,190.1430364628361Z" style="opacity: 1; stroke-width: 0.5px; fill: rgb(237, 121, 83); fill-opacity: 1; stroke: rgb(17, 17, 17); stroke-opacity: 1;"/></g><g class="point" style="vector-effect: non-scaling-stroke; stroke-miterlimit: 2;"><path d="M143.7210844106221,195.72082010143026L143.67402702138452,195.82407811798362A39.36879432624114,39.36879432624114 0,0,0 149.47914733609642,197.9369691188728L149.5094722582046,197.8276209823385A39.25531914893617,39.25531914893617 0,0,1 143.7210844106221,195.72082010143026Z" style="opacity: 1; stroke-width: 0.5px; fill: rgb(237, 121, 83); fill-opacity: 1; stroke: rgb(17, 17, 17); stroke-opacity: 1;"/></g><g class="point" style="vector-effect: non-scaling-stroke; stroke-miterlimit: 2;"><path d="M132.8205347586282,199.5463673206848L132.6558350727139,199.78600685070964A48.27659574468085,48.27659574468085 0,0,0 139.21638981578675,203.573744897656L139.34157389358208,203.3112910206465A47.98581560283688,47.98581560283688 0,0,1 132.8205347586282,199.5463673206848Z" style="opacity: 1; stroke-width: 0.5px; fill: rgb(237, 121, 83); fill-opacity: 1; stroke: rgb(17, 17, 17); stroke-opacity: 1;"/></g><g class="point" style="vector-effect: non-scaling-stroke; stroke-miterlimit: 2;"><path d="M121.9769151586556,198.6925722381584L121.19149910362457,199.49181742231698A55.36879432624114,55.36879432624114 0,0,0 127.84717748060066,205.07659469367223L128.49789426785122,204.16432340359918A54.248226950354606,54.248226950354606 0,0,1 121.9769151586556,198.6925722381584Z" style="opacity: 1; stroke-width: 0.5px; fill: rgb(237, 121, 83); fill-opacity: 1; stroke: rgb(17, 17, 17); stroke-opacity: 1;"/></g><g class="point" style="vector-effect: non-scaling-stroke; stroke-miterlimit: 2;"><path d="M108.61834044075971,196.65018158065004L105.22330551314613,199.07183645978503A67.28368794326241,67.28368794326241 0,0,0 112.0098793537183,207.1597602156928L114.98428548210595,204.23681945393173A63.11347517730496,63.11347517730496 0,0,1 108.61834044075971,196.65018158065004Z" style="opacity: 1; stroke-width: 0.5px; fill: rgb(237, 121, 83); fill-opacity: 1; stroke: rgb(17, 17, 17); stroke-opacity: 1;"/></g><g class="point" style="vector-effect: non-scaling-stroke; stroke-miterlimit: 2;"><path d="M88.65735465192058,194.0286962689961L74.80491099707592,200.63597296043687A94.39007092198581,94.39007092198581 0,0,0 82.21067060730208,213.46312487399007L94.85896189934493,204.77019511012242A79.04255319148936,79.04255319148936 0,0,1 88.65735465192058,194.0286962689961Z" style="opacity: 1; stroke-width: 0.5px; fill: rgb(237, 121, 83); fill-opacity: 1; stroke: rgb(17, 17, 17); stroke-opacity: 1;"/></g><g class="point" style="vector-effect: non-scaling-stroke; stroke-miterlimit: 2;"><path d="M65.03114341995018,186.3371948509465L29.13761760256233,196.29135053295366A135.80141843971631,135.80141843971631 0,0,0 36.42596868975852,216.31593057008274L70.32041262340113,200.86934255284467A98.5531914893617,98.5531914893617 0,0,1 65.03114341995018,186.3371948509465Z" style="opacity: 1; stroke-width: 0.5px; fill: rgb(237, 121, 83); fill-opacity: 1; stroke: rgb(17, 17, 17); stroke-opacity: 1;"/></g><g class="point" style="vector-effect: non-scaling-stroke; stroke-miterlimit: 2;"><path d="M52.89960478419525,170.31259511691L17.171234855569054,173.75284585098697A143.48936170212767,143.48936170212767 0,0,0 21.081113048724234,195.92686696474786L55.831433672508695,186.93982298943206A107.59574468085106,107.59574468085106 0,0,1 52.89960478419525,170.31259511691Z" style="opacity: 1; stroke-width: 0.5px; fill: rgb(237, 121, 83); fill-opacity: 1; stroke: rgb(17, 17, 17); stroke-opacity: 1;"/></g><g class="point" style="vector-effect: non-scaling-stroke; stroke-miterlimit: 2;"><path d="M80.19712095144811,153.71937720936035L61.02237053241093,152.21029162344607A99.28368794326241,99.28368794326241 0,0,0 61.02237053241093,167.78970837655388L80.19712095144811,166.2806227906396A80.04964539007092,80.04964539007092 0,0,1 80.19712095144811,153.71937720936035Z" style="opacity: 1; stroke-width: 0.5px; fill: rgb(237, 121, 83); fill-opacity: 1; stroke: rgb(17, 17, 17); stroke-opacity: 1;"/></g><g class="point" style="vector-effect: non-scaling-stroke; stroke-miterlimit: 2;"><path d="M105.60520846045837,145.9325504105015L94.72899667067878,143.11977079048566A67.41843971631205,67.41843971631205 0,0,0 92.89194140653616,153.53822891165072L104.07426465627809,154.61496417400556A56.184397163120565,56.184397163120565 0,0,1 105.60520846045837,145.9325504105015Z" style="opacity: 1; stroke-width: 0.5px; fill: rgb(237, 121, 83); fill-opacity: 1; stroke: rgb(17, 17, 17); stroke-opacity: 1;"/></g><g class="point" style="vector-effect: non-scaling-stroke; stroke-miterlimit: 2;"><path d="M123.26596061113983,143.25933377872826L116.9091389670732,140.36236325378928A47.354609929078016,47.354609929078016 0,0,0 114.36765577252501,147.34503094273384L121.09940042791857,149.21190896001815A40.36879432624114,40.36879432624114 0,0,1 123.26596061113983,143.25933377872826Z" style="opacity: 1; stroke-width: 0.5px; fill: rgb(237, 121, 83); fill-opacity: 1; stroke: rgb(17, 17, 17); stroke-opacity: 1;"/></g><g class="point" style="vector-effect: non-scaling-stroke; stroke-miterlimit: 2;"><path d="M133.6688760301973,141.90311987697606L130.76982220355532,139.9106553839639A35.46808510638298,35.46808510638298 0,0,0 127.98702831891028,144.7305957791611L131.1620800993183,146.24501779346545A31.95035460992908,31.95035460992908 0,0,1 133.6688760301973,141.90311987697606Z" style="opacity: 1; stroke-width: 0.5px; fill: rgb(237, 121, 83); fill-opacity: 1; stroke: rgb(17, 17, 17); stroke-opacity: 1;"/></g><g class="point" style="vector-effect: non-scaling-stroke; stroke-miterlimit: 2;"><path d="M139.00210911745387,139.36543009852L137.63631038503095,138.02326342220113A31.354609929078013,31.354609929078013 0,0,0 134.47372548472848,141.7922853390208L136.03267009434694,142.90426972229707A29.43971631205674,29.43971631205674 0,0,1 139.00210911745387,139.36543009852Z" style="opacity: 1; stroke-width: 0.5px; fill: rgb(237, 121, 83); fill-opacity: 1; stroke: rgb(17, 17, 17); stroke-opacity: 1;"/></g><g class="point" style="vector-effect: non-scaling-stroke; stroke-miterlimit: 2;"><path d="M143.99154334150055,137.55697149041833L143.46026191393523,136.8121423991562A28.4822695035461,28.4822695035461 0,0,0 140.03651343667943,139.68500848366529L140.67777084869843,140.33755676693403A27.56737588652482,27.56737588652482 0,0,1 143.99154334150055,137.55697149041833Z" style="opacity: 1; stroke-width: 0.5px; fill: rgb(237, 121, 83); fill-opacity: 1; stroke: rgb(17, 17, 17); stroke-opacity: 1;"/></g><g class="point" style="vector-effect: non-scaling-stroke; stroke-miterlimit: 2;"><path d="M149.46621784405235,137.91546644675873L149.2647020115038,137.49297971791412A24.93617021276596,24.93617021276596 0,0,0 145.8759976664701,139.44944908372335L146.14112399013706,139.83521027839748A24.46808510638298,24.46808510638298 0,0,1 149.46621784405235,137.91546644675873Z" style="opacity: 1; stroke-width: 0.5px; fill: rgb(237, 121, 83); fill-opacity: 1; stroke: rgb(17, 17, 17); stroke-opacity: 1;"/></g><g class="point" style="vector-effect: non-scaling-stroke; stroke-miterlimit: 2;"><path d="M154.2382647994475,139.22385405848075L154.18709149338997,139.0393290780791A21.75177304964539,21.75177304964539 0,0,0 150.97968670051995,140.20672895192655L151.0590960448584,140.38097685486034A21.56028368794326,21.56028368794326 0,0,1 154.2382647994475,139.22385405848075Z" style="opacity: 1; stroke-width: 0.5px; fill: rgb(237, 121, 83); fill-opacity: 1; stroke: rgb(17, 17, 17); stroke-opacity: 1;"/></g><g class="point" style="vector-effect: non-scaling-stroke; stroke-miterlimit: 2;"><path d="M157.9627679411127,138.84253612406783L157.9498525560213,138.708404721451A21.390070921985814,21.390070921985814 0,0,0 154.64435395582842,139.29125330935906L154.67809310531092,139.42171292047385A21.25531914893617,21.25531914893617 0,0,1 157.9627679411127,138.84253612406783Z" style="opacity: 1; stroke-width: 0.5px; fill: rgb(237, 121, 83); fill-opacity: 1; stroke: rgb(17, 17, 17); stroke-opacity: 1;"/></g></g></g><g class="trace bars" style="opacity: 1;"><g class="points"><g class="point" style="vector-effect: non-scaling-stroke; stroke-miterlimit: 2;"><path d="M0,0Z" style="opacity: 1; stroke-width: 0.5px; fill: rgb(216, 87, 107); fill-opacity: 1; stroke: rgb(17, 17, 17); stroke-opacity: 1;"/></g><g class="point" style="vector-effect: non-scaling-stroke; stroke-miterlimit: 2;"><path d="M165.3236826393987,139.414846625152L165.3254583841083,139.40798032983017A21.26950354609929,21.26950354609929 0,0,0 162.03859157310745,138.82841702905554L162.03791181599738,138.8354765765617A21.26241134751773,21.26241134751773 0,0,1 165.3236826393987,139.414846625152Z" style="opacity: 1; stroke-width: 0.5px; fill: rgb(216, 87, 107); fill-opacity: 1; stroke: rgb(17, 17, 17); stroke-opacity: 1;"/></g><g class="point" style="vector-effect: non-scaling-stroke; stroke-miterlimit: 2;"><path d="M0,0Z" style="opacity: 1; stroke-width: 0.5px; fill: rgb(216, 87, 107); fill-opacity: 1; stroke: rgb(17, 17, 17); stroke-opacity: 1;"/></g><g class="point" style="vector-effect: non-scaling-stroke; stroke-miterlimit: 2;"><path d="M0,0Z" style="opacity: 1; stroke-width: 0.5px; fill: rgb(216, 87, 107); fill-opacity: 1; stroke: rgb(17, 17, 17); stroke-opacity: 1;"/></g><g class="point" style="vector-effect: non-scaling-stroke; stroke-miterlimit: 2;"><path d="M192.1175514655414,127.31694218450235L192.12252245323145,127.31188367067857A45.829787234042556,45.829787234042556 0,0,0 186.613492906412,122.68925900979764L186.6093744457332,122.69503287872215A45.82269503546099,45.82269503546099 0,0,1 192.1175514655414,127.31694218450235Z" style="opacity: 1; stroke-width: 0.5px; fill: rgb(216, 87, 107); fill-opacity: 1; stroke: rgb(17, 17, 17); stroke-opacity: 1;"/></g><g class="point" style="vector-effect: non-scaling-stroke; stroke-miterlimit: 2;"><path d="M0,0Z" style="opacity: 1; stroke-width: 0.5px; fill: rgb(216, 87, 107); fill-opacity: 1; stroke: rgb(17, 17, 17); stroke-opacity: 1;"/></g><g class="point" style="vector-effect: non-scaling-stroke; stroke-miterlimit: 2;"><path d="M0,0Z" style="opacity: 1; stroke-width: 0.5px; fill: rgb(216, 87, 107); fill-opacity: 1; stroke: rgb(17, 17, 17); stroke-opacity: 1;"/></g><g class="point" style="vector-effect: non-scaling-stroke; stroke-miterlimit: 2;"><path d="M238.9835258704401,138.09592969974173L239.05870271430746,138.07508131579235A82.04255319148936,82.04255319148936 0,0,0 234.65554596808406,125.9775075812243L234.58455608170362,126.00985953632514A81.9645390070922,81.9645390070922 0,0,1 238.9835258704401,138.09592969974173Z" style="opacity: 1; stroke-width: 0.5px; fill: rgb(216, 87, 107); fill-opacity: 1; stroke: rgb(17, 17, 17); stroke-opacity: 1;"/></g><g class="point" style="vector-effect: non-scaling-stroke; stroke-miterlimit: 2;"><path d="M260.8385765778495,150.29034943972422L261.050363003034,150.26995672642207A101.5177304964539,101.5177304964539 0,0,0 258.28415123668253,134.58199022670019L258.0781623770276,134.63526256798835A101.30496453900709,101.30496453900709 0,0,1 260.8385765778495,150.29034943972422Z" style="opacity: 1; stroke-width: 0.5px; fill: rgb(216, 87, 107); fill-opacity: 1; stroke: rgb(17, 17, 17); stroke-opacity: 1;"/></g><g class="point" style="vector-effect: non-scaling-stroke; stroke-miterlimit: 2;"><path d="M248.11052349632794,166.93444858837165L248.2802115531336,166.94780332807A88.5531914893617,88.5531914893617 0,0,0 248.2802115531336,153.05219667192998L248.11052349632794,153.06555141162835A88.38297872340425,88.38297872340425 0,0,1 248.11052349632794,166.93444858837165Z" style="opacity: 1; stroke-width: 0.5px; fill: rgb(216, 87, 107); fill-opacity: 1; stroke: rgb(17, 17, 17); stroke-opacity: 1;"/></g><g class="point" style="vector-effect: non-scaling-stroke; stroke-miterlimit: 2;"><path d="M214.1407386126339,174.00174703524306L214.20253527053038,174.0177287376295A55.98581560283688,55.98581560283688 0,0,0 215.72806801354972,165.3660026269124L215.66453208599438,165.35988481292173A55.92198581560284,55.92198581560284 0,0,1 214.1407386126339,174.00174703524306Z" style="opacity: 1; stroke-width: 0.5px; fill: rgb(216, 87, 107); fill-opacity: 1; stroke: rgb(17, 17, 17); stroke-opacity: 1;"/></g><g class="point" style="vector-effect: non-scaling-stroke; stroke-miterlimit: 2;"><path d="M0,0Z" style="opacity: 1; stroke-width: 0.5px; fill: rgb(216, 87, 107); fill-opacity: 1; stroke: rgb(17, 17, 17); stroke-opacity: 1;"/></g><g class="point" style="vector-effect: non-scaling-stroke; stroke-miterlimit: 2;"><path d="M0,0Z" style="opacity: 1; stroke-width: 0.5px; fill: rgb(216, 87, 107); fill-opacity: 1; stroke: rgb(17, 17, 17); stroke-opacity: 1;"/></g><g class="point" style="vector-effect: non-scaling-stroke; stroke-miterlimit: 2;"><path d="M0,0Z" style="opacity: 1; stroke-width: 0.5px; fill: rgb(216, 87, 107); fill-opacity: 1; stroke: rgb(17, 17, 17); stroke-opacity: 1;"/></g><g class="point" style="vector-effect: non-scaling-stroke; stroke-miterlimit: 2;"><path d="M0,0Z" style="opacity: 1; stroke-width: 0.5px; fill: rgb(216, 87, 107); fill-opacity: 1; stroke: rgb(17, 17, 17); stroke-opacity: 1;"/></g><g class="point" style="vector-effect: non-scaling-stroke; stroke-miterlimit: 2;"><path d="M166.33248237432912,173.27632538823838L166.33553564451924,173.28272670231178A14.71631205673759,14.71631205673759 0,0,0 168.3354109334683,172.12809816589137L168.33139386795818,172.12225329930538A14.709219858156027,14.709219858156027 0,0,1 166.33248237432912,173.27632538823838Z" style="opacity: 1; stroke-width: 0.5px; fill: rgb(216, 87, 107); fill-opacity: 1; stroke: rgb(17, 17, 17); stroke-opacity: 1;"/></g><g class="point" style="vector-effect: non-scaling-stroke; stroke-miterlimit: 2;"><path d="M164.47482131858698,176.1356843973444L164.47671662621875,176.14251865587778A16.75177304964539,16.75177304964539 0,0,0 166.94684708619883,175.24346469369075L166.94390599937148,175.23701106765617A16.74468085106383,16.74468085106383 0,0,1 164.47482131858698,176.1356843973444Z" style="opacity: 1; stroke-width: 0.5px; fill: rgb(216, 87, 107); fill-opacity: 1; stroke: rgb(17, 17, 17); stroke-opacity: 1;"/></g><g class="point" style="vector-effect: non-scaling-stroke; stroke-miterlimit: 2;"><path d="M0,0Z" style="opacity: 1; stroke-width: 0.5px; fill: rgb(216, 87, 107); fill-opacity: 1; stroke: rgb(17, 17, 17); stroke-opacity: 1;"/></g><g class="point" style="vector-effect: non-scaling-stroke; stroke-miterlimit: 2;"><path d="M0,0Z" style="opacity: 1; stroke-width: 0.5px; fill: rgb(216, 87, 107); fill-opacity: 1; stroke: rgb(17, 17, 17); stroke-opacity: 1;"/></g><g class="point" style="vector-effect: non-scaling-stroke; stroke-miterlimit: 2;"><path d="M0,0Z" style="opacity: 1; stroke-width: 0.5px; fill: rgb(216, 87, 107); fill-opacity: 1; stroke: rgb(17, 17, 17); stroke-opacity: 1;"/></g><g class="point" style="vector-effect: non-scaling-stroke; stroke-miterlimit: 2;"><path d="M143.67402702138452,195.82407811798362L143.67108593455717,195.83053174401823A39.3758865248227,39.3758865248227 0,0,0 149.47725202846468,197.9438033774062L149.47914733609642,197.9369691188728A39.36879432624114,39.36879432624114 0,0,1 143.67402702138452,195.82407811798362Z" style="opacity: 1; stroke-width: 0.5px; fill: rgb(216, 87, 107); fill-opacity: 1; stroke: rgb(17, 17, 17); stroke-opacity: 1;"/></g><g class="point" style="vector-effect: non-scaling-stroke; stroke-miterlimit: 2;"><path d="M132.6558350727139,199.78600685070964L132.6478009416937,199.7976965838816A48.29078014184397,48.29078014184397 0,0,0 139.2102832754065,203.58654752580284L139.21638981578675,203.573744897656A48.27659574468085,48.27659574468085 0,0,1 132.6558350727139,199.78600685070964Z" style="opacity: 1; stroke-width: 0.5px; fill: rgb(216, 87, 107); fill-opacity: 1; stroke: rgb(17, 17, 17); stroke-opacity: 1;"/></g><g class="point" style="vector-effect: non-scaling-stroke; stroke-miterlimit: 2;"><path d="M121.19149910362457,199.49181742231698L121.16664416517422,199.51710999143592A55.40425531914894,55.40425531914894 0,0,0 127.82658517720665,205.1054640382948L127.84717748060066,205.07659469367223A55.36879432624114,55.36879432624114 0,0,1 121.19149910362457,199.49181742231698Z" style="opacity: 1; stroke-width: 0.5px; fill: rgb(216, 87, 107); fill-opacity: 1; stroke: rgb(17, 17, 17); stroke-opacity: 1;"/></g><g class="point" style="vector-effect: non-scaling-stroke; stroke-miterlimit: 2;"><path d="M105.22330551314613,199.07183645978503L104.74407439241155,199.4136686961255A67.87234042553192,67.87234042553192 0,0,0 111.59002270634386,207.5723521939686L112.0098793537183,207.1597602156928A67.28368794326241,67.28368794326241 0,0,1 105.22330551314613,199.07183645978503Z" style="opacity: 1; stroke-width: 0.5px; fill: rgb(216, 87, 107); fill-opacity: 1; stroke: rgb(17, 17, 17); stroke-opacity: 1;"/></g><g class="point" style="vector-effect: non-scaling-stroke; stroke-miterlimit: 2;"><path d="M74.80491099707592,200.63597296043687L70.81689232934568,202.5381602888877A98.80851063829788,98.80851063829788 0,0,0 78.56931872424168,215.9657566867856L82.21067060730208,213.46312487399007A94.39007092198581,94.39007092198581 0,0,1 74.80491099707592,200.63597296043687Z" style="opacity: 1; stroke-width: 0.5px; fill: rgb(216, 87, 107); fill-opacity: 1; stroke: rgb(17, 17, 17); stroke-opacity: 1;"/></g><g class="point" style="vector-effect: non-scaling-stroke; stroke-miterlimit: 2;"><path d="M29.13761760256233,196.29135053295366L18.223306724731316,199.31815682087546A147.12765957446808,147.12765957446808 0,0,0 26.119527912525626,221.01284623335945L36.42596868975852,216.31593057008274A135.80141843971631,135.80141843971631 0,0,1 29.13761760256233,196.29135053295366Z" style="opacity: 1; stroke-width: 0.5px; fill: rgb(216, 87, 107); fill-opacity: 1; stroke: rgb(17, 17, 17); stroke-opacity: 1;"/></g><g class="point" style="vector-effect: non-scaling-stroke; stroke-miterlimit: 2;"><path d="M17.171234855569054,173.75284585098697L8.699777848188802,174.56855438307397A152,152 0,0,0 12.841558662527575,198.057760616275L21.081113048724234,195.92686696474786A143.48936170212767,143.48936170212767 0,0,1 17.171234855569054,173.75284585098697Z" style="opacity: 1; stroke-width: 0.5px; fill: rgb(216, 87, 107); fill-opacity: 1; stroke: rgb(17, 17, 17); stroke-opacity: 1;"/></g><g class="point" style="vector-effect: non-scaling-stroke; stroke-miterlimit: 2;"><path d="M61.02237053241093,152.21029162344607L57.911422824307564,151.9654547289762A102.40425531914893,102.40425531914893 0,0,0 57.911422824307564,168.03454527102375L61.02237053241093,167.78970837655388A99.28368794326241,99.28368794326241 0,0,1 61.02237053241093,152.21029162344607Z" style="opacity: 1; stroke-width: 0.5px; fill: rgb(216, 87, 107); fill-opacity: 1; stroke: rgb(17, 17, 17); stroke-opacity: 1;"/></g><g class="point" style="vector-effect: non-scaling-stroke; stroke-miterlimit: 2;"><path d="M94.72899667067878,143.11977079048566L93.39006908292181,142.7735005721125A68.80141843971631,68.80141843971631 0,0,0 91.51532964283687,153.40567627518658L92.89194140653616,153.53822891165072A67.41843971631205,67.41843971631205 0,0,1 94.72899667067878,143.11977079048566Z" style="opacity: 1; stroke-width: 0.5px; fill: rgb(216, 87, 107); fill-opacity: 1; stroke: rgb(17, 17, 17); stroke-opacity: 1;"/></g><g class="point" style="vector-effect: non-scaling-stroke; stroke-miterlimit: 2;"><path d="M116.9091389670732,140.36236325378928L116.4702923967214,140.1623693495295A47.836879432624116,47.836879432624116 0,0,0 113.90292619225417,147.21615002377413L114.36765577252501,147.34503094273384A47.354609929078016,47.354609929078016 0,0,1 116.9091389670732,140.36236325378928Z" style="opacity: 1; stroke-width: 0.5px; fill: rgb(216, 87, 107); fill-opacity: 1; stroke: rgb(17, 17, 17); stroke-opacity: 1;"/></g><g class="point" style="vector-effect: non-scaling-stroke; stroke-miterlimit: 2;"><path d="M130.76982220355532,139.9106553839639L130.629545405492,139.81424581172138A35.638297872340424,35.638297872340424 0,0,0 127.8333967811486,144.657317294598L127.98702831891028,144.7305957791611A35.46808510638298,35.46808510638298 0,0,1 130.76982220355532,139.9106553839639Z" style="opacity: 1; stroke-width: 0.5px; fill: rgb(216, 87, 107); fill-opacity: 1; stroke: rgb(17, 17, 17); stroke-opacity: 1;"/></g><g class="point" style="vector-effect: non-scaling-stroke; stroke-miterlimit: 2;"><path d="M137.63631038503095,138.02326342220113L137.61101781591202,137.99840848375078A31.390070921985814,31.390070921985814 0,0,0 134.4448561401059,141.7716930356268L134.47372548472848,141.7922853390208A31.354609929078013,31.354609929078013 0,0,1 137.63631038503095,138.02326342220113Z" style="opacity: 1; stroke-width: 0.5px; fill: rgb(216, 87, 107); fill-opacity: 1; stroke: rgb(17, 17, 17); stroke-opacity: 1;"/></g><g class="point" style="vector-effect: non-scaling-stroke; stroke-miterlimit: 2;"><path d="M143.46026191393523,136.8121423991562L143.44378807122,136.78904692345813A28.51063829787234,28.51063829787234 0,0,0 140.01662948591914,139.66477442837015L140.03651343667943,139.68500848366529A28.4822695035461,28.4822695035461 0,0,1 143.46026191393523,136.8121423991562Z" style="opacity: 1; stroke-width: 0.5px; fill: rgb(216, 87, 107); fill-opacity: 1; stroke: rgb(17, 17, 17); stroke-opacity: 1;"/></g><g class="point" style="vector-effect: non-scaling-stroke; stroke-miterlimit: 2;"><path d="M149.2647020115038,137.49297971791412L149.26164874131365,137.48657840384072A24.94326241134752,24.94326241134752 0,0,0 145.87198060096003,139.4436042171374L145.8759976664701,139.44944908372335A24.93617021276596,24.93617021276596 0,0,1 149.2647020115038,137.49297971791412Z" style="opacity: 1; stroke-width: 0.5px; fill: rgb(216, 87, 107); fill-opacity: 1; stroke: rgb(17, 17, 17); stroke-opacity: 1;"/></g><g class="point" style="vector-effect: non-scaling-stroke; stroke-miterlimit: 2;"><path d="M0,0Z" style="opacity: 1; stroke-width: 0.5px; fill: rgb(216, 87, 107); fill-opacity: 1; stroke: rgb(17, 17, 17); stroke-opacity: 1;"/></g><g class="point" style="vector-effect: non-scaling-stroke; stroke-miterlimit: 2;"><path d="M0,0Z" style="opacity: 1; stroke-width: 0.5px; fill: rgb(216, 87, 107); fill-opacity: 1; stroke: rgb(17, 17, 17); stroke-opacity: 1;"/></g></g></g></g><g class="scatterlayer"/></g><g class="polarsublayer angular-line"><path d="M160,0A160,160 0,1,0 -160,-1.9594348786357652e-14A160,160 0,1,0 160,3.9188697572715304e-14Z" transform="translate(317.5,260)" stroke-width="1" style="fill: none; stroke: rgb(80, 103, 132); stroke-opacity: 1;"/></g><g class="polarsublayer radial-line"><line x1="0" y1="0" x2="160" y2="0" transform="translate(317.5,260)" stroke-width="1" style="fill: none; stroke: rgb(80, 103, 132); stroke-opacity: 1;"/></g><g class="polarsublayer angular-axis"><g class="angularaxistick"><text text-anchor="middle" x="1.7757378587636624e-16" y="-5.300000000000001" transform="translate(317.5,100)" style="font-family: 'Open Sans', verdana, arial, sans-serif; font-size: 12px; fill: rgb(242, 245, 250); fill-opacity: 1; white-space: pre; opacity: 1;">0</text></g><g class="angularaxistick"><text text-anchor="start" x="2.050609665440988" y="-0.7778174593052025" transform="translate(430.6370849898476,146.8629150101524)" style="font-family: 'Open Sans', verdana, arial, sans-serif; font-size: 12px; fill: rgb(242, 245, 250); fill-opacity: 1; white-space: pre; opacity: 1;">45</text></g><g class="angularaxistick"><text text-anchor="start" x="2.9000000000000004" y="4.199999999999999" transform="translate(477.5,260)" style="font-family: 'Open Sans', verdana, arial, sans-serif; font-size: 12px; fill: rgb(242, 245, 250); fill-opacity: 1; white-space: pre; opacity: 1;">90</text></g><g class="angularaxistick"><text text-anchor="start" x="2.050609665440988" y="13.505739520663056" transform="translate(430.6370849898476,373.1370849898476)" style="font-family: 'Open Sans', verdana, arial, sans-serif; font-size: 12px; fill: rgb(242, 245, 250); fill-opacity: 1; white-space: pre; opacity: 1;">135</text></g><g class="angularaxistick"><text text-anchor="middle" x="1.7757378587636624e-16" y="14.9" transform="translate(317.5,420)" style="font-family: 'Open Sans', verdana, arial, sans-serif; font-size: 12px; fill: rgb(242, 245, 250); fill-opacity: 1; white-space: pre; opacity: 1;">180</text></g><g class="angularaxistick"><text text-anchor="end" x="-2.0506096654409878" y="13.505739520663058" transform="translate(204.3629150101524,373.1370849898476)" style="font-family: 'Open Sans', verdana, arial, sans-serif; font-size: 12px; fill: rgb(242, 245, 250); fill-opacity: 1; white-space: pre; opacity: 1;">225</text></g><g class="angularaxistick"><text text-anchor="end" x="-2.9000000000000004" y="4.200000000000001" transform="translate(157.5,260)" style="font-family: 'Open Sans', verdana, arial, sans-serif; font-size: 12px; fill: rgb(242, 245, 250); fill-opacity: 1; white-space: pre; opacity: 1;">270</text></g><g class="angularaxistick"><text text-anchor="end" x="-2.0506096654409887" y="-0.7778174593052021" transform="translate(204.36291501015236,146.8629150101524)" style="font-family: 'Open Sans', verdana, arial, sans-serif; font-size: 12px; fill: rgb(242, 245, 250); fill-opacity: 1; white-space: pre; opacity: 1;">315</text></g></g><g class="polarsublayer radial-axis" transform="translate(317.5,260)"><g class="xtick"><text text-anchor="middle" x="0" y="14.9" transform="" style="font-family: 'Open Sans', verdana, arial, sans-serif; font-size: 12px; fill: rgb(242, 245, 250); fill-opacity: 1; white-space: pre; opacity: 1;">0</text></g><g class="xtick"><text text-anchor="middle" x="0" y="14.9" transform="translate(35.46,0)" style="font-family: 'Open Sans', verdana, arial, sans-serif; font-size: 12px; fill: rgb(242, 245, 250); fill-opacity: 1; white-space: pre; opacity: 1;">5k</text></g><g class="xtick"><text text-anchor="middle" x="0" y="14.9" transform="translate(70.92,0)" style="font-family: 'Open Sans', verdana, arial, sans-serif; font-size: 12px; fill: rgb(242, 245, 250); fill-opacity: 1; white-space: pre; opacity: 1;">10k</text></g><g class="xtick"><text text-anchor="middle" x="0" y="14.9" transform="translate(106.38,0)" style="font-family: 'Open Sans', verdana, arial, sans-serif; font-size: 12px; fill: rgb(242, 245, 250); fill-opacity: 1; white-space: pre; opacity: 1;">15k</text></g><g class="xtick"><text text-anchor="middle" x="0" y="14.9" transform="translate(141.84,0)" style="font-family: 'Open Sans', verdana, arial, sans-serif; font-size: 12px; fill: rgb(242, 245, 250); fill-opacity: 1; white-space: pre; opacity: 1;">20k</text></g></g></g></g><g class="smithlayer"/><g class="ternarylayer"/><g class="geolayer"/><g class="funnelarealayer"/><g class="pielayer"/><g class="iciclelayer"/><g class="treemaplayer"/><g class="sunburstlayer"/><g class="glimages"/><defs id="topdefs-2a9b54"><g class="clips"/><clipPath id="legend2a9b54"><rect width="123" height="124" x="0" y="0"/></clipPath></defs><g class="layer-above"><g class="imagelayer"/><g class="shapelayer"/></g><g class="infolayer"><g class="legend" pointer-events="all" transform="translate(564.5,100)"><rect class="bg" shape-rendering="crispEdges" width="123" height="124" x="0" y="0" style="stroke: rgb(68, 68, 68); stroke-opacity: 1; fill: rgb(17, 17, 17); fill-opacity: 1; stroke-width: 0px;"/><g class="scrollbox" transform="" clip-path="url(#legend2a9b54)"><text class="legendtitletext" text-anchor="start" x="2" y="18.2" style="font-family: 'Open Sans', verdana, arial, sans-serif; font-size: 14px; fill: rgb(242, 245, 250); fill-opacity: 1; white-space: pre;">SpeedRange [m/s]</text><g class="groups" transform=""><g class="traces" transform="translate(0,32.7)" style="opacity: 1;"><text class="legendtext" text-anchor="start" x="40" y="4.680000000000001" style="font-family: 'Open Sans', verdana, arial, sans-serif; font-size: 12px; fill: rgb(242, 245, 250); fill-opacity: 1; white-space: pre;">&#60;1</text><g class="layers" style="opacity: 1;"><g class="legendfill"/><g class="legendlines"/><g class="legendsymbols"><g class="legendpoints"><path class="legendundefined" d="M6,6H-6V-6H6Z" transform="translate(20,0)" style="stroke-width: 0.5px; fill: rgb(240, 249, 33); fill-opacity: 1; stroke: rgb(17, 17, 17); stroke-opacity: 1;"/></g></g></g><rect class="legendtoggle" x="0" y="-9.5" width="64.59375" height="19" style="fill: rgb(0, 0, 0); fill-opacity: 0;"/></g></g><g class="groups" transform=""><g class="traces" transform="translate(0,51.7)" style="opacity: 1;"><text class="legendtext" text-anchor="start" x="40" y="4.680000000000001" style="font-family: 'Open Sans', verdana, arial, sans-serif; font-size: 12px; fill: rgb(242, 245, 250); fill-opacity: 1; white-space: pre;">1-3</text><g class="layers" style="opacity: 1;"><g class="legendfill"/><g class="legendlines"/><g class="legendsymbols"><g class="legendpoints"><path class="legendundefined" d="M6,6H-6V-6H6Z" transform="translate(20,0)" style="stroke-width: 0.5px; fill: rgb(253, 202, 38); fill-opacity: 1; stroke: rgb(17, 17, 17); stroke-opacity: 1;"/></g></g></g><rect class="legendtoggle" x="0" y="-9.5" width="64.59375" height="19" style="fill: rgb(0, 0, 0); fill-opacity: 0;"/></g></g><g class="groups" transform=""><g class="traces" transform="translate(0,70.7)" style="opacity: 1;"><text class="legendtext" text-anchor="start" x="40" y="4.680000000000001" style="font-family: 'Open Sans', verdana, arial, sans-serif; font-size: 12px; fill: rgb(242, 245, 250); fill-opacity: 1; white-space: pre;">3-6</text><g class="layers" style="opacity: 1;"><g class="legendfill"/><g class="legendlines"/><g class="legendsymbols"><g class="legendpoints"><path class="legendundefined" d="M6,6H-6V-6H6Z" transform="translate(20,0)" style="stroke-width: 0.5px; fill: rgb(251, 159, 58); fill-opacity: 1; stroke: rgb(17, 17, 17); stroke-opacity: 1;"/></g></g></g><rect class="legendtoggle" x="0" y="-9.5" width="64.59375" height="19" style="fill: rgb(0, 0, 0); fill-opacity: 0;"/></g></g><g class="groups" transform=""><g class="traces" transform="translate(0,89.7)" style="opacity: 1;"><text class="legendtext" text-anchor="start" x="40" y="4.680000000000001" style="font-family: 'Open Sans', verdana, arial, sans-serif; font-size: 12px; fill: rgb(242, 245, 250); fill-opacity: 1; white-space: pre;">6-10</text><g class="layers" style="opacity: 1;"><g class="legendfill"/><g class="legendlines"/><g class="legendsymbols"><g class="legendpoints"><path class="legendundefined" d="M6,6H-6V-6H6Z" transform="translate(20,0)" style="stroke-width: 0.5px; fill: rgb(237, 121, 83); fill-opacity: 1; stroke: rgb(17, 17, 17); stroke-opacity: 1;"/></g></g></g><rect class="legendtoggle" x="0" y="-9.5" width="64.59375" height="19" style="fill: rgb(0, 0, 0); fill-opacity: 0;"/></g></g><g class="groups" transform=""><g class="traces" transform="translate(0,108.7)" style="opacity: 1;"><text class="legendtext" text-anchor="start" x="40" y="4.680000000000001" style="font-family: 'Open Sans', verdana, arial, sans-serif; font-size: 12px; fill: rgb(242, 245, 250); fill-opacity: 1; white-space: pre;">>10</text><g class="layers" style="opacity: 1;"><g class="legendfill"/><g class="legendlines"/><g class="legendsymbols"><g class="legendpoints"><path class="legendundefined" d="M6,6H-6V-6H6Z" transform="translate(20,0)" style="stroke-width: 0.5px; fill: rgb(216, 87, 107); fill-opacity: 1; stroke: rgb(17, 17, 17); stroke-opacity: 1;"/></g></g></g><rect class="legendtoggle" x="0" y="-9.5" width="64.59375" height="19" style="fill: rgb(0, 0, 0); fill-opacity: 0;"/></g></g></g><rect class="scrollbar" rx="20" ry="3" width="0" height="0" x="0" y="0" style="fill: rgb(128, 139, 164); fill-opacity: 1;"/></g><g class="g-gtitle"><text class="gtitle" x="35" y="50" text-anchor="start" dy="0em" style="font-family: 'Open Sans', verdana, arial, sans-serif; font-size: 17px; fill: rgb(242, 245, 250); opacity: 1; font-weight: normal; white-space: pre;">Wind direction and intensity in Munich airport</text></g><g class="g-polartitle"/></g></svg>