<?xml version="1.0" standalone="no"?><!DOCTYPE svg PUBLIC "-//W3C//DTD SVG 1.1//EN" "http://www.w3.org/Graphics/SVG/1.1/DTD/svg11.dtd"><svg xmlns:xlink="http://www.w3.org/1999/xlink" version="1.1" class="highcharts-root" style="font-family: &quot;Lucida Grande&quot;, &quot;Lucida Sans Unicode&quot;, Arial, Helvetica, sans-serif; font-size: 12px;" xmlns="http://www.w3.org/2000/svg" width="600" height="700" viewBox="0 0 600 700" role="img" aria-label=""><desc>Created with Highcharts 10.3.3</desc><defs><clipPath id="highcharts-uc5pwyd-662-"><rect x="0" y="0" width="580" height="622" fill="none"></rect></clipPath><clipPath id="highcharts-uc5pwyd-679-"><rect x="0" y="0" width="1548.805178219768" height="246.5" fill="none"></rect></clipPath><clipPath id="highcharts-uc5pwyd-680"><circle cx="290" cy="311" r="246.5"></circle></clipPath><clipPath id="highcharts-uc5pwyd-697"><circle cx="290" cy="311" r="246.5"></circle></clipPath><clipPath id="highcharts-uc5pwyd-714"><circle cx="290" cy="311" r="246.5"></circle></clipPath><clipPath id="highcharts-uc5pwyd-731"><circle cx="290" cy="311" r="246.5"></circle></clipPath><clipPath id="highcharts-uc5pwyd-748"><circle cx="290" cy="311" r="246.5"></circle></clipPath><clipPath id="highcharts-uc5pwyd-765"><circle cx="290" cy="311" r="246.5"></circle></clipPath><clipPath id="highcharts-uc5pwyd-782"><circle cx="290" cy="311" r="246.5"></circle></clipPath><clipPath id="highcharts-uc5pwyd-799"><circle cx="290" cy="311" r="246.5"></circle></clipPath><clipPath id="highcharts-uc5pwyd-816"><circle cx="290" cy="311" r="246.5"></circle></clipPath><clipPath id="highcharts-uc5pwyd-817-"><rect x="10" y="10" width="580" height="622" fill="none"></rect></clipPath></defs><rect fill="transparent" class="highcharts-background" x="0" y="0" width="600" height="700" rx="0" ry="0"></rect><rect fill="none" class="highcharts-plot-background" x="10" y="10" width="580" height="622"></rect><g class="highcharts-pane-group" data-z-index="0"></g><g class="highcharts-grid highcharts-xaxis-grid highcharts-radial-axis-grid" data-z-index="1"><path fill="none" stroke="#e6e6e6" stroke-width="1" stroke-dasharray="none" data-z-index="1" class="highcharts-grid-line" d="M 300 321 L 300 74.5" opacity="1"></path><path fill="none" stroke="#e6e6e6" stroke-width="1" stroke-dasharray="none" data-z-index="1" class="highcharts-grid-line" d="M 300 321 L 394.33146607799466 93.26369523596782" opacity="1"></path><path fill="none" stroke="#e6e6e6" stroke-width="1" stroke-dasharray="none" data-z-index="1" class="highcharts-grid-line" d="M 300 321 L 474.30182156248395 146.69817843751605" opacity="1"></path><path fill="none" stroke="#e6e6e6" stroke-width="1" stroke-dasharray="none" data-z-index="1" class="highcharts-grid-line" d="M 300 321 L 527.7363047640322 226.66853392200537" opacity="1"></path><path fill="none" stroke="#e6e6e6" stroke-width="1" stroke-dasharray="none" data-z-index="1" class="highcharts-grid-line" d="M 300 321 L 546.5 321" opacity="1"></path><path fill="none" stroke="#e6e6e6" stroke-width="1" stroke-dasharray="none" data-z-index="1" class="highcharts-grid-line" d="M 300 321 L 527.7363047640322 415.3314660779946" opacity="1"></path><path fill="none" stroke="#e6e6e6" stroke-width="1" stroke-dasharray="none" data-z-index="1" class="highcharts-grid-line" d="M 300 321 L 474.30182156248395 495.30182156248395" opacity="1"></path><path fill="none" stroke="#e6e6e6" stroke-width="1" stroke-dasharray="none" data-z-index="1" class="highcharts-grid-line" d="M 300 321 L 394.33146607799466 548.7363047640322" opacity="1"></path><path fill="none" stroke="#e6e6e6" stroke-width="1" stroke-dasharray="none" data-z-index="1" class="highcharts-grid-line" d="M 300 321 L 300 567.5" opacity="1"></path><path fill="none" stroke="#e6e6e6" stroke-width="1" stroke-dasharray="none" data-z-index="1" class="highcharts-grid-line" d="M 300 321 L 205.6685339220054 548.7363047640322" opacity="1"></path><path fill="none" stroke="#e6e6e6" stroke-width="1" stroke-dasharray="none" data-z-index="1" class="highcharts-grid-line" d="M 300 321 L 125.69817843751605 495.30182156248395" opacity="1"></path><path fill="none" stroke="#e6e6e6" stroke-width="1" stroke-dasharray="none" data-z-index="1" class="highcharts-grid-line" d="M 300 321 L 72.26369523596787 415.3314660779947" opacity="1"></path><path fill="none" stroke="#e6e6e6" stroke-width="1" stroke-dasharray="none" data-z-index="1" class="highcharts-grid-line" d="M 300 321 L 53.5 321.00000000000006" opacity="1"></path><path fill="none" stroke="#e6e6e6" stroke-width="1" stroke-dasharray="none" data-z-index="1" class="highcharts-grid-line" d="M 300 321 L 72.26369523596784 226.66853392200528" opacity="1"></path><path fill="none" stroke="#e6e6e6" stroke-width="1" stroke-dasharray="none" data-z-index="1" class="highcharts-grid-line" d="M 300 321 L 125.69817843751599 146.69817843751605" opacity="1"></path><path fill="none" stroke="#e6e6e6" stroke-width="1" stroke-dasharray="none" data-z-index="1" class="highcharts-grid-line" d="M 300 321 L 205.66853392200522 93.26369523596787" opacity="1"></path><path fill="none" stroke="#e6e6e6" stroke-width="1" stroke-dasharray="none" data-z-index="1" class="highcharts-grid-line" d="M 300 321 L 299.99999999999994 74.5" opacity="1"></path></g><g class="highcharts-grid highcharts-yaxis-grid highcharts-radial-axis-grid" data-z-index="1"><path fill="none" stroke="#e6e6e6" stroke-width="1" stroke-dasharray="none" data-z-index="1" class="highcharts-grid-line" d="M 300 321 A 0 0 0 1 1 300 321 M 300 321 A 0 0 0 1 0 300 321" opacity="1"></path><path fill="none" stroke="#e6e6e6" stroke-width="1" stroke-dasharray="none" data-z-index="1" class="highcharts-grid-line" d="M 300 230.7069597069597 A 90.29304029304029 90.29304029304029 0 1 1 299.90970697475575 230.7070048534761 M 300 321 A 0 0 0 1 0 300 321" opacity="1"></path><path fill="none" stroke="#e6e6e6" stroke-width="1" stroke-dasharray="none" data-z-index="1" class="highcharts-grid-line" d="M 300 140.41391941391942 A 180.58608058608058 180.58608058608058 0 1 1 299.8194139495115 140.41400970695219 M 300 321 A 0 0 0 1 0 300 321" opacity="1"></path></g><rect fill="none" class="highcharts-plot-border" data-z-index="1" stroke="#cccccc" stroke-width="0" x="10" y="10" width="580" height="622"></rect><g class="highcharts-axis highcharts-xaxis highcharts-radial-axis" data-z-index="2"><path fill="none" class="highcharts-axis-line" stroke="#ccd6eb" stroke-width="1" data-z-index="7" d="M 300 74.5 A 246.5 246.5 0 1 1 299.7535000410832 74.50012324998974 M 300 321 A 0 0 0 1 0 300 321"></path></g><g class="highcharts-axis highcharts-yaxis highcharts-radial-axis" data-z-index="2"><path fill="none" class="highcharts-axis-line" stroke="#ccd6eb" stroke-width="0" data-z-index="7" d="M 300 321 L 300 74.5"></path></g><g class="highcharts-series-group" data-z-index="3"><g class="highcharts-series highcharts-series-0 highcharts-column-series highcharts-dense-data" data-z-index="0.1" opacity="1" transform="translate(10,10) scale(1 1)" clip-path="url(#highcharts-uc5pwyd-680)"><path fill="#ddd7d7" d="M 289.80225079162864 309.7514606361195 A 1.2641025641025578 1.2641025641025578 0 0 1 290.19650057034096 309.7512635112137 L 290 311 A 0 0 0 0 0 290 311 Z" stroke="#ffffff" stroke-width="0" opacity="1" class="highcharts-point"></path><path fill="#ddd7d7" d="M 290.1686279331589 310.29761410878234 A 0.7223443223443269 0.7223443223443269 0 0 1 290.3768077832646 310.3837231024172 L 290 311 A 0 0 0 0 0 290 311 Z" stroke="#ffffff" stroke-width="0" opacity="1" class="highcharts-point"></path><path fill="#ddd7d7" d="M 290.2122916698756 310.7078055837166 A 0.36117216117216344 0.36117216117216344 0 0 1 290.29198197855175 310.78741624190263 L 290 311 A 0 0 0 0 0 290 311 Z" stroke="#ffffff" stroke-width="0" opacity="1" class="highcharts-point"></path><path fill="#ddd7d7" d="M 291.07782461801685 310.3395082246027 A 1.2641025641025578 1.2641025641025578 0 0 1 291.2288795962095 310.7036720894166 L 290 311 A 0 0 0 0 0 290 311 Z" stroke="#ffffff" stroke-width="0" opacity="1" class="highcharts-point"></path><path fill="#ddd7d7" d="M 290 311 A 0 0 0 0 1 290 311 L 290 311 A 0 0 0 0 0 290 311 Z" stroke="#ffffff" stroke-width="0" opacity="1" class="highcharts-point"></path><path fill="#ddd7d7" d="M 291.0535788368265 311.25294189973835 A 1.0835164835164903 1.0835164835164903 0 0 1 290.9244153463742 311.56521167489694 L 290 311 A 0 0 0 0 0 290 311 Z" stroke="#ffffff" stroke-width="0" opacity="1" class="highcharts-point"></path><path fill="#ddd7d7" d="M 290.2921944162834 311.2122916698756 A 0.36117216117216344 0.36117216117216344 0 0 1 290.21258375809737 311.2919819785517 L 290 311 A 0 0 0 0 0 290 311 Z" stroke="#ffffff" stroke-width="0" opacity="1" class="highcharts-point"></path><path fill="#ddd7d7" d="M 290 311 A 0 0 0 0 1 290 311 L 290 311 A 0 0 0 0 0 290 311 Z" stroke="#ffffff" stroke-width="0" opacity="1" class="highcharts-point"></path><path fill="#ddd7d7" d="M 290.3954984167427 313.49707872776105 A 2.5282051282051157 2.5282051282051157 0 0 1 289.606998859318 313.4974729775726 L 290 311 A 0 0 0 0 0 290 311 Z" stroke="#ffffff" stroke-width="0" opacity="1" class="highcharts-point"></path><path fill="#ddd7d7" d="M 289.9578430167103 311.1755964728044 A 0.1805860805860675 0.1805860805860675 0 0 1 289.90579805418383 311.1540692243957 L 290 311 A 0 0 0 0 0 290 311 Z" stroke="#ffffff" stroke-width="0" opacity="1" class="highcharts-point"></path><path fill="#ddd7d7" d="M 289.36312499037325 311.87658324885024 A 1.0835164835164903 1.0835164835164903 0 0 1 289.1240540643449 311.6377512742921 L 290 311 A 0 0 0 0 0 290 311 Z" stroke="#ffffff" stroke-width="0" opacity="1" class="highcharts-point"></path><path fill="#ddd7d7" d="M 290 311 A 0 0 0 0 1 290 311 L 290 311 A 0 0 0 0 0 290 311 Z" stroke="#ffffff" stroke-width="0" opacity="1" class="highcharts-point"></path><path fill="#ddd7d7" d="M 288.92982340238814 311.16949932146116 A 1.0835164835164903 1.0835164835164903 0 0 1 288.92965443818315 310.8315709397077 L 290 311 A 0 0 0 0 0 290 311 Z" stroke="#ffffff" stroke-width="0" opacity="1" class="highcharts-point"></path><path fill="#ddd7d7" d="M 289.64880705439117 310.91568603342057 A 0.36117216117216344 0.36117216117216344 0 0 1 289.6918615512086 310.81159610836767 L 290 311 A 0 0 0 0 0 290 311 Z" stroke="#ffffff" stroke-width="0" opacity="1" class="highcharts-point"></path><path fill="#ddd7d7" d="M 289.2695139592915 310.469270825311 A 0.9029304029303944 0.9029304029303944 0 0 1 289.4685406047566 310.2700450536207 L 290 311 A 0 0 0 0 0 290 311 Z" stroke="#ffffff" stroke-width="0" opacity="1" class="highcharts-point"></path><path fill="#ddd7d7" d="M 290 311 A 0 0 0 0 1 290 311 L 290 311 A 0 0 0 0 0 290 311 Z" stroke="#ffffff" stroke-width="0" opacity="1" class="highcharts-point"></path></g><g class="highcharts-markers highcharts-series-0 highcharts-column-series" data-z-index="0.1" opacity="1" transform="translate(10,10) scale(1 1)" clip-path="none"></g><g class="highcharts-series highcharts-series-1 highcharts-column-series highcharts-dense-data" data-z-index="0.1" opacity="1" transform="translate(10,10) scale(1 1)" clip-path="url(#highcharts-uc5pwyd-697)"><path fill="#a9fad3" d="M 287.71175916027414 296.5526159322397 A 14.62747252747252 14.62747252747252 0 0 1 292.27379231394565 296.5503349154728 L 290.19650057034096 309.7512635112137 A 1.2641025641025578 1.2641025641025578 0 0 0 289.80225079162864 309.7514606361195 Z" stroke="#ffffff" stroke-width="0" opacity="1" class="highcharts-point"></path><path fill="#a9fad3" d="M 292.8245178804118 299.2350363221041 A 12.099267399267404 12.099267399267404 0 0 1 296.3115303696825 300.67736196548816 L 290.3768077832646 310.3837231024172 A 0.7223443223443269 0.7223443223443269 0 0 0 290.1686279331589 310.29761410878234 Z" stroke="#ffffff" stroke-width="0" opacity="1" class="highcharts-point"></path><path fill="#a9fad3" d="M 296.7933334360191 301.64977867893106 A 11.557509157509145 11.557509157509145 0 0 1 299.3434233136549 304.19731974088467 L 290.29198197855175 310.78741624190263 A 0.36117216117216344 0.36117216117216344 0 0 0 290.2122916698756 310.7078055837166 Z" stroke="#ffffff" stroke-width="0" opacity="1" class="highcharts-point"></path><path fill="#a9fad3" d="M 308.78494334257954 299.488571914504 A 22.031501831501828 22.031501831501828 0 0 1 311.41761581965073 305.8354278441177 L 291.2288795962095 310.7036720894166 A 1.2641025641025578 1.2641025641025578 0 0 0 291.07782461801685 310.3395082246027 Z" stroke="#ffffff" stroke-width="0" opacity="1" class="highcharts-point"></path><path fill="#a9fad3" d="M 306.23101173044677 308.4292602911723 A 16.433333333333337 16.433333333333337 0 0 1 306.23357435422196 313.5545074144328 L 290 311 A 0 0 0 0 0 290 311 Z" stroke="#ffffff" stroke-width="0" opacity="1" class="highcharts-point"></path><path fill="#a9fad3" d="M 313.35433088298737 316.60687877753355 A 24.017948717948713 24.017948717948713 0 0 1 310.4912068446282 323.52885879354847 L 290.9244153463742 311.56521167489694 A 1.0835164835164903 1.0835164835164903 0 0 0 291.0535788368265 311.25294189973835 Z" stroke="#ffffff" stroke-width="0" opacity="1" class="highcharts-point"></path><path fill="#a9fad3" d="M 306.80117893629637 323.20677101784605 A 20.76739926739927 20.76739926739927 0 0 1 302.22356609059864 327.78896376672316 L 290.21258375809737 311.2919819785517 A 0.36117216117216344 0.36117216117216344 0 0 0 290.2921944162834 311.2122916698756 Z" stroke="#ffffff" stroke-width="0" opacity="1" class="highcharts-point"></path><path fill="#a9fad3" d="M 301.2283601817542 329.32301850628664 A 21.489743589743597 21.489743589743597 0 0 1 295.0375744799179 331.890953135561 L 290 311 A 0 0 0 0 0 290 311 Z" stroke="#ffffff" stroke-width="0" opacity="1" class="highcharts-point"></path><path fill="#a9fad3" d="M 295.36747851293694 344.8889255910427 A 34.31135531135533 34.31135531135533 0 0 1 284.6664130907445 344.8942761241996 L 289.606998859318 313.4974729775726 A 2.5282051282051157 2.5282051282051157 0 0 0 290.3954984167427 313.49707872776105 Z" stroke="#ffffff" stroke-width="0" opacity="1" class="highcharts-point"></path><path fill="#a9fad3" d="M 285.74214468773766 328.73524375324604 A 18.239194139194126 18.239194139194126 0 0 1 280.4856034725684 326.56099166396575 L 289.90579805418383 311.1540692243957 A 0.1805860805860675 0.1805860805860675 0 0 0 289.9578430167103 311.1755964728044 Z" stroke="#ffffff" stroke-width="0" opacity="1" class="highcharts-point"></path><path fill="#a9fad3" d="M 279.0669790014074 326.04801243859583 A 18.60036630036629 18.60036630036629 0 0 1 274.9629281045871 321.9480635420144 L 289.1240540643449 311.6377512742921 A 1.0835164835164903 1.0835164835164903 0 0 0 289.36312499037325 311.87658324885024 Z" stroke="#ffffff" stroke-width="0" opacity="1" class="highcharts-point"></path><path fill="#a9fad3" d="M 278.9138039289694 317.7936296898008 A 13.002197802197799 13.002197802197799 0 0 1 277.3600955818454 314.0479442231436 L 290 311 A 0 0 0 0 0 290 311 Z" stroke="#ffffff" stroke-width="0" opacity="1" class="highcharts-point"></path><path fill="#a9fad3" d="M 269.6666446453744 314.2204871077621 A 20.586813186813174 20.586813186813174 0 0 1 269.66343432548024 307.7998478544466 L 288.92965443818315 310.8315709397077 A 1.0835164835164903 1.0835164835164903 0 0 0 288.92982340238814 311.16949932146116 Z" stroke="#ffffff" stroke-width="0" opacity="1" class="highcharts-point"></path><path fill="#a9fad3" d="M 278.9374222133218 308.3441100527472 A 11.376923076923077 11.376923076923077 0 0 1 280.2936388630709 305.06527741358224 L 289.6918615512086 310.81159610836767 A 0.36117216117216344 0.36117216117216344 0 0 0 289.64880705439117 310.91568603342057 Z" stroke="#ffffff" stroke-width="0" opacity="1" class="highcharts-point"></path><path fill="#a9fad3" d="M 280.2114870545056 303.8882290591679 A 12.099267399267404 12.099267399267404 0 0 1 282.8784441037382 301.2186037185178 L 289.4685406047566 310.2700450536207 A 0.9029304029303944 0.9029304029303944 0 0 0 289.2695139592915 310.469270825311 Z" stroke="#ffffff" stroke-width="0" opacity="1" class="highcharts-point"></path><path fill="#a9fad3" d="M 285.7539814438745 304.07112745560585 A 8.126373626373635 8.126373626373635 0 0 1 288.0950348605353 303.1000597386534 L 290 311 A 0 0 0 0 0 290 311 Z" stroke="#ffffff" stroke-width="0" opacity="1" class="highcharts-point"></path></g><g class="highcharts-markers highcharts-series-1 highcharts-column-series" data-z-index="0.1" opacity="1" transform="translate(10,10) scale(1 1)" clip-path="none"></g><g class="highcharts-series highcharts-series-2 highcharts-column-series highcharts-dense-data" data-z-index="0.1" opacity="1" transform="translate(10,10) scale(1 1)" clip-path="url(#highcharts-uc5pwyd-714)"><path fill="#88f79f" d="M 285.6495174158299 283.53213399462857 A 27.810256410256414 27.810256410256414 0 0 1 294.3230125475016 283.5277972467013 L 292.27379231394565 296.5503349154728 A 14.62747252747252 14.62747252747252 0 0 0 287.71175916027414 296.5526159322397 Z" stroke="#ffffff" stroke-width="0" opacity="1" class="highcharts-point"></path><path fill="#88f79f" d="M 296.1549195603004 285.3629149705553 A 26.36556776556776 26.36556776556776 0 0 1 303.75348408915886 288.50589323822794 L 296.3115303696825 300.67736196548816 A 12.099267399267404 12.099267399267404 0 0 0 292.8245178804118 299.2350363221041 Z" stroke="#ffffff" stroke-width="0" opacity="1" class="highcharts-point"></path><path fill="#88f79f" d="M 309.53083362855494 284.1181137019267 A 33.22783882783884 33.22783882783884 0 0 1 316.8623420267579 291.4422942550434 L 299.3434233136549 304.19731974088467 A 11.557509157509145 11.557509157509145 0 0 0 296.7933334360191 301.64977867893106 Z" stroke="#ffffff" stroke-width="0" opacity="1" class="highcharts-point"></path><path fill="#88f79f" d="M 356.36320148075225 270.33257782910846 A 77.83260073260072 77.83260073260072 0 0 1 365.6638722808973 292.7546672197928 L 311.41761581965073 305.8354278441177 A 22.031501831501828 22.031501831501828 0 0 0 308.78494334257954 299.488571914504 Z" stroke="#ffffff" stroke-width="0" opacity="1" class="highcharts-point"></path><path fill="#88f79f" d="M 353.67550755790654 300.91479037306044 A 64.46923076923076 64.46923076923076 0 0 1 353.68556092810144 321.0215290873903 L 306.23357435422196 313.5545074144328 A 16.433333333333337 16.433333333333337 0 0 0 306.23101173044677 308.4292602911723 Z" stroke="#ffffff" stroke-width="0" opacity="1" class="highcharts-point"></path><path fill="#88f79f" d="M 354.26830904641645 326.42945588403967 A 66.09450549450548 66.09450549450548 0 0 1 346.3893361288264 345.4779121687124 L 310.4912068446282 323.52885879354847 A 24.017948717948713 24.017948717948713 0 0 0 313.35433088298737 316.60687877753355 Z" stroke="#ffffff" stroke-width="0" opacity="1" class="highcharts-point"></path><path fill="#88f79f" d="M 338.21207868676356 346.02812552947125 A 59.5934065934066 59.5934065934066 0 0 1 325.0763200860657 359.17702646103163 L 302.22356609059864 327.78896376672316 A 20.76739926739927 20.76739926739927 0 0 0 306.80117893629637 323.20677101784605 Z" stroke="#ffffff" stroke-width="0" opacity="1" class="highcharts-point"></path><path fill="#88f79f" d="M 326.13833571102407 369.9724041000653 A 69.16446886446886 69.16446886446886 0 0 1 306.2133699647778 378.23726933546095 L 295.0375744799179 331.890953135561 A 21.489743589743597 21.489743589743597 0 0 0 301.2283601817542 329.32301850628664 Z" stroke="#ffffff" stroke-width="0" opacity="1" class="highcharts-point"></path><path fill="#88f79f" d="M 307.14768135448793 419.26619912506806 A 109.61575091575091 109.61575091575091 0 0 1 272.9605934004312 419.28329267046934 L 284.6664130907445 344.8942761241996 A 34.31135531135533 34.31135531135533 0 0 0 295.36747851293694 344.8889255910427 Z" stroke="#ffffff" stroke-width="0" opacity="1" class="highcharts-point"></path><path fill="#88f79f" d="M 274.27544523293204 376.49748435604727 A 67.35860805860807 67.35860805860807 0 0 1 254.8626742105743 368.46782069959625 L 280.4856034725684 326.56099166396575 A 18.239194139194126 18.239194139194126 0 0 0 285.74214468773766 328.73524375324604 Z" stroke="#ffffff" stroke-width="0" opacity="1" class="highcharts-point"></path><path fill="#88f79f" d="M 251.7874994223948 363.59499493101464 A 65.01098901098902 65.01098901098902 0 0 1 237.44324386069263 349.26507645752605 L 274.9629281045871 321.9480635420144 A 18.60036630036629 18.60036630036629 0 0 0 279.0669790014074 326.04801243859583 Z" stroke="#ffffff" stroke-width="0" opacity="1" class="highcharts-point"></path><path fill="#88f79f" d="M 242.88366669812 339.87292618165355 A 55.259340659340666 55.259340659340666 0 0 1 236.28040622284314 323.9537629483602 L 277.3600955818454 314.0479442231436 A 13.002197802197799 13.002197802197799 0 0 0 278.9138039289694 317.7936296898008 Z" stroke="#ffffff" stroke-width="0" opacity="1" class="highcharts-point"></path><path fill="#88f79f" d="M 223.29232541552636 321.56545770441244 A 67.53919413919414 67.53919413919414 0 0 1 223.2817933134176 300.5012552417811 L 269.66343432548024 307.7998478544466 A 20.586813186813174 20.586813186813174 0 0 0 269.6666446453744 314.2204871077621 Z" stroke="#ffffff" stroke-width="0" opacity="1" class="highcharts-point"></path><path fill="#88f79f" d="M 253.65153012948585 302.2735044590265 A 37.381318681318675 37.381318681318675 0 0 1 258.1076705500901 291.5001972160559 L 280.2936388630709 305.06527741358224 A 11.376923076923077 11.376923076923077 0 0 0 278.9374222133218 308.3441100527472 Z" stroke="#ffffff" stroke-width="0" opacity="1" class="highcharts-point"></path><path fill="#88f79f" d="M 265.4556690321932 293.16749973045086 A 30.33846153846153 30.33846153846153 0 0 1 272.14296431982126 286.4735138016565 L 282.8784441037382 301.2186037185178 A 12.099267399267404 12.099267399267404 0 0 0 280.2114870545056 303.8882290591679 Z" stroke="#ffffff" stroke-width="0" opacity="1" class="highcharts-point"></path><path fill="#88f79f" d="M 279.620843529471 294.0627560025921 A 19.864468864468876 19.864468864468876 0 0 1 285.34341854797515 291.6890349167083 L 288.0950348605353 303.1000597386534 A 8.126373626373635 8.126373626373635 0 0 0 285.7539814438745 304.07112745560585 Z" stroke="#ffffff" stroke-width="0" opacity="1" class="highcharts-point"></path></g><g class="highcharts-markers highcharts-series-2 highcharts-column-series" data-z-index="0.1" opacity="1" transform="translate(10,10) scale(1 1)" clip-path="none"></g><g class="highcharts-series highcharts-series-3 highcharts-column-series highcharts-dense-data" data-z-index="0.1" opacity="1" transform="translate(10,10) scale(1 1)" clip-path="url(#highcharts-uc5pwyd-731)"><path fill="#64de6a" d="M 285.0280199038056 279.60815313671833 A 31.783150183150184 31.783150183150184 0 0 1 294.94058576857327 279.60319685337294 L 294.3230125475016 283.5277972467013 A 27.810256410256414 27.810256410256414 0 0 0 285.6495174158299 283.53213399462857 Z" stroke="#ffffff" stroke-width="0" opacity="1" class="highcharts-point"></path><path fill="#64de6a" d="M 297.16668715925385 281.1485996232493 A 30.699633699633694 30.699633699633694 0 0 1 306.01433078874663 284.8082318527312 L 303.75348408915886 288.50589323822794 A 26.36556776556776 26.36556776556776 0 0 0 296.1549195603004 285.3629149705553 Z" stroke="#ffffff" stroke-width="0" opacity="1" class="highcharts-point"></path><path fill="#64de6a" d="M 316.32416706457406 274.7678923808577 A 44.78534798534798 44.78534798534798 0 0 1 326.2057653404129 284.6396139959281 L 316.8623420267579 291.4422942550434 A 33.22783882783884 33.22783882783884 0 0 0 309.53083362855494 284.1181137019267 Z" stroke="#ffffff" stroke-width="0" opacity="1" class="highcharts-point"></path><path fill="#64de6a" d="M 398.0904116925477 244.7621105244411 A 126.77142857142857 126.77142857142857 0 0 1 413.2390680770067 281.2825438243493 L 365.6638722808973 292.7546672197928 A 77.83260073260072 77.83260073260072 0 0 0 356.36320148075225 270.33257782910846 Z" stroke="#ffffff" stroke-width="0" opacity="1" class="highcharts-point"></path><path fill="#64de6a" d="M 381.67846186208396 296.47955812815985 A 92.82124542124541 92.82124542124541 0 0 1 381.6929364623085 325.4287561650382 L 353.68556092810144 321.0215290873903 A 64.46923076923076 64.46923076923076 0 0 0 353.67550755790654 300.91479037306044 Z" stroke="#ffffff" stroke-width="0" opacity="1" class="highcharts-point"></path><path fill="#64de6a" d="M 368.31602687076975 329.8020145472177 A 80.54139194139194 80.54139194139194 0 0 1 358.7148740804825 353.0140678340047 L 346.3893361288264 345.4779121687124 A 66.09450549450548 66.09450549450548 0 0 0 354.26830904641645 326.42945588403967 Z" stroke="#ffffff" stroke-width="0" opacity="1" class="highcharts-point"></path><path fill="#64de6a" d="M 346.8318139671243 352.290729790801 A 70.24798534798535 70.24798534798535 0 0 1 331.34754094993804 367.790494828307 L 325.0763200860657 359.17702646103163 A 59.5934065934066 59.5934065934066 0 0 0 338.21207868676356 346.02812552947125 Z" stroke="#ffffff" stroke-width="0" opacity="1" class="highcharts-point"></path><path fill="#64de6a" d="M 332.83760943291105 380.904625225665 A 81.98608058608059 81.98608058608059 0 0 1 309.2189816292667 390.7016195255856 L 306.2133699647778 378.23726933546095 A 69.16446886446886 69.16446886446886 0 0 0 326.13833571102407 369.9724041000653 Z" stroke="#ffffff" stroke-width="0" opacity="1" class="highcharts-point"></path><path fill="#64de6a" d="M 310.56591767062145 440.84809384357425 A 131.46666666666667 131.46666666666667 0 0 1 269.56394068453693 440.86859483377543 L 272.9605934004312 419.28329267046934 A 109.61575091575091 109.61575091575091 0 0 0 307.14768135448793 419.26619912506806 Z" stroke="#ffffff" stroke-width="0" opacity="1" class="highcharts-point"></path><path fill="#64de6a" d="M 269.3009212047443 397.2178681469684 A 88.66776556776557 88.66776556776557 0 0 1 243.7468446042681 386.64798917828887 L 254.8626742105743 368.46782069959625 A 67.35860805860807 67.35860805860807 0 0 0 274.27544523293204 376.49748435604727 Z" stroke="#ffffff" stroke-width="0" opacity="1" class="highcharts-point"></path><path fill="#64de6a" d="M 231.08906160952532 392.0839505186476 A 100.22527472527474 100.22527472527474 0 0 1 208.97500095190114 369.9919928720193 L 237.44324386069263 349.26507645752605 A 65.01098901098902 65.01098901098902 0 0 0 251.7874994223948 363.59499493101464 Z" stroke="#ffffff" stroke-width="0" opacity="1" class="highcharts-point"></path><path fill="#64de6a" d="M 197.15310790511887 367.89664865208204 A 108.89340659340661 108.89340659340661 0 0 1 184.14080049795558 336.5265328688275 L 236.28040622284314 323.9537629483602 A 55.259340659340666 55.259340659340666 0 0 0 242.88366669812 339.87292618165355 Z" stroke="#ffffff" stroke-width="0" opacity="1" class="highcharts-point"></path><path fill="#64de6a" d="M 162.82734765045538 331.14216936696806 A 128.75787545787546 128.75787545787546 0 0 1 162.80726907076672 290.9850133352672 L 223.2817933134176 300.5012552417811 A 67.53919413919414 67.53919413919414 0 0 0 223.29232541552636 321.56545770441244 Z" stroke="#ffffff" stroke-width="0" opacity="1" class="highcharts-point"></path><path fill="#64de6a" d="M 231.17518161052058 296.87741059794143 A 60.49633699633699 60.49633699633699 0 0 1 238.38680982744052 279.442348151588 L 258.1076705500901 291.5001972160559 A 37.381318681318675 37.381318681318675 0 0 0 253.65153012948585 302.2735044590265 Z" stroke="#ffffff" stroke-width="0" opacity="1" class="highcharts-point"></path><path fill="#64de6a" d="M 257.42032258439934 287.32947880887224 A 40.270695970695954 40.270695970695954 0 0 1 266.2969109721437 278.44400939148454 L 272.14296431982126 286.4735138016565 A 30.33846153846153 30.33846153846153 0 0 0 265.4556690321932 293.16749973045086 Z" stroke="#ffffff" stroke-width="0" opacity="1" class="highcharts-point"></path><path fill="#64de6a" d="M 276.79016449205403 289.4435076396627 A 25.28205128205127 25.28205128205127 0 0 1 284.073441788332 286.4224080758106 L 285.34341854797515 291.6890349167083 A 19.864468864468876 19.864468864468876 0 0 0 279.620843529471 294.0627560025921 Z" stroke="#ffffff" stroke-width="0" opacity="1" class="highcharts-point"></path></g><g class="highcharts-markers highcharts-series-3 highcharts-column-series" data-z-index="0.1" opacity="1" transform="translate(10,10) scale(1 1)" clip-path="none"></g><g class="highcharts-series highcharts-series-4 highcharts-column-series highcharts-dense-data" data-z-index="0.1" opacity="1" transform="translate(10,10) scale(1 1)" clip-path="url(#highcharts-uc5pwyd-748)"><path fill="#30bf1d" d="M 284.9150203561648 278.89470207164374 A 32.50549450549451 32.50549450549451 0 0 1 295.05287180876815 278.88963314549505 L 294.94058576857327 279.60319685337294 A 31.783150183150184 31.783150183150184 0 0 0 285.0280199038056 279.60815313671833 Z" stroke="#ffffff" stroke-width="0" opacity="1" class="highcharts-point"></path><path fill="#30bf1d" d="M 297.37747207570254 280.27061725922727 A 31.602564102564088 31.602564102564088 0 0 1 306.4853405178274 284.0378857307527 L 306.01433078874663 284.8082318527312 A 30.699633699633694 30.699633699633694 0 0 0 297.16668715925385 281.1485996232493 Z" stroke="#ffffff" stroke-width="0" opacity="1" class="highcharts-point"></path><path fill="#30bf1d" d="M 318.2347920934544 272.1381426343071 A 48.035897435897425 48.035897435897425 0 0 1 328.8336031473783 282.7263601730519 L 326.2057653404129 284.6396139959281 A 44.78534798534798 44.78534798534798 0 0 0 316.32416706457406 274.7678923808577 Z" stroke="#ffffff" stroke-width="0" opacity="1" class="highcharts-point"></path><path fill="#30bf1d" d="M 419.18497921659196 231.8353429202366 A 151.5117216117216 151.5117216117216 0 0 1 437.2899973171063 275.4829832886454 L 413.2390680770067 281.2825438243493 A 126.77142857142857 126.77142857142857 0 0 0 398.0904116925477 244.7621105244411 Z" stroke="#ffffff" stroke-width="0" opacity="1" class="highcharts-point"></path><path fill="#30bf1d" d="M 391.31005124059084 294.9540642350093 A 102.57289377289379 102.57289377289379 0 0 1 391.32604651866 326.9446177076686 L 381.6929364623085 325.4287561650382 A 92.82124542124541 92.82124542124541 0 0 0 381.67846186208396 296.47955812815985 Z" stroke="#ffffff" stroke-width="0" opacity="1" class="highcharts-point"></path><path fill="#30bf1d" d="M 370.949973962836 330.4343692965636 A 83.25018315018315 83.25018315018315 0 0 1 361.02591244641803 354.42709702124705 L 358.7148740804825 353.0140678340047 A 80.54139194139194 80.54139194139194 0 0 0 368.31602687076975 329.8020145472177 Z" stroke="#ffffff" stroke-width="0" opacity="1" class="highcharts-point"></path><path fill="#30bf1d" d="M 348.1466888403997 353.2460423052411 A 71.87326007326007 71.87326007326007 0 0 1 332.3041678613762 369.10441373178963 L 331.34754094993804 367.790494828307 A 70.24798534798535 70.24798534798535 0 0 0 346.8318139671243 352.290729790801 Z" stroke="#ffffff" stroke-width="0" opacity="1" class="highcharts-point"></path><path fill="#30bf1d" d="M 333.78116911205007 382.44437467997477 A 83.7919413919414 83.7919413919414 0 0 1 309.6423072158144 392.4571618058849 L 309.2189816292667 390.7016195255856 A 81.98608058608059 81.98608058608059 0 0 0 332.83760943291105 380.904625225665 Z" stroke="#ffffff" stroke-width="0" opacity="1" class="highcharts-point"></path><path fill="#30bf1d" d="M 310.87666642663356 442.81008427252937 A 133.45311355311355 133.45311355311355 0 0 1 269.2551540740011 442.8308950304396 L 269.56394068453693 440.86859483377543 A 131.46666666666667 131.46666666666667 0 0 0 310.56591767062145 440.84809384357425 Z" stroke="#ffffff" stroke-width="0" opacity="1" class="highcharts-point"></path><path fill="#30bf1d" d="M 268.120525672632 402.13456938549206 A 93.7241758241758 93.7241758241758 0 0 1 241.10919012141576 390.9619274613684 L 243.7468446042681 386.64798917828887 A 88.66776556776557 88.66776556776557 0 0 0 269.3009212047443 397.2178681469684 Z" stroke="#ffffff" stroke-width="0" opacity="1" class="highcharts-point"></path><path fill="#30bf1d" d="M 218.66999892180365 409.1773238712274 A 121.35384615384615 121.35384615384615 0 0 1 191.89405520662626 382.42814272071524 L 208.97500095190114 369.9919928720193 A 100.22527472527474 100.22527472527474 0 0 0 231.08906160952532 392.0839505186476 Z" stroke="#ffffff" stroke-width="0" opacity="1" class="highcharts-point"></path><path fill="#30bf1d" d="M 151.26857416668676 396.01472709042434 A 162.7080586080586 162.7080586080586 0 0 1 131.82564054503814 349.1416353479495 L 184.14080049795558 336.5265328688275 A 108.89340659340661 108.89340659340661 0 0 0 197.15310790511887 367.89664865208204 Z" stroke="#ffffff" stroke-width="0" opacity="1" class="highcharts-point"></path><path fill="#30bf1d" d="M 116.45302842060738 338.48713996361846 A 175.71025641025642 175.71025641025642 0 0 1 116.42562805870409 283.6864207226016 L 162.80726907076672 290.9850133352672 A 128.75787545787546 128.75787545787546 0 0 0 162.82734765045538 331.14216936696806 Z" stroke="#ffffff" stroke-width="0" opacity="1" class="highcharts-point"></path><path fill="#30bf1d" d="M 220.99058618786444 294.4323055671373 A 70.97032967032968 70.97032967032968 0 0 1 229.4507948124899 273.97863529425103 L 238.38680982744052 279.442348151588 A 60.49633699633699 60.49633699633699 0 0 0 231.17518161052058 296.87741059794143 Z" stroke="#ffffff" stroke-width="0" opacity="1" class="highcharts-point"></path><path fill="#30bf1d" d="M 254.93667004599033 285.52499961492975 A 43.34065934065933 43.34065934065933 0 0 1 264.48994902831606 275.962162573795 L 266.2969109721437 278.44400939148454 A 40.270695970695954 40.270695970695954 0 0 0 257.42032258439934 287.32947880887224 Z" stroke="#ffffff" stroke-width="0" opacity="1" class="highcharts-point"></path><path fill="#30bf1d" d="M 276.12967271665667 288.36568302164585 A 26.546153846153857 26.546153846153857 0 0 1 283.7771138777486 285.19352847960107 L 284.073441788332 286.4224080758106 A 25.28205128205127 25.28205128205127 0 0 0 276.79016449205403 289.4435076396627 Z" stroke="#ffffff" stroke-width="0" opacity="1" class="highcharts-point"></path></g><g class="highcharts-markers highcharts-series-4 highcharts-column-series" data-z-index="0.1" opacity="1" transform="translate(10,10) scale(1 1)" clip-path="none"></g><g class="highcharts-series highcharts-series-5 highcharts-column-series highcharts-dense-data" data-z-index="0.1" opacity="1" transform="translate(10,10) scale(1 1)" clip-path="url(#highcharts-uc5pwyd-765)"><path fill="#0d955d" d="M 284.9150203561648 278.89470207164374 A 32.50549450549451 32.50549450549451 0 0 1 295.05287180876815 278.88963314549505 L 295.05287180876815 278.88963314549505 A 32.50549450549451 32.50549450549451 0 0 0 284.9150203561648 278.89470207164374 Z" stroke="#ffffff" stroke-width="0" opacity="1" class="highcharts-point"></path><path fill="#0d955d" d="M 297.37747207570254 280.27061725922727 A 31.602564102564088 31.602564102564088 0 0 1 306.4853405178274 284.0378857307527 L 306.4853405178274 284.0378857307527 A 31.602564102564088 31.602564102564088 0 0 0 297.37747207570254 280.27061725922727 Z" stroke="#ffffff" stroke-width="0" opacity="1" class="highcharts-point"></path><path fill="#0d955d" d="M 318.6593754332056 271.55375380174024 A 48.75824175824175 48.75824175824175 0 0 1 329.41756710448175 282.30119265685715 L 328.8336031473783 282.7263601730519 A 48.035897435897425 48.035897435897425 0 0 0 318.2347920934544 272.1381426343071 Z" stroke="#ffffff" stroke-width="0" opacity="1" class="highcharts-point"></path><path fill="#0d955d" d="M 426.26782670641705 227.49496839619712 A 159.8186813186813 159.8186813186813 0 0 1 445.36549180648285 273.5356855905259 L 437.2899973171063 275.4829832886454 A 151.5117216117216 151.5117216117216 0 0 0 419.18497921659196 231.8353429202366 Z" stroke="#ffffff" stroke-width="0" opacity="1" class="highcharts-point"></path><path fill="#0d955d" d="M 394.3422182671578 294.47381615753596 A 105.64285714285714 105.64285714285714 0 0 1 394.358692277141 327.42183337849673 L 391.32604651866 326.9446177076686 A 102.57289377289379 102.57289377289379 0 0 0 391.31005124059084 294.9540642350093 Z" stroke="#ffffff" stroke-width="0" opacity="1" class="highcharts-point"></path><path fill="#0d955d" d="M 371.1255704356404 330.4765262798533 A 83.43076923076922 83.43076923076922 0 0 1 361.1799816708137 354.52129896706316 L 361.02591244641803 354.42709702124705 A 83.25018315018315 83.25018315018315 0 0 0 370.949973962836 330.4343692965636 Z" stroke="#ffffff" stroke-width="0" opacity="1" class="highcharts-point"></path><path fill="#0d955d" d="M 348.1466888403997 353.2460423052411 A 71.87326007326007 71.87326007326007 0 0 1 332.3041678613762 369.10441373178963 L 332.3041678613762 369.10441373178963 A 71.87326007326007 71.87326007326007 0 0 0 348.1466888403997 353.2460423052411 Z" stroke="#ffffff" stroke-width="0" opacity="1" class="highcharts-point"></path><path fill="#0d955d" d="M 333.78116911205007 382.44437467997477 A 83.7919413919414 83.7919413919414 0 0 1 309.6423072158144 392.4571618058849 L 309.6423072158144 392.4571618058849 A 83.7919413919414 83.7919413919414 0 0 0 333.78116911205007 382.44437467997477 Z" stroke="#ffffff" stroke-width="0" opacity="1" class="highcharts-point"></path><path fill="#0d955d" d="M 310.90491631354377 442.988447038798 A 133.63369963369962 133.63369963369962 0 0 1 269.22708256395237 443.009285957409 L 269.2551540740011 442.8308950304396 A 133.45311355311355 133.45311355311355 0 0 0 310.87666642663356 442.81008427252937 Z" stroke="#ffffff" stroke-width="0" opacity="1" class="highcharts-point"></path><path fill="#0d955d" d="M 267.9518977394731 402.8369552767097 A 94.44652014652013 94.44652014652013 0 0 1 240.73238233815115 391.57820435895127 L 241.10919012141576 390.9619274613684 A 93.7241758241758 93.7241758241758 0 0 0 268.120525672632 402.13456938549206 Z" stroke="#ffffff" stroke-width="0" opacity="1" class="highcharts-point"></path><path fill="#0d955d" d="M 213.25656133997623 416.6282814864544 A 130.56373626373627 130.56373626373627 0 0 1 184.44851475355773 387.8490285521981 L 191.89405520662626 382.42814272071524 A 121.35384615384615 121.35384615384615 0 0 0 218.66999892180365 409.1773238712274 Z" stroke="#ffffff" stroke-width="0" opacity="1" class="highcharts-point"></path><path fill="#0d955d" d="M 118.31793584445694 416.2069042239991 A 201.35347985347985 201.35347985347985 0 0 1 94.2570357466343 358.20080290007064 L 131.82564054503814 349.1416353479495 A 162.7080586080586 162.7080586080586 0 0 0 151.26857416668676 396.01472709042434 Z" stroke="#ffffff" stroke-width="0" opacity="1" class="highcharts-point"></path><path fill="#0d955d" d="M 93.62259433822072 342.1031254881232 A 198.8252747252747 198.8252747252747 0 0 1 93.59158940661175 280.09326743636626 L 116.42562805870409 283.6864207226016 A 175.71025641025642 175.71025641025642 0 0 0 116.45302842060738 338.48713996361846 Z" stroke="#ffffff" stroke-width="0" opacity="1" class="highcharts-point"></path><path fill="#0d955d" d="M 217.3030602589717 293.54700891805305 A 74.76263736263735 74.76263736263735 0 0 1 226.2153411001802 272.00039443211176 L 229.4507948124899 273.97863529425103 A 70.97032967032968 70.97032967032968 0 0 0 220.99058618786444 294.4323055671373 Z" stroke="#ffffff" stroke-width="0" opacity="1" class="highcharts-point"></path><path fill="#0d955d" d="M 254.35228121342348 285.1004162751786 A 44.063003663003656 44.063003663003656 0 0 1 264.06478151212133 275.37819861669163 L 264.48994902831606 275.962162573795 A 43.34065934065933 43.34065934065933 0 0 0 254.93667004599033 285.52499961492975 Z" stroke="#ffffff" stroke-width="0" opacity="1" class="highcharts-point"></path><path fill="#0d955d" d="M 276.0353167487428 288.21170807621485 A 26.726739926739924 26.726739926739924 0 0 1 283.7347813190938 285.01797425157116 L 283.7771138777486 285.19352847960107 A 26.546153846153857 26.546153846153857 0 0 0 276.12967271665667 288.36568302164585 Z" stroke="#ffffff" stroke-width="0" opacity="1" class="highcharts-point"></path></g><g class="highcharts-markers highcharts-series-5 highcharts-column-series" data-z-index="0.1" opacity="1" transform="translate(10,10) scale(1 1)" clip-path="none"></g><g class="highcharts-series highcharts-series-6 highcharts-column-series highcharts-dense-data" data-z-index="0.1" opacity="1" transform="translate(10,10) scale(1 1)" clip-path="url(#highcharts-uc5pwyd-782)"><path fill="#89b307" d="M 284.9150203561648 278.89470207164374 A 32.50549450549451 32.50549450549451 0 0 1 295.05287180876815 278.88963314549505 L 295.05287180876815 278.88963314549505 A 32.50549450549451 32.50549450549451 0 0 0 284.9150203561648 278.89470207164374 Z" stroke="#ffffff" stroke-width="0" opacity="1" class="highcharts-point"></path><path fill="#89b307" d="M 297.37747207570254 280.27061725922727 A 31.602564102564088 31.602564102564088 0 0 1 306.4853405178274 284.0378857307527 L 306.4853405178274 284.0378857307527 A 31.602564102564088 31.602564102564088 0 0 0 297.37747207570254 280.27061725922727 Z" stroke="#ffffff" stroke-width="0" opacity="1" class="highcharts-point"></path><path fill="#89b307" d="M 318.6593754332056 271.55375380174024 A 48.75824175824175 48.75824175824175 0 0 1 329.41756710448175 282.30119265685715 L 329.41756710448175 282.30119265685715 A 48.75824175824175 48.75824175824175 0 0 0 318.6593754332056 271.55375380174024 Z" stroke="#ffffff" stroke-width="0" opacity="1" class="highcharts-point"></path><path fill="#89b307" d="M 427.49962626986485 226.74012065288593 A 161.26336996336997 161.26336996336997 0 0 1 446.76992563072224 273.19702512128765 L 445.36549180648285 273.5356855905259 A 159.8186813186813 159.8186813186813 0 0 0 426.26782670641705 227.49496839619712 Z" stroke="#ffffff" stroke-width="0" opacity="1" class="highcharts-point"></path><path fill="#89b307" d="M 394.87730656596375 294.3890664968054 A 106.18461538461537 106.18461538461537 0 0 1 394.8938650580494 327.50604790864287 L 394.358692277141 327.42183337849673 A 105.64285714285714 105.64285714285714 0 0 0 394.3422182671578 294.47381615753596 Z" stroke="#ffffff" stroke-width="0" opacity="1" class="highcharts-point"></path><path fill="#89b307" d="M 371.1255704356404 330.4765262798533 A 83.43076923076922 83.43076923076922 0 0 1 361.1799816708137 354.52129896706316 L 361.1799816708137 354.52129896706316 A 83.43076923076922 83.43076923076922 0 0 0 371.1255704356404 330.4765262798533 Z" stroke="#ffffff" stroke-width="0" opacity="1" class="highcharts-point"></path><path fill="#89b307" d="M 348.1466888403997 353.2460423052411 A 71.87326007326007 71.87326007326007 0 0 1 332.3041678613762 369.10441373178963 L 332.3041678613762 369.10441373178963 A 71.87326007326007 71.87326007326007 0 0 0 348.1466888403997 353.2460423052411 Z" stroke="#ffffff" stroke-width="0" opacity="1" class="highcharts-point"></path><path fill="#89b307" d="M 333.78116911205007 382.44437467997477 A 83.7919413919414 83.7919413919414 0 0 1 309.6423072158144 392.4571618058849 L 309.6423072158144 392.4571618058849 A 83.7919413919414 83.7919413919414 0 0 0 333.78116911205007 382.44437467997477 Z" stroke="#ffffff" stroke-width="0" opacity="1" class="highcharts-point"></path><path fill="#89b307" d="M 310.90491631354377 442.988447038798 A 133.63369963369962 133.63369963369962 0 0 1 269.22708256395237 443.009285957409 L 269.22708256395237 443.009285957409 A 133.63369963369962 133.63369963369962 0 0 0 310.90491631354377 442.988447038798 Z" stroke="#ffffff" stroke-width="0" opacity="1" class="highcharts-point"></path><path fill="#89b307" d="M 267.9518977394731 402.8369552767097 A 94.44652014652013 94.44652014652013 0 0 1 240.73238233815115 391.57820435895127 L 240.73238233815115 391.57820435895127 A 94.44652014652013 94.44652014652013 0 0 0 267.9518977394731 402.8369552767097 Z" stroke="#ffffff" stroke-width="0" opacity="1" class="highcharts-point"></path><path fill="#89b307" d="M 211.45208214603377 419.11193402486344 A 133.63369963369962 133.63369963369962 0 0 1 181.9666679358682 389.6559904960257 L 184.44851475355773 387.8490285521981 A 130.56373626373627 130.56373626373627 0 0 0 213.25656133997623 416.6282814864544 Z" stroke="#ffffff" stroke-width="0" opacity="1" class="highcharts-point"></path><path fill="#89b307" d="M 100.61081711989422 427.05784053409764 A 222.12087912087912 222.12087912087912 0 0 1 74.06829952319299 363.06904714536944 L 94.2570357466343 358.20080290007064 A 201.35347985347985 201.35347985347985 0 0 0 118.31793584445694 416.2069042239991 Z" stroke="#ffffff" stroke-width="0" opacity="1" class="highcharts-point"></path><path fill="#89b307" d="M 81.67228899822143 343.9958679111062 A 210.9245421245421 210.9245421245421 0 0 1 81.63939729965713 278.2124762631025 L 93.59158940661175 280.09326743636626 A 198.8252747252747 198.8252747252747 0 0 0 93.62259433822072 342.1031254881232 Z" stroke="#ffffff" stroke-width="0" opacity="1" class="highcharts-point"></path><path fill="#89b307" d="M 215.89828847653638 293.2097530517352 A 76.207326007326 76.207326007326 0 0 1 224.9827873050146 271.24677886558254 L 226.2153411001802 272.00039443211176 A 74.76263736263735 74.76263736263735 0 0 0 217.3030602589717 293.54700891805305 Z" stroke="#ffffff" stroke-width="0" opacity="1" class="highcharts-point"></path><path fill="#89b307" d="M 254.20618400528178 284.99427044024077 A 44.24358974358975 44.24358974358975 0 0 1 263.95848963307265 275.23220762741573 L 264.06478151212133 275.37819861669163 A 44.063003663003656 44.063003663003656 0 0 0 254.35228121342348 285.1004162751786 Z" stroke="#ffffff" stroke-width="0" opacity="1" class="highcharts-point"></path><path fill="#89b307" d="M 276.0353167487428 288.21170807621485 A 26.726739926739924 26.726739926739924 0 0 1 283.7347813190938 285.01797425157116 L 283.7347813190938 285.01797425157116 A 26.726739926739924 26.726739926739924 0 0 0 276.0353167487428 288.21170807621485 Z" stroke="#ffffff" stroke-width="0" opacity="1" class="highcharts-point"></path></g><g class="highcharts-markers highcharts-series-6 highcharts-column-series" data-z-index="0.1" opacity="1" transform="translate(10,10) scale(1 1)" clip-path="none"></g><g class="highcharts-series highcharts-series-7 highcharts-column-series highcharts-dense-data" data-z-index="0.1" opacity="1" transform="translate(10,10) scale(1 1)" clip-path="url(#highcharts-uc5pwyd-799)"><path fill="#e6e416" d="M 284.9150203561648 278.89470207164374 A 32.50549450549451 32.50549450549451 0 0 1 295.05287180876815 278.88963314549505 L 295.05287180876815 278.88963314549505 A 32.50549450549451 32.50549450549451 0 0 0 284.9150203561648 278.89470207164374 Z" stroke="#ffffff" stroke-width="0" opacity="1" class="highcharts-point"></path><path fill="#e6e416" d="M 297.37747207570254 280.27061725922727 A 31.602564102564088 31.602564102564088 0 0 1 306.4853405178274 284.0378857307527 L 306.4853405178274 284.0378857307527 A 31.602564102564088 31.602564102564088 0 0 0 297.37747207570254 280.27061725922727 Z" stroke="#ffffff" stroke-width="0" opacity="1" class="highcharts-point"></path><path fill="#e6e416" d="M 318.6593754332056 271.55375380174024 A 48.75824175824175 48.75824175824175 0 0 1 329.41756710448175 282.30119265685715 L 329.41756710448175 282.30119265685715 A 48.75824175824175 48.75824175824175 0 0 0 318.6593754332056 271.55375380174024 Z" stroke="#ffffff" stroke-width="0" opacity="1" class="highcharts-point"></path><path fill="#e6e416" d="M 427.65360121529585 226.64576468497202 A 161.44395604395604 161.44395604395604 0 0 1 446.94547985875215 273.1546925626329 L 446.76992563072224 273.19702512128765 A 161.26336996336997 161.26336996336997 0 0 0 427.49962626986485 226.74012065288593 Z" stroke="#ffffff" stroke-width="0" opacity="1" class="highcharts-point"></path><path fill="#e6e416" d="M 394.87730656596375 294.3890664968054 A 106.18461538461537 106.18461538461537 0 0 1 394.8938650580494 327.50604790864287 L 394.8938650580494 327.50604790864287 A 106.18461538461537 106.18461538461537 0 0 0 394.87730656596375 294.3890664968054 Z" stroke="#ffffff" stroke-width="0" opacity="1" class="highcharts-point"></path><path fill="#e6e416" d="M 371.1255704356404 330.4765262798533 A 83.43076923076922 83.43076923076922 0 0 1 361.1799816708137 354.52129896706316 L 361.1799816708137 354.52129896706316 A 83.43076923076922 83.43076923076922 0 0 0 371.1255704356404 330.4765262798533 Z" stroke="#ffffff" stroke-width="0" opacity="1" class="highcharts-point"></path><path fill="#e6e416" d="M 348.1466888403997 353.2460423052411 A 71.87326007326007 71.87326007326007 0 0 1 332.3041678613762 369.10441373178963 L 332.3041678613762 369.10441373178963 A 71.87326007326007 71.87326007326007 0 0 0 348.1466888403997 353.2460423052411 Z" stroke="#ffffff" stroke-width="0" opacity="1" class="highcharts-point"></path><path fill="#e6e416" d="M 333.78116911205007 382.44437467997477 A 83.7919413919414 83.7919413919414 0 0 1 309.6423072158144 392.4571618058849 L 309.6423072158144 392.4571618058849 A 83.7919413919414 83.7919413919414 0 0 0 333.78116911205007 382.44437467997477 Z" stroke="#ffffff" stroke-width="0" opacity="1" class="highcharts-point"></path><path fill="#e6e416" d="M 310.90491631354377 442.988447038798 A 133.63369963369962 133.63369963369962 0 0 1 269.22708256395237 443.009285957409 L 269.22708256395237 443.009285957409 A 133.63369963369962 133.63369963369962 0 0 0 310.90491631354377 442.988447038798 Z" stroke="#ffffff" stroke-width="0" opacity="1" class="highcharts-point"></path><path fill="#e6e416" d="M 267.9518977394731 402.8369552767097 A 94.44652014652013 94.44652014652013 0 0 1 240.73238233815115 391.57820435895127 L 240.73238233815115 391.57820435895127 A 94.44652014652013 94.44652014652013 0 0 0 267.9518977394731 402.8369552767097 Z" stroke="#ffffff" stroke-width="0" opacity="1" class="highcharts-point"></path><path fill="#e6e416" d="M 211.2397904761582 419.40412844114684 A 133.99487179487178 133.99487179487178 0 0 1 181.6746859573165 389.8685742541231 L 181.9666679358682 389.6559904960257 A 133.63369963369962 133.63369963369962 0 0 0 211.45208214603377 419.11193402486344 Z" stroke="#ffffff" stroke-width="0" opacity="1" class="highcharts-point"></path><path fill="#e6e416" d="M 93.22001973920715 431.5869269939649 A 230.789010989011 230.789010989011 0 0 1 65.64169657775662 365.1010099607985 L 74.06829952319299 363.06904714536944 A 222.12087912087912 222.12087912087912 0 0 0 100.61081711989422 427.05784053409764 Z" stroke="#ffffff" stroke-width="0" opacity="1" class="highcharts-point"></path><path fill="#e6e416" d="M 76.32140601016204 344.843364518412 A 216.34212454212454 216.34212454212454 0 0 1 76.28766949057297 277.37033096164106 L 81.63939729965713 278.2124762631025 A 210.9245421245421 210.9245421245421 0 0 0 81.67228899822143 343.9958679111062 Z" stroke="#ffffff" stroke-width="0" opacity="1" class="highcharts-point"></path><path fill="#e6e416" d="M 215.3714990581231 293.083282101866 A 76.74908424908426 76.74908424908426 0 0 1 224.5205796318275 270.96417302813404 L 224.9827873050146 271.24677886558254 A 76.207326007326 76.207326007326 0 0 0 215.89828847653638 293.2097530517352 Z" stroke="#ffffff" stroke-width="0" opacity="1" class="highcharts-point"></path><path fill="#e6e416" d="M 254.20618400528178 284.99427044024077 A 44.24358974358975 44.24358974358975 0 0 1 263.95848963307265 275.23220762741573 L 263.95848963307265 275.23220762741573 A 44.24358974358975 44.24358974358975 0 0 0 254.20618400528178 284.99427044024077 Z" stroke="#ffffff" stroke-width="0" opacity="1" class="highcharts-point"></path><path fill="#e6e416" d="M 276.0353167487428 288.21170807621485 A 26.726739926739924 26.726739926739924 0 0 1 283.7347813190938 285.01797425157116 L 283.7347813190938 285.01797425157116 A 26.726739926739924 26.726739926739924 0 0 0 276.0353167487428 288.21170807621485 Z" stroke="#ffffff" stroke-width="0" opacity="1" class="highcharts-point"></path></g><g class="highcharts-markers highcharts-series-7 highcharts-column-series" data-z-index="0.1" opacity="1" transform="translate(10,10) scale(1 1)" clip-path="none"></g><g class="highcharts-series highcharts-series-8 highcharts-column-series highcharts-dense-data" data-z-index="0.1" opacity="1" transform="translate(10,10) scale(1 1)" clip-path="url(#highcharts-uc5pwyd-816)"><path fill="#f29106" d="M 284.9150203561648 278.89470207164374 A 32.50549450549451 32.50549450549451 0 0 1 295.05287180876815 278.88963314549505 L 295.05287180876815 278.88963314549505 A 32.50549450549451 32.50549450549451 0 0 0 284.9150203561648 278.89470207164374 Z" stroke="#ffffff" stroke-width="0" opacity="1" class="highcharts-point"></path><path fill="#f29106" d="M 297.37747207570254 280.27061725922727 A 31.602564102564088 31.602564102564088 0 0 1 306.4853405178274 284.0378857307527 L 306.4853405178274 284.0378857307527 A 31.602564102564088 31.602564102564088 0 0 0 297.37747207570254 280.27061725922727 Z" stroke="#ffffff" stroke-width="0" opacity="1" class="highcharts-point"></path><path fill="#f29106" d="M 318.6593754332056 271.55375380174024 A 48.75824175824175 48.75824175824175 0 0 1 329.41756710448175 282.30119265685715 L 329.41756710448175 282.30119265685715 A 48.75824175824175 48.75824175824175 0 0 0 318.6593754332056 271.55375380174024 Z" stroke="#ffffff" stroke-width="0" opacity="1" class="highcharts-point"></path><path fill="#f29106" d="M 427.65360121529585 226.64576468497202 A 161.44395604395604 161.44395604395604 0 0 1 446.94547985875215 273.1546925626329 L 446.94547985875215 273.1546925626329 A 161.44395604395604 161.44395604395604 0 0 0 427.65360121529585 226.64576468497202 Z" stroke="#ffffff" stroke-width="0" opacity="1" class="highcharts-point"></path><path fill="#f29106" d="M 394.87730656596375 294.3890664968054 A 106.18461538461537 106.18461538461537 0 0 1 394.8938650580494 327.50604790864287 L 394.8938650580494 327.50604790864287 A 106.18461538461537 106.18461538461537 0 0 0 394.87730656596375 294.3890664968054 Z" stroke="#ffffff" stroke-width="0" opacity="1" class="highcharts-point"></path><path fill="#f29106" d="M 371.1255704356404 330.4765262798533 A 83.43076923076922 83.43076923076922 0 0 1 361.1799816708137 354.52129896706316 L 361.1799816708137 354.52129896706316 A 83.43076923076922 83.43076923076922 0 0 0 371.1255704356404 330.4765262798533 Z" stroke="#ffffff" stroke-width="0" opacity="1" class="highcharts-point"></path><path fill="#f29106" d="M 348.1466888403997 353.2460423052411 A 71.87326007326007 71.87326007326007 0 0 1 332.3041678613762 369.10441373178963 L 332.3041678613762 369.10441373178963 A 71.87326007326007 71.87326007326007 0 0 0 348.1466888403997 353.2460423052411 Z" stroke="#ffffff" stroke-width="0" opacity="1" class="highcharts-point"></path><path fill="#f29106" d="M 333.78116911205007 382.44437467997477 A 83.7919413919414 83.7919413919414 0 0 1 309.6423072158144 392.4571618058849 L 309.6423072158144 392.4571618058849 A 83.7919413919414 83.7919413919414 0 0 0 333.78116911205007 382.44437467997477 Z" stroke="#ffffff" stroke-width="0" opacity="1" class="highcharts-point"></path><path fill="#f29106" d="M 310.90491631354377 442.988447038798 A 133.63369963369962 133.63369963369962 0 0 1 269.22708256395237 443.009285957409 L 269.22708256395237 443.009285957409 A 133.63369963369962 133.63369963369962 0 0 0 310.90491631354377 442.988447038798 Z" stroke="#ffffff" stroke-width="0" opacity="1" class="highcharts-point"></path><path fill="#f29106" d="M 267.9518977394731 402.8369552767097 A 94.44652014652013 94.44652014652013 0 0 1 240.73238233815115 391.57820435895127 L 240.73238233815115 391.57820435895127 A 94.44652014652013 94.44652014652013 0 0 0 267.9518977394731 402.8369552767097 Z" stroke="#ffffff" stroke-width="0" opacity="1" class="highcharts-point"></path><path fill="#f29106" d="M 211.2397904761582 419.40412844114684 A 133.99487179487178 133.99487179487178 0 0 1 181.6746859573165 389.8685742541231 L 181.6746859573165 389.8685742541231 A 133.99487179487178 133.99487179487178 0 0 0 211.2397904761582 419.40412844114684 Z" stroke="#ffffff" stroke-width="0" opacity="1" class="highcharts-point"></path><path fill="#f29106" d="M 89.8325709397256 433.6627582880707 A 234.76190476190476 234.76190476190476 0 0 1 61.779503561098295 366.0323262512035 L 65.64169657775662 365.1010099607985 A 230.789010989011 230.789010989011 0 0 0 93.22001973920715 431.5869269939649 Z" stroke="#ffffff" stroke-width="0" opacity="1" class="highcharts-point"></path><path fill="#f29106" d="M 73.82432728240101 345.2388629351547 A 218.87032967032965 218.87032967032965 0 0 1 73.79019651300038 276.9773298209591 L 76.28766949057297 277.37033096164106 A 216.34212454212454 216.34212454212454 0 0 0 76.32140601016204 344.843364518412 Z" stroke="#ffffff" stroke-width="0" opacity="1" class="highcharts-point"></path><path fill="#f29106" d="M 215.19590258531872 293.0411251185763 A 76.92967032967033 76.92967032967033 0 0 1 224.3665104074318 270.86997108231793 L 224.5205796318275 270.96417302813404 A 76.74908424908426 76.74908424908426 0 0 0 215.3714990581231 293.083282101866 Z" stroke="#ffffff" stroke-width="0" opacity="1" class="highcharts-point"></path><path fill="#f29106" d="M 254.20618400528178 284.99427044024077 A 44.24358974358975 44.24358974358975 0 0 1 263.95848963307265 275.23220762741573 L 263.95848963307265 275.23220762741573 A 44.24358974358975 44.24358974358975 0 0 0 254.20618400528178 284.99427044024077 Z" stroke="#ffffff" stroke-width="0" opacity="1" class="highcharts-point"></path><path fill="#f29106" d="M 276.0353167487428 288.21170807621485 A 26.726739926739924 26.726739926739924 0 0 1 283.7347813190938 285.01797425157116 L 283.7347813190938 285.01797425157116 A 26.726739926739924 26.726739926739924 0 0 0 276.0353167487428 288.21170807621485 Z" stroke="#ffffff" stroke-width="0" opacity="1" class="highcharts-point"></path></g><g class="highcharts-markers highcharts-series-8 highcharts-column-series" data-z-index="0.1" opacity="1" transform="translate(10,10) scale(1 1)" clip-path="none"></g></g><text x="10" text-anchor="start" class="highcharts-title" data-z-index="4" style="color: rgb(51, 51, 51); font-size: 18px; fill: rgb(51, 51, 51);" y="24"></text><text x="10" text-anchor="start" class="highcharts-subtitle" data-z-index="4" style="color: rgb(102, 102, 102); fill: rgb(102, 102, 102);" y="24"></text><text x="10" text-anchor="start" class="highcharts-caption" data-z-index="4" style="color: rgb(102, 102, 102); fill: rgb(102, 102, 102);" y="697"></text><g class="highcharts-legend highcharts-no-tooltip" data-z-index="7" transform="translate(47,644)"><rect fill="none" class="highcharts-legend-box" rx="0" ry="0" stroke="#999999" stroke-width="0" x="0" y="0" width="506" height="41"></rect><g data-z-index="1"><g><g class="highcharts-legend-item highcharts-column-series highcharts-color-undefined highcharts-series-0" data-z-index="1" transform="translate(8,3)"><text x="21" text-anchor="start" data-z-index="2" y="15" style="color: rgb(51, 51, 51); cursor: pointer; font-size: 12px; font-weight: bold; fill: rgb(51, 51, 51);">0</text><rect x="2" y="4" width="12" height="12" fill="#ddd7d7" rx="6" ry="6" class="highcharts-point" data-z-index="3"></rect></g><g class="highcharts-legend-item highcharts-column-series highcharts-color-undefined highcharts-series-1" data-z-index="1" transform="translate(110.021484375,3)"><text x="21" y="15" text-anchor="start" data-z-index="2" style="color: rgb(51, 51, 51); cursor: pointer; font-size: 12px; font-weight: bold; fill: rgb(51, 51, 51);">&gt;1</text><rect x="2" y="4" width="12" height="12" fill="#a9fad3" rx="6" ry="6" class="highcharts-point" data-z-index="3"></rect></g><g class="highcharts-legend-item highcharts-column-series highcharts-color-undefined highcharts-series-2" data-z-index="1" transform="translate(212.04296875,3)"><text x="21" y="15" text-anchor="start" data-z-index="2" style="color: rgb(51, 51, 51); cursor: pointer; font-size: 12px; font-weight: bold; fill: rgb(51, 51, 51);">&gt;5</text><rect x="2" y="4" width="12" height="12" fill="#88f79f" rx="6" ry="6" class="highcharts-point" data-z-index="3"></rect></g><g class="highcharts-legend-item highcharts-column-series highcharts-color-undefined highcharts-series-3" data-z-index="1" transform="translate(314.064453125,3)"><text x="21" y="15" text-anchor="start" data-z-index="2" style="color: rgb(51, 51, 51); cursor: pointer; font-size: 12px; font-weight: bold; fill: rgb(51, 51, 51);">&gt;12</text><rect x="2" y="4" width="12" height="12" fill="#64de6a" rx="6" ry="6" class="highcharts-point" data-z-index="3"></rect></g><g class="highcharts-legend-item highcharts-column-series highcharts-color-undefined highcharts-series-4" data-z-index="1" transform="translate(416.0859375,3)"><text x="21" y="15" text-anchor="start" data-z-index="2" style="color: rgb(51, 51, 51); cursor: pointer; font-size: 12px; font-weight: bold; fill: rgb(51, 51, 51);">&gt;19</text><rect x="2" y="4" width="12" height="12" fill="#30bf1d" rx="6" ry="6" class="highcharts-point" data-z-index="3"></rect></g><g class="highcharts-legend-item highcharts-column-series highcharts-color-undefined highcharts-series-5" data-z-index="1" transform="translate(8,18)"><text x="21" y="15" text-anchor="start" data-z-index="2" style="color: rgb(51, 51, 51); cursor: pointer; font-size: 12px; font-weight: bold; fill: rgb(51, 51, 51);">&gt;28</text><rect x="2" y="4" width="12" height="12" fill="#0d955d" rx="6" ry="6" class="highcharts-point" data-z-index="3"></rect></g><g class="highcharts-legend-item highcharts-column-series highcharts-color-undefined highcharts-series-6" data-z-index="1" transform="translate(110.021484375,18)"><text x="21" y="15" text-anchor="start" data-z-index="2" style="color: rgb(51, 51, 51); cursor: pointer; font-size: 12px; font-weight: bold; fill: rgb(51, 51, 51);">&gt;38</text><rect x="2" y="4" width="12" height="12" fill="#89b307" rx="6" ry="6" class="highcharts-point" data-z-index="3"></rect></g><g class="highcharts-legend-item highcharts-column-series highcharts-color-undefined highcharts-series-7" data-z-index="1" transform="translate(212.04296875,18)"><text x="21" y="15" text-anchor="start" data-z-index="2" style="color: rgb(51, 51, 51); cursor: pointer; font-size: 12px; font-weight: bold; fill: rgb(51, 51, 51);">&gt;50</text><rect x="2" y="4" width="12" height="12" fill="#e6e416" rx="6" ry="6" class="highcharts-point" data-z-index="3"></rect></g><g class="highcharts-legend-item highcharts-column-series highcharts-color-undefined highcharts-series-8" data-z-index="1" transform="translate(314.064453125,18)"><text x="21" y="15" text-anchor="start" data-z-index="2" style="color: rgb(51, 51, 51); cursor: pointer; font-size: 12px; font-weight: bold; fill: rgb(51, 51, 51);">&gt;61 km/h</text><rect x="2" y="4" width="12" height="12" fill="#f29106" rx="6" ry="6" class="highcharts-point" data-z-index="3"></rect></g></g></g></g><g class="highcharts-axis-labels highcharts-xaxis-labels highcharts-radial-axis-labels" data-z-index="7"><text x="300" transform="translate(0,0)" style="color: rgb(102, 102, 102); cursor: default; font-size: 11px; fill: rgb(102, 102, 102);" text-anchor="middle" y="63.5" opacity="1">N</text><text x="400.071717563471" transform="translate(0,0)" style="color: rgb(102, 102, 102); cursor: default; font-size: 11px; fill: rgb(102, 102, 102);" text-anchor="start" y="83.40550224829852" opacity="1">NNE</text><text x="484.9084232802822" transform="translate(0,0)" style="color: rgb(102, 102, 102); cursor: default; font-size: 11px; fill: rgb(102, 102, 102);" text-anchor="start" y="140.09157671971784" opacity="1">NE</text><text x="541.5944977517015" transform="translate(0,0)" style="color: rgb(102, 102, 102); cursor: default; font-size: 11px; fill: rgb(102, 102, 102);" text-anchor="start" y="224.928282436529" opacity="1">ENE</text><text x="561.5" transform="translate(0,0)" style="color: rgb(102, 102, 102); cursor: default; font-size: 11px; fill: rgb(102, 102, 102);" text-anchor="start" y="325" opacity="1">E</text><text x="541.5944977517015" transform="translate(0,0)" style="color: rgb(102, 102, 102); cursor: default; font-size: 11px; fill: rgb(102, 102, 102);" text-anchor="start" y="425.071717563471" opacity="1">ESE</text><text x="484.9084232802822" transform="translate(0,0)" style="color: rgb(102, 102, 102); cursor: default; font-size: 11px; fill: rgb(102, 102, 102);" text-anchor="start" y="509.90842328028214" opacity="1">SE</text><text x="400.071717563471" transform="translate(0,0)" style="color: rgb(102, 102, 102); cursor: default; font-size: 11px; fill: rgb(102, 102, 102);" text-anchor="start" y="566.5944977517015" opacity="1">SSE</text><text x="300" transform="translate(0,0)" style="color: rgb(102, 102, 102); cursor: default; font-size: 11px; fill: rgb(102, 102, 102);" text-anchor="middle" y="586.5" opacity="1">S</text><text x="199.92828243652903" transform="translate(0,0)" style="color: rgb(102, 102, 102); cursor: default; font-size: 11px; fill: rgb(102, 102, 102);" text-anchor="end" y="566.5944977517015" opacity="1">SSW</text><text x="115.09157671971784" transform="translate(0,0)" style="color: rgb(102, 102, 102); cursor: default; font-size: 11px; fill: rgb(102, 102, 102);" text-anchor="end" y="509.9084232802822" opacity="1">SW</text><text x="58.405502248298575" transform="translate(0,0)" style="color: rgb(102, 102, 102); cursor: default; font-size: 11px; fill: rgb(102, 102, 102);" text-anchor="end" y="425.0717175634711" opacity="1">WSW</text><text x="38.5" transform="translate(0,0)" style="color: rgb(102, 102, 102); cursor: default; font-size: 11px; fill: rgb(102, 102, 102);" text-anchor="end" y="325.00000000000006" opacity="1">W</text><text x="58.405502248298546" transform="translate(0,0)" style="color: rgb(102, 102, 102); cursor: default; font-size: 11px; fill: rgb(102, 102, 102);" text-anchor="end" y="224.92828243652895" opacity="1">WNW</text><text x="115.09157671971778" transform="translate(0,0)" style="color: rgb(102, 102, 102); cursor: default; font-size: 11px; fill: rgb(102, 102, 102);" text-anchor="end" y="140.09157671971784" opacity="1">NW</text><text x="199.9282824365289" transform="translate(0,0)" style="color: rgb(102, 102, 102); cursor: default; font-size: 11px; fill: rgb(102, 102, 102);" text-anchor="end" y="83.40550224829857" opacity="1">NNW</text><text x="0" transform="translate(0,0)" style="color: rgb(102, 102, 102); cursor: default; font-size: 11px; fill: rgb(102, 102, 102);" text-anchor="middle" visibility="hidden">16</text></g><g class="highcharts-axis-labels highcharts-yaxis-labels highcharts-radial-axis-labels" data-z-index="7"><text x="297" text-anchor="end" transform="translate(0,0)" style="color: rgb(102, 102, 102); cursor: default; font-size: 11px; fill: rgb(102, 102, 102);" y="319" opacity="1">0</text><text x="297" text-anchor="end" transform="translate(0,0)" style="color: rgb(102, 102, 102); cursor: default; font-size: 11px; fill: rgb(102, 102, 102);" y="228.7069597069597" opacity="1">500</text><text x="297" text-anchor="end" transform="translate(0,0)" style="color: rgb(102, 102, 102); cursor: default; font-size: 11px; fill: rgb(102, 102, 102);" y="138.41391941391942" opacity="1">1000</text></g><text x="560" class="highcharts-credits" text-anchor="end" data-z-index="8" y="690" style="cursor: pointer; color: rgb(153, 153, 153); font: 12px meteoblue, sans-serif; fill: rgb(153, 153, 153);">meteoblue</text><g class="highcharts-control-points" data-z-index="99" clip-path="url(#highcharts-uc5pwyd-817-)"></g></svg>